<svg id="Capa_1" enable-background="new 0 0 512 512" height="512" viewBox="0 0 512 512" width="512" xmlns="http://www.w3.org/2000/svg"><circle id="XMLID_2603_" cx="160" cy="109" fill="#d8ec84" r="32"/><circle id="XMLID_2602_" cx="224" cy="109" fill="#d8ec84" r="32"/><circle id="XMLID_2601_" cx="160" cy="213" fill="#f6838d" r="32"/><circle id="XMLID_2600_" cx="352.127" cy="213" fill="#f6838d" r="32"/><circle id="XMLID_2599_" cx="288.127" cy="317" fill="#91def5" r="32"/><circle id="XMLID_2598_" cx="352.127" cy="317" fill="#91def5" r="32"/><g fill="#ffcb7c"><path id="XMLID_1183_" d="m10 403h492v72h-492z"/><path id="XMLID_1182_" d="m58 403h-40v-346c0-11.046 8.954-20 20-20 11.046 0 20 8.954 20 20z"/><path id="XMLID_1181_" d="m494 403h-40v-346c0-11.046 8.954-20 20-20 11.046 0 20 8.954 20 20z"/></g><path id="XMLID_917_" d="m504 393.201v-336.201c0-16.542-13.458-30-30-30s-30 13.458-30 30v42h-179.212c-4.499-18.345-21.075-32-40.788-32-12.809 0-24.29 5.771-32 14.841-7.71-9.07-19.191-14.841-32-14.841-19.713 0-36.289 13.655-40.788 32h-51.212v-42c0-16.542-13.458-30-30-30s-30 13.458-30 30v336.201c-4.564.927-8 4.962-8 9.799v72c0 5.522 4.478 10 10 10h492c5.522 0 10-4.478 10-10v-72c0-4.837-3.436-8.872-8-9.799zm-40-336.201c0-5.514 4.486-10 10-10s10 4.486 10 10v336h-20zm-71.085 250c-4.499-18.345-21.074-32-40.788-32-12.809 0-24.29 5.771-32 14.841-7.71-9.07-19.191-14.841-32-14.841-19.713 0-36.289 13.655-40.788 32h-179.339v-84h51.212c4.499 18.345 21.074 32 40.788 32s36.289-13.655 40.788-32h110.552c4.499 18.345 21.074 32 40.788 32s36.289-13.655 40.788-32h51.084v84zm-18.788 10c0 12.131-9.869 22-22 22s-22-9.869-22-22 9.869-22 22-22 22 9.869 22 22zm-64 0c0 12.131-9.869 22-22 22s-22-9.869-22-22 9.869-22 22-22 22 9.869 22 22zm-172.127-104c0-12.131 9.869-22 22-22s22 9.869 22 22-9.869 22-22 22-22-9.869-22-22zm192.172-1.339c.694-11.509 10.274-20.661 21.955-20.661 12.131 0 22 9.869 22 22s-9.869 22-22 22c-11.681 0-21.26-9.152-21.955-20.661.059-.439.1-.884.1-1.339s-.042-.9-.1-1.339zm-106.172-124.661c12.131 0 22 9.869 22 22s-9.869 22-22 22-22-9.869-22-22 9.869-22 22-22zm-64 0c12.131 0 22 9.869 22 22s-9.869 22-22 22-22-9.869-22-22 9.869-22 22-22zm-40.788 32c4.499 18.345 21.074 32 40.788 32 12.809 0 24.29-5.771 32-14.841 7.71 9.07 19.191 14.841 32 14.841 19.713 0 36.289-13.655 40.788-32h179.212v84h-51.085c-4.499-18.345-21.074-32-40.788-32s-36.289 13.655-40.788 32h-110.551c-4.499-18.345-21.074-32-40.788-32s-36.289 13.655-40.788 32h-51.212v-84zm-91.212-62c0-5.514 4.486-10 10-10s10 4.486 10 10v336h-20zm464 408h-472v-52h191c5.522 0 10-4.478 10-10s-4.478-10-10-10h-143v-66h179.339c4.499 18.345 21.074 32 40.788 32 12.809 0 24.29-5.771 32-14.841 7.71 9.07 19.191 14.841 32 14.841 19.713 0 36.289-13.655 40.788-32h51.085v66h-143c-5.522 0-10 4.478-10 10s4.478 10 10 10h191z"/><path id="XMLID_1219_" d="m256 393c-2.641 0-5.21 1.069-7.07 2.93s-2.93 4.44-2.93 7.07 1.069 5.21 2.93 7.069c1.86 1.86 4.44 2.931 7.07 2.931s5.21-1.07 7.069-2.931c1.861-1.859 2.931-4.439 2.931-7.069s-1.07-5.21-2.931-7.07c-1.859-1.861-4.439-2.93-7.069-2.93z"/></svg>