<?xml version="1.0" encoding="iso-8859-1"?>
<!-- Generator: Adobe Illustrator 19.0.0, SVG Export Plug-In . SVG Version: 6.00 Build 0)  -->
<svg version="1.1" id="Capa_1" xmlns="http://www.w3.org/2000/svg" xmlns:xlink="http://www.w3.org/1999/xlink" x="0px" y="0px"
	 viewBox="0 0 512 512" style="enable-background:new 0 0 512 512;" xml:space="preserve">
<path style="fill:#FF5D5D;" d="M396,204h-48c-28.719,0-52,23.281-52,52l0,0c0,28.719,23.281,52,52,52h48c28.719,0,52-23.281,52-52
	l0,0C448,227.281,424.719,204,396,204z"/>
<path style="fill:#FFB954;" d="M116,475h48c28.719,0,52-23.281,52-52l0,0c0-28.719-23.281-52-52-52h-48c-28.719,0-52,23.281-52,52
	l0,0C64,451.719,87.281,475,116,475z"/>
<path style="fill:#62CD4D;" d="M116,141h48c28.719,0,52-23.281,52-52l0,0c0-28.719-23.281-52-52-52h-48c-28.719,0-52,23.281-52,52
	l0,0C64,117.719,87.281,141,116,141z"/>
<path d="M502,413.127H225.205C220.461,383.617,194.826,361,164,361h-48c-30.826,0-56.461,22.617-61.205,52.127H10
	c-5.522,0-10,4.477-10,10s4.478,10,10,10h44.841C59.691,462.512,85.263,485,116,485h48c30.737,0,56.309-22.488,61.159-51.873H502
	c5.522,0,10-4.477,10-10S507.522,413.127,502,413.127z M164,465h-48c-23.159,0-42-18.841-42-42s18.841-42,42-42h48
	c23.159,0,42,18.841,42,42S187.159,465,164,465z"/>
<path d="M395.997,99.127H502c5.522,0,10-4.477,10-10s-4.478-10-10-10H395.997c-5.522,0-10,4.477-10,10
	S390.475,99.127,395.997,99.127z"/>
<path d="M356.149,99.13c2.631,0,5.21-1.07,7.07-2.93c1.86-1.86,2.93-4.44,2.93-7.07s-1.069-5.21-2.93-7.07
	c-1.86-1.87-4.439-2.93-7.07-2.93c-2.63,0-5.21,1.06-7.069,2.93c-1.87,1.86-2.931,4.44-2.931,7.07s1.061,5.21,2.931,7.07
	C350.939,98.06,353.52,99.13,356.149,99.13z"/>
<path d="M10,99.127h44.841C59.691,128.512,85.263,151,116,151h48c30.737,0,56.309-22.488,61.159-51.873H316c5.522,0,10-4.477,10-10
	s-4.478-10-10-10h-90.795C220.461,49.617,194.826,27,164,27h-48c-30.826,0-56.461,22.617-61.205,52.127H10c-5.522,0-10,4.477-10,10
	S4.478,99.127,10,99.127z M116,47h48c23.159,0,42,18.841,42,42s-18.841,42-42,42h-48c-23.159,0-42-18.841-42-42S92.841,47,116,47z"
	/>
<path d="M247.76,248.93c-1.86,1.86-2.93,4.44-2.93,7.07s1.069,5.21,2.93,7.07s4.44,2.93,7.07,2.93c2.63,0,5.21-1.07,7.069-2.93
	c1.86-1.86,2.931-4.44,2.931-7.07s-1.07-5.21-2.931-7.07c-1.859-1.86-4.439-2.93-7.069-2.93S249.62,247.07,247.76,248.93z"/>
<path d="M10,266h208c5.522,0,10-4.477,10-10s-4.478-10-10-10H10c-5.522,0-10,4.477-10,10C0,261.523,4.478,266,10,266z"/>
<path d="M502,246h-44.818c-4.797-29.447-30.4-52-61.182-52h-48c-34.187,0-62,27.813-62,62s27.813,62,62,62h48
	c30.782,0,56.385-22.553,61.182-52H502c5.522,0,10-4.477,10-10S507.522,246,502,246z M396,298h-48c-23.159,0-42-18.841-42-42
	s18.841-42,42-42h48c23.159,0,42,18.841,42,42S419.159,298,396,298z"/>
<g>
</g>
<g>
</g>
<g>
</g>
<g>
</g>
<g>
</g>
<g>
</g>
<g>
</g>
<g>
</g>
<g>
</g>
<g>
</g>
<g>
</g>
<g>
</g>
<g>
</g>
<g>
</g>
<g>
</g>
</svg>
