<svg id="Capa_1" enable-background="new 0 0 512.002 512.002" height="512" viewBox="0 0 512.002 512.002" width="512" xmlns="http://www.w3.org/2000/svg"><g><g><g><path d="m502.002 194.837c0 53.71-42.45 99.58-94.98 105.15h-10.03c0-.35.02-47.11 0-47.46-.54-10.13-8.9-18.56-19.09-19.09-.35-.02-.69-.03-1.04-.03h-254.03c-11.14 0-20.162 9.03-20.162 20.16v46.42h-11.938c-43.96 0-80.4-34.59-80.73-78.55-.33-44.31 35.49-80.33 79.72-80.33 2.67 0 5.3.15 7.89.4 5.795-55.319 45.125-103.563 97.95-120.83 14.06-4.61 29.08-7.1 44.69-7.1 15.16 0 29.77 2.35 43.48 6.72 36.56 11.556 67.683 38.236 84.82 72.51 8.83-2.4 18.14-3.69 27.73-3.69 56.98 0 105.72 48.88 105.72 105.72z" fill="#f9f5f3"/></g><g><g><path d="m396.992 253.567c0-11.133-8.99-20.158-20.124-20.158h-254.04c-11.133 0-20.158 9.025-20.158 20.158v46.42h294.322z" fill="#ff7e96"/></g><g><path d="m102.67 299.987v178.268c0 11.133 9.025 20.158 20.158 20.158h254.041c11.133 0 20.158-9.025 20.158-20.158l-.035-178.268z" fill="#e0e7ef"/></g></g><g><g><path d="m378.577 233.407h-82.117c0-25.155-20.4-45.555-45.555-45.555-25.167 0-45.555 20.4-45.555 45.555h-82.128c0-16.049 2.961-31.402 8.378-45.544 14.647 7.996 33.309 4.082 43.402-9.779 10.094-13.839 8.109-32.793-3.97-44.288 13.492-10.834 29.238-18.987 46.419-23.619 2.164 16.542 16.307 29.305 33.454 29.305 17.137 0 31.29-12.774 33.443-29.316 17.181 4.643 32.916 12.796 46.419 23.63-12.079 11.495-14.052 30.449-3.97 44.288 10.094 13.862 28.755 17.776 43.402 9.779 5.417 14.142 8.378 29.495 8.378 45.544z" fill="#b7bcce"/></g></g></g><path d="m396.282 79.117c-7.584 0-15.132.74-22.53 2.205-18.841-33.125-50.128-58.611-86.937-70.539-5.259-1.704-10.895 1.177-12.596 6.431-1.703 5.254 1.176 10.893 6.43 12.596 34.298 11.114 63.077 35.705 78.958 67.469 2.13 4.259 6.966 6.429 11.567 5.178 8.153-2.216 16.602-3.34 25.107-3.34 24.509 0 48.985 10.429 67.153 28.613 18.154 18.171 28.566 42.63 28.566 67.107 0 23.356-8.945 46.049-25.188 63.897-15.905 17.478-37.112 28.529-59.818 31.194.013-37.381.002-37.581-.017-37.906-.606-12.003-8.107-22.071-18.626-26.37-.788-14.226-3.738-28.108-8.816-41.366-1.031-2.694-3.177-4.811-5.884-5.808-2.709-.997-5.714-.775-8.246.607-10.408 5.682-23.531 2.719-30.527-6.89-6.993-9.598-5.797-22.992 2.781-31.156 2.09-1.989 3.219-4.784 3.097-7.666s-1.482-5.572-3.733-7.377c-14.907-11.96-31.752-20.535-50.068-25.484-2.783-.752-5.761-.265-8.161 1.337s-3.991 4.164-4.363 7.025c-1.529 11.748-11.644 20.607-23.527 20.607s-22.002-8.857-23.539-20.603c-.374-2.859-1.964-5.418-4.363-7.019-2.398-1.603-5.372-2.089-8.156-1.339-18.33 4.941-35.179 13.513-50.078 25.477-2.249 1.806-3.609 4.495-3.73 7.377s1.008 5.676 3.097 7.664c8.583 8.168 9.78 21.561 2.78 31.158-6.996 9.608-20.12 12.57-30.526 6.889-2.532-1.382-5.538-1.604-8.246-.608-2.708.997-4.853 3.114-5.885 5.808-4.989 13.025-7.925 26.65-8.774 40.61-12.253 4.003-20.818 15.77-20.818 28.671v36.42h-1.938c-18.755 0-36.434-7.097-49.78-19.983-13.372-12.912-20.812-30.186-20.951-48.641-.139-18.73 7.047-36.362 20.235-49.648 13.189-13.289 30.764-20.607 49.486-20.607 2.197 0 4.464.116 6.93.354 5.458.527 10.334-3.45 10.906-8.912 5.446-51.957 42.549-97.273 92.329-112.764 5.273-1.641 8.218-7.246 6.577-12.52-1.641-5.273-7.245-8.217-12.52-6.577-54.291 16.895-95.482 64.603-104.988 120.422-23.803.199-46.119 9.597-62.911 26.514-16.971 17.098-26.218 39.787-26.038 63.888.179 23.873 9.788 46.204 27.057 62.878 17.094 16.506 39.707 25.596 63.672 25.596h1.938v168.268c0 16.629 13.529 30.158 30.158 30.158h254.041c16.629 0 30.158-13.529 30.158-30.16l-.032-168.266h.028c.353 0 .704-.019 1.055-.056 58.275-6.179 103.925-56.734 103.925-115.094 0-29.738-12.545-59.35-34.418-81.243-21.892-21.909-51.525-34.476-81.303-34.476zm-283.518 173.14c.647-4.991 5.032-8.848 10.064-8.848h254.041c5.511 0 10.124 4.647 10.124 10.158v36.42h-274.323s.038-37.3.094-37.73zm104.027-28.85c4.332-14.751 17.981-25.556 34.114-25.556s29.782 10.805 34.114 25.556zm-78.998-22.581c16.719 3.876 34.771-2.406 45.289-16.85 10.523-14.428 10.979-33.531 2.177-48.256 7.928-5.351 16.411-9.669 25.361-12.914 6.708 15.788 22.415 26.676 40.285 26.676 17.872 0 33.574-10.89 40.278-26.679 8.946 3.249 17.425 7.569 25.356 12.92-8.792 14.72-8.338 33.818 2.174 48.247 10.521 14.45 28.577 20.732 45.293 16.856 2.121 7.355 3.51 14.904 4.153 22.582h-62.601c-4.722-25.879-27.433-45.556-54.654-45.556s-49.932 19.677-54.654 45.556h-62.612c.645-7.678 2.034-15.226 4.155-22.582zm239.075 287.587h-254.04c-5.601 0-10.158-4.557-10.158-10.158v-168.268h274.325l.032 168.268c-.001 5.601-4.557 10.158-10.159 10.158z"/><path d="m131.891 270.354c3.498 8.533 16.123 7.828 18.79-.92 2.583-8.472-6.82-15.931-14.485-11.591-4.33 2.451-6.222 7.91-4.305 12.511z"/><path d="m171.861 274.843c3.527 2.354 8.269 2.196 11.634-.377 3.43-2.622 4.784-7.3 3.31-11.351-3.046-8.369-15.207-8.653-18.626-.406-1.793 4.325-.258 9.556 3.682 12.134z"/><path d="m193.296 351.665c-.035-.091-.07-.183-.107-.273-1.873-4.552-6.244-7.475-11.184-7.485-4.921.005-9.305 2.952-11.168 7.507-.031.075-.061.15-.089.226l-34.454 90.463c-1.966 5.161.625 10.938 5.786 12.904 5.162 1.966 10.938-.625 12.904-5.786l6.128-16.089h41.553l6.061 16.061c1.924 5.098 7.783 7.75 12.887 5.825 5.167-1.95 7.775-7.72 5.825-12.887zm-24.568 61.467 13.254-34.801 13.133 34.801z"/><path d="m348.118 343.907c-5.522 0-10 4.477-10 10v91.755c0 5.523 4.478 10 10 10s10-4.477 10-10v-91.755c0-5.523-4.477-10-10-10z"/><path d="m283.047 343.907h-25.549c-5.442 0-10 4.558-10 10v91.755c0 5.523 4.477 10 10 10 5.522 0 10-4.477 10-10v-29.91c5.509-.029 11.984-.059 15.549-.059 20.071 0 36.4-16.102 36.4-35.893 0-19.792-16.329-35.893-36.4-35.893zm0 51.786c-3.551 0-9.94.029-15.427.058-.029-5.663-.076-25.938-.093-31.844h15.52c8.89 0 16.4 7.278 16.4 15.894 0 8.614-7.51 15.892-16.4 15.892z"/><path d="m248.571 8.023c-2.382-3.539-6.863-5.222-10.984-4.08-4.033 1.118-6.981 4.729-7.304 8.896-.686 8.858 10.234 14.056 16.73 8.106 3.59-3.288 4.254-8.876 1.558-12.922z"/></g></svg>