<svg id="Capa_1" enable-background="new 0 0 511.962 511.962" height="512" viewBox="0 0 511.962 511.962" width="512" xmlns="http://www.w3.org/2000/svg"><path id="XMLID_1647_" d="m117.981 501.962v-491.962h296l64 63.962v428z" fill="#eff3f3"/><path id="XMLID_1646_" d="m413.981 9.962v64h64z" fill="#ffe6c0"/><path id="XMLID_2854_" d="m337.981 341.962h-264c-22.091 0-40 17.909-40 40v80c0 22.091 17.909 40 40 40h264c22.091 0 40-17.909 40-40v-80c0-22.091-17.909-40-40-40z" fill="#d8ec84"/><path id="XMLID_2208_" d="m297.981 93.948c-53.569 0-96.995 43.426-96.995 96.995v97.019h193.99v-97.019c0-53.569-43.426-96.995-96.995-96.995z" fill="#e2f1a1"/><path id="XMLID_1046_" d="m485.05 66.889-64-63.962c-1.875-1.874-4.418-2.927-7.069-2.927h-296c-5.523 0-10 4.478-10 10v321.962h-34c-27.57 0-50 22.43-50 50v80c0 27.57 22.43 50 50 50h264 140c5.523 0 10-4.478 10-10v-200.873c0-5.522-4.477-10-10-10s-10 4.478-10 10v190.873h-90.027c6.292-8.363 10.027-18.752 10.027-30v-80c0-27.57-22.43-50-50-50h-210v-311.962h276v53.962c0 5.523 4.477 10 10 10h54v127.127c0 5.522 4.477 10 10 10s10-4.478 10-10v-137.127c0-2.653-1.054-5.197-2.931-7.073zm-117.069 315.073v80c0 16.542-13.458 30-30 30h-264c-16.542 0-30-13.458-30-30v-80c0-16.542 13.458-30 30-30h264c16.542 0 30 13.458 30 30zm56-347.83 29.848 29.83h-29.848z"/><path id="XMLID_1426_" d="m477.981 246.092c-2.63 0-5.21 1.06-7.07 2.93-1.86 1.86-2.93 4.431-2.93 7.07 0 2.63 1.07 5.21 2.93 7.07 1.86 1.859 4.44 2.93 7.07 2.93s5.21-1.07 7.07-2.93 2.93-4.44 2.93-7.07-1.07-5.21-2.93-7.07c-1.86-1.871-4.44-2.93-7.07-2.93z"/><path id="XMLID_1556_" d="m113.674 378.545-29.091 80c-1.887 5.189.79 10.928 5.98 12.814 1.128.411 2.282.605 3.417.605 4.086 0 7.922-2.523 9.399-6.586l2.697-7.417h39.249l3.49 7.999c2.208 5.063 8.103 7.375 13.165 5.166 5.062-2.208 7.375-8.103 5.166-13.164l-6.049-13.862c-.011-.027-.023-.053-.035-.08l-28.825-66.058c-1.636-3.75-5.396-6.1-9.479-5.996-4.088.129-7.686 2.734-9.084 6.579zm10.243 30.356 12.681 29.061h-23.249z"/><path id="XMLID_1557_" d="m271.981 421.967v39.995c0 5.522 4.477 10 10 10s10-4.478 10-10v-15.857l22.929 22.929c1.953 1.952 4.512 2.929 7.071 2.929s5.119-.977 7.071-2.929c3.905-3.905 3.905-10.237 0-14.143l-32.929-32.929 32.929-32.929c3.905-3.905 3.905-10.237 0-14.143-3.905-3.904-10.237-3.904-14.143 0l-22.929 22.929v-15.857c0-5.522-4.477-10-10-10s-10 4.478-10 10v39.995c.001.003.001.007.001.01z"/><path id="XMLID_1580_" d="m197.981 471.962c5.523 0 10-4.478 10-10v-30h14c16.542 0 30-13.458 30-30s-13.458-30-30-30h-24c-5.523 0-10 4.478-10 10v23.908 16.092 40c0 5.522 4.477 10 10 10zm10-80h14c5.514 0 10 4.486 10 10s-4.486 10-10 10h-14v-6.092z"/><path id="XMLID_1584_" d="m190.986 287.962c0 5.522 4.477 10 10 10h193.989c5.523 0 10-4.478 10-10v-97.019c0-26.413-9.626-50.617-25.546-69.301l11.29-11.29c3.905-3.906 3.905-10.237 0-14.143-3.905-3.904-10.237-3.904-14.142 0l-11.477 11.477c-18.369-14.838-41.723-23.738-67.12-23.738s-48.751 8.9-67.12 23.738l-11.474-11.476c-3.904-3.903-10.237-3.904-14.142 0-3.905 3.905-3.906 10.236 0 14.143l11.29 11.29c-15.921 18.684-25.546 42.887-25.546 69.301v97.018zm20-10v-62.014h173.989v62.014zm86.995-174.014c47.969 0 86.995 39.025 86.995 86.995v5.005h-173.99v-5.005c0-47.969 39.026-86.995 86.995-86.995z"/><path id="XMLID_1586_" d="m333.651 167.952c2.63 0 5.2-1.07 7.07-2.931 1.86-1.859 2.93-4.439 2.93-7.08 0-2.63-1.07-5.199-2.93-7.06-1.86-1.87-4.44-2.93-7.07-2.93-2.64 0-5.21 1.06-7.07 2.93-1.87 1.85-2.93 4.43-2.93 7.06 0 2.641 1.06 5.221 2.93 7.08 1.86 1.861 4.44 2.931 7.07 2.931z"/><path id="XMLID_1587_" d="m262.311 167.952c2.63 0 5.21-1.07 7.08-2.931 1.86-1.87 2.92-4.439 2.92-7.08 0-2.62-1.06-5.199-2.92-7.06-1.87-1.87-4.44-2.93-7.08-2.93-2.63 0-5.21 1.06-7.07 2.93-1.86 1.86-2.93 4.43-2.93 7.06 0 2.641 1.07 5.221 2.93 7.08 1.87 1.861 4.44 2.931 7.07 2.931z"/></svg>