<svg id="Capa_1" enable-background="new 0 0 512 512" viewBox="0 0 512 512" xmlns="http://www.w3.org/2000/svg"><g><g><path d="m316.588 14.379 75.033 75.033v15.588h-95.621v-90.621z" fill="#fff"/><path d="m36 10h270c8.284 0 15 6.716 15 15v60h60c8.284 0 15 6.716 15 15v402h-360z" fill="#fff"/><circle cx="151" cy="87" fill="#ffdcd5" r="35"/><path d="m151 122c-35.898 0-65 29.102-65 65h130c0-35.898-29.102-65-65-65z" fill="#ffda8f"/><circle cx="386" cy="412" fill="#99ebfa" r="90"/></g><g><path d="m430.571 374.16c-3.905-3.905-10.237-3.905-14.142 0l-54.468 54.467-11.39-11.39c-3.905-3.905-10.237-3.905-14.142 0s-3.905 10.237 0 14.142l18.461 18.461c3.905 3.905 10.237 3.905 14.142 0l61.539-61.538c3.905-3.905 3.905-10.237 0-14.142z"/><path d="m76 187c0 5.523 4.477 10 10 10h130c5.523 0 10-4.477 10-10 0-30.067-17.784-56.058-43.386-68.007 8.26-8.163 13.386-19.49 13.386-31.993 0-24.813-20.187-45-45-45s-45 20.187-45 45c0 12.503 5.126 23.83 13.386 31.993-25.602 11.949-43.386 37.94-43.386 68.007zm75-125c13.785 0 25 11.215 25 25s-11.215 25-25 25-25-11.215-25-25 11.215-25 25-25zm0 70c26.914 0 49.374 19.43 54.089 45h-108.178c4.715-25.57 27.175-45 54.089-45z"/><path d="m266 157h80c5.523 0 10-4.477 10-10s-4.477-10-10-10h-80c-5.523 0-10 4.477-10 10s4.477 10 10 10z"/><path d="m266 197h80c5.523 0 10-4.477 10-10s-4.477-10-10-10h-80c-5.523 0-10 4.477-10 10s4.477 10 10 10z"/><path d="m86 237h260c5.523 0 10-4.477 10-10s-4.477-10-10-10h-260c-5.523 0-10 4.477-10 10s4.477 10 10 10z"/><path d="m86 277h260c5.523 0 10-4.477 10-10s-4.477-10-10-10h-260c-5.523 0-10 4.477-10 10s4.477 10 10 10z"/><path d="m86 317h110c5.523 0 10-4.477 10-10s-4.477-10-10-10h-110c-5.523 0-10 4.477-10 10s4.477 10 10 10z"/><path d="m86 432h110c5.523 0 10-4.477 10-10s-4.477-10-10-10h-110c-5.523 0-10 4.477-10 10s4.477 10 10 10z"/><path d="m406 314.009v-214.009c0-6.686-2.638-12.768-6.929-17.258-.122-.136-75.68-75.694-75.818-75.818-4.49-4.288-10.569-6.924-17.253-6.924h-270c-5.523 0-10 4.477-10 10v202c0 5.523 4.477 10 10 10s10-4.477 10-10v-192h260c1.366 0 2.607.551 3.51 1.443.002.002.004.005.007.007l.048.048c.887.902 1.435 2.139 1.435 3.502v60c0 5.523 4.477 10 10 10h60c1.363 0 2.6.548 3.503 1.436l.047.047c.002.002.005.005.007.007.892.903 1.443 2.143 1.443 3.51v212c-55.14 0-100 44.86-100 100 0 32.675 15.753 61.74 40.064 80h-280.064v-190c0-5.523-4.477-10-10-10s-10 4.477-10 10v200c0 5.523 4.477 10 10 10h350c55.14 0 100-44.86 100-100 0-48.293-34.41-88.7-80-97.991zm-75-239.009v-32.067l32.067 32.067zm55 417c-44.112 0-80-35.888-80-80s35.888-80 80-80 80 35.888 80 80-35.888 80-80 80z"/><circle cx="36" cy="257" r="10"/></g></g><g/><g/><g/><g/><g/><g/><g/><g/><g/><g/><g/><g/><g/><g/><g/></svg>