<svg id="Capa_1" enable-background="new 0 0 512 512" height="512" viewBox="0 0 512 512" width="512" xmlns="http://www.w3.org/2000/svg"><g><g><path d="m39.318 289.703c-8.334 0-16.609-3.546-22.388-10.426-10.38-12.357-8.777-30.788 3.579-41.167l72.23-60.675c10.867-9.128 26.722-9.128 37.588 0l53.434 44.887 53.436-44.888c10.866-9.127 26.721-9.128 37.587 0l53.44 44.889 53.443-44.889c10.866-9.127 26.72-9.127 37.586 0l72.236 60.675c12.357 10.379 13.96 28.81 3.581 41.167s-28.811 13.96-41.167 3.581l-53.443-44.89-53.443 44.89c-10.867 9.127-26.721 9.128-37.587 0l-53.439-44.888-53.437 44.888c-10.867 9.129-26.722 9.128-37.589 0l-53.434-44.887-53.436 44.887c-5.474 4.599-12.144 6.846-18.777 6.846z" fill="#ffc5dd"/><path d="m37.91 456.124c-8.334 0-10.569 1.607-16.348-5.274-10.38-12.356-8.888-27.775-1.582-35.333l3.788-5.511 68.972-57.938c10.867-9.13 26.722-9.128 37.588 0l53.434 44.887 53.436-44.887c10.866-9.128 26.721-9.129 37.587 0l53.44 44.889 53.443-44.889c10.866-9.127 26.72-9.127 37.586 0l57.373 48.19 12.709 19.214c12.357 10.379 10.643 17.967.264 30.324s-23.504 12.752-35.861 2.373l-54.846-45.354-51.802 41.399c-10.867 9.127-26.721 9.127-37.587 0l-53.504-41.399-53.67 39.816c-10.867 9.128-26.722 9.127-37.589 0l-54.055-40.344-53.998 42.989c-5.475 4.601-12.146 6.848-18.778 6.848z" fill="#ffc5dd"/><path d="m39.318 464.336c6.632 0 13.303-2.247 18.779-6.847l53.436-44.887 53.434 44.887c10.867 9.128 26.722 9.128 37.589 0l53.437-44.888 53.439 44.888c10.865 9.128 26.72 9.127 37.586.001l53.443-44.89 53.443 44.89c12.357 10.379 30.789 8.775 41.167-3.581 10.379-12.357 8.776-30.788-3.581-41.167l-14.864-12.485c1.364 2.618 1.52 4.566 1.275 6.72-.548 5.397-2.718 10.688-6.58 15.098-9.782 11.17-26.907 12.045-38.276 2.495l-43.52-36.555c-3.226-2.709-7.932-2.709-11.158 0l-43.988 36.947c-10.078 8.465-24.782 8.465-34.86 0l-43.983-36.945c-3.226-2.71-7.932-2.71-11.158 0l-43.982 36.945c-10.078 8.466-24.784 8.465-34.862 0l-43.979-36.944c-3.226-2.71-7.933-2.71-11.159 0l-43.98 36.944c-5.079 4.267-11.265 6.35-17.417 6.35-7.729 0-15.404-3.288-20.764-9.67-1.665-1.982-2.99-4.135-3.996-6.387-.5-1.387-.661-3.237-.474-5.251l-3.258 2.737c-12.355 10.381-13.957 28.813-3.577 41.169 5.779 6.881 14.054 10.426 22.388 10.426z" fill="#ff94de"/></g><g fill="#4e0325"><path d="m39.318 299.783c9.222 0 18.194-3.271 25.263-9.209l46.952-39.441 46.951 39.441c7.325 6.153 16.3 9.229 25.278 9.229 8.976-.001 17.955-3.077 25.277-9.228l46.954-39.442 46.955 39.441c14.645 12.304 35.905 12.304 50.554.001l46.96-39.444 46.96 39.444c16.594 13.938 41.431 11.777 55.368-4.816 6.752-8.038 9.969-18.224 9.059-28.682-.909-10.458-5.837-19.936-13.875-26.687l-72.236-60.675c-14.645-12.302-35.905-12.302-50.552 0l-46.96 39.444-46.956-39.443c-14.646-12.301-35.906-12.303-50.555.001l-46.953 39.442-46.951-39.442c-14.646-12.302-35.908-12.303-50.555.001l-72.23 60.675c-8.038 6.752-12.965 16.23-13.875 26.687-.909 10.458 2.309 20.644 9.061 28.681 7.484 8.91 18.458 14.022 30.106 14.022zm-19.083-40.958c.443-5.093 2.842-9.709 6.757-12.997l72.23-60.675c7.134-5.993 17.489-5.992 24.622-.001l53.434 44.888c3.749 3.15 9.218 3.15 12.967 0l53.436-44.888c7.134-5.993 17.488-5.993 24.622 0l53.44 44.889c3.748 3.148 9.217 3.149 12.966 0l53.443-44.889c7.133-5.992 17.487-5.992 24.62 0l72.236 60.675c3.915 3.288 6.315 7.904 6.758 12.997s-1.124 10.054-4.412 13.969c-6.788 8.081-18.884 9.133-26.966 2.346l-53.443-44.89c-3.748-3.149-9.217-3.149-12.966 0l-53.443 44.89c-7.134 5.992-17.488 5.992-24.621-.001l-53.439-44.888c-3.748-3.149-9.217-3.148-12.966 0l-53.438 44.889c-7.133 5.991-17.487 5.992-24.621-.001l-53.434-44.887c-1.875-1.575-4.179-2.362-6.483-2.362s-4.609.787-6.483 2.362l-53.436 44.887c-3.443 2.893-7.809 4.485-12.295 4.485-5.677 0-11.024-2.489-14.67-6.83-3.291-3.915-4.858-8.875-4.415-13.968z"/><path d="m497.973 405.024-72.236-60.675c-14.645-12.302-35.905-12.302-50.552 0l-46.96 39.444-46.956-39.443c-14.646-12.302-35.907-12.303-50.555.001l-46.953 39.441-46.951-39.441c-14.648-12.303-35.91-12.304-50.555 0l-72.23 60.675c-8.038 6.752-12.965 16.23-13.875 26.688-.909 10.458 2.309 20.644 9.061 28.681 7.485 8.911 18.458 14.023 30.107 14.023 9.222 0 18.194-3.271 25.263-9.209l46.952-39.441 46.951 39.441c7.325 6.153 16.3 9.229 25.278 9.228 8.976-.001 17.954-3.077 25.277-9.227l46.954-39.442 46.956 39.442c14.644 12.303 35.905 12.304 50.553.001l46.96-39.444 46.96 39.444c8.038 6.751 18.225 9.968 28.682 9.059 10.458-.91 19.935-5.838 26.686-13.875 6.752-8.038 9.969-18.224 9.059-28.682-.91-10.46-5.837-19.938-13.876-26.689zm-10.62 42.402c-3.288 3.915-7.904 6.315-12.997 6.758-5.09.444-10.054-1.124-13.969-4.412l-53.443-44.89c-3.748-3.149-9.217-3.149-12.966 0l-53.443 44.89c-7.134 5.99-17.488 5.992-24.621 0l-53.439-44.888c-3.748-3.149-9.218-3.148-12.966 0l-53.437 44.889c-7.133 5.992-17.488 5.991-24.621 0l-53.434-44.887c-1.875-1.575-4.179-2.362-6.483-2.362s-4.609.787-6.483 2.362l-53.436 44.887c-3.442 2.892-7.809 4.485-12.295 4.485-5.678 0-11.025-2.489-14.67-6.829-3.288-3.914-4.855-8.875-4.412-13.969.443-5.093 2.842-9.709 6.757-12.997l72.231-60.675c7.131-5.993 17.487-5.993 24.621 0l53.434 44.887c3.749 3.149 9.218 3.149 12.967 0l53.436-44.887c7.133-5.993 17.488-5.993 24.621 0l53.44 44.889c3.748 3.148 9.217 3.149 12.966 0l53.443-44.889c7.133-5.992 17.487-5.992 24.62 0l72.236 60.675c3.915 3.288 6.315 7.904 6.758 12.997.44 5.091-1.127 10.051-4.415 13.966z"/><path d="m339.856 412.272-8.208 6.9c-2.556 2.15-2.887 5.965-.737 8.522 1.197 1.423 2.908 2.156 4.632 2.156 1.374 0 2.755-.466 3.889-1.418l8.208-6.9c2.556-2.15 2.887-5.965.737-8.522-2.149-2.557-5.964-2.887-8.521-.738z"/><path d="m389.16 380.422-8.208 6.901c-2.556 2.149-2.887 5.964-.737 8.521 1.196 1.423 2.908 2.156 4.632 2.156 1.374 0 2.755-.466 3.889-1.419l8.208-6.901c2.556-2.149 2.887-5.964.737-8.521s-5.965-2.886-8.521-.737z"/></g><g fill="#fff"><path d="m75.904 238.672c-2.875 0-5.73-1.223-7.724-3.596-3.581-4.263-3.027-10.621 1.235-14.202l28.619-24.04c4.264-3.581 10.622-3.027 14.202 1.235 3.581 4.263 3.027 10.621-1.235 14.202l-28.619 24.04c-1.89 1.586-4.191 2.361-6.478 2.361z"/><path d="m219.497 238.672c-2.875 0-5.729-1.223-7.723-3.596-3.581-4.263-3.028-10.621 1.234-14.201l28.618-24.04c4.263-3.582 10.621-3.027 14.201 1.234 3.581 4.263 3.028 10.621-1.234 14.201l-28.618 24.04c-1.889 1.587-4.19 2.362-6.478 2.362z"/></g><g><ellipse cx="339.644" cy="85.489" fill="#ff8cc0" rx="18.128" ry="18.128" transform="matrix(.159 -.987 .987 .159 201.147 407.18)"/><path d="m49.507 119.362c0 4.226-3.426 7.653-7.653 7.653s-7.653-3.426-7.653-7.653 3.426-7.653 7.653-7.653 7.653 3.426 7.653 7.653z" fill="#ff8cc0"/><g fill="#ffc5dd"><path d="m481.112 90.854-6.142 17.27c-.263.74-.784 1.325-1.441 1.621l-15.344 6.913c-2.168.977-2.168 4.431 0 5.407l15.344 6.913c.657.296 1.178.882 1.441 1.621l6.142 17.27c.868 2.44 3.936 2.44 4.804 0l6.142-17.27c.263-.739.784-1.326 1.44-1.621l15.344-6.913c2.168-.977 2.168-4.43 0-5.407l-15.344-6.913c-.657-.296-1.177-.882-1.44-1.621l-6.142-17.27c-.868-2.44-3.936-2.44-4.804 0z"/><path d="m175.622 40.031-8.28 23.282c-.355.997-1.056 1.787-1.942 2.186l-20.685 9.319c-2.922 1.317-2.922 5.973 0 7.289l20.685 9.319c.886.399 1.587 1.189 1.942 2.186l8.28 23.282c1.17 3.289 5.307 3.289 6.476 0l8.28-23.282c.355-.997 1.056-1.787 1.942-2.186l20.685-9.319c2.922-1.317 2.922-5.973 0-7.289l-20.685-9.319c-.886-.399-1.587-1.189-1.942-2.186l-8.28-23.282c-1.17-3.289-5.307-3.289-6.476 0z"/></g></g></g></svg>