<svg id="Capa_1" enable-background="new 0 0 512 512" height="512" viewBox="0 0 512 512" width="512" xmlns="http://www.w3.org/2000/svg"><g><g><path d="m397.337 34.959c-91.108.395-123.75 98.818-140.694 180.285-9.529-49.09-29.785-111.182-57.693-141.333-60.384-76.85-191.348-30.321-188.888 67.011-.002 45.06 28.597 85.281 71.161 100.079 14.905 5.307 32.062-2.629 37.36-18.084 5.323-15.31-2.773-32.037-18.084-37.36-49.449-16.459-36.869-92.551 15.524-91.9 91.07 14.055 93.178 206.041 109.277 337.725 0 0 12.711 32.297 23.044 35.925 14.541 5.105 24.781-3.531 30.015-18.037 13.333-116.847 14.22-208.412 34.155-270.159 13.215-53.641 45.022-81.247 70.857-83.038 48.682-15.749 94.45 54.436 29.349 89.487-14.432 4.855-20.309 17.604-19.252 29.825 4.311 11.171 13.427 20.576 30.634 20.318 64.035-13.732 80.062-69.372 69.462-117.783-7.041-32.158-21.673-60.52-56.878-73.488-11.351-4.181-25.336-7.956-39.349-9.473z" fill="#ffa785"/><g fill="#ff7d87"><path d="m397.337 34.959c-.98.004-1.944.035-2.911.062 95.617 12.752 108.847 160.082 7.859 181.74-3.213.048-6.155-.45-8.812-1.376 1.22 14.107 11.675 27.511 28.882 27.252 120.284-25.795 98.083-208.376-25.018-207.678z"/><path d="m383.372 96.076c-24.989-18.108-72.134 19.426-88.135 84.282-17.935 55.555-26.672 129.754-38.668 234.882-4.459 12.357-18.728 19.513-31.267 16.143 1.018 8.33 2.092 16.422 3.248 24.209 2.607 8.891 9.677 16.238 18.422 19.248 14.448 5.363 31.845-2.703 37.079-17.208 13.333-116.847 21.474-214.274 41.408-276.022 13.215-53.641 35.863-78.401 57.913-85.534z"/></g></g><g fill="#4e0325"><path d="m511.247 129.181c-3.031-27.832-14.938-53.49-33.527-72.251-20.755-20.946-48.293-32.002-79.68-32.002-.249 0-.497 0-.747.002-44.268.192-80.144 21.884-106.631 64.473-15.762 25.344-26.487 55.327-34.03 82.649-11.288-39.824-28.294-80.963-50.046-104.654-30.394-38.4-81.193-51.967-129.542-34.558-47.966 17.272-78.183 59.736-77.011 108.209.052 49.276 31.343 93.24 77.826 109.4 9.701 3.454 20.674 2.827 30.107-1.72 9.557-4.607 16.697-12.619 20.09-22.518 7.13-20.51-3.755-42.996-24.264-50.126-.042-.015-.084-.029-.126-.043-21.417-7.129-26.151-26.673-23.696-41.243 2.422-14.378 13.096-31.046 35.227-31.115 29.594 4.961 51.385 33.547 66.594 87.354 14.244 50.39 20.502 113.988 26.554 175.492 3.193 32.449 6.209 63.099 10.283 90.537.068.456.167.906.297 1.349 3.485 11.886 12.932 21.789 24.671 25.871 4.066 1.493 8.4 2.234 12.778 2.234 5.696 0 11.469-1.255 16.819-3.737 9.499-4.409 16.895-12.335 20.29-21.745.264-.733.443-1.493.531-2.267 2.175-19.06 4.212-37.606 6.182-55.541 9.891-90.051 18.433-167.822 34.806-218.537.073-.225.137-.452.193-.682 12.344-50.106 35.612-80.078 62.241-80.174h.121c16.606 0 32.226 12.253 36.365 28.549 4.265 16.793-4.943 32.788-25.277 43.976-20.92 7.508-27.511 27.12-24.717 43.42 3.333 19.447 18.897 32.892 37.964 32.89.202 0 .408-.002.611-.004.656-.01 1.31-.084 1.952-.222 30.445-6.529 54.701-22.878 70.145-47.278 13.713-21.664 19.624-48.649 16.647-75.988zm-89.961 103.423c-10.956-.292-16.319-8.826-17.586-16.213-1.287-7.508 1.141-17.598 12.218-21.324.537-.181 1.058-.407 1.557-.675 29.136-15.687 42.553-40.714 35.89-66.947-6.435-25.334-29.881-43.669-55.801-43.669-.065 0-.133 0-.198 0-17.471.063-60.356 9.464-81.559 95.09-16.928 52.657-25.558 131.227-35.548 222.172-1.923 17.504-3.909 35.589-6.023 54.148-1.743 3.997-5.15 7.388-9.487 9.401-4.681 2.172-9.889 2.482-14.288.851-.075-.028-.15-.055-.225-.081-5.462-1.88-10.064-6.551-11.879-12-3.945-26.76-6.911-56.899-10.049-88.792-6.138-62.377-12.485-126.877-27.214-178.984-17.689-62.579-45.016-95.89-83.541-101.835-.465-.072-.934-.111-1.405-.117-33.015-.437-51.897 23.73-55.958 47.837-4.065 24.135 5.824 53.145 37.073 63.584 10.026 3.52 15.339 14.531 11.833 24.615-1.656 4.83-5.151 8.735-9.841 10.996-4.637 2.235-9.983 2.56-14.739.868-38.536-13.398-64.427-49.81-64.426-90.606 0-.085-.001-.169-.003-.254-1.004-39.733 24.02-74.65 63.752-88.957 40.208-14.478 82.295-3.332 107.225 28.395.167.213.342.418.526.616 26.828 28.985 46.507 91.611 55.207 136.432.91 4.69 5.002 8.086 9.778 8.118h.068c4.748 0 8.85-3.333 9.819-7.987 6.841-32.889 18.558-80.83 41.233-117.29 22.919-36.852 52.256-54.846 89.686-55.008h.013c.224-.001.438-.002.662-.002 57.906 0 88.562 43.306 93.251 86.366 4.539 41.686-15.378 89-70.021 101.252z"/><path d="m239.413 266.46c-3.323 0-6.018 2.694-6.018 6.017v10.761c0 3.323 2.694 6.018 6.018 6.018 3.323 0 6.017-2.694 6.017-6.018v-10.761c0-3.323-2.694-6.017-6.017-6.017z"/><path d="m265.017 312.017c-3.323 0-6.017 2.694-6.017 6.018v10.761c0 3.323 2.694 6.018 6.017 6.018s6.018-2.694 6.018-6.018v-10.761c0-3.324-2.695-6.018-6.018-6.018z"/></g><g fill="#fff"><path d="m38.686 137.516c-.576 0-1.159-.049-1.746-.152-5.456-.958-9.102-6.157-8.144-11.612 3.179-18.11 11.942-34.219 25.343-46.585 4.07-3.757 10.416-3.502 14.172.568 3.757 4.071 3.502 10.416-.569 14.172-10.141 9.359-16.777 21.57-19.189 35.313-.856 4.868-5.089 8.296-9.867 8.296z"/><path d="m92.776 79.08c-4.408 0-8.449-2.928-9.668-7.386-1.462-5.343 1.685-10.858 7.028-12.319.812-.222 1.629-.433 2.452-.634 5.381-1.315 10.807 1.986 12.12 7.366 1.313 5.381-1.985 10.807-7.366 12.12-.642.157-1.28.322-1.915.495-.884.243-1.775.358-2.651.358z"/></g><g><path d="m46.585 377.142-8.238 23.165c-.353.992-1.051 1.778-1.932 2.175l-20.581 9.272c-2.908 1.31-2.908 5.943 0 7.253l20.581 9.273c.881.397 1.58 1.183 1.932 2.175l8.238 23.165c1.164 3.273 5.28 3.273 6.444 0l8.238-23.165c.353-.992 1.051-1.778 1.932-2.175l20.581-9.273c2.908-1.31 2.908-5.943 0-7.253l-20.581-9.272c-.881-.397-1.579-1.183-1.932-2.175l-8.238-23.165c-1.164-3.273-5.28-3.273-6.444 0z" fill="#ffc8b7"/><ellipse cx="436.331" cy="449.271" fill="#ffa785" rx="18.037" ry="18.037" transform="matrix(.379 -.926 .926 .379 -144.668 683.086)"/><ellipse cx="143.091" cy="479.457" fill="#ffa785" rx="7.614" ry="7.614" transform="matrix(.161 -.987 .987 .161 -353.121 543.709)"/><path d="m109.446 300.431-6.111 17.183c-.262.736-.78 1.319-1.433 1.613l-15.267 6.878c-2.157.972-2.157 4.408 0 5.38l15.267 6.878c.654.294 1.172.878 1.433 1.613l6.111 17.184c.863 2.427 3.916 2.427 4.78 0l6.111-17.184c.262-.736.78-1.319 1.433-1.613l15.267-6.878c2.157-.972 2.157-4.408 0-5.38l-15.267-6.878c-.654-.295-1.172-.878-1.433-1.613l-6.111-17.183c-.864-2.428-3.917-2.428-4.78 0z" fill="#ffc8b7"/><ellipse cx="362.898" cy="393.264" fill="#ffa785" rx="7.614" ry="7.614" transform="matrix(.921 -.39 .39 .921 -124.695 172.799)"/><path d="m444.499 301.064-8.238 23.165c-.353.992-1.051 1.778-1.932 2.175l-20.581 9.273c-2.908 1.31-2.908 5.943 0 7.253l20.581 9.273c.881.397 1.579 1.183 1.932 2.175l8.238 23.165c1.164 3.273 5.28 3.273 6.444 0l8.238-23.165c.353-.992 1.051-1.778 1.932-2.175l20.581-9.273c2.908-1.31 2.908-5.943 0-7.253l-20.581-9.273c-.881-.397-1.579-1.183-1.932-2.175l-8.238-23.165c-1.164-3.272-5.28-3.272-6.444 0z" fill="#ffc8b7"/></g></g></svg>