<?xml version="1.0" encoding="iso-8859-1"?>
<!-- Generator: Adobe Illustrator 19.0.0, SVG Export Plug-In . SVG Version: 6.00 Build 0)  -->
<svg version="1.1" id="Capa_1" xmlns="http://www.w3.org/2000/svg" xmlns:xlink="http://www.w3.org/1999/xlink" x="0px" y="0px"
	 viewBox="0 0 512 512" style="enable-background:new 0 0 512 512;" xml:space="preserve">
<rect x="49.976" y="310" style="fill:#62CD4D;" width="104" height="192"/>
<rect x="204" y="195.75" style="fill:#FFB954;" width="104" height="306.25"/>
<rect x="358" y="100" style="fill:#FF5D5D;" width="104" height="402"/>
<path d="M358,305.2c2.63,0,5.21-1.07,7.069-2.931c1.86-1.859,2.931-4.439,2.931-7.069c0-2.641-1.07-5.21-2.931-7.08
	c-1.859-1.86-4.439-2.92-7.069-2.92s-5.21,1.06-7.07,2.92c-1.86,1.87-2.93,4.439-2.93,7.08c0,2.63,1.069,5.21,2.93,7.069
	C352.79,304.13,355.37,305.2,358,305.2z"/>
<path d="M502,492h-30V100c0-5.522-4.478-10-10-10H358c-5.522,0-10,4.478-10,10v146c0,5.522,4.478,10,10,10s10-4.478,10-10V110h84
	v382h-84V343.033c0-5.522-4.478-10-10-10s-10,4.478-10,10V492h-30V195.753c0-5.522-4.478-10-10-10H204c-5.522,0-10,4.478-10,10V492
	h-30.024V310c0-5.522-4.478-10-10-10h-104c-5.522,0-10,4.478-10,10v182H10c-5.522,0-10,4.478-10,10s4.478,10,10,10h492
	c5.522,0,10-4.478,10-10S507.522,492,502,492z M59.976,492V320h84v172H59.976z M214,492V205.753h84V492H214z"/>
<path d="M112.768,173.255c1.543,0,3.108-0.358,4.574-1.113L384.114,34.619l-8.966,17.062c-2.568,4.89-0.688,10.936,4.2,13.505
	c1.485,0.779,3.076,1.149,4.644,1.149c3.597,0,7.072-1.945,8.861-5.35l24.349-46.333c1.629-3.102,1.518-6.829-0.296-9.827
	C415.094,1.83,411.849,0,408.349,0c-0.003,0-0.006,0-0.009,0l-52.965,0.048c-5.523,0.005-9.996,4.486-9.991,10.009
	c0.005,5.521,4.481,9.991,10,9.991c0.003,0,0.006,0,0.009,0l13.362-0.012L108.178,154.364c-4.909,2.531-6.837,8.562-4.307,13.471
	C105.646,171.278,109.144,173.255,112.768,173.255z"/>
<path d="M78.33,191c2.63,0,5.21-1.07,7.069-2.931c1.87-1.859,2.931-4.439,2.931-7.069s-1.061-5.21-2.931-7.07
	C83.54,172.07,80.96,171,78.33,171s-5.21,1.069-7.07,2.93s-2.93,4.44-2.93,7.07s1.069,5.21,2.93,7.069
	C73.12,189.93,75.7,191,78.33,191z"/>
<g>
</g>
<g>
</g>
<g>
</g>
<g>
</g>
<g>
</g>
<g>
</g>
<g>
</g>
<g>
</g>
<g>
</g>
<g>
</g>
<g>
</g>
<g>
</g>
<g>
</g>
<g>
</g>
<g>
</g>
</svg>
