<?xml version="1.0" encoding="iso-8859-1"?>
<!-- Generator: Adobe Illustrator 19.0.0, SVG Export Plug-In . SVG Version: 6.00 Build 0)  -->
<svg version="1.1" id="Capa_1" xmlns="http://www.w3.org/2000/svg" xmlns:xlink="http://www.w3.org/1999/xlink" x="0px" y="0px"
	 viewBox="0 0 512 512" style="enable-background:new 0 0 512 512;" xml:space="preserve">
<path style="fill:#D8D8E4;" d="M329.79,31.399L480.6,182.209c15.608,15.608,15.608,40.913,0,56.521L229.005,490.326
	c-15.608,15.608-40.913,15.608-56.521,0L21.674,339.516c-15.608-15.608-15.608-40.913,0-56.521L273.269,31.399
	C288.877,15.792,314.183,15.792,329.79,31.399z"/>
<path style="fill:#B3B6C3;" d="M496.17,105.633L406.367,15.83c-7.803-7.803-20.457-7.803-28.26,0l-31.943,31.943l118.063,118.063
	l31.943-31.943C503.974,126.089,503.974,113.437,496.17,105.633z"/>
<rect x="253.131" y="140.982" transform="matrix(0.7071 0.7071 -0.7071 0.7071 224.0881 -183.0977)" style="fill:#A0E557;" width="159.863" height="75.935"/>
<g>
	
		<rect x="171.163" y="222.943" transform="matrix(0.7071 0.7071 -0.7071 0.7071 258.0352 -101.1319)" style="fill:#62CD4D;" width="159.863" height="75.935"/>
	
		<rect x="89.212" y="304.886" transform="matrix(0.7071 0.7071 -0.7071 0.7071 291.9752 -19.1831)" style="fill:#62CD4D;" width="159.863" height="75.935"/>
</g>
<path d="M148.666,165.991c2.628,0,5.206-1.059,7.064-2.928c1.858-1.858,2.928-4.426,2.928-7.064c0-2.628-1.069-5.196-2.928-7.064
	c-1.858-1.858-4.436-2.928-7.064-2.928s-5.206,1.069-7.064,2.928s-2.928,4.436-2.928,7.064c0,2.638,1.069,5.206,2.928,7.064
	C143.46,164.93,146.038,165.991,148.666,165.991z"/>
<path d="M503.236,98.568L413.433,8.765c-11.687-11.686-30.704-11.685-42.391,0l-24.878,24.878l-9.308-9.308
	c-9.436-9.436-21.981-14.633-35.325-14.633c-13.344,0-25.89,5.197-35.325,14.633l-93.629,93.629c-3.902,3.902-3.902,10.228,0,14.131
	c3.901,3.902,10.228,3.902,14.13,0l93.629-93.629c5.662-5.662,13.189-8.78,21.195-8.78c8.007,0,15.534,3.118,21.195,8.78
	l150.81,150.81c5.661,5.661,8.78,13.188,8.78,21.195c0,8.006-3.118,15.534-8.78,21.195L221.94,483.26
	c-11.687,11.686-30.704,11.687-42.39,0L28.74,332.451c-11.687-11.686-11.687-30.703,0-42.39l97.683-97.684
	c3.902-3.902,3.902-10.228,0-14.131c-3.901-3.902-10.228-3.902-14.13,0L14.609,275.93c-19.479,19.479-19.479,51.173,0,70.651
	l150.81,150.81C175.158,507.13,187.951,512,200.744,512s25.586-4.87,35.325-14.609l251.596-251.595
	c9.435-9.436,14.633-21.981,14.633-35.325c0-13.344-5.197-25.89-14.633-35.325l-9.308-9.308l24.878-24.878
	C514.922,129.272,514.922,110.255,503.236,98.568z M489.105,126.828l-24.878,24.878L360.294,47.774l24.878-24.878
	c3.895-3.896,10.234-3.897,14.13,0l89.802,89.802C493,116.593,493,122.932,489.105,126.828z"/>
<path d="M78.71,320.249l113.041,113.042c1.873,1.873,4.415,2.927,7.065,2.927c2.65,0,5.192-1.053,7.065-2.927l53.695-53.695
	c3.902-3.902,3.902-10.228,0-14.131l-113.04-113.042c-1.873-1.873-4.415-2.927-7.065-2.927c-2.65,0-5.192,1.053-7.065,2.927
	l-53.695,53.695C74.808,310.02,74.808,316.346,78.71,320.249z M139.469,273.62l98.911,98.911l-39.565,39.565l-98.911-98.911
	L139.469,273.62z"/>
<path d="M214.36,170.469l-53.695,53.695c-1.873,1.873-2.927,4.415-2.927,7.065s1.053,5.192,2.927,7.065l113.041,113.042
	c1.873,1.873,4.415,2.927,7.065,2.927c2.65,0,5.192-1.053,7.065-2.927l53.695-53.695c3.902-3.902,3.902-10.228,0-14.131
	L228.49,170.469C224.587,166.567,218.262,166.568,214.36,170.469z M280.772,330.14l-98.911-98.911l39.565-39.565l98.911,98.911
	L280.772,330.14z"/>
<path d="M328.125,134.454c3.902,3.902,10.228,3.902,14.131,0c3.903-3.902,3.902-10.228,0-14.131l-31.81-31.81
	c-3.902-3.902-10.229-3.902-14.13,0l-53.695,53.695c-1.873,1.873-2.927,4.415-2.927,7.065s1.053,5.192,2.927,7.065L355.662,269.38
	c1.873,1.873,4.415,2.927,7.065,2.927c2.65,0,5.192-1.053,7.065-2.927l53.695-53.696c3.902-3.902,3.902-10.228,0-14.13
	l-28.211-28.211c-3.902-3.902-10.228-3.902-14.131,0c-3.902,3.902-3.902,10.228,0,14.131l21.146,21.146l-39.565,39.566
	l-98.911-98.912l39.565-39.565L328.125,134.454z"/>
<path d="M369.039,161.245c1.858-1.868,2.928-4.436,2.928-7.074c0-2.628-1.069-5.206-2.928-7.064
	c-1.858-1.858-4.436-2.928-7.064-2.928c-2.628,0-5.206,1.069-7.064,2.928c-1.858,1.858-2.928,4.436-2.928,7.064
	c0,2.638,1.069,5.206,2.928,7.074c1.858,1.858,4.436,2.918,7.064,2.918C364.603,164.162,367.182,163.103,369.039,161.245z"/>
<g>
</g>
<g>
</g>
<g>
</g>
<g>
</g>
<g>
</g>
<g>
</g>
<g>
</g>
<g>
</g>
<g>
</g>
<g>
</g>
<g>
</g>
<g>
</g>
<g>
</g>
<g>
</g>
<g>
</g>
</svg>
