<?xml version="1.0" encoding="iso-8859-1"?>
<!-- Generator: Adobe Illustrator 19.0.0, SVG Export Plug-In . SVG Version: 6.00 Build 0)  -->
<svg version="1.1" id="Capa_1" xmlns="http://www.w3.org/2000/svg" xmlns:xlink="http://www.w3.org/1999/xlink" x="0px" y="0px"
	 viewBox="0 0 512 512" style="enable-background:new 0 0 512 512;" xml:space="preserve">
<path style="fill:#FFB954;" d="M228,67V38c0-15.464,12.536-28,28-28l0,0c15.464,0,28,12.536,28,28v29H228z"/>
<path style="fill:#FEA02C;" d="M202,448c0,29.823,24.177,54,54,54s54-24.177,54-54H202z"/>
<path style="fill:#FFC66C;" d="M416,384V224c0-88.365-71.634-160-160-160l0,0c-88.365,0-160,71.634-160,160v160H416z"/>
<path style="fill:#FFB954;" d="M208,376.004h-72.004C96.234,376.004,64,408.237,64,448l0,0h384l0,0
	c0-39.762-32.234-71.996-71.996-71.996h-69.67H208z"/>
<path d="M426,383.075V224c0-80.679-56.494-148.408-132-165.715V38c0-20.953-17.047-38-38-38s-38,17.047-38,38v20.285
	C142.494,75.592,86,143.321,86,224v159.075C66.558,398.083,54,421.596,54,448c0,5.523,4.477,10,10,10h128.786
	c4.816,30.556,31.326,54,63.214,54s58.398-23.444,63.214-54H448c5.523,0,10-4.477,10-10C458,421.596,445.442,398.083,426,383.075z
	 M238,38c0-9.925,8.075-18,18-18c9.925,0,18,8.075,18,18v16.953C268.083,54.328,262.08,54,256,54s-12.083,0.328-18,0.953V38z
	 M256,492c-20.821,0-38.298-14.542-42.84-34h85.68C294.298,477.458,276.821,492,256,492z M74.806,438
	c4.795-29.448,30.409-51.997,61.19-51.997H208c5.523,0,10-4.477,10-10s-4.477-10-10-10h-72.004c-10.586,0-20.698,2.038-29.996,5.707
	V224c0-82.71,67.29-150,150-150s150,67.29,150,150v147.711c-9.298-3.669-19.41-5.707-29.996-5.707h-69.67c-5.523,0-10,4.477-10,10
	s4.477,10,10,10h69.67c30.782,0,56.396,22.548,61.19,51.997H74.806V438z"/>
<path d="M256,366c-2.63,0-5.21,1.07-7.07,2.93S246,373.37,246,376c0,2.64,1.07,5.21,2.93,7.07c1.86,1.87,4.44,2.93,7.07,2.93
	s5.21-1.06,7.07-2.93c1.86-1.86,2.93-4.43,2.93-7.07c0-2.63-1.07-5.21-2.93-7.07C261.21,367.07,258.63,366,256,366z"/>
<path d="M144,213.792c-5.523,0-10,4.477-10,10V224c0,5.523,4.477,10,10,10s10-4.477,10-10v-0.208
	C154,218.269,149.523,213.792,144,213.792z"/>
<path d="M256,102c-49.071,0-93.169,29.188-112.346,74.361c-2.158,5.084,0.214,10.955,5.297,13.113
	c1.275,0.541,2.6,0.797,3.903,0.797c3.892,0,7.593-2.287,9.209-6.095C178.098,146.406,214.97,122,256,122c5.523,0,10-4.477,10-10
	S261.523,102,256,102z"/>
<g>
</g>
<g>
</g>
<g>
</g>
<g>
</g>
<g>
</g>
<g>
</g>
<g>
</g>
<g>
</g>
<g>
</g>
<g>
</g>
<g>
</g>
<g>
</g>
<g>
</g>
<g>
</g>
<g>
</g>
</svg>
