<svg id="Capa_1" enable-background="new 0 0 512 512" height="512" viewBox="0 0 512 512" width="512" xmlns="http://www.w3.org/2000/svg"><path id="XMLID_1763_" d="m407.971 422h-303.927c22.092 0 40 17.909 40 40 0 22.091-17.908 40-40 40h303.927c22.091 0 40-17.909 40-40 0-22.091-17.909-40-40-40z" fill="#ffcb7c"/><path id="XMLID_1280_" d="m104.044 422c22.091 0 40 17.909 40 40 0 22.091-17.909 40-40 40-22.091 0-40-17.909-40-40v-40z" fill="#fff"/><path id="XMLID_1279_" d="m64.044 422v-411.833-.167l30.383 30.384 30.384-30.384 30.383 30.384 30.383-30.384 30.384 30.384 30.383-30.384 30.383 30.384 30.384-30.384 30.383 30.384 30.383-30.384.167.167v411.833z" fill="#fff"/><path id="XMLID_1249_" d="m108.044 90h216v40h-216z" fill="#98a1b3"/><path id="XMLID_130_" d="m407.971 412h-29.927v-401.833c0-2.652-1.054-5.196-2.929-7.071l-.167-.167c-3.904-3.905-10.237-3.905-14.142 0l-23.313 23.313-23.311-23.313c-3.905-3.905-10.237-3.905-14.143 0l-23.312 23.313-23.312-23.313c-3.905-3.905-10.237-3.905-14.143 0l-23.312 23.313-23.312-23.313c-3.904-3.905-10.237-3.905-14.142 0l-23.312 23.313-23.312-23.313c-3.905-3.905-10.237-3.905-14.143 0l-23.312 23.312-23.312-23.312c-2.861-2.86-7.162-3.715-10.898-2.167-3.737 1.547-6.173 5.194-6.173 9.238v174.018c0 5.523 4.477 10 10 10s10-4.477 10-10v-149.876l13.312 13.313c3.905 3.905 10.237 3.905 14.143 0l23.312-23.313 23.312 23.313c3.905 3.905 10.237 3.905 14.143 0l23.312-23.313 23.313 23.313c3.905 3.905 10.237 3.905 14.142 0l23.312-23.313 23.312 23.313c3.905 3.905 10.237 3.905 14.143 0l23.312-23.313 23.313 23.313c3.904 3.905 10.237 3.905 14.142 0l13.479-13.479v378.024h-254c-5.523 0-10 4.477-10 10s4.477 10 10 10c16.542 0 30 13.458 30 30s-13.458 30-30 30-30-13.458-30-30v-14-26-147.981c0-5.523-4.477-10-10-10s-10 4.477-10 10v147.981 26 14c0 27.57 22.43 50 50 50h303.927c27.57 0 50-22.43 50-50s-22.432-50-50.002-50zm0 80h-263.955c6.292-8.363 10.027-18.753 10.027-30s-3.735-21.637-10.027-30h263.954c16.542 0 30 13.458 30 30s-13.457 30-29.999 30z"/><path id="XMLID_138_" d="m334.044 90c0-5.523-4.477-10-10-10h-216c-5.523 0-10 4.477-10 10v40c0 5.523 4.477 10 10 10h216c5.523 0 10-4.477 10-10zm-20 30h-196v-20h196z"/><path id="XMLID_139_" d="m136.044 289.961c-9.925 0-18-6.914-18-15.411 0-5.523-4.477-10-10-10s-10 4.477-10 10c0 16.301 11.884 30.056 28 34.158v2.797c0 5.523 4.477 10 10 10s10-4.477 10-10v-2.797c16.116-4.102 28-17.857 28-34.158 0-19.526-17.047-35.412-38-35.412-9.925 0-18-6.914-18-15.412s8.075-15.411 18-15.411 18 6.914 18 15.411c0 5.523 4.477 10 10 10s10-4.477 10-10c0-16.301-11.884-30.056-28-34.158v-3.568c0-5.523-4.477-10-10-10s-10 4.477-10 10v3.568c-16.116 4.102-28 17.857-28 34.158 0 19.526 17.047 35.412 38 35.412 9.925 0 18 6.914 18 15.412 0 8.497-8.075 15.411-18 15.411z"/><path id="XMLID_909_" d="m324.044 176h-116.826c-5.523 0-10 4.477-10 10s4.477 10 10 10h116.826c5.523 0 10-4.477 10-10s-4.477-10-10-10z"/><path id="XMLID_1039_" d="m324.044 232h-116.826c-5.523 0-10 4.477-10 10s4.477 10 10 10h116.826c5.523 0 10-4.477 10-10s-4.477-10-10-10z"/><path id="XMLID_1079_" d="m324.044 288h-116.826c-5.523 0-10 4.477-10 10s4.477 10 10 10h116.826c5.523 0 10-4.477 10-10s-4.477-10-10-10z"/><path id="XMLID_1123_" d="m108.044 364h216c5.523 0 10-4.477 10-10s-4.477-10-10-10h-216c-5.523 0-10 4.477-10 10s4.477 10 10 10z"/><path id="XMLID_1153_" d="m64.03 239.02c2.63 0 5.21-1.07 7.07-2.93s2.93-4.44 2.93-7.07-1.07-5.21-2.93-7.07c-1.87-1.86-4.44-2.93-7.07-2.93-2.64 0-5.21 1.07-7.07 2.93-1.87 1.86-2.93 4.44-2.93 7.07s1.06 5.21 2.93 7.07c1.86 1.86 4.43 2.93 7.07 2.93z"/></svg>