<svg height="511pt" viewBox="1 -55 511.999 511" width="511pt" xmlns="http://www.w3.org/2000/svg"><path d="m368.105469 390.335938h-340.539063c-9.703125 0-17.570312-7.863282-17.570312-17.566407v-128.824219c0-9.703124 7.867187-17.570312 17.570312-17.570312h456.867188c9.703125 0 17.566406 7.867188 17.566406 17.570312v128.824219c0 9.703125-7.863281 17.566407-17.566406 17.566407h-36.347656" fill="#ff6c6c"/><path d="m293.183594 41.125c0 16.917969-13.714844 30.632812-30.628906 30.632812-16.917969 0-30.632813-13.714843-30.632813-30.632812 0-16.914062 13.714844-30.628906 30.632813-30.628906 16.914062 0 30.628906 13.714844 30.628906 30.628906zm0 0" fill="#696e73"/><path d="m484.433594 216.378906h-91.113282l-90.179687-176.730468c-.78125-21.71875-18.683594-39.148438-40.589844-39.148438-21.882812 0-39.769531 17.394531-40.585937 39.082031l-33.011719 62.796875c-2.570313 4.886719-.691406 10.933594 4.195313 13.503906 1.484374.78125 3.074218 1.148438 4.644531 1.148438 3.59375 0 7.070312-1.945312 8.859375-5.347656l23.933594-45.527344c7.441406 9.484375 19 15.597656 31.964843 15.597656 12.859375 0 24.335938-6.015625 31.785157-15.371094l76.535156 149.992188h-219.257813l18.292969-34.789062c2.566406-4.890626.6875-10.933594-4.199219-13.503907-4.886719-2.570312-10.933593-.6875-13.5 4.199219l-23.179687 44.09375h-101.460938c-15.199218.003906-27.566406 12.371094-27.566406 27.570312v128.824219c0 15.199219 12.367188 27.5625 27.566406 27.5625h340.539063c5.519531 0 10-4.476562 10-9.996093 0-5.519532-4.480469-9.996094-10-9.996094h-340.539063c-4.175781 0-7.570312-3.394532-7.570312-7.570313v-128.824219c0-4.175781 3.394531-7.570312 7.570312-7.570312h456.867188c4.175781 0 7.570312 3.394531 7.570312 7.570312v128.824219c0 4.175781-3.394531 7.570313-7.570312 7.570313h-36.347656c-5.519532 0-9.996094 4.476562-9.996094 9.996094 0 5.519531 4.476562 9.996093 9.996094 9.996093h36.347656c15.199218 0 27.566406-12.363281 27.566406-27.5625v-128.824219c0-15.199218-12.367188-27.566406-27.566406-27.566406zm-221.882813-154.621094c-11.375 0-20.628906-9.253906-20.628906-20.632812 0-11.375 9.253906-20.628906 20.628906-20.628906 11.378907 0 20.632813 9.253906 20.632813 20.628906 0 11.378906-9.253906 20.632812-20.632813 20.632812zm0 0"/><path d="m110.695312 287.546875c5.464844 0 8.097657 2.6875 8.289063 8.496094.195313 2.996093 2.097656 6.570312 10.074219 6.570312 3.484375 0 5.964844-.675781 7.578125-2.066406 1.683593-1.449219 2.5-3.921875 2.5-7.570313 0-7.28125-2.808594-13.085937-8.351563-17.253906-5.410156-4.066406-12.390625-6.128906-20.75-6.128906-8.175781 0-14.925781 2.230469-20.058594 6.628906-5.199218 4.457032-7.835937 11.460938-7.835937 20.824219v29.140625c0 9.363281 2.636719 16.367188 7.835937 20.824219 5.132813 4.398437 11.882813 6.628906 20.058594 6.628906 8.375 0 15.367188-2.179687 20.78125-6.480469 5.519532-4.386718 8.320313-10.441406 8.320313-18 0-3.644531-.816407-6.121094-2.5-7.570312-1.617188-1.390625-4.128907-2.066406-7.6875-2.066406-7.773438 0-9.707031 3.554687-9.960938 6.523437-.140625 1.476563-.300781 2.644531-.46875 3.464844-.164062.78125-.519531 1.8125-1.0625 3.066406-.445312 1.023437-1.164062 1.769531-2.195312 2.269531-1.144531.558594-2.644531.839844-4.457031.839844-5.804688 0-8.507813-3.019531-8.507813-9.5v-29.140625c0-6.480469 2.667969-9.5 8.398437-9.5zm0 0"/><path d="m172.644531 271.082031c-1.894531-.988281-4.164062-1.488281-6.742187-1.488281s-4.847656.5-6.742188 1.488281c-2.757812 1.4375-3.335937 3.609375-3.335937 5.179688v69.941406c0 2.203125 1.003906 3.992187 2.902343 5.175781 1.699219 1.0625 3.742188 1.605469 6.074219 1.605469h34.753907c2.066406 0 3.765624-1.015625 4.914062-2.929687 1.019531-1.695313 1.53125-3.730469 1.53125-6.050782 0-2.316406-.515625-4.351562-1.53125-6.050781-1.148438-1.914063-2.851562-2.925781-4.914062-2.925781h-23.574219v-58.765625c-.003907-1.570313-.582031-3.738281-3.335938-5.179688zm0 0"/><path d="m247.28125 269.59375c-8.46875 0-15.382812 2.226562-20.546875 6.625-5.238281 4.457031-7.894531 11.464844-7.894531 20.828125v29.140625c0 9.363281 2.65625 16.371094 7.894531 20.828125 5.164063 4.394531 12.078125 6.625 20.546875 6.625 8.539062 0 15.488281-2.226563 20.65625-6.625 5.242188-4.457031 7.898438-11.464844 7.898438-20.828125v-29.140625c0-9.363281-2.65625-16.367187-7.898438-20.828125-5.167969-4.398438-12.117188-6.625-20.65625-6.625zm-8.285156 27.453125c0-6.480469 2.632812-9.5 8.285156-9.5 5.730469 0 8.398438 3.019531 8.398438 9.5v29.140625c0 6.480469-2.667969 9.5-8.398438 9.5-5.652344 0-8.285156-3.019531-8.285156-9.5zm0 0"/><path d="m325.390625 334.507812c-1.886719 1.074219-4.152344 1.617188-6.738281 1.617188-2.058594 0-4.039063-.40625-5.890625-1.207031-1.882813-.816407-3.34375-1.710938-4.347657-2.667969-1.195312-1.136719-2.523437-2.1875-3.949218-3.121094-1.625-1.0625-3.097656-1.582031-4.507813-1.582031-2.476562 0-4.640625 1.246094-6.433593 3.695313-1.6875 2.308593-2.542969 4.675781-2.542969 7.042968 0 4.234375 2.921875 8.007813 8.6875 11.210938 5.480469 3.042968 11.976562 4.585937 19.3125 4.585937 8.535156 0 15.554687-2.242187 20.867187-6.664062 5.394532-4.488281 8.128906-10.816407 8.128906-18.808594 0-4.542969-.925781-8.65625-2.75-12.230469-1.824218-3.570312-4.144531-6.394531-6.886718-8.390625-2.605469-1.898437-5.5-3.679687-8.605469-5.289062-3.085937-1.597657-5.964844-2.914063-8.5625-3.917969-2.410156-.929688-4.4375-2.050781-6.03125-3.339844-1.363281-1.105468-2.027344-2.230468-2.027344-3.453125 0-1.324219.691407-2.453125 2.109375-3.445312 1.570313-1.097657 4.054688-1.652344 7.390625-1.652344 3.195313 0 6.15625.652344 8.800781 1.9375 4.074219 1.984375 5.488282 2.242187 6.265626 2.242187 2.648437 0 4.828124-1.34375 6.300781-3.878906 1.339843-2.308594 2.019531-4.589844 2.019531-6.785156 0-2.480469-1.007812-4.617188-2.992188-6.34375-1.820312-1.585938-4.175781-2.742188-7-3.441406-2.65625-.65625-5.089843-1.105469-7.238281-1.339844-2.132812-.230469-4.203125-.347656-6.15625-.347656-8.046875 0-15.035156 2.03125-20.765625 6.042968-5.894531 4.128907-8.886718 10.40625-8.886718 18.660157 0 5.054687 1.292968 9.484375 3.839843 13.171875 2.503907 3.625 5.621094 6.460937 9.261719 8.4375 3.476562 1.886718 6.972656 3.605468 10.394531 5.109375 3.277344 1.449219 6.097657 3.070312 8.375 4.820312 2.011719 1.550781 2.992188 3.246094 2.992188 5.191407-.003907 1.882812-.773438 3.195312-2.433594 4.140624zm0 0"/><path d="m412.570312 287.546875c2.125 0 3.875-1.003906 5.066407-2.902344 1.0625-1.703125 1.601562-3.78125 1.601562-6.183593 0-2.246094-.515625-4.242188-1.535156-5.941407-1.148437-1.914062-2.921875-2.925781-5.132813-2.925781h-39.152343c-2.328125 0-4.371094.539062-6.070313 1.601562-1.902344 1.1875-2.90625 2.980469-2.90625 5.175782v69.835937c0 2.199219 1.003906 3.988281 2.902344 5.171875 1.699219 1.066406 3.742188 1.605469 6.074219 1.605469h39.152343c2.210938 0 3.984376-1.011719 5.132813-2.925781 1.019531-1.695313 1.535156-3.695313 1.535156-5.941406 0-2.398438-.539062-4.480469-1.605469-6.183594-1.1875-1.902344-2.9375-2.90625-5.0625-2.90625h-27.972656v-15.695313h14.996094c2.179688 0 3.941406-.914062 5.097656-2.648437 1.042969-1.5625 1.570313-3.359375 1.570313-5.339844 0-2.132812-.554688-4.011719-1.644531-5.582031-1.191407-1.71875-2.929688-2.625-5.023438-2.625h-14.996094v-15.585938h27.972656zm0 0"/><path d="m40.382812 349.996094c-5.117187 2.082031-7.578124 7.914062-5.496093 13.027344l.167969.414062c1.578124 3.882812 5.316406 6.234375 9.265624 6.234375 1.253907 0 2.527344-.238281 3.761719-.738281 5.113281-2.082032 7.574219-7.914063 5.496094-13.027344l-.167969-.414062c-2.082031-5.113282-7.914062-7.570313-13.027344-5.496094zm0 0"/><path d="m416.535156 386.632812c-2.070312-5.121093-7.894531-7.589843-13.019531-5.523437-5.117187 2.070313-7.589844 7.898437-5.519531 13.019531l.164062.410156c1.574219 3.894532 5.320313 6.253907 9.273438 6.253907 1.246094 0 2.515625-.234375 3.742187-.730469 5.121094-2.070312 7.59375-7.898438 5.523438-13.015625zm0 0"/><path d="m464.527344 269.617188c1.246094 0 2.515625-.234376 3.746094-.730469 5.117187-2.070313 7.589843-7.898438 5.519531-13.015625l-.167969-.414063c-2.070312-5.121093-7.894531-7.589843-13.015625-5.523437-5.117187 2.070312-7.589844 7.898437-5.519531 13.019531l.164062.410156c1.574219 3.890625 5.320313 6.253907 9.273438 6.253907zm0 0"/><path d="m169.550781 146.390625c1.570313 3.890625 5.316407 6.253906 9.273438 6.253906 1.246093 0 2.511719-.234375 3.738281-.730469 5.121094-2.066406 7.59375-7.894531 5.527344-13.011718l-.167969-.414063c-2.066406-5.121093-7.894531-7.59375-13.011719-5.527343-5.121094 2.066406-7.597656 7.894531-5.527344 13.015624zm0 0"/></svg>