<svg height="511pt" viewBox="1 -55 511.999 511" width="511pt" xmlns="http://www.w3.org/2000/svg"><path d="m368.105469 390.335938h-340.539063c-9.703125 0-17.570312-7.863282-17.570312-17.566407v-128.824219c0-9.703124 7.867187-17.570312 17.570312-17.570312h456.867188c9.703125 0 17.570312 7.867188 17.570312 17.570312v128.824219c0 9.703125-7.867187 17.566407-17.570312 17.566407h-36.347656" fill="#90e36a"/><path d="m293.183594 41.125c0 16.917969-13.714844 30.632812-30.632813 30.632812-16.914062 0-30.628906-13.714843-30.628906-30.632812 0-16.914062 13.714844-30.628906 30.628906-30.628906 16.917969 0 30.632813 13.714844 30.632813 30.628906zm0 0" fill="#696e73"/><path d="m484.433594 216.378906h-91.109375l-90.179688-176.730468c-.78125-21.71875-18.683593-39.148438-40.59375-39.148438-21.882812 0-39.773437 17.394531-40.585937 39.085938l-33.011719 62.792968c-2.570313 4.890625-.691406 10.933594 4.195313 13.503906 1.484374.777344 3.074218 1.148438 4.644531 1.148438 3.59375 0 7.070312-1.945312 8.859375-5.347656l23.933594-45.527344c7.441406 9.484375 19 15.597656 31.964843 15.597656 12.859375 0 24.335938-6.011718 31.785157-15.367187l76.539062 149.992187h-219.261719l18.292969-34.792968c2.566406-4.886719.6875-10.933594-4.199219-13.5-4.886719-2.570313-10.929687-.691407-13.5 4.195312l-23.183593 44.097656h-101.457032c-15.199218 0-27.566406 12.367188-27.566406 27.566406v128.824219c0 15.199219 12.367188 27.5625 27.566406 27.5625h340.539063c5.523437 0 10-4.476562 10-9.996093 0-5.519532-4.476563-9.996094-10-9.996094h-340.539063c-4.175781 0-7.570312-3.398438-7.570312-7.570313v-128.824219c0-4.175781 3.394531-7.570312 7.570312-7.570312h456.867188c4.175781 0 7.570312 3.394531 7.570312 7.570312v128.824219c0 4.171875-3.394531 7.570313-7.570312 7.570313h-36.347656c-5.519532 0-9.996094 4.476562-9.996094 9.996094 0 5.519531 4.476562 9.996093 9.996094 9.996093h36.347656c15.199218 0 27.566406-12.363281 27.566406-27.5625v-128.824219c0-15.199218-12.367188-27.566406-27.566406-27.566406zm-221.882813-154.621094c-11.375 0-20.632812-9.253906-20.632812-20.632812 0-11.375 9.257812-20.632812 20.632812-20.632812 11.378907 0 20.632813 9.257812 20.632813 20.632812 0 11.378906-9.253906 20.632812-20.632813 20.632812zm0 0"/><path d="m142.578125 269.59375c-8.46875 0-15.382813 2.226562-20.546875 6.625-5.242188 4.457031-7.898438 11.464844-7.898438 20.828125v29.140625c0 9.363281 2.65625 16.371094 7.898438 20.828125 5.164062 4.394531 12.078125 6.625 20.546875 6.625 8.539063 0 15.488281-2.226563 20.65625-6.625 5.238281-4.457031 7.894531-11.464844 7.894531-20.828125v-29.140625c0-9.363281-2.65625-16.371094-7.894531-20.828125-5.167969-4.394531-12.117187-6.625-20.65625-6.625zm-8.289063 27.453125c0-6.480469 2.632813-9.5 8.289063-9.5 5.726563 0 8.394531 3.019531 8.394531 9.5v29.140625c0 6.480469-2.667968 9.5-8.394531 9.5-5.65625 0-8.289063-3.019531-8.289063-9.5zm0 0"/><path d="m220.765625 269.59375h-22.761719c-2.273437 0-4.160156.640625-5.609375 1.910156-1.503906 1.320313-2.269531 2.921875-2.269531 4.757813v69.941406c0 1.5625.574219 3.738281 3.3125 5.222656 1.898438 1.03125 4.171875 1.558594 6.765625 1.558594 2.589844 0 4.863281-.523437 6.765625-1.558594 2.738281-1.488281 3.3125-3.660156 3.3125-5.222656v-22.253906h9.386719c8.460937 0 15.390625-2.207031 20.59375-6.5625 5.28125-4.421875 7.960937-11.300781 7.960937-20.449219v-.550781c0-9.140625-2.5625-15.980469-7.613281-20.328125-4.988281-4.289063-11.664063-6.464844-19.84375-6.464844zm-1.097656 38.160156h-9.386719v-20.207031h9.386719c5.730469 0 8.398437 3.019531 8.398437 9.5v1.207031c0 6.480469-2.667968 9.5-8.398437 9.5zm0 0"/><path d="m311.824219 287.546875c2.125 0 3.875-1.003906 5.066406-2.902344 1.0625-1.703125 1.601563-3.78125 1.601563-6.183593 0-2.246094-.515626-4.246094-1.535157-5.941407-1.148437-1.914062-2.925781-2.925781-5.132812-2.925781h-39.152344c-2.328125 0-4.371094.539062-6.070313 1.601562-1.902343 1.1875-2.90625 2.976563-2.90625 5.175782v69.832031c0 2.203125 1.003907 3.992187 2.902344 5.175781 1.699219 1.0625 3.742188 1.605469 6.074219 1.605469h39.152344c2.210937 0 3.984375-1.011719 5.132812-2.925781 1.019531-1.695313 1.535157-3.695313 1.535157-5.941406 0-2.398438-.539063-4.480469-1.605469-6.183594-1.1875-1.902344-2.9375-2.90625-5.0625-2.90625h-27.972657v-15.695313h14.996094c2.179688 0 3.941406-.914062 5.097656-2.644531 1.042969-1.566406 1.570313-3.363281 1.570313-5.34375 0-2.132812-.554687-4.011719-1.644531-5.585938-1.191406-1.714843-2.929688-2.621093-5.023438-2.621093h-14.996094v-15.585938h27.972657zm0 0"/><path d="m389.828125 271.082031c-1.898437-.988281-4.164063-1.488281-6.742187-1.488281-2.582032 0-4.847657.5-6.742188 1.488281-2.757812 1.4375-3.335938 3.609375-3.335938 5.179688v31.300781l-14.984374-28.582031c-2.128907-4.097657-4.054688-6.628907-5.890626-7.742188-1.832031-1.105469-4.480468-1.644531-8.089843-1.644531-2.585938 0-4.859375.523438-6.761719 1.558594-2.738281 1.484375-3.3125 3.660156-3.3125 5.21875v69.835937c0 1.5625.574219 3.734375 3.3125 5.21875 1.894531 1.035157 4.171875 1.558594 6.761719 1.558594 2.589843 0 4.867187-.523437 6.765625-1.554687 2.738281-1.488282 3.3125-3.664063 3.3125-5.222657v-31.546875l18.082031 32.925782c1.960937 3.582031 5.621094 5.398437 10.882813 5.398437 2.589843 0 4.863281-.523437 6.761718-1.558594 2.742188-1.484375 3.316406-3.660156 3.316406-5.222656v-69.941406c0-1.570313-.582031-3.742188-3.335937-5.179688zm0 0"/><path d="m40.398438 349.988281c-5.117188 2.070313-7.589844 7.898438-5.519532 13.019531l.164063.410157c1.574219 3.894531 5.320312 6.253906 9.273437 6.253906 1.246094 0 2.515625-.234375 3.742188-.730469 5.121094-2.070312 7.59375-7.894531 5.523437-13.015625l-.167969-.414062c-2.070312-5.117188-7.894531-7.589844-13.015624-5.523438zm0 0"/><path d="m416.53125 386.632812c-2.066406-5.117187-7.894531-7.589843-13.015625-5.523437-5.117187 2.070313-7.589844 7.898437-5.519531 13.019531l.164062.414063c1.574219 3.890625 5.320313 6.25 9.273438 6.25 1.246094 0 2.515625-.234375 3.742187-.730469 5.121094-2.066406 7.59375-7.894531 5.523438-13.015625zm0 0"/><path d="m464.527344 269.617188c1.246094 0 2.515625-.234376 3.746094-.730469 5.117187-2.070313 7.589843-7.898438 5.519531-13.015625l-.167969-.414063c-2.066406-5.117187-7.894531-7.589843-13.015625-5.523437-5.117187 2.070312-7.589844 7.898437-5.523437 13.019531l.167968.410156c1.574219 3.894531 5.320313 6.253907 9.273438 6.253907zm0 0"/><path d="m169.550781 146.390625c1.574219 3.894531 5.316407 6.253906 9.273438 6.253906 1.246093 0 2.515625-.234375 3.742187-.730469 5.117188-2.070312 7.589844-7.894531 5.523438-13.015624l-.167969-.414063c-2.070313-5.117187-7.894531-7.589844-13.015625-5.519531-5.121094 2.066406-7.59375 7.894531-5.523438 13.015625zm0 0"/></svg>