<svg height="512pt" viewBox="0 -96 512 512" width="512pt" xmlns="http://www.w3.org/2000/svg"><g fill="#c9f3ff"><path d="m476.65625 56.667969h-36.324219c-10.859375 0-19.667969 8.804687-19.667969 19.667969v52.601562c0 9.128906 6.230469 16.785156 14.667969 19h66.667969zm0 0"/><path d="m42.851562 147.9375h73.484376c10.859374 0 19.664062-8.804688 19.664062-19.667969v-52.601562c0-9.132813-6.230469-16.785157-14.664062-19h-53.144532zm0 0"/><path d="m222.667969 76.332031v52.605469c0 9.128906 6.230469 16.785156 14.664062 19h79.003907c10.859374 0 19.664062-8.804688 19.664062-19.667969v-52.605469c0-9.128906-6.230469-16.78125-14.664062-19h-79c-10.863282.003907-19.667969 8.808594-19.667969 19.667969zm0 0"/></g><path d="m76.667969 190v42c0 15.734375 10.097656 29.105469 24.167969 34h365.164062c19.882812 0 36-16.117188 36-36v-40zm0 0" fill="#ff5d5d"/><path d="m427.589844 274c0 19.882812-16.117188 36-36 36-19.882813 0-36-16.117188-36-36s16.117187-36 36-36c19.882812 0 36 16.117188 36 36zm0 0" fill="#898998"/><path d="m156.410156 274c0 19.882812-16.117187 36-36 36-19.882812 0-36-16.117188-36-36s16.117188-36 36-36c19.882813 0 36 16.117188 36 36zm0 0" fill="#898998"/><path d="m502 228h-30c-5.523438 0-10-4.476562-10-10v-20c0-5.523438 4.476562-10 10-10h30zm0 0" fill="#ffb9b7"/><path d="m199 20c2.628906 0 5.210938-1.070312 7.070312-2.929688 1.859376-1.859374 2.929688-4.441406 2.929688-7.070312s-1.070312-5.210938-2.929688-7.070312c-1.859374-1.859376-4.441406-2.929688-7.070312-2.929688s-5.210938 1.070312-7.070312 2.929688c-1.859376 1.859374-2.929688 4.441406-2.929688 7.070312s1.070312 5.210938 2.929688 7.070312c1.859374 1.859376 4.441406 2.929688 7.070312 2.929688zm0 0"/><path d="m382 0h-145.5c-5.523438 0-10 4.476562-10 10s4.476562 10 10 10h145.5c27.007812 0 51.769531 9.789062 70.933594 26h-57.265625c-16.359375 0-29.667969 13.308594-29.667969 29.667969v52.601562c0 16.359375 13.308594 29.667969 29.667969 29.667969h96.332031v20.0625h-407.589844c-5.519531 0-10 4.476562-10 10s4.480469 10 10 10h367.589844v20c0 11.027344 8.972656 20 20 20h18.734375c-3.382813 10.433594-13.1875 18-24.734375 18h-32.082031c-7.019531-16.445312-23.351563-28-42.328125-28-18.980469 0-35.3125 11.554688-42.332032 28h-186.519531c-7.019531-16.445312-23.347656-28-42.328125-28-18.980468 0-35.308594 11.554688-42.328125 28h-32.082031c-14.335938 0-26-11.664062-26-26v-72.0625h96.332031c16.359375 0 29.667969-13.308594 29.667969-29.667969v-52.605469c0-16.355468-13.308594-29.664062-29.667969-29.664062h-57.265625c19.164063-16.210938 43.925782-26 70.933594-26h26.410156c5.523438 0 10-4.476562 10-10s-4.476562-10-10-10h-26.410156c-71.683594 0-130 58.316406-130 130v100c0 25.363281 20.636719 46 46 46h28.460938c1.054687 24.4375 21.257812 44 45.949218 44 24.695313 0 44.898438-19.5625 45.949219-44h179.28125c1.050781 24.4375 21.253906 44 45.949219 44 24.691406 0 44.894531-19.5625 45.949218-44h28.460938c25.363281 0 46-20.636719 46-46v-100c0-71.683594-58.316406-130-130-130zm-341.414062 66h75.746093c5.332031 0 9.667969 4.335938 9.667969 9.667969v52.601562c0 5.332031-4.335938 9.667969-9.667969 9.667969h-96.332031v-7.9375c0-23.855469 7.636719-45.957031 20.585938-64zm79.824218 234c-14.335937 0-26-11.664062-26-26s11.664063-26 26-26c14.335938 0 26 11.664062 26 26s-11.664062 26-26 26zm271.179688 0c-14.335938 0-26-11.664062-26-26s11.664062-26 26-26c14.335937 0 26 11.664062 26 26s-11.664063 26-26 26zm4.078125-162.0625c-5.332031 0-9.667969-4.335938-9.667969-9.667969v-52.601562c0-5.332031 4.335938-9.667969 9.667969-9.667969h75.746093c12.949219 18.042969 20.585938 40.144531 20.585938 64v7.9375zm76.332031 60.0625h20v20h-20zm0 0"/><path d="m42.601562 180.929688c-1.871093 1.859374-2.929687 4.441406-2.929687 7.070312s1.058594 5.210938 2.929687 7.070312c1.859376 1.859376 4.4375 2.929688 7.070313 2.929688 2.628906 0 5.207031-1.070312 7.066406-2.929688 1.859375-1.859374 2.933594-4.441406 2.933594-7.070312s-1.070313-5.210938-2.933594-7.070312c-1.859375-1.859376-4.4375-2.929688-7.066406-2.929688-2.632813 0-5.210937 1.070312-7.070313 2.929688zm0 0"/><path d="m166 128.269531c0 16.359375 13.308594 29.667969 29.667969 29.667969h120.664062c16.359375 0 29.667969-13.308594 29.667969-29.667969v-52.601562c0-16.359375-13.308594-29.667969-29.667969-29.667969h-120.664062c-16.359375 0-29.667969 13.308594-29.667969 29.667969zm20-52.601562c0-5.332031 4.335938-9.667969 9.667969-9.667969h120.664062c5.332031 0 9.667969 4.335938 9.667969 9.667969v52.601562c0 5.332031-4.335938 9.667969-9.667969 9.667969h-120.664062c-5.332031 0-9.667969-4.335938-9.667969-9.667969zm0 0"/></svg>