<svg id="Capa_1" enable-background="new 0 0 512 512" viewBox="0 0 512 512" xmlns="http://www.w3.org/2000/svg"><g><g><path d="m91 122h370v380h-370z" fill="#b5b3ee"/><path d="m36 452h370c35.9-55.482 55-120.158 55-186.242v-143.758h-370v143.758c0 66.084-19.1 130.76-55 186.242z" fill="#fff"/><path d="m76 50h400v72h-400z" fill="#ff7d97"/></g><g><path d="m476 40h-30v-10c0-16.542-13.458-30-30-30s-30 13.458-30 30v10h-33.333v-10c0-16.542-13.458-30-30-30s-30 13.458-30 30v10h-33.333v-10c0-16.542-13.458-30-30-30s-30 13.458-30 30v10h-33.334v-10c0-16.542-13.458-30-30-30s-30 13.458-30 30v10h-30c-5.523 0-10 4.477-10 10v72c0 5.523 4.477 10 10 10h5v133.758c0 64.301-18.464 126.824-53.396 180.81-1.99 3.076-2.14 6.993-.389 10.211s5.121 5.221 8.785 5.221h45v40c0 5.523 4.477 10 10 10h140c5.523 0 10-4.477 10-10s-4.477-10-10-10h-130v-30h305c3.392 0 6.553-1.719 8.395-4.567 15.187-23.47 27.436-48.462 36.604-74.482v109.049h-129.999c-5.523 0-10 4.477-10 10s4.477 10 10 10h140c5.523 0 10-4.477 10-10v-370h5c5.523 0 10-4.477 10-10v-72c0-5.523-4.477-10-10-10zm-70-10c0-5.514 4.486-10 10-10s10 4.486 10 10v10h-20zm-93.333 0c0-5.514 4.486-10 10-10s10 4.486 10 10v10h-20zm-93.333 0c0-5.514 4.486-10 10-10s10 4.486 10 10v10h-20zm-93.334 0c0-5.514 4.486-10 10-10s10 4.486 10 10v10h-20zm325 235.758c0 62.496-17.441 123.312-50.492 176.242h-346.674c30.909-53.565 47.166-114.122 47.166-176.242v-133.758h350zm15-153.758h-380v-52h20v20c0 5.523 4.477 10 10 10s10-4.477 10-10v-20h73.334v20c0 5.523 4.477 10 10 10s10-4.477 10-10v-20h73.333v20c0 5.523 4.477 10 10 10s10-4.477 10-10v-20h73.333v20c0 5.523 4.477 10 10 10s10-4.477 10-10v-20h60z"/><path d="m311.076 227h19.924v130c0 5.523 4.477 10 10 10s10-4.477 10-10v-140c0-5.523-4.477-10-10-10h-29.924c-5.523 0-10 4.477-10 10s4.477 10 10 10z"/><path d="m246 347c-12.404 0-23.047-9.243-24.758-21.5-.16-1.15-.242-2.328-.242-3.5 0-5.523-4.477-10-10-10s-10 4.477-10 10c0 2.094.146 4.201.434 6.264 3.082 22.083 22.241 38.736 44.566 38.736 24.813 0 45-20.187 45-45 0-14.121-6.538-26.744-16.746-35 10.208-8.256 16.746-20.879 16.746-35 0-24.813-20.187-45-45-45-21.455 0-40.025 15.262-44.156 36.289-1.064 5.419 2.466 10.675 7.885 11.74 5.417 1.064 10.675-2.466 11.74-7.885 2.293-11.672 12.61-20.144 24.531-20.144 13.785 0 25 11.215 25 25s-11.215 25-25 25c-5.523 0-10 4.477-10 10s4.477 10 10 10c13.785 0 25 11.215 25 25s-11.215 25-25 25z"/><circle cx="276" cy="502" r="10"/></g></g><g/><g/><g/><g/><g/><g/><g/><g/><g/><g/><g/><g/><g/><g/><g/></svg>