<?xml version="1.0" encoding="iso-8859-1"?>
<!-- Generator: Adobe Illustrator 19.0.0, SVG Export Plug-In . SVG Version: 6.00 Build 0)  -->
<svg version="1.1" id="Capa_1" xmlns="http://www.w3.org/2000/svg" xmlns:xlink="http://www.w3.org/1999/xlink" x="0px" y="0px"
	 viewBox="0 0 512 512" style="enable-background:new 0 0 512 512;" xml:space="preserve">
<path style="fill:#FF5D5D;" d="M502,372V90c0-22.091-17.909-40-40-40H50c-22.091,0-40,17.909-40,40v372c0,22.091,17.909,40,40,40
	h322L502,372z"/>
<path style="fill:#FFFFFF;" d="M10,162v300c0,22.091,17.909,40,40,40h322l130-130V162H10z"/>
<rect x="64" y="336" style="fill:#D8D8E4;" width="64" height="64"/>
<rect x="384" y="336" style="fill:#62CD4D;" width="64" height="64"/>
<g>
	<rect x="277.33" y="336" style="fill:#D8D8E4;" width="64" height="64"/>
	<rect x="170.67" y="336" style="fill:#D8D8E4;" width="64" height="64"/>
</g>
<path style="fill:#FF5D5D;" d="M374,502v-88c0-22.091,17.909-40,40-40h88L374,502z"/>
<rect x="64" y="214" style="fill:#D8D8E4;" width="64" height="64"/>
<rect x="384" y="214" style="fill:#62CD4D;" width="64" height="64"/>
<g>
	<rect x="277.33" y="214" style="fill:#D8D8E4;" width="64" height="64"/>
	<rect x="170.67" y="214" style="fill:#D8D8E4;" width="64" height="64"/>
</g>
<path d="M458.33,172c2.64,0,5.21-1.07,7.07-2.93c1.87-1.86,2.93-4.44,2.93-7.07s-1.06-5.21-2.93-7.07
	c-1.86-1.86-4.43-2.93-7.07-2.93c-2.63,0-5.21,1.07-7.07,2.93c-1.86,1.86-2.93,4.44-2.93,7.07s1.07,5.21,2.93,7.07
	S455.7,172,458.33,172z"/>
<path d="M196.5,443.667h-0.15c-5.523,0-10,4.478-10,10s4.477,10,10,10h0.15c5.523,0,10-4.478,10-10S202.023,443.667,196.5,443.667z"
	/>
<path d="M512,90c0-27.57-22.43-50-50-50h-14.254v-6c0-18.748-15.252-34-34-34s-34,15.252-34,34v6h-89.873v-6
	c0-18.748-15.252-34-34-34s-34,15.252-34,34v6H132v-6c0-18.748-15.252-34-34-34S64,15.252,64,34v6H50C22.43,40,0,62.43,0,90v372
	c0,27.57,22.43,50,50,50c0,0,323.667,0,323.998,0c2.602,0,5.16-1.016,7.073-2.929l128-128c2.154-2.155,3.168-5.126,2.878-8.059
	c0.033-0.332,0.051-0.67,0.051-1.012V90z M399.746,34c0-7.72,6.28-14,14-14s14,6.28,14,14v6h-28V34z M241.873,34
	c0-7.72,6.28-14,14-14c7.72,0,14,6.28,14,14v6h-28L241.873,34L241.873,34z M84,34c0-7.72,6.28-14,14-14s14,6.28,14,14v6H84V34z
	 M20.049,463.667H157.84c5.523,0,10-4.478,10-10s-4.477-10-10-10H20V172h389.34c5.523,0,10-4.477,10-10s-4.477-10-10-10H20V90
	c0-16.542,13.458-30,30-30h14v26.168c0,18.748,15.252,34,34,34s34-15.252,34-34c0-5.523-4.477-10-10-10s-10,4.477-10,10
	c0,7.72-6.28,14-14,14s-14-6.28-14-14V60h137.873v26.168c0,18.748,15.252,34,34,34s34-15.252,34-34c0-5.523-4.477-10-10-10
	s-10,4.477-10,10c0,7.72-6.28,14-14,14s-14-6.28-14-14V60h137.873v26.168c0,18.748,15.252,34,34,34s34-15.252,34-34
	c0-5.523-4.477-10-10-10s-10,4.477-10,10c0,7.72-6.28,14-14,14s-14-6.28-14-14V60H462c16.542,0,30,13.458,30,30v274h-34v-28
	c0-5.522-4.477-10-10-10h-64c-5.523,0-10,4.478-10,10v48.035c-6.276,8.356-10,18.734-10,29.965v78H50
	C34.018,492,20.917,479.436,20.049,463.667z M438,364h-24c-7.109,0-13.871,1.501-20,4.187V346h44V364z M384,477.857V414
	c0-16.542,13.458-30,30-30h63.858L384,477.857z"/>
<path d="M128,204H64c-5.523,0-10,4.477-10,10v64c0,5.522,4.477,10,10,10h64c5.523,0,10-4.478,10-10v-64
	C138,208.477,133.523,204,128,204z M118,268H74v-44h44V268z"/>
<path d="M384,288h64c5.523,0,10-4.478,10-10v-64c0-5.523-4.477-10-10-10h-64c-5.523,0-10,4.477-10,10v64
	C374,283.522,378.477,288,384,288z M394,224h44v44h-44V224z"/>
<path d="M341.333,204h-64c-5.523,0-10,4.477-10,10v64c0,5.522,4.477,10,10,10h64c5.523,0,10-4.478,10-10v-64
	C351.333,208.477,346.856,204,341.333,204z M331.333,268h-44v-44h44V268z"/>
<path d="M234.667,204h-64c-5.523,0-10,4.477-10,10v64c0,5.522,4.477,10,10,10h64c5.523,0,10-4.478,10-10v-64
	C244.667,208.477,240.189,204,234.667,204z M224.667,268h-44v-44h44V268z"/>
<path d="M128,326H64c-5.523,0-10,4.478-10,10v64c0,5.522,4.477,10,10,10h64c5.523,0,10-4.478,10-10v-64
	C138,330.478,133.523,326,128,326z M118,390H74v-44h44V390z"/>
<path d="M341.333,326h-64c-5.523,0-10,4.478-10,10v64c0,5.522,4.477,10,10,10h64c5.523,0,10-4.478,10-10v-64
	C351.333,330.478,346.856,326,341.333,326z M331.333,390h-44v-44h44V390z"/>
<path d="M234.667,326h-64c-5.523,0-10,4.478-10,10v64c0,5.522,4.477,10,10,10h64c5.523,0,10-4.478,10-10v-64
	C244.667,330.478,240.189,326,234.667,326z M224.667,390h-44v-44h44V390z"/>
<g>
</g>
<g>
</g>
<g>
</g>
<g>
</g>
<g>
</g>
<g>
</g>
<g>
</g>
<g>
</g>
<g>
</g>
<g>
</g>
<g>
</g>
<g>
</g>
<g>
</g>
<g>
</g>
<g>
</g>
</svg>
