<svg height="512pt" viewBox="0 -45 512 512" width="512pt" xmlns="http://www.w3.org/2000/svg"><path d="m66.65625 50.394531v-40.394531h80.894531v40.394531" fill="#ffe6c0"/><path d="m395.375 50.394531h77.453125c16.109375 0 29.171875 13.0625 29.171875 29.171875v302.605469c0 16.109375-13.058594 29.171875-29.171875 29.171875h-433.65625c-16.113281 0-29.171875-13.0625-29.171875-29.171875v-302.605469c0-16.109375 13.058594-29.171875 29.171875-29.171875h265.753906" fill="#d3d7df"/><path d="m467.226562 230.867188c0 76.792968-62.253906 139.046874-139.046874 139.046874-76.792969 0-139.046876-62.253906-139.046876-139.046874 0-76.792969 62.253907-139.046876 139.046876-139.046876 76.792968 0 139.046874 62.253907 139.046874 139.046876zm0 0" fill="#f5737f"/><path d="m328.179688 322.855469c-50.71875 0-91.984376-41.265625-91.984376-91.988281 0-50.71875 41.265626-91.984376 91.984376-91.984376s91.984374 41.265626 91.984374 91.984376c0 50.722656-41.265624 91.988281-91.984374 91.988281zm0 0" fill="#f9f9f9"/><path d="m67.351562 117.785156h79.5v64.5h-79.5zm0 0" fill="#98a1b3"/><path d="m146.855469 230.191406h-80.199219c-5.523438 0-10-4.476562-10-10 0-5.519531 4.476562-10 10-10h80.195312c5.523438 0 10 4.480469 10 10 .003907 5.523438-4.476562 10-9.996093 10zm0 0"/><path d="m146.855469 192.285156h-79.5c-5.523438 0-10-4.476562-10-10v-64.5c0-5.519531 4.476562-10 10-10h79.5c5.523437 0 10 4.480469 10 10v64.5c0 5.523438-4.480469 10-10 10zm-69.5-20h59.5v-44.5h-59.5zm0 0"/><path d="m349.96875 60.398438c-4.167969 0-8.019531-2.710938-9.414062-6.640626-1.375-3.871093-.207032-8.335937 2.945312-10.988281 3.289062-2.773437 8.085938-3.125 11.746094-.867187 3.496094 2.160156 5.339844 6.417968 4.523437 10.445312-.929687 4.613282-5.085937 8.050782-9.800781 8.050782zm0 0"/><path d="m328.179688 332.855469c-56.234376 0-101.984376-45.75-101.984376-101.988281 0-56.234376 45.75-101.984376 101.984376-101.984376 56.234374 0 101.984374 45.75 101.984374 101.984376 0 56.238281-45.75 101.988281-101.984374 101.988281zm0-183.972657c-45.207032 0-81.984376 36.777344-81.984376 81.984376 0 45.207031 36.777344 81.984374 81.984376 81.984374 45.207031 0 81.984374-36.777343 81.984374-81.984374 0-45.207032-36.777343-81.984376-81.984374-81.984376zm0 0"/><path d="m328.179688 379.914062c-82.1875 0-149.046876-66.859374-149.046876-149.046874 0-82.183594 66.859376-149.046876 149.046876-149.046876 82.183593 0 149.046874 66.863282 149.046874 149.046876 0 82.1875-66.863281 149.046874-149.046874 149.046874zm0-278.09375c-71.15625 0-129.046876 57.890626-129.046876 129.046876s57.890626 129.046874 129.046876 129.046874 129.046874-57.890624 129.046874-129.046874-57.890624-129.046876-129.046874-129.046876zm0 0"/><path d="m472.828125 40.394531h-77.453125c-5.523438 0-10 4.476563-10 10 0 5.523438 4.476562 10 10 10h77.453125c10.570313 0 19.171875 8.601563 19.171875 19.171875v302.605469c0 10.570313-8.601562 19.171875-19.171875 19.171875h-433.65625c-10.570313 0-19.171875-8.601562-19.171875-19.171875v-302.605469c0-10.570312 8.601562-19.171875 19.171875-19.171875h265.753906c5.523438 0 10-4.476562 10-10 0-5.523437-4.476562-10-10-10h-147.375v-30.394531c0-5.523438-4.476562-10-10-10h-80.894531c-5.523438 0-10 4.476562-10 10v30.394531h-17.484375c-21.601563 0-39.171875 17.574219-39.171875 39.171875v302.605469c0 21.597656 17.570312 39.171875 39.171875 39.171875h433.65625c21.601563 0 39.171875-17.574219 39.171875-39.171875v-302.605469c0-21.597656-17.570312-39.171875-39.171875-39.171875zm-396.171875-20.394531h60.894531v20.394531h-60.894531zm0 0"/></svg>