<svg id="Capa_1" enable-background="new 0 0 511.962 511.962" height="512" viewBox="0 0 511.962 511.962" width="512" xmlns="http://www.w3.org/2000/svg"><path id="XMLID_2435_" d="m29.981 501.962v-491.962h296l64 63.962v428z" fill="#eff3f3"/><path id="XMLID_2386_" d="m325.981 9.962v64h64z" fill="#ffe6c0"/><path id="XMLID_2343_" d="m481.981 335.036-56.376-56.376-55.275 55.275-55.275-55.275-56.377 56.376 55.275 55.275-55.275 55.275 56.377 56.376 55.275-55.275 55.275 55.275 56.376-56.376-55.275-55.275z" fill="#f5737f"/><path id="XMLID_383_" d="m101.981 265.962h171.771c5.522 0 10-4.478 10-10s-4.478-10-10-10h-171.771c-5.522 0-10 4.478-10 10s4.477 10 10 10z"/><path id="XMLID_634_" d="m146.981 137.962h171c5.522 0 10-4.478 10-10s-4.478-10-10-10h-171c-5.522 0-10 4.478-10 10s4.477 10 10 10z"/><path id="XMLID_635_" d="m101.981 137.962c2.63 0 5.21-1.07 7.069-2.931 1.86-1.859 2.931-4.439 2.931-7.069s-1.07-5.21-2.931-7.07c-1.859-1.86-4.439-2.93-7.069-2.93s-5.21 1.069-7.07 2.93-2.93 4.43-2.93 7.07c0 2.63 1.069 5.21 2.93 7.069 1.86 1.861 4.44 2.931 7.07 2.931z"/><path id="XMLID_636_" d="m101.981 201.962h216c5.522 0 10-4.478 10-10s-4.478-10-10-10h-216c-5.522 0-10 4.478-10 10s4.477 10 10 10z"/><path id="XMLID_869_" d="m489.052 438.515-48.204-48.204 48.204-48.203c1.875-1.876 2.929-4.419 2.929-7.071s-1.054-5.195-2.929-7.071l-56.376-56.377c-1.876-1.875-4.419-2.929-7.071-2.929s-5.195 1.054-7.071 2.929l-18.553 18.553v-216.18c0-2.653-1.055-5.197-2.931-7.073l-64-63.962c-1.876-1.874-4.418-2.927-7.069-2.927h-296c-5.522 0-10 4.478-10 10v491.962c0 5.522 4.478 10 10 10h360c5.522 0 10-4.478 10-10v-11.482l18.553 18.553c1.953 1.952 4.512 2.929 7.071 2.929s5.118-.977 7.071-2.929l56.376-56.376c3.905-3.905 3.905-10.237 0-14.142zm-153.071-404.383 29.848 29.83h-29.848zm-296-14.132h276v53.962c0 5.522 4.478 10 10 10h54v226.179l-9.651 9.651-48.204-48.204c-1.876-1.875-4.419-2.929-7.071-2.929s-5.195 1.054-7.071 2.929l-38.373 38.374h-167.63c-5.522 0-10 4.478-10 10s4.478 10 10 10h148.094c-.9 1.526-1.397 3.272-1.397 5.074 0 2.652 1.054 5.195 2.929 7.071l31.855 31.854h-181.481c-5.522 0-10 4.478-10 10s4.478 10 10 10h194.179l-44.553 44.553c-3.905 3.905-3.905 10.237 0 14.143l39.305 39.305h-250.931zm340 471.962h-40.784l31.133-31.133 9.651 9.651zm45.624-4.143-48.204-48.204c-1.953-1.952-4.512-2.929-7.071-2.929s-5.118.977-7.071 2.929l-48.204 48.204-42.233-42.233 48.204-48.204c1.875-1.876 2.929-4.419 2.929-7.071s-1.054-5.195-2.929-7.071l-48.204-48.203 42.233-42.234 48.204 48.204c3.906 3.904 10.236 3.904 14.143 0l48.204-48.204 42.233 42.234-48.204 48.203c-1.875 1.876-2.929 4.419-2.929 7.071s1.054 5.195 2.929 7.071l48.204 48.204z"/></svg>