<svg id="Capa_1" enable-background="new 0 0 512.128 512.128" height="512" viewBox="0 0 512.128 512.128" width="512" xmlns="http://www.w3.org/2000/svg"><g><g><path d="m217.435 216.507c0-43.374-18.828-72.627-52.455-97.331 29.327-12.004 62.551-18.606 97.18-18.606 43.549 0 85.439 10.444 120.332 29.725 12.449 2.342 16.867 3.345 23.165 7.824 13.018 9.26 19.149 6.54 28.41-6.479 9.259-13.019 10.776-19.897-2.243-29.157-47.929-34.091-94.947-54.078-159.492-58.314-4.94 0-20.031-1.341-24.926-1.119-89.556 4.062-170.958 44.908-214.932 108.647-.189.274-.365.554-.544.832-11.782 15.746-19.393 34.785-21.181 55.464-.269 3.108.956 9.07.956 12.247 9.54 51.225 45.92 94.984 105.768 94.984s99.962-38.869 99.962-98.717zm-149.236.916c0-27.947 22.736-50.683 50.683-50.683s50.683 22.736 50.683 50.683-22.736 50.683-50.683 50.683-50.683-22.736-50.683-50.683z" fill="#75b7f2"/><path d="m173.398 123.622-8.418-4.446c-.62.882-.168 2.238 2.216 4.446 20.235 17.427 33.074 43.213 33.074 71.95 0 52.363-42.601 94.964-94.964 94.964-48.769 0-89.062-36.955-94.365-84.332-.381 3.691-.599 7.429-.599 11.219 0 59.848 48.69 108.538 108.538 108.538s108.538-48.69 108.538-108.538c.002-39.986-21.744-74.971-54.02-93.801z" fill="#8289f3"/><path d="m435.817 95.58c-47.929-34.091-109.602-52.865-173.657-52.865-5.434 0-10.842.143-16.221.411 50.512 2.7 98.555 18.736 136.665 45.843 11.391 8.102 14.057 23.904 5.956 35.294-1.716 2.413-3.781 4.43-6.073 6.04 6.883 3.804 13.5 7.944 19.798 12.423 13.017 9.26 31.079 6.214 40.339-6.806 9.259-13.019 6.212-31.08-6.807-40.34z" fill="#8289f3"/><path d="m491.844 306.488c0-59.848-59.311-97.505-89.714-104.482-4.997-1.147-16.711-1.836-23.996-3.007-52.721 7.376-93.426 52.769-93.426 107.49 0 39.313 21.01 73.811 52.392 92.857-24.653 7.848-51.389 12.086-78.793 12.086-48.512 0-95.639-13.184-132.701-37.124-13.422-8.669-31.326-4.816-39.995 8.603-1.084 1.677-1.972 3.425-2.67 5.216-1.04 17.692 8.399 25.596 20.141 33.181 46.303 29.909 93.468 39.873 152.981 39.873 45.2 0 85.018-7.632 124.136-25.419 31.254-14.211 55.716-27.216 77.409-50.233 21.062-19.811 34.236-47.915 34.236-79.041zm-98.598-50.683c27.947 0 50.684 22.736 50.684 50.683 0 9.59-2.678 18.566-7.325 26.221-.197.241-.397.48-.588.729-2.96 3.867-6.143 7.604-9.493 11.229-8.911 7.777-20.549 12.504-33.278 12.504-27.946 0-50.683-22.736-50.683-50.683s22.736-50.683 50.683-50.683z" fill="#75b7f2"/><path d="m393.246 197.949c-6.084 0-12.051.511-17.865 1.478 45.178 8 79.598 47.549 79.598 94.987 0 27.664-11.709 52.642-30.427 70.249-19.28 20.456-43.64 37.647-71.417 50.277-34.767 15.809-74.379 24.164-114.551 24.164-52.894 0-104.688-14.64-145.842-41.222-4.24-2.738-7.398-6.517-9.371-10.783-5.546 12.753-1.221 28.011 10.843 35.803 46.304 29.909 104.579 46.381 164.093 46.381 45.2 0 89.769-9.401 128.887-27.188 31.254-14.211 58.663-33.553 80.355-56.569 21.061-19.81 34.235-47.914 34.235-79.04 0-59.847-48.689-108.537-108.538-108.537z" fill="#8289f3"/></g><g fill="#4e0325"><path d="m179.565 217.423c0-33.461-27.222-60.683-60.683-60.683s-60.683 27.222-60.683 60.683 27.222 60.683 60.683 60.683 60.683-27.222 60.683-60.683zm-101.366 0c0-22.433 18.25-40.683 40.683-40.683s40.683 18.251 40.683 40.683c0 22.433-18.251 40.683-40.683 40.683-22.433 0-40.683-18.251-40.683-40.683z"/><path d="m237.42 217.423c0-38.188-18.712-73.892-49.061-95.972 23.352-7.149 48.5-10.881 73.801-10.881 50.081 0 97.786 14.314 134.328 40.305 8.474 6.027 18.788 8.393 29.039 6.664 10.253-1.73 19.22-7.349 25.247-15.823 12.44-17.492 8.33-41.844-9.161-54.284-49.608-35.285-113.339-54.717-179.453-54.717-98.536 0-189.701 43.415-237.917 113.303-.012.018-.024.035-.036.052-.173.253-.339.508-.504.764-15.284 20.556-23.359 44.955-23.359 70.589 0 65.362 53.176 118.538 118.538 118.538s118.538-53.176 118.538-118.538zm-217.076 0c0-21.404 6.775-41.772 19.594-58.903.143-.191.279-.387.408-.588l.104-.163.021-.033c.001-.001.002-.003.003-.005.077-.121.153-.242.235-.361 44.541-64.55 129.396-104.655 221.451-104.655 2.906 0 5.807.04 8.701.119 4.798.131 9.58.371 14.338.718 50.868 3.707 99.145 19.628 138.541 45.855.047.031.096.063.142.094.017.012.035.024.053.035 2.054 1.37 4.082 2.768 6.087 4.193.001.001.002.002.004.003 8.502 6.049 10.498 17.888 4.451 26.391-2.931 4.12-7.291 6.853-12.276 7.693-4.982.841-9.998-.31-14.119-3.24-39.9-28.378-91.723-44.006-145.922-44.006-35.124 0-70.038 6.691-100.967 19.351-3.67 1.502-6.106 5.032-6.208 8.996-.103 3.964 2.147 7.615 5.735 9.305 34.445 16.227 56.701 51.241 56.701 89.201 0 54.334-44.204 98.538-98.538 98.538-54.335 0-98.539-44.204-98.539-98.538z"/><path d="m393.246 187.949c-65.362 0-118.538 53.176-118.538 118.539 0 20.72 5.451 41.129 15.764 59.022 6.405 11.113 14.593 21.125 24.152 29.616-18.276 4.188-37.142 6.304-56.316 6.304-46.61 0-91.812-12.616-127.276-35.524-18.029-11.646-42.174-6.453-53.82 11.577-5.642 8.734-7.545 19.143-5.358 29.309 2.187 10.165 8.201 18.871 16.936 24.512 47.901 30.941 108.104 47.981 169.519 47.981 46.617 0 92.617-9.712 133.026-28.085 32.027-14.563 60.821-34.821 83.29-58.598 23.621-22.334 37.161-53.703 37.161-86.114-.001-65.362-53.178-118.539-118.54-118.539zm67.452 190.295c-.146.138-.288.279-.426.425-20.733 21.998-47.435 40.783-77.217 54.325-37.829 17.2-80.966 26.292-124.748 26.292-57.612 0-113.961-15.904-158.667-44.781-4.247-2.743-7.171-6.976-8.234-11.918-1.063-4.943-.138-10.003 2.605-14.251 3.617-5.6 9.712-8.652 15.929-8.652 3.516 0 7.072.977 10.24 3.023 38.659 24.972 87.714 38.724 138.128 38.724 28.119 0 55.648-4.225 81.825-12.557 3.736-1.189 6.433-4.452 6.897-8.345.464-3.894-1.39-7.699-4.741-9.733-29.793-18.082-47.58-49.599-47.58-84.308 0-54.334 44.204-98.539 98.538-98.539 54.335 0 98.539 44.204 98.539 98.539-.001 27.416-11.041 52.899-31.088 71.756z"/><path d="m393.246 245.805c-33.461 0-60.683 27.222-60.683 60.683s27.222 60.683 60.683 60.683c14.639 0 28.792-5.316 39.853-14.969.27-.235.526-.485.77-.747 3.685-3.988 7.08-8.005 10.083-11.93.08-.105.165-.205.248-.306l.147-.179c.295-.361.565-.743.808-1.142 5.741-9.459 8.775-20.32 8.775-31.41-.001-33.461-27.223-60.683-60.684-60.683zm35.146 81.152c-.105.132-.212.267-.317.405-2.534 3.311-5.397 6.71-8.518 10.108-7.357 6.26-16.681 9.701-26.312 9.701-22.433 0-40.683-18.251-40.683-40.683 0-22.433 18.25-40.683 40.683-40.683s40.684 18.251 40.684 40.683c0 7.21-1.913 14.273-5.537 20.469z"/><path d="m363.592 375.003c-3.313 0-6 2.686-6 6v10.73c0 3.314 2.687 6 6 6 3.314 0 6-2.686 6-6v-10.73c0-3.313-2.686-6-6-6z"/><path d="m399.233 387.25c-3.313 0-6 2.687-6 6v10.73c0 3.313 2.687 6 6 6s6-2.687 6-6v-10.73c0-3.313-2.687-6-6-6z"/></g><g fill="#fff"><path d="m55.562 178.487c-2.029 0-4.075-.615-5.846-1.894-4.478-3.233-5.486-9.484-2.253-13.961 1.492-2.065 3.05-4.138 4.632-6.158 3.405-4.349 9.689-5.114 14.039-1.71 4.349 3.405 5.114 9.69 1.71 14.039-1.423 1.818-2.825 3.681-4.165 5.537-1.955 2.707-5.014 4.147-8.117 4.147z"/><path d="m89.32 147.745c-2.777 0-5.541-1.15-7.518-3.401-3.645-4.149-3.235-10.468.915-14.112 14.75-12.954 31.489-24.349 49.753-33.867 4.898-2.553 10.936-.652 13.489 4.246 2.553 4.897.652 10.937-4.246 13.489-16.843 8.778-32.252 19.262-45.799 31.159-1.897 1.667-4.25 2.486-6.594 2.486z"/></g><g><ellipse cx="494.08" cy="18.29" fill="#75b7f2" rx="17.984" ry="17.984" transform="matrix(.23 -.973 .973 .23 362.763 494.95)"/><ellipse cx="96.908" cy="7.592" fill="#75b7f2" rx="7.592" ry="7.592" transform="matrix(.16 -.987 .987 .16 73.891 102.033)"/><g fill="#98e8f2"><path d="m24.422 11.82-6.093 17.133c-.261.734-.777 1.315-1.429 1.609l-15.223 6.858c-2.151.969-2.151 4.395 0 5.364l15.222 6.858c.652.294 1.168.875 1.429 1.609l6.093 17.133c.861 2.42 3.905 2.42 4.766 0l6.093-17.133c.261-.734.777-1.315 1.429-1.609l15.222-6.858c2.15-.969 2.15-4.395 0-5.364l-15.221-6.858c-.652-.294-1.168-.875-1.429-1.609l-6.093-17.133c-.861-2.421-3.905-2.421-4.766 0z"/><path d="m38.842 433.426-8.214 23.098c-.352.989-1.048 1.773-1.927 2.168l-20.521 9.245c-2.899 1.306-2.899 5.926 0 7.232l20.521 9.246c.879.396 1.575 1.18 1.927 2.168l8.214 23.098c1.16 3.263 5.265 3.263 6.425 0l8.214-23.098c.352-.989 1.048-1.773 1.927-2.168l20.521-9.246c2.899-1.306 2.899-5.926 0-7.232l-20.521-9.246c-.879-.396-1.575-1.18-1.927-2.168l-8.214-23.098c-1.16-3.263-5.264-3.263-6.425.001z"/></g></g></g></svg>