<svg id="Capa_1" enable-background="new 0 0 512 512" height="512" viewBox="0 0 512 512" width="512" xmlns="http://www.w3.org/2000/svg"><g><g><path d="m416.105 287.296c-13.271 0-28.058 6.643-48.931 22.504l-8.454-135.338c0-63.117-42.112-107.074-106.012-114.835-33.263 0-63.253 14.266-84.186 36.995-16.769-16.607-39.821-26.881-65.23-26.881-51.143 0-92.751 41.607-92.751 92.751 0 15.961 12.939 28.9 28.9 28.9s28.9-12.939 28.9-28.9c0-19.271 15.679-34.95 34.95-34.95s34.95 15.679 34.95 34.95v208.421c1.862 5.052 4.139 8.581 4.139 8.581s7.54 17.026 23.501 17.026 23.501-10.897 23.501-26.858l.48-200.954c0-31.245 29.975-55.634 62.846-51.281 31.245 0 56.666 25.42 56.666 56.666v186.742c-11.52 10.996-24.241 23.403-38.373 37.346-17.155 16.924-36.598 36.107-42.729 40.482-7.608 5.429-18.271 5.47-26.118 5.47-.062 0-.136.003-.183 0-14.863 0-27.106 11.221-28.72 25.653.816 2.217 5.613 6.879 6.037 7.891 6.818 7.128 16.579 11.776 32.54 11.776 8.452 0 19.012.634 41.615-15.495 9.417-6.721 27.132-22.603 52.597-47.726 8.706-8.59 20.983-10.233 32.768-15.905 2.653 2.677 8.567 5.89 11.545 8.659 25.73 23.926 46.089 30.449 66.657 30.449 46.616 0 74.115-30.938 74.115-77.553 0-39.616-19.398-64.638-54.706-82.121-6.51-1.61-13.314-2.465-20.314-2.465zm.108 111.28c-2.589-.271-12.859-4.452-30.091-20.586-1.721-1.611-3.386-3.224-4.98-4.81 23.553-20.625 33.86-26.441 37.212-27.99 13.697 1.145 24.491 12.658 24.491 26.646 0 14.708-11.936 26.682-26.632 26.74z" fill="#fff2a5"/><g fill="#ffb7a9"><path d="m367.174 309.799v-135.706c0-62.105-49.716-112.815-111.439-114.426-2.55.066-5.08.216-7.587.445 53.06 5.081 94.694 49.902 94.694 104.271v124.195c.151 14.425 16.617 23.514 24.332 21.221z"/><path d="m435.142 289.484c14.73 14.094 23.931 33.921 23.931 55.869 0 42.662-34.708 77.37-77.37 77.37-10.559 0-21.679-3.36-33.563-10.167-16.621-8.844-29.084-7.513-29.16-7.505-7.53-.049-15.55 2.801-22.888 9.766-2.231 2.117-4.356 4.295-6.489 6.399-23.305 22.992-34.784 33.949-43.402 40.1-20.685 14.761-43.499 14.845-54.606 14.845h-.192c-3.756 0-7.325-.788-10.561-2.199-2.712-1.131-5.281-2.646-7.587-4.174 0 .004 0 .008-.001.012.814 2.211 1.586 3.995 2.009 5.005 7.089 16.923 19.717 21.676 35.679 21.676 8.452 0 23.287.07 45.889-16.058 9.417-6.721 25.325-21.688 50.789-46.811 8.706-8.59 19.427-15.331 31.211-21.002 2.654 2.677 5.491 5.443 8.469 8.212 25.73 23.925 48.236 35.556 68.804 35.556 46.616 0 84.54-37.925 84.54-84.541.002-40.07-28.027-73.692-65.502-82.353z"/><path d="m167.142 404.466c15.961 0 28.9-12.939 28.9-28.9v-201.473c0-31.245 25.42-56.666 56.666-56.666.246 0 .488.015.734.019-1.983-1-3.887-1.909-5.294-2.488-4.865-2.002-14.177-4.941-22.065-4.941-28.595 0-51.859 23.264-51.859 51.859v184.383c0 14.607-11.842 26.449-26.449 26.449-3.365 0-6.574-.647-9.533-1.794v4.652c0 15.96 12.94 28.9 28.9 28.9z"/></g></g><g fill="#4e0325"><path d="m416.105 277.23c-11.873 0-24.045 4.085-38.865 13.306v-116.443c0-68.668-55.865-124.533-124.532-124.533-31.335 0-61.63 11.992-84.56 33.197-18.302-14.95-40.983-23.082-64.856-23.082-56.694 0-102.817 46.124-102.817 102.817 0 21.486 17.48 38.966 38.966 38.966s38.966-17.48 38.966-38.966c0-13.721 11.163-24.884 24.884-24.884s24.884 11.163 24.884 24.884v213.073c0 21.486 17.48 38.966 38.966 38.966s38.966-17.48 38.966-38.966v-201.472c0-25.695 20.905-46.6 46.6-46.6s46.599 20.905 46.599 46.6v182.441c-10.076 9.659-21.691 20.98-35.385 34.49-15.201 14.997-36.02 35.536-41.498 39.446-5.042 3.598-13.844 3.598-20.271 3.598-.037.001-.116.001-.184 0-21.485 0-38.966 17.48-38.966 38.964-.001 21.486 17.479 38.967 38.965 38.968h.21c12.017 0 40.16 0 65.515-18.093 10.04-7.165 25.143-21.931 51.013-47.455 6.551-6.463 13.268-13.09 20.116-19.783.544.514 1.085 1.021 1.624 1.523 27.681 25.738 52.429 38.25 75.659 38.25 52.166 0 94.606-42.44 94.606-94.606.002-52.166-42.438-94.606-94.605-94.606zm0 169.08c-17.905 0-38.169-10.749-61.95-32.861-2.687-2.498-5.437-5.165-8.174-7.927-3.883-3.918-10.198-3.98-14.158-.139-9.346 9.067-18.451 18.05-27.298 26.778-24.367 24.04-39.747 39.092-48.526 45.357-20.108 14.349-42.878 14.349-53.821 14.349h-.21c-10.385-.001-18.834-8.45-18.833-18.835.001-10.356 8.403-18.787 18.749-18.833.094.003.186.001.269 0 8.631 0 21.676 0 31.966-7.343 6.295-4.492 22.184-20.035 43.952-41.51 15.039-14.838 27.552-27.016 38.253-37.23 1.99-1.9 3.116-4.531 3.116-7.282v-186.741c0-36.796-29.936-66.732-66.732-66.732s-66.732 29.936-66.732 66.732v201.472c0 10.385-8.449 18.834-18.834 18.834s-18.834-8.449-18.834-18.834v-213.073c0-24.822-20.194-45.016-45.016-45.016s-45.016 20.194-45.016 45.016c0 10.385-8.449 18.834-18.834 18.834s-18.834-8.449-18.834-18.834c0-45.592 37.092-82.684 82.684-82.684 21.891 0 42.542 8.511 58.147 23.966 1.941 1.923 4.568 2.969 7.315 2.912 2.732-.063 5.322-1.234 7.173-3.244 19.752-21.447 47.738-33.748 76.781-33.748 57.566 0 104.4 46.834 104.4 104.4v135.706c0 3.824 2.167 7.318 5.593 9.018 3.427 1.7 7.519 1.311 10.563-1.003 18.614-14.144 31.826-20.452 42.841-20.452 41.066 0 74.474 33.409 74.474 74.474.001 41.064-33.408 74.473-74.474 74.473z"/><path d="m419.193 335.158c-1.734-.144-3.48.163-5.061.894-4.642 2.145-15.962 8.838-39.62 29.555-2.099 1.838-3.341 4.465-3.43 7.254-.088 2.789.985 5.489 2.963 7.457 1.745 1.735 3.494 3.424 5.198 5.02 14.674 13.74 28.104 22.431 35.924 23.249.348.036.697.055 1.047.055h.04c20.213-.08 36.658-16.591 36.658-36.806-.001-18.986-14.812-35.096-33.719-36.678zm-1.866 53.307c-1.939-.76-8.961-4.012-21.151-14.918 12.98-10.878 20.373-15.794 23.945-17.895 7.277 1.817 12.659 8.477 12.659 16.184-.001 8.77-6.833 16.002-15.453 16.629z"/><path d="m339.2 328.188c-3.335 0-6.04 2.704-6.04 6.04v10.801c0 3.335 2.704 6.04 6.04 6.04 3.335 0 6.04-2.704 6.04-6.04v-10.801c-.001-3.336-2.705-6.04-6.04-6.04z"/><path d="m353.195 367.659c-3.335 0-6.04 2.704-6.04 6.04v10.801c0 3.335 2.704 6.04 6.04 6.04 3.335 0 6.04-2.704 6.04-6.04v-10.801c-.001-3.335-2.705-6.04-6.04-6.04z"/></g><g fill="#fff"><path d="m95.543 108.698c-5.29 0-9.725-4.127-10.04-9.476-.326-5.55 3.909-10.313 9.458-10.64 1.3-.076 2.622-.115 3.928-.115 5.559 0 10.066 4.507 10.066 10.066s-4.507 10.066-10.066 10.066c-.914 0-1.838.027-2.746.081-.201.013-.402.018-.6.018z"/><path d="m47.393 142.312c-1.349 0-2.719-.272-4.034-.848-5.093-2.231-7.412-8.167-5.181-13.259 5.389-12.301 14.273-22.574 25.692-29.708 4.715-2.947 10.925-1.513 13.87 3.203 2.946 4.715 1.512 10.925-3.203 13.87-7.967 4.979-14.164 12.141-17.919 20.713-1.654 3.778-5.349 6.029-9.225 6.029z"/></g><g><circle cx="168.746" cy="18.103" fill="#ffe35c" r="18.103"/><ellipse cx="436.487" cy="140.841" fill="#ffe35c" rx="7.642" ry="7.642" transform="matrix(.16 -.987 .987 .16 227.547 549.132)"/><g fill="#fff2a5"><path d="m482.208 183.523-6.134 17.246c-.263.739-.783 1.324-1.439 1.619l-15.323 6.903c-2.165.976-2.165 4.424 0 5.4l15.323 6.904c.656.295 1.176.881 1.439 1.619l6.134 17.247c.867 2.436 3.931 2.436 4.797 0l6.134-17.247c.263-.738.782-1.324 1.439-1.619l15.323-6.904c2.165-.975 2.165-4.424 0-5.4l-15.323-6.903c-.656-.296-1.176-.881-1.439-1.619l-6.134-17.246c-.866-2.437-3.93-2.437-4.797 0z"/><path d="m403.324 2.464-8.269 23.25c-.354.996-1.055 1.784-1.939 2.183l-20.657 9.307c-2.918 1.315-2.918 5.965 0 7.28l20.657 9.307c.884.398 1.585 1.187 1.939 2.183l8.269 23.25c1.168 3.285 5.299 3.285 6.468 0l8.269-23.25c.354-.995 1.055-1.784 1.939-2.183l20.657-9.307c2.918-1.315 2.918-5.965 0-7.28l-20.657-9.307c-.884-.398-1.585-1.187-1.939-2.183l-8.269-23.25c-1.168-3.285-5.3-3.285-6.468 0z"/></g></g></g></svg>