<svg height="512pt" viewBox="0 -73 512 512" width="512pt" xmlns="http://www.w3.org/2000/svg"><g fill-rule="evenodd"><path d="m124.671875 10v345.992188h377.328125v-345.992188zm246.222656 190.746094c-22.417969 0-40.699219-18.285156-40.699219-40.703125s18.28125-40.699219 40.699219-40.699219 40.703125 18.28125 40.703125 40.699219-18.285156 40.703125-40.703125 40.703125zm0 0" fill="#e4e6ee"/><path d="m389.035156 123.632812c-13.351562 6.691407-22.5625 20.507813-22.5625 36.410157 0 15.90625 9.210938 29.71875 22.5625 36.410156 13.351563-6.691406 22.5625-20.503906 22.5625-36.410156 0-15.902344-9.210937-29.71875-22.5625-36.410157zm0 0" fill="#ffd255"/><path d="m411.585938 160.761719h.011718v103.222656c-22.277344 0-40.5-18.226563-40.5-40.5v-22.742187c22.140625-.109376 40.105469-17.902344 40.488282-39.980469zm0 0" fill="#f74f5c"/><path d="m330.394531 164.105469v99.878906c22.277344 0 40.5-18.226563 40.5-40.5v-22.742187c-21.101562 0-38.460937-16.070313-40.5-36.636719zm0 0" fill="#f74f5c"/></g><path d="m502 0h-371.59375c-5.523438 0-10 4.476562-10 10s4.476562 10 10 10h361.59375v325.992188h-472v-325.992188h31.4375c5.523438 0 10-4.476562 10-10s-4.476562-10-10-10h-41.4375c-5.523438 0-10 4.476562-10 10v345.992188c0 5.523437 4.476562 10 10 10h492c5.523438 0 10-4.476563 10-10v-345.992188c0-5.523438-4.476562-10-10-10zm0 0"/><path d="m446.722656 115.28125v135.429688c0 5.523437 4.476563 10 10 10 5.519532 0 10-4.476563 10-10v-135.429688c0-5.523438-4.480468-10-10-10-5.523437 0-10 4.476562-10 10zm0 0"/><path d="m472.804688 39.195312c-3.902344-3.90625-10.234376-3.90625-14.144532 0l-31.648437 31.652344c-3.90625 3.902344-3.90625 10.234375 0 14.140625 1.953125 1.953125 4.511719 2.929688 7.070312 2.929688 2.558594 0 5.117188-.976563 7.070313-2.929688l31.652344-31.652343c3.90625-3.902344 3.90625-10.234376 0-14.140626zm0 0"/><path d="m427.011719 295.144531 31.648437 31.652344c1.953125 1.953125 4.515625 2.925781 7.074219 2.925781s5.117187-.972656 7.070313-2.925781c3.90625-3.90625 3.90625-10.238281 0-14.144531l-31.652344-31.652344c-3.90625-3.90625-10.234375-3.90625-14.140625 0s-3.90625 10.238281 0 14.144531zm0 0"/><path d="m114.367188 65.277344h283.265624c5.523438 0 10-4.476563 10-10 0-5.519532-4.476562-10-10-10h-283.265624c-5.523438 0-10 4.480468-10 10 0 5.523437 4.476562 10 10 10zm0 0"/><path d="m45.28125 115.28125v135.429688c0 5.523437 4.476562 10 10 10s10-4.476563 10-10v-135.429688c0-5.523438-4.476562-10-10-10s-10 4.476562-10 10zm0 0"/><path d="m77.917969 87.917969c2.558593 0 5.121093-.976563 7.070312-2.929688 3.90625-3.902343 3.90625-10.234375 0-14.140625l-31.648437-31.652344c-3.90625-3.90625-10.238282-3.90625-14.144532 0s-3.90625 10.238282 0 14.144532l31.652344 31.648437c1.953125 1.953125 4.511719 2.929688 7.070313 2.929688zm0 0"/><path d="m114.367188 320.710938h283.265624c5.523438 0 10-4.476563 10-10 0-5.523438-4.476562-10-10-10h-283.265624c-5.523438 0-10 4.476562-10 10 0 5.523437 4.476562 10 10 10zm0 0"/><path d="m39.195312 326.796875c1.953126 1.953125 4.511719 2.925781 7.070313 2.925781s5.121094-.972656 7.074219-2.925781l31.648437-31.652344c3.90625-3.90625 3.90625-10.238281 0-14.144531-3.902343-3.902344-10.234375-3.902344-14.140625 0l-31.652344 31.652344c-3.90625 3.90625-3.90625 10.238281 0 14.144531zm0 0"/><path d="m321.472656 107.539062c5.523438 0 10-4.476562 10-10 0-5.523437-4.476562-10-10-10h-130.945312c-5.523438 0-10 4.476563-10 10 0 5.523438 4.476562 10 10 10zm0 0"/><path d="m81.296875 147.996094c0 5.523437 4.476563 10 10 10h69.703125c5.523438 0 10-4.476563 10-10 0-5.523438-4.476562-10-10-10h-69.703125c-5.523437 0-10 4.476562-10 10zm0 0"/><path d="m81.296875 182.996094c0 5.523437 4.476563 10 10 10h186.71875c5.523437 0 10-4.476563 10-10 0-5.523438-4.476563-10-10-10h-186.71875c-5.523437 0-10 4.476562-10 10zm0 0"/><path d="m291.824219 227.996094c5.523437 0 10-4.476563 10-10 0-5.523438-4.476563-10-10-10h-200.527344c-5.523437 0-10 4.476562-10 10 0 5.523437 4.476563 10 10 10zm0 0"/><path d="m292.1875 242.996094h-148.429688c-5.523437 0-10 4.476562-10 10 0 5.519531 4.476563 10 10 10h148.429688c5.523438 0 10-4.480469 10-10 0-5.523438-4.476562-10-10-10zm0 0"/><path d="m114.199219 262.996094h.472656c5.523437 0 10-4.480469 10-10 0-5.523438-4.476563-10-10-10h-.472656c-5.523438 0-10 4.476562-10 10 0 5.519531 4.476562 10 10 10zm0 0"/><path d="m370.894531 109.339844c-27.957031 0-50.699219 22.746094-50.699219 50.703125 0 1.476562.078126 2.933593.199219 4.375l.003907 99.566406c0 5.523437 4.476562 10 10 10 16.621093 0 31.390624-8.078125 40.597656-20.511719 9.207031 12.433594 23.976562 20.511719 40.601562 20.511719 5.519532 0 10-4.476563 10-10v-103.222656c0-.074219-.011718-.148438-.011718-.226563 0-.164062.011718-.328125.011718-.492187 0-27.957031-22.746094-50.703125-50.703125-50.703125zm0 20c16.929688 0 30.703125 13.773437 30.703125 30.703125 0 .28125-.015625.558593-.019531.839843-.011719.371094-.027344.746094-.050781 1.117188-.007813.128906-.019532.253906-.027344.382812-.03125.402344-.066406.800782-.113281 1.199219-.007813.070313-.015625.140625-.027344.210938-1.800781 14.546875-13.980469 26.074219-28.761719 26.902343-.003906 0-.003906 0-.007812 0-.414063.023438-.828125.03125-1.246094.039063-.148438 0-.296875.007813-.449219.007813-.515625 0-1.03125-.011719-1.542969-.039063-.09375-.003906-.1875-.011719-.28125-.019531-.425781-.023438-.851562-.054688-1.273437-.097656-.0625-.003907-.117187-.011719-.175781-.019532-13.851563-1.476562-24.976563-12.195312-27.070313-25.851562v-.003906c-.070312-.445313-.125-.898438-.171875-1.355469-.007812-.066407-.019531-.128907-.027344-.195313-.101562-1.027344-.15625-2.066406-.15625-3.117187 0-16.929688 13.773438-30.703125 30.699219-30.703125zm-10 94.144531c0 13.316406-8.578125 24.667969-20.5 28.816406v-51.675781c5.957031 4.46875 12.933594 7.644531 20.5 9.144531zm40.703125 28.816406c-11.921875-4.148437-20.5-15.5-20.5-28.816406v-13.765625c1.605469-.328125 3.1875-.746094 4.746094-1.226562.046875-.015626.089844-.027344.132812-.039063.761719-.238281 1.511719-.496094 2.257813-.765625.035156-.011719.074219-.023438.109375-.039062 4.730469-1.730469 9.199219-4.15625 13.253906-7.25zm0 0"/><path d="m80.523438 20h.472656c5.523437 0 10-4.476562 10-10s-4.476563-10-10-10h-.472656c-5.523438 0-10 4.476562-10 10s4.476562 10 10 10zm0 0"/></svg>