<svg id="Capa_1" enable-background="new 0 0 512.006 512.006" height="512" viewBox="0 0 512.006 512.006" width="512" xmlns="http://www.w3.org/2000/svg"><g><g><path d="m301.007 15.876c74.283 19.834 128.996 87.59 128.996 168.124 0 96.097-77.902 174-174 174s-174-77.903-174-174c0-80.535 54.714-148.291 128.997-168.124 11.22-2.981 26.61-5.876 45.003-5.876 18.394 0 33.784 2.895 45.004 5.876z" fill="#ccf5fc"/><path d="m170.609 268v-22.598c-.524-34.845 29.071-64.383 63.899-63.889h42.991c34.828-.494 64.423 29.044 63.899 63.889v22.598z" fill="#a0e5a5"/><path d="m256.003 181.508c-27.041 0-48.962-21.921-48.962-48.961v-19.585c0-27.041 21.921-48.961 48.961-48.961 27.041 0 48.961 21.921 48.961 48.961v19.585c.001 27.04-21.919 48.961-48.96 48.961z" fill="#ffdcd5"/></g><g><path d="m256.003 368c101.458 0 184-82.542 184-184 0-83.231-56.097-156.34-136.416-177.785-5.332-1.428-10.817 1.746-12.241 7.081-1.425 5.336 1.745 10.816 7.081 12.241 71.582 19.113 121.576 84.275 121.576 158.463 0 90.43-73.57 164-164 164s-164-73.57-164-164c0-74.188 49.994-139.351 121.577-158.463 5.336-1.424 8.507-6.904 7.082-12.24-1.425-5.337-6.905-8.515-12.241-7.082-80.321 21.444-136.418 94.553-136.418 177.785 0 101.458 82.542 184 184 184z"/><circle cx="256.003" cy="10" r="10"/><path d="m314.965 132.546v-19.585c0-32.511-26.45-58.961-58.962-58.961-32.511 0-58.961 26.45-58.961 58.961v19.585c0 16.267 6.622 31.016 17.312 41.695-11.959 3.403-23.124 9.887-32.163 18.934-13.986 13.998-21.849 33.056-21.582 52.3v22.525c0 5.522 4.477 10 10 10h170.789c5.522 0 10-4.478 10-10v-22.525c.268-19.244-7.596-38.302-21.581-52.3-9.043-9.051-20.208-15.526-32.171-18.928 10.694-10.679 17.319-25.43 17.319-41.701zm-97.923-19.585c0-21.483 17.478-38.961 38.961-38.961s38.962 17.478 38.962 38.961v19.585c0 21.483-17.478 38.962-38.962 38.962s-38.961-17.479-38.961-38.962zm114.356 132.291c-.001.05-.001.1-.001.15v12.598h-27.993v-17.41c0-5.522-4.478-10-10-10-5.523 0-10 4.478-10 10v17.41h-54.803v-17.41c0-5.522-4.477-10-10-10s-10 4.478-10 10v17.41h-27.993v-12.598c0-.05 0-.1-.001-.15-.21-13.897 5.524-27.726 15.731-37.941 10.059-10.067 23.628-15.803 37.332-15.803.231 0 .464.002.695.005.047.001.095.001.142.001h42.991c.047 0 .095 0 .142-.001 13.928-.196 27.799 5.561 38.028 15.798 10.206 10.215 15.939 24.044 15.73 37.941z"/><path d="m401.105 396c-5.522.054-9.956 4.574-9.903 10.097l.63 65.029-48.775-70.629c-2.486-3.602-7.023-5.164-11.205-3.864-4.178 1.303-7.023 5.171-7.023 9.547v95.82c0 5.522 4.478 10 10 10s10-4.478 10-10v-63.742l46.561 67.424c3.018 4.359 8.021 6.223 12.744 4.749 4.839-1.512 7.966-6.091 7.966-11.763l-.898-92.765c-.055-5.523-4.605-9.941-10.097-9.903z"/><path d="m168.747 491.919c-.019 0-.038 0-.057 0-8.23.046-17.09.078-23.56.081v-86c0-5.522-4.477-10-10-10s-10 4.478-10 10v95.919c0 4.868 3.505 9.029 8.303 9.854.725.125 1.345.233 11.82.233 5.114 0 12.579-.025 23.548-.087 5.523-.031 9.975-4.533 9.944-10.056-.03-5.504-4.501-9.944-9.998-9.944z"/><path d="m210.746 396c-5.523 0-10 4.478-10 10v96c0 5.522 4.477 10 10 10s10-4.478 10-10v-96c0-5.522-4.477-10-10-10z"/><path d="m292.827 416.439c5.522 0 10-4.478 10-10 0-5.523-4.478-10-10-10h-40.081c-5.523 0-10 4.477-10 10v95.123c0 5.523 4.477 10 10 10h40.081c5.522 0 10-4.477 10-10 0-5.522-4.478-10-10-10h-30.081v-27.562h27.126c5.523 0 10-4.478 10-10s-4.477-10-10-10h-27.126v-27.561z"/><path d="m99.555 480.786c-4.233-3.548-10.54-2.995-14.088 1.238-.897 1.07-1.867 2.071-2.884 2.977-5.214 4.645-11.839 6.999-19.692 6.999-20.953 0-38-17.047-38-38s17.047-38 38-38c7.615 0 14.96 2.242 21.24 6.484 4.576 3.092 10.793 1.887 13.884-2.69s1.887-10.793-2.689-13.885c-9.599-6.483-20.814-9.91-32.435-9.91-31.981 0-58 26.019-58 58s26.019 58 58 58c12.725 0 24.134-4.172 32.994-12.062 1.738-1.548 3.39-3.252 4.909-5.064 3.548-4.231 2.993-10.538-1.239-14.087z"/><path d="m497.115 396h-53.017c-5.523 0-10 4.478-10 10s4.477 10 10 10h16.402v86c0 5.522 4.477 10 10 10 5.522 0 10-4.478 10-10v-86h16.615c5.522 0 10-4.478 10-10s-4.477-10-10-10z"/></g></g></svg>