<svg id="Capa_1" enable-background="new 0 0 512 512" height="512" viewBox="0 0 512 512" width="512" xmlns="http://www.w3.org/2000/svg"><circle id="XMLID_1765_" cx="256" cy="72.969" fill="#e1e3e9" r="28"/><path id="XMLID_1764_" d="m419.818 466.969h42.182c22.091 0 40-17.909 40-40v-159.999c0-22.091-17.909-40-40-40h-412c-22.091 0-40 17.909-40 40v159.999c0 22.091 17.909 40 40 40h289.553z" fill="#f5737f"/><path id="XMLID_192_" d="m462 216.969h-44.957l-127.048-127.047c2.557-5.108 4.005-10.863 4.005-16.953 0-20.953-17.047-38-38-38s-38 17.047-38 38c0 6.09 1.448 11.845 4.005 16.952l-127.048 127.048h-44.957c-27.57 0-50 22.43-50 50v159.999c0 27.57 22.43 50 50 50h161.063c5.522 0 10-4.477 10-10s-4.478-10-10-10h-161.063c-16.542 0-30-13.458-30-30v-159.999c0-16.542 13.458-30 30-30h412c16.542 0 30 13.458 30 30v159.999c0 16.542-13.458 30-30 30h-160.937c-5.522 0-10 4.477-10 10s4.478 10 10 10h160.937c27.57 0 50-22.43 50-50v-159.999c0-27.57-22.43-50-50-50zm-206-162c9.925 0 18 8.075 18 18s-8.075 18-18 18-18-8.075-18-18 8.075-18 18-18zm-20.639 49.882c5.948 3.864 13.033 6.119 20.639 6.119s14.691-2.255 20.639-6.119l112.119 112.119h-265.516z"/><path id="XMLID_194_" d="m134 296.969c-5.522 0-10 4.477-10 10v80c0 5.523 4.478 10 10 10h24c5.522 0 10-4.477 10-10s-4.478-10-10-10h-14v-70c0-5.523-4.478-10-10-10z"/><path id="XMLID_812_" d="m248 326.972c0-16.542-13.458-30-30-30s-30 13.458-30 30v39.994c0 16.542 13.458 30 30 30s30-13.458 30-30zm-20 39.994c0 5.514-4.486 10-10 10s-10-4.486-10-10v-39.994c0-5.514 4.486-10 10-10s10 4.486 10 10z"/><path id="XMLID_813_" d="m331.941 366.969c0-16.542-14.372-30-32.037-30-6.638 0-12.037-4.486-12.037-10s5.399-10 12.037-10h12.254c5.522 0 10-4.477 10-10s-4.478-10-10-10h-12.254c-17.665 0-32.037 13.458-32.037 30s14.372 30 32.037 30c6.638 0 12.037 4.486 12.037 10s-5.399 10-12.037 10h-13.746c-5.522 0-10 4.477-10 10s4.478 10 10 10h13.746c17.665 0 32.037-13.458 32.037-30z"/><path id="XMLID_817_" d="m388.141 316.969c5.522 0 10-4.477 10-10s-4.478-10-10-10h-32c-5.522 0-10 4.477-10 10v80c0 5.523 4.478 10 10 10h32c5.522 0 10-4.477 10-10s-4.478-10-10-10h-22v-20h11.845c5.522 0 10-4.477 10-10s-4.478-10-10-10h-11.845v-20z"/><path id="XMLID_1438_" d="m449.481 396.969c15.889 0 28.815-12.926 28.815-28.815v-42.37c0-15.889-12.927-28.815-28.815-28.815h-21.185c-5.522 0-10 4.477-10 10v80c0 5.523 4.478 10 10 10zm-11.184-80h11.185c4.861 0 8.815 3.955 8.815 8.815v42.37c0 4.86-3.954 8.815-8.815 8.815h-11.185z"/><path id="XMLID_1439_" d="m72 316.972c6.617 0 12 5.383 12 12 0 5.523 4.478 10 10 10s10-4.477 10-10c0-17.645-14.355-32-32-32s-32 14.355-32 32v35.994c0 17.645 14.355 32 32 32s32-14.355 32-32c0-5.523-4.478-10-10-10s-10 4.477-10 10c0 6.617-5.383 12-12 12s-12-5.383-12-12v-35.994c0-6.617 5.383-12 12-12z"/><path id="XMLID_1440_" d="m256.06 457.031c-2.63 0-5.21 1.07-7.069 2.93-1.86 1.86-2.931 4.44-2.931 7.07s1.07 5.21 2.931 7.07c1.859 1.86 4.439 2.93 7.069 2.93s5.21-1.07 7.07-2.93c1.87-1.86 2.93-4.44 2.93-7.07s-1.06-5.21-2.93-7.07c-1.86-1.861-4.441-2.93-7.07-2.93z"/></svg>