<svg id="Capa_1" enable-background="new 0 0 512 512" viewBox="0 0 512 512" xmlns="http://www.w3.org/2000/svg"><g><g><g><path clip-rule="evenodd" d="m502 453.422v-198.863c0-11.231-9.105-20.336-20.336-20.336h-451.328c-11.231 0-20.336 9.105-20.336 20.336v198.864c0 11.231 9.105 20.336 20.336 20.336h451.328c11.232-.001 20.336-9.106 20.336-20.337z" fill="#ff5a58" fill-rule="evenodd"/></g><g><circle clip-rule="evenodd" cx="256" cy="73.115" fill="#fee6b9" fill-rule="evenodd" r="34.875"/></g></g><g><path d="m420.52 392.858h.038c.494-.002 12.173-.047 16.85-.128 18.926-.331 32.662-16.623 32.662-38.739 0-22.884-13.7-38.867-33.315-38.867h-16.352c-2.655 0-5.202 1.056-7.078 2.936s-2.927 4.429-2.922 7.084l.117 57.734c.006 2.655 1.066 5.199 2.949 7.071 1.874 1.863 4.409 2.909 7.051 2.909zm16.234-57.735c12.355 0 13.315 14.441 13.315 18.867 0 9.216-4.023 18.585-13.012 18.742-1.569.027-4.02.051-6.559.07l-.076-37.679z"/><path d="m136.388 314.857c-5.522 0-10 4.477-10 10v58.218c0 4.871 3.509 9.033 8.31 9.856.722.124 15.447.181 22.148.144 5.522-.031 9.975-4.533 9.944-10.056-.032-5.522-4.519-9.99-10.056-9.944-3.482.02-7.135.035-10.347.042v-48.26c.001-5.523-4.477-10-9.999-10z"/><path d="m380.792 335.123c5.522 0 10-4.477 10-10s-4.478-10-10-10h-24.327c-5.522 0-10 4.477-10 10v57.734c0 5.523 4.478 10 10 10h24.327c5.522 0 10-4.477 10-10s-4.478-10-10-10h-14.327v-8.867h12.533c5.522 0 10-4.477 10-10s-4.478-10-10-10h-12.533v-8.867z"/><path d="m81.064 334.857c3.836 0 7.532 1.128 10.691 3.262 4.575 3.092 10.793 1.889 13.884-2.688 3.092-4.576 1.889-10.792-2.688-13.884-6.478-4.376-14.046-6.689-21.887-6.689-21.578 0-39.133 17.555-39.133 39.133s17.555 39.133 39.133 39.133c8.703 0 16.531-2.876 22.643-8.319 1.198-1.067 2.333-2.239 3.374-3.48 3.549-4.232 2.993-10.54-1.239-14.088-4.231-3.547-10.539-2.995-14.087 1.239-.422.502-.877.973-1.353 1.396-2.423 2.158-5.564 3.252-9.338 3.252-10.55 0-19.133-8.583-19.133-19.133s8.584-19.134 19.133-19.134z"/><path d="m327.762 370.816c.521-5.666-.21-19.561-18.229-26.208-2.908-1.073-5.44-1.849-7.674-2.535-4.294-1.317-6.412-2.006-7.632-3.251-.331-.337-.578-1.112-.42-1.728.238-.928 1.688-1.493 2.532-1.747 6.859-2.063 13.481 3.169 13.548 3.222l-.082-.067s7.797 6.059 13.989-1.868c6.141-7.86-1.12-13.443-1.12-13.443-5.422-4.556-18.281-11.158-32.104-6.994-8.296 2.5-14.176 8.302-16.134 15.92-1.894 7.372.216 15.305 5.507 20.703 4.832 4.931 10.281 6.603 16.05 8.373 2.081.639 4.232 1.299 6.618 2.179 5.563 2.052 5.366 4.193 5.235 5.609-.185 2.008-2.776 4.142-7.214 4.142-5.037 0-9.857-2.001-12.895-5.353-3.71-4.092-10.032-4.403-14.125-.694-4.093 3.708-4.403 10.033-.695 14.125 6.866 7.577 16.968 11.922 27.715 11.922 14.53.001 25.939-9.381 27.13-22.307z"/><path d="m214.76 314.857c-21.578 0-39.133 17.555-39.133 39.133s17.555 39.133 39.133 39.133 39.134-17.555 39.134-39.133-17.556-39.133-39.134-39.133zm0 58.267c-10.55 0-19.133-8.583-19.133-19.133s8.583-19.133 19.133-19.133c10.551 0 19.134 8.583 19.134 19.133s-8.583 19.133-19.134 19.133z"/><path d="m481.665 224.223h-51.662l-135.347-128.354c3.945-6.677 6.219-14.453 6.219-22.754 0-24.745-20.131-44.875-44.876-44.875-24.744 0-44.875 20.131-44.875 44.875 0 8.31 2.279 16.094 6.232 22.776l-135.174 128.332h-51.846c-16.728 0-30.336 13.608-30.336 30.335v198.864c0 16.727 13.608 30.336 30.336 30.336h180.664c5.522 0 10-4.477 10-10s-4.478-10-10-10h-180.664c-5.699 0-10.336-4.637-10.336-10.336v-198.864c0-5.699 4.637-10.335 10.336-10.335h451.329c5.698 0 10.335 4.637 10.335 10.335v198.864c0 5.699-4.637 10.336-10.335 10.336h-180.665c-5.522 0-10 4.477-10 10s4.478 10 10 10h180.665c16.727 0 30.335-13.609 30.335-30.336v-198.864c0-16.727-13.608-30.335-30.335-30.335zm-225.665-175.983c13.717 0 24.876 11.159 24.876 24.875s-11.159 24.875-24.876 24.875c-13.716 0-24.875-11.159-24.875-24.875s11.159-24.875 24.875-24.875zm-24.904 62.184c7.131 4.775 15.697 7.566 24.904 7.566 9.217 0 17.791-2.796 24.926-7.58l120.014 113.812h-289.71z"/><path d="m265.236 469.928c-2.509-6.472-11.524-8.253-16.31-3.24-6.266 6.189-1.735 17.12 7.071 17.07 6.94.145 12.048-7.469 9.239-13.83z"/></g></g><g/><g/><g/><g/><g/><g/><g/><g/><g/><g/><g/><g/><g/><g/><g/></svg>