<svg id="Capa_1" enable-background="new 0 0 512 512" height="512" viewBox="0 0 512 512" width="512" xmlns="http://www.w3.org/2000/svg"><g><g><g><path d="m278.722 230.377v-13.467l-12.702-12.139 12.62-12.221v-18.14l-12.62-14.067 14.454-12.233v-13.473l-27.502-29.502-27.684 29.108v99.007c-19.262 10.528-32.333 30.963-32.333 54.462 0 34.266 27.778 62.045 62.045 62.045s62.045-27.779 62.045-62.045c0-25.864-15.829-48.018-38.323-57.335z" fill="#ffd88e"/></g><g><path d="m394.84 112.3c0 32.36-27.29 59.67-59.67 59.67h-58.72l-10.43-11.63 14.45-12.23v-13.47l-27.5-29.51-27.68 29.11v37.73h-63.14c-24.85 0-44.99-20.14-44.99-45 0-24.85 20.14-44.99 44.99-44.99 1.51 0 2.99.08 4.46.23 4.38-40.6 38.75-72.21 80.5-72.21 31.68 0 59.11 18.21 72.41 44.72 4.99-1.35 10.24-2.09 15.65-2.09 32.16 0 59.67 27.59 59.67 59.67z" fill="#f9f5f3"/></g><g><g><path d="m414.48 241.86v190.77c0 13.78-11.17 24.95-24.95 24.95h-267.06c-13.78 0-24.95-11.17-24.95-24.95v-190.77c0-13.78 11.17-24.95 24.95-24.95h102.82v16.34c-10.07 5.5-18.45 13.72-24.14 23.66-5.21 9.07-8.19 19.59-8.19 30.8 0 34.27 27.77 62.05 62.04 62.05s62.04-27.78 62.04-62.05c0-11.21-2.98-21.72-8.18-30.8-6.79-11.86-17.39-21.26-30.14-26.53l.002-13.47h110.808c13.78 0 24.95 11.17 24.95 24.95z" fill="#e0e7ef"/></g><g><path d="m374.48 417.58v-160.67h-65.62c5.2 9.08 8.18 19.59 8.18 30.8 0 34.27-27.77 62.05-62.04 62.05s-62.04-27.78-62.04-62.05c0-11.21 2.98-21.73 8.19-30.8h-63.63v160.67z" fill="#a0c8ff"/></g><g><path d="m424.365 502c13.304 0 24.089-10.785 24.089-24.089v-20.333h-384.907v20.333c0 13.304 10.785 24.089 24.089 24.089z" fill="#b7bcce"/></g></g></g><path d="m448.453 447.578h-27.339c2.155-4.535 3.365-9.602 3.365-14.948v-190.771c0-19.271-15.678-34.949-34.949-34.949h-106.798l-2.288-2.187 5.153-4.99c1.945-1.884 3.043-4.476 3.043-7.184v-10.58h46.53c37.765 0 69.67-31.905 69.67-69.67s-31.905-69.67-69.67-69.67c-3.506 0-7.014.268-10.491.798-16.488-26.971-45.55-43.427-77.569-43.427-43.495 0-80.283 30.427-89.018 72.129-28.435 2.082-50.932 25.884-50.932 54.841 0 30.327 24.668 55 54.99 55h53.138v24.94h-92.818c-19.271 0-34.95 15.678-34.95 34.949v190.771c0 5.346 1.21 10.413 3.365 14.948h-27.338c-5.523 0-10 4.478-10 10v20.333c0 18.797 15.292 34.089 34.089 34.089h336.73c18.796 0 34.088-15.292 34.088-34.089v-20.333c-.001-5.522-4.478-10-10.001-10zm-236.801-188.645c4.718-7.095 10.949-12.82 18.431-16.906 3.21-1.753 5.207-5.119 5.207-8.776v-95.014l17.609-18.514 17.571 18.856v4.895l-10.911 9.234c-4.239 3.588-4.693 10.177-.982 14.313l10.063 11.218v10.075l-9.577 9.274c-4.017 3.89-3.996 10.551.049 14.413l9.61 9.184-.002 9.193c-.001 4.048 2.438 7.697 6.18 9.243 10.594 4.38 19.572 12.284 25.283 22.258 11.959 20.885 7.568 48.177-10.208 64.341-19.061 17.328-48.812 17.88-68.499 1.256-11.312-9.555-18.515-23.832-18.515-39.767-.001-10.193 3.052-20.286 8.691-28.776zm-49.502-96.963c-19.293 0-34.99-15.701-34.99-35 0-19.293 15.696-34.989 34.99-34.989 1.141 0 2.269.059 3.449.178 5.475.559 10.364-3.408 10.954-8.876 3.891-36.078 34.225-63.283 70.557-63.283 27.019 0 51.339 15.022 63.471 39.204 2.132 4.247 6.96 6.409 11.549 5.169 4.277-1.156 8.664-1.743 13.04-1.743 26.46 0 49.67 23.21 49.67 49.67 0 26.924-22.746 49.67-49.67 49.67h-54.256l-.578-.644 6.597-5.583c2.245-1.899 3.54-4.691 3.54-7.633v-13.473c0-2.531-.96-4.968-2.686-6.818l-17.632-18.915-9.87-10.591c-1.88-2.017-4.509-3.169-7.266-3.183-.017 0-.034 0-.05 0-2.739 0-5.359 1.123-7.247 3.109l-27.482 28.903-.199.209c-1.768 1.859-2.754 4.326-2.754 6.892v27.728h-53.137zm-54.63 270.66v-190.771c0-8.243 6.707-14.949 14.95-14.949h92.818v.697c-7.708 5.095-14.415 11.69-19.649 19.303h-58.119c-5.523 0-10 4.478-10 10v160.67c0 5.522 4.477 10 10 10h74.079c5.523 0 10-4.478 10-10s-4.477-10-10-10h-64.079v-140.67h38.506c-1.726 6.906-3.071 13.638-3.071 20.801 0 21.121 9.137 40.148 23.665 53.338 12.796 11.62 29.776 18.711 48.38 18.711 17.903 0 34.288-6.581 46.902-17.43 15.376-13.223 25.143-32.796 25.143-54.618 0-7.181-1.063-14.17-3.052-20.801h40.486v140.67h-64.907c-5.522 0-10 4.478-10 10s4.478 10 10 10h74.907c5.522 0 10-4.478 10-10v-160.671c0-5.522-4.478-10-10-10h-60.061c-5.436-7.914-12.463-14.74-20.762-20h95.874c8.243 0 14.949 6.706 14.949 14.949v190.771c0 8.23-6.685 14.927-14.911 14.948h-267.137c-8.225-.021-14.911-6.718-14.911-14.948zm330.933 45.281c0 7.769-6.319 14.089-14.088 14.089h-336.73c-7.769 0-14.089-6.32-14.089-14.089v-10.333h364.907z"/><path d="m246.77 310.91c1.644 3.944 5.699 6.448 9.964 6.141 4.25-.306 7.925-3.401 8.961-7.533 2.129-8.487-7.359-15.465-14.833-11.008-4.195 2.501-5.967 7.894-4.092 12.4z"/><path d="m265.23 413.75c-2.092-5.027-8.018-7.493-13.05-5.4-5.034 2.094-7.504 8.005-5.41 13.05 2.089 5.033 8.009 7.499 13.049 5.41 5.054-2.095 7.482-8.011 5.411-13.06z"/></g></svg>