<svg height="512pt" viewBox="0 -26 512 512" width="512pt" xmlns="http://www.w3.org/2000/svg"><path d="m319.394531 13.617188c-103.433593 17.695312-182.15625 107.773437-182.15625 216.257812s78.722657 198.5625 182.15625 216.257812c103.433594-17.695312 182.15625-107.773437 182.15625-216.257812s-78.722656-198.5625-182.15625-216.257812zm0 0" fill="#e07f00"/><path d="m262.960938 12.929688c-105.488282 15.957031-186.335938 107.003906-186.335938 216.945312s80.847656 200.988281 186.335938 216.941406c105.488281-15.953125 186.335937-107 186.335937-216.941406s-80.847656-200.988281-186.335937-216.945312zm0 0" fill="#f29c0b"/><path d="m129.257812 229.875c0-77.761719 55.894532-142.453125 129.699219-156.117188-9.429687-1.742187-19.148437-2.664062-29.082031-2.664062-87.695312 0-158.78125 71.085938-158.78125 158.78125s71.085938 158.78125 158.78125 158.78125c9.933594 0 19.652344-.921875 29.082031-2.664062-73.804687-13.664063-129.699219-78.355469-129.699219-156.117188zm0 0" fill="#fff"/><path d="m388.65625 229.875c0-77.761719-55.894531-142.453125-129.699219-156.117188-73.804687 13.664063-129.699219 78.355469-129.699219 156.117188s55.894532 142.453125 129.699219 156.117188c73.804688-13.664063 129.699219-78.355469 129.699219-156.117188zm0 0" fill="#fab617"/><path d="m444.671875 67.328125c-43.414063-43.417969-101.140625-67.328125-162.546875-67.328125h-52.25c-61.40625 0-119.132812 23.910156-162.546875 67.328125-43.417969 43.414063-67.328125 101.144531-67.328125 162.546875s23.910156 119.132812 67.328125 162.546875c43.414063 43.414063 101.140625 67.328125 162.546875 67.328125h52.25c61.40625 0 119.132812-23.914062 162.546875-67.328125 43.417969-43.417969 67.328125-101.144531 67.328125-162.546875s-23.910156-119.132812-67.328125-162.546875zm-423.773437 162.546875c0-115.230469 93.746093-208.976562 208.976562-208.976562 115.226562 0 208.976562 93.746093 208.976562 208.976562s-93.75 208.976562-208.976562 208.976562c-115.230469 0-208.976562-93.746093-208.976562-208.976562zm323.175781 199.601562c17.464843-10.027343 33.71875-22.429687 48.347656-37.054687 43.414063-43.417969 67.324219-101.144531 67.324219-162.546875s-23.910156-119.128906-67.328125-162.546875c-14.625-14.625-30.878907-27.027344-48.34375-37.054687 85.078125 26.457031 147.027343 105.929687 147.027343 199.601562s-61.949218 173.144531-147.027343 199.601562zm0 0"/><path d="m275.523438 392.382812c-4.5 0-8.652344-2.925781-10.007813-7.453124-1.65625-5.527344 1.484375-11.351563 7.011719-13.007813 62.222656-18.648437 105.679687-77.085937 105.679687-142.113281 0-81.789063-66.542969-148.332032-148.335937-148.332032-81.789063 0-148.332032 66.542969-148.332032 148.332032 0 65.027344 43.457032 123.464844 105.679688 142.113281 5.527344 1.65625 8.667969 7.480469 7.007812 13.007813-1.65625 5.527343-7.484374 8.664062-13.007812 7.007812-34.140625-10.230469-64.839844-31.605469-86.441406-60.1875-22.332032-29.550781-34.132813-64.804688-34.132813-101.941406 0-93.3125 75.914063-169.230469 169.226563-169.230469 93.316406 0 169.234375 75.917969 169.234375 169.230469 0 37.136718-11.804688 72.390625-34.136719 101.941406-21.601562 28.582031-52.300781 49.960938-86.441406 60.191406-1.003906.300782-2.011719.441406-3.003906.441406zm0 0"/><path d="m229.867188 399.171875c-5.769532 0-10.449219-4.679687-10.449219-10.449219v-.144531c0-5.769531 4.679687-10.449219 10.449219-10.449219 5.773437 0 10.449218 4.679688 10.449218 10.449219v.144531c0 5.769532-4.675781 10.449219-10.449218 10.449219zm0 0"/><path d="m240.324219 219.664062v-54.792968c12.292969 3.789062 21.128906 14.070312 21.128906 26.128906 0 5.769531 4.679687 10.449219 10.449219 10.449219 5.773437 0 10.449218-4.679688 10.449218-10.449219 0-23.484375-18.082031-43.125-42.027343-47.621094v-6.390625c0-5.769531-4.679688-10.449219-10.449219-10.449219-5.773438 0-10.449219 4.679688-10.449219 10.449219v6.390625c-23.949219 4.496094-42.03125 24.140625-42.03125 47.621094s18.082031 43.125 42.03125 47.621094v54.796875c-12.292969-3.792969-21.132812-14.070313-21.132812-26.128907 0-5.769531-4.679688-10.449218-10.449219-10.449218s-10.449219 4.679687-10.449219 10.449218c0 23.480469 18.082031 43.125 42.03125 47.621094v7.847656c0 5.769532 4.675781 10.449219 10.449219 10.449219 5.769531 0 10.449219-4.679687 10.449219-10.449219v-7.847656c23.945312-4.496094 42.027343-24.140625 42.027343-47.621094 0-23.484374-18.082031-43.125-42.027343-47.625zm-42.03125-28.664062c0-12.058594 8.839843-22.335938 21.132812-26.128906v52.261718c-12.292969-3.792968-21.132812-14.070312-21.132812-26.132812zm42.03125 102.417969v-52.261719c12.292969 3.792969 21.128906 14.070312 21.128906 26.132812 0 12.058594-8.835937 22.339844-21.128906 26.128907zm0 0"/></svg>