<svg height="512pt" viewBox="0 0 512 511" width="512pt" xmlns="http://www.w3.org/2000/svg"><path d="m37.988281 246.433594h191.949219v39.988281h-191.949219zm0 0" fill="#8690a6"/><path d="m37.988281 374.394531h191.949219v39.992188h-191.949219zm0 0" fill="#8690a6"/><path d="m237.933594 374.394531h-207.941406c-11.042969 0-19.996094-8.949219-19.996094-19.992187v-47.988282c0-11.042968 8.953125-19.992187 19.996094-19.992187h207.941406c11.042968 0 19.996094 8.949219 19.996094 19.992187v47.988282c0 11.042968-8.953126 19.992187-19.996094 19.992187zm0 0" fill="#e1e3e9"/><path d="m237.933594 502.359375h-207.941406c-11.042969 0-19.996094-8.949219-19.996094-19.992187v-47.988282c0-11.042968 8.953125-19.992187 19.996094-19.992187h207.941406c11.042968 0 19.996094 8.949219 19.996094 19.992187v47.988282c0 11.042968-8.953126 19.992187-19.996094 19.992187zm0 0" fill="#b5bcc9"/><path d="m237.933594 158.457031h-207.941406c-11.042969 0-19.996094 8.949219-19.996094 19.992188v47.988281c0 11.042969 8.953125 19.996094 19.996094 19.996094h207.941406c11.042968 0 19.996094-8.953125 19.996094-19.996094v-47.988281c0-11.042969-8.953126-19.992188-19.996094-19.992188zm0 0" fill="#b5bcc9"/><path d="m424.367188 502.359375h14.652343c34.785157 0 62.984375-28.179687 62.984375-62.941406 0-34.765625-28.199218-62.945313-62.984375-62.945313-1.230469 0-2.453125.046875-3.664062.113282-10.496094-50.929688-55.589844-89.222657-109.625-89.222657-48.25 0-89.367188 30.527344-105.09375 73.324219-1.582031-.167969-3.179688-.261719-4.800781-.261719-24.929688 0-45.136719 20.195313-45.136719 45.105469 0 3.410156.390625 6.726562 1.109375 9.917969-16.523438 6.699219-28.179688 22.886719-28.179688 41.804687 0 24.910156 20.207032 45.105469 45.132813 45.105469zm0 0" fill="#b0e7f8"/><path d="m491.863281 90.476562c0 13.25-10.742187 23.992188-23.992187 23.992188-13.253906 0-23.996094-10.742188-23.996094-23.992188 0-13.253906 10.742188-23.996093 23.996094-23.996093 13.25 0 23.992187 10.742187 23.992187 23.996093zm0 0" fill="#91def5"/><path d="m290.824219 10.496094h63.980469v55.984375h-63.980469zm0 0" fill="#f5737f"/><path d="m51.65625 340.40625c2.628906 0 5.199219-1.070312 7.066406-2.929688 1.859375-1.859374 2.929688-4.4375 2.929688-7.066406 0-2.632812-1.070313-5.210937-2.929688-7.070312s-4.4375-2.929688-7.066406-2.929688c-2.640625 0-5.210938 1.070313-7.078125 2.929688-1.859375 1.859375-2.917969 4.4375-2.917969 7.070312 0 2.628906 1.058594 5.207032 2.917969 7.066406 1.867187 1.859376 4.449219 2.929688 7.078125 2.929688zm0 0"/><path d="m91.644531 340.40625c2.628907 0 5.199219-1.070312 7.066407-2.929688 1.859374-1.859374 2.929687-4.4375 2.929687-7.066406 0-2.632812-1.070313-5.210937-2.929687-7.070312-1.859376-1.859375-4.4375-2.929688-7.066407-2.929688-2.640625 0-5.207031 1.070313-7.066406 2.929688-1.871094 1.859375-2.929687 4.4375-2.929687 7.070312 0 2.628906 1.058593 5.207032 2.929687 7.066406 1.859375 1.859376 4.4375 2.929688 7.066406 2.929688zm0 0"/><path d="m147.625 340.40625h19.996094c5.519531 0 9.996094-4.476562 9.996094-9.996094 0-5.523437-4.476563-10-9.996094-10h-19.996094c-5.519531 0-9.996094 4.476563-9.996094 10 0 5.519532 4.476563 9.996094 9.996094 9.996094zm0 0"/><path d="m51.65625 448.375c-2.640625 0-5.210938 1.070312-7.070312 2.929688-1.867188 1.859374-2.925782 4.4375-2.925782 7.066406 0 2.632812 1.058594 5.210937 2.925782 7.070312 1.859374 1.859375 4.441406 2.929688 7.070312 2.929688s5.199219-1.070313 7.066406-2.929688c1.859375-1.859375 2.929688-4.4375 2.929688-7.070312 0-2.628906-1.070313-5.207032-2.929688-7.066406-1.859375-1.859376-4.4375-2.929688-7.066406-2.929688zm0 0"/><path d="m91.644531 448.375c-2.640625 0-5.207031 1.070312-7.078125 2.929688-1.859375 1.859374-2.917968 4.4375-2.917968 7.066406 0 2.632812 1.058593 5.210937 2.917968 7.070312 1.871094 1.859375 4.449219 2.929688 7.078125 2.929688 2.628907 0 5.199219-1.070313 7.066407-2.929688 1.859374-1.859375 2.929687-4.4375 2.929687-7.070312 0-2.628906-1.070313-5.207032-2.929687-7.066406-1.859376-1.859376-4.4375-2.929688-7.066407-2.929688zm0 0"/><path d="m51.65625 212.441406c2.628906 0 5.207031-1.070312 7.066406-2.929687s2.929688-4.4375 2.929688-7.066407c0-2.628906-1.070313-5.210937-2.929688-7.070312s-4.4375-2.929688-7.066406-2.929688-5.210938 1.070313-7.070312 2.929688c-1.867188 1.859375-2.925782 4.441406-2.925782 7.070312 0 2.628907 1.058594 5.207032 2.925782 7.066407 1.859374 1.859375 4.441406 2.929687 7.070312 2.929687zm0 0"/><path d="m91.644531 212.441406c2.628907 0 5.199219-1.070312 7.066407-2.929687 1.859374-1.859375 2.929687-4.4375 2.929687-7.066407 0-2.628906-1.070313-5.210937-2.929687-7.070312-1.859376-1.859375-4.4375-2.929688-7.066407-2.929688-2.628906 0-5.207031 1.070313-7.078125 2.929688-1.859375 1.859375-2.917968 4.441406-2.917968 7.070312 0 2.628907 1.058593 5.207032 2.917968 7.066407 1.871094 1.859375 4.449219 2.929687 7.078125 2.929687zm0 0"/><path d="m147.625 212.441406h66.648438c5.523437 0 10-4.476562 10-9.996094 0-5.523437-4.476563-10-10-10h-66.648438c-5.519531 0-9.996094 4.476563-9.996094 10 0 5.519532 4.476563 9.996094 9.996094 9.996094zm0 0"/><path d="m443.214844 366.59375c-6.664063-23.921875-20.660156-45.503906-39.988282-61.433594-21.746093-17.921875-49.269531-27.796875-77.5-27.796875-21.726562 0-42.554687 5.863281-60.664062 16.28125-4.535156-9.597656-14.015625-16.410156-25.128906-17.148437v-20.140625c15.609375-1.03125 27.992187-14.054688 27.992187-29.917969v-47.988281c0-16.535157-13.453125-29.992188-29.992187-29.992188h-207.941406c-16.539063 0-29.992188 13.457031-29.992188 29.992188v47.988281c0 15.863281 12.382812 28.882812 27.992188 29.917969v20.140625c-15.609376 1.035156-27.992188 14.054687-27.992188 29.917968v47.988282c0 15.863281 12.382812 28.882812 27.992188 29.917968v20.140626c-15.609376 1.035156-27.992188 14.054687-27.992188 29.917968v47.988282c0 16.535156 13.453125 29.992187 29.992188 29.992187h409.027343c40.242188 0 72.980469-32.722656 72.980469-72.941406 0-38.816407-30.488281-70.644531-68.785156-72.824219zm-395.226563-110.164062h171.949219v19.992187h-171.949219zm-27.992187-29.992188v-47.988281c0-5.511719 4.484375-9.996094 9.996094-9.996094h207.941406c5.511718 0 9.996094 4.484375 9.996094 9.996094v47.988281c0 5.511719-4.484376 9.996094-9.996094 9.996094h-207.941406c-5.511719 0-9.996094-4.484375-9.996094-9.996094zm0 127.964844v-47.988282c0-5.511718 4.484375-9.996093 9.996094-9.996093h207.941406c5.222656 0 9.515625 4.027343 9.953125 9.140625-14.417969 11.945312-26.167969 27.214844-33.910157 44.898437-13.320312.445313-25.453124 5.644531-34.769531 13.941407h-149.214843c-5.511719 0-9.996094-4.484376-9.996094-9.996094zm140.734375 49.984375h-112.742188v-19.992188h116.933594c-2.578125 6.179688-4.046875 12.925781-4.191406 19.992188zm-140.734375 77.980469v-47.988282c0-5.511718 4.484375-9.996094 9.996094-9.996094h114.476562c-6.902344 9.28125-10.839844 20.710938-10.839844 32.871094 0 13.332032 4.761719 25.570313 12.671875 35.109375h-116.308593c-5.511719 0-9.996094-4.484375-9.996094-9.996093zm419.023437 9.996093h-250.257812c-19.375 0-35.136719-15.75-35.136719-35.109375 0-14.363281 8.613281-27.132812 21.941406-32.539062 4.53125-1.835938 7.070313-6.683594 5.996094-11.457032-.574219-2.554687-.863281-5.152343-.863281-7.726562 0-19.359375 15.761719-35.109375 35.136719-35.109375 1.195312 0 2.453124.070313 3.746093.207031 4.558594.492188 8.855469-2.191406 10.4375-6.492187 14.675781-39.941407 53.140625-66.777344 95.710938-66.777344 48.144531 0 90.132812 34.167969 99.832031 81.246094 1 4.855469 5.394531 8.25 10.363281 7.964843 1.191407-.070312 2.175781-.101562 3.09375-.101562 29.21875 0 52.988281 23.753906 52.988281 52.949219-.003906 29.191406-23.773437 52.945312-52.988281 52.945312zm0 0"/><path d="m467.871094 245.824219c-5.523438 0-10 4.476562-10 9.996093v37.117188c0 5.523438 4.476562 10 10 10 5.519531 0 9.996094-4.476562 9.996094-10v-37.117188c0-5.519531-4.476563-9.996093-9.996094-9.996093zm0 0"/><path d="m457.871094 122.964844v82.925781c0 5.519531 4.476562 9.996094 10 9.996094 5.519531 0 9.996094-4.476563 9.996094-9.996094v-82.925781c13.878906-4.28125 23.992187-17.226563 23.992187-32.488282 0-18.746093-15.246094-33.992187-33.988281-33.992187-18.742188 0-33.992188 15.246094-33.992188 33.992187 0 15.261719 10.117188 28.207032 23.992188 32.488282zm10-46.484375c7.71875 0 13.996094 6.277343 13.996094 13.996093 0 7.714844-6.277344 13.996094-13.996094 13.996094s-13.996094-6.28125-13.996094-13.996094c0-7.71875 6.277344-13.996093 13.996094-13.996093zm0 0"/><path d="m322.808594 197.835938c-2.628906 0-5.207032 1.070312-7.066406 2.929687-1.859376 1.859375-2.917969 4.4375-2.917969 7.066406 0 2.628907 1.058593 5.210938 2.917969 7.070313 1.859374 1.855468 4.4375 2.925781 7.066406 2.925781 2.640625 0 5.210937-1.066406 7.078125-2.925781 1.859375-1.859375 2.929687-4.441406 2.929687-7.070313 0-2.628906-1.070312-5.207031-2.929687-7.066406s-4.4375-2.929687-7.078125-2.929687zm0 0"/><path d="m290.824219 76.480469h21.992187v86.378906c0 5.523437 4.476563 10 10 10 5.519532 0 9.996094-4.476563 9.996094-10v-86.378906h21.992188c5.523437 0 10-4.476563 10-10v-55.984375c0-5.519532-4.476563-9.996094-10-9.996094h-63.980469c-5.523438 0-10 4.476562-10 9.996094v55.984375c0 5.523437 4.476562 10 10 10zm9.996093-55.984375h43.988282v35.988281h-43.988282zm0 0"/><path d="m383.894531 438.378906h-112.96875c-5.523437 0-10 4.476563-10 9.996094s4.476563 9.996094 10 9.996094h112.96875c5.519531 0 9.996094-4.476563 9.996094-9.996094s-4.476563-9.996094-9.996094-9.996094zm0 0"/><path d="m383.894531 390.390625c-2.628906 0-5.210937 1.070313-7.070312 2.929687-1.859375 1.859376-2.929688 4.429688-2.929688 7.070313 0 2.628906 1.070313 5.207031 2.929688 7.066406s4.441406 2.929688 7.070312 2.929688c2.628907 0 5.207031-1.070313 7.066407-2.929688 1.859374-1.859375 2.929687-4.4375 2.929687-7.066406s-1.070313-5.210937-2.929687-7.070313c-1.859376-1.859374-4.4375-2.929687-7.066407-2.929687zm0 0"/><path d="m270.925781 410.386719h67.980469c5.519531 0 9.996094-4.476563 9.996094-9.996094 0-5.523437-4.476563-10-9.996094-10h-67.980469c-5.523437 0-10 4.476563-10 10 0 5.519531 4.476563 9.996094 10 9.996094zm0 0"/></svg>