<svg id="Capa_1" enable-background="new 0 0 512 512" height="512" viewBox="0 0 512 512" width="512" xmlns="http://www.w3.org/2000/svg"><g><g><path d="m239.5 81v64.5h-92.5c-11.05 0-20 8.95-20 20v140h-117v-224.5z" fill="#dfedff"/><path d="m127 345.5h375v-180c0-11.046-8.954-20-20-20h-335c-11.046 0-20 8.954-20 20z" fill="#fff"/><path d="m502 345.5v10c0 16.569-13.431 30-30 30h-315c-16.569 0-30-13.431-30-30v-10z" fill="#dfedff"/><path d="m359.5 431.5h-10v-46h-70v46h-10c-16.569 0-30 13.431-30 30v9.5h150v-9.5c0-16.569-13.431-30-30-30z" fill="#dfedff"/><path d="m167 185.5h40v40h-40z" fill="#89df8f"/><g fill="#6d92ac"><path d="m10 41h229.5v40h-229.5z"/><path d="m169.75 81v64.5h-22.75c-11.05 0-20 8.95-20 20v140h-47.25v-224.5z"/><path d="m239.5 385.5v76h-229.5v-156h117v50c0 16.57 13.43 30 30 30z"/></g><path d="m167 265.5h40v40h-40z" fill="#eaaacb"/><path d="m154.75 385.41v26.09h-60v-40h36.89c4.92 7.82 13.36 13.19 23.11 13.91z" fill="#80b6ff"/></g><g><circle cx="314.43" cy="145.5" r="10"/><path d="m503.21 144.29c-5.66-5.67-13.19-8.79-21.21-8.79h-122.57c-5.51 0-10 4.49-10 10 0 5.52 4.49 10 10 10h122.57c5.5.01 9.99 4.5 10 10v170h-355v-170c.01-5.5 4.5-9.99 10-10h122.43c5.51 0 10-4.49 10-10s-4.48-9.99-9.98-10c-.01 0-.02 0-.02 0h-19.93v-94.5c0-5.522-4.477-10-10-10h-229.5c-5.523 0-10 4.478-10 10v420.5c0 5.522 4.477 10 10 10h219.525c.262 5.289 4.621 9.5 9.975 9.5h150c5.523 0 10-4.478 10-10v-9.5c0-22.056-17.944-40-40-40v-26h112.5c22.056 0 40-17.944 40-40v-190c0-8.021-3.12-15.55-8.79-21.21zm-343.46-8.79h-12.75c-8.01 0-15.55 3.12-21.21 8.79-5.67 5.66-8.79 13.189-8.79 21.21v130h-27.25v-204.5h70zm-15 258.074v7.926h-40v-20h21.89c4.757 5.547 11 9.78 18.11 12.074zm84.75-258.074h-49.75v-44.5h49.75zm-209.5-84.5h209.5v20h-209.5zm0 40h49.75v204.5h-49.75zm209.5 360.5h-209.5v-136h97v40c0 2.039.155 4.042.451 6h-22.701c-5.523 0-10 4.478-10 10v40c0 5.522 4.477 10 10 10h60c5.523 0 10-4.478 10-10v-16h64.75zm149.994 9.5h-129.988c.266-10.798 9.132-19.5 19.994-19.5h25c5.523 0 10-4.478 10-10s-4.477-10-10-10h-5v-26h50v26h-5c-5.523 0-10 4.478-10 10s4.477 10 10 10h25c10.861 0 19.728 8.702 19.994 19.5zm-129.994-34.119v-31.381h20v26c-7.283 0-14.112 1.966-20 5.381zm222.5-51.381h-315c-11.028 0-20-8.972-20-20h355c0 11.028-8.972 20-20 20z"/><path d="m217 185.5c0-5.522-4.477-10-10-10h-40c-5.523 0-10 4.478-10 10v40c0 5.522 4.477 10 10 10h40c5.523 0 10-4.478 10-10zm-20 30h-20v-20h20z"/><path d="m207 255.5h-40c-5.523 0-10 4.478-10 10v40c0 5.522 4.477 10 10 10h40c5.523 0 10-4.478 10-10v-40c0-5.522-4.477-10-10-10zm-10 40h-20v-20h20z"/></g></g></svg>