<svg id="Capa_1" enable-background="new 0 0 512 512" viewBox="0 0 512 512" xmlns="http://www.w3.org/2000/svg"><g><g><path d="m270.588 14.379 75.033 75.033v15.588h-95.621v-90.621z" fill="#fff"/><path d="m10 10h250c8.284 0 15 6.716 15 15v60h60c8.284 0 15 6.716 15 15v402h-340z" fill="#fff"/><circle cx="125" cy="87" fill="#ffdcd5" r="35"/><path d="m125 122c-35.898 0-65 29.102-65 65h130c0-35.898-29.102-65-65-65z" fill="#ffda8f"/><path d="m60 227h240v40h-240z" fill="#99ebfa"/><path d="m323.026 224.776h50v180h-50z" fill="#b6bccf" transform="matrix(.866 .5 -.5 .866 204.014 -131.841)"/><path d="m263.026 462 18.349-81.782 43.301 25z" fill="#ffda8f"/><path d="m473.026 98.269c-11.957-6.904-27.247-2.807-34.151 9.151l-67.5 116.913 43.301 25 67.5-116.913c6.904-11.957 2.807-27.247-9.15-34.151z" fill="#9ea6bf"/><path d="m473.026 98.269c-11.957-6.904-27.247-2.807-34.151 9.151l-7.5 12.99 43.301 25 7.5-12.99c6.904-11.957 2.807-27.247-9.15-34.151z" fill="#ffda8f"/></g><g><circle cx="10" cy="257" r="10"/><path d="m50 187c0 5.523 4.477 10 10 10h130c5.523 0 10-4.477 10-10 0-30.067-17.784-56.058-43.386-68.007 8.26-8.163 13.386-19.49 13.386-31.993 0-24.813-20.187-45-45-45s-45 20.187-45 45c0 12.503 5.126 23.83 13.386 31.993-25.602 11.949-43.386 37.94-43.386 68.007zm75-125c13.785 0 25 11.215 25 25s-11.215 25-25 25-25-11.215-25-25 11.215-25 25-25zm0 70c26.914 0 49.374 19.43 54.089 45h-108.178c4.715-25.57 27.175-45 54.089-45z"/><path d="m240 152h60c5.522 0 10-4.477 10-10s-4.478-10-10-10h-60c-5.523 0-10 4.477-10 10s4.477 10 10 10z"/><path d="m240 197h60c5.522 0 10-4.477 10-10s-4.478-10-10-10h-60c-5.523 0-10 4.477-10 10s4.477 10 10 10z"/><path d="m50 267c0 5.523 4.477 10 10 10h240c5.522 0 10-4.477 10-10v-40c0-5.523-4.478-10-10-10h-240c-5.523 0-10 4.477-10 10zm20-30h220v20h-220z"/><path d="m60 317h170c5.523 0 10-4.477 10-10s-4.477-10-10-10h-170c-5.523 0-10 4.477-10 10s4.477 10 10 10z"/><path d="m60 357h170c5.523 0 10-4.477 10-10s-4.477-10-10-10h-170c-5.523 0-10 4.477-10 10s4.477 10 10 10z"/><path d="m60 397h70c5.523 0 10-4.477 10-10s-4.477-10-10-10h-70c-5.523 0-10 4.477-10 10s4.477 10 10 10z"/><path d="m497.006 146.709-8.66-5 2.5-4.33c9.665-16.74 3.929-38.146-12.811-47.811s-38.146-3.929-47.811 12.811l-2.5 4.33-4.33-2.5c-4.783-2.761-10.899-1.123-13.66 3.66s-1.122 10.899 3.66 13.66l4.33 2.5-57.724 99.981v-124.01c0-6.686-2.638-12.768-6.929-17.258-.122-.136-75.681-75.695-75.819-75.819-4.489-4.287-10.569-6.923-17.252-6.923h-250c-5.523 0-10 4.477-10 10v202c0 5.523 4.477 10 10 10s10-4.477 10-10v-192h240c1.366 0 2.607.551 3.51 1.443.002.002.004.005.007.007l.048.048c.887.902 1.435 2.139 1.435 3.502v60c0 5.523 4.478 10 10 10h60c1.363 0 2.6.548 3.503 1.436l.047.047c.002.002.005.005.007.007.892.903 1.443 2.143 1.443 3.51v158.651l-68.039 117.848-16.941 75.501h-90.02c-5.523 0-10 4.477-10 10s4.477 10 10 10h96.025c.357 0 .709-.019 1.055-.055 2.618.278 5.396-.482 7.729-2.63l61.651-56.782c.744-.685 1.38-1.479 1.885-2.356l6.655-11.526v93.349h-320v-190c0-5.523-4.477-10-10-10s-10 4.477-10 10v200c0 5.523 4.477 10 10 10h340c5.522 0 10-4.477 10-10v-137.99l118.346-204.981 8.66 5c4.775 2.757 6.417 8.885 3.66 13.66l-47.5 82.272c-2.761 4.783-1.122 10.899 3.66 13.66s10.899 1.123 13.66-3.66l47.5-82.272c8.272-14.325 3.346-32.709-10.98-40.98zm-212.006-71.709v-32.067l32.067 32.067zm-5.202 357.924 8.366-37.286 19.742 11.398zm41.227-41.408-25.981-15 80-138.564 25.981 15zm90-155.884-25.981-15 50-86.603 25.981 15zm62.5-108.254-2.5 4.33-25.981-15 2.5-4.33c4.142-7.174 13.316-9.633 20.49-5.49 7.175 4.142 9.633 13.316 5.491 20.49z"/></g></g><g/><g/><g/><g/><g/><g/><g/><g/><g/><g/><g/><g/><g/><g/><g/></svg>