<svg id="Capa_1" enable-background="new 0 0 512 512" height="512" viewBox="0 0 512 512" width="512" xmlns="http://www.w3.org/2000/svg"><path id="XMLID_1304_" d="m482 120.867v-90.388c0-10.845-8.433-20.081-19.271-20.466-11.378-.405-20.729 8.699-20.729 19.987v77.696c0 11.046-8.954 20-20 20-11.046 0-20-8.954-20-20v-77.217c0-10.845-8.433-20.081-19.271-20.466-11.378-.405-20.729 8.699-20.729 19.987v77.696c0 11.046-8.954 20-20 20-11.046 0-20-8.954-20-20v-77.217c0-10.845-8.433-20.081-19.271-20.466-11.378-.405-20.729 8.699-20.729 19.987v90.867c0 45.209 36.649 81.859 81.859 81.859h36.283c45.209-.001 81.858-36.65 81.858-81.859z" fill="#dff6fc"/><ellipse id="XMLID_1301_" cx="122" cy="106" fill="#dff6fc" rx="92" ry="96"/><path id="XMLID_1225_" d="m95.39 202h53.219l29.808 236.009c4.29 33.964-22.183 63.991-56.417 63.991-34.234 0-60.707-30.027-56.417-63.991z" fill="#f6838d"/><path id="XMLID_1223_" d="m355.398 202h53.219l29.808 236.009c4.29 33.964-22.184 63.991-56.417 63.991-34.234 0-60.707-30.027-56.417-63.991z" fill="#91def5"/><path id="XMLID_1306_" d="m415.438 256-6.82-54h-53.22l-6.82 54z" fill="#fff"/><path id="XMLID_1303_" d="m155.422 256-6.82-54h-53.22l-6.82 54z" fill="#fff"/><path id="XMLID_661_" d="m122 0c-56.243 0-102 47.552-102 106 0 44.877 26.977 83.327 64.962 98.765l-29.301 231.991c-2.404 19.035 3.495 38.207 16.183 52.599s30.969 22.645 50.156 22.645 37.467-8.254 50.156-22.646 18.587-33.563 16.183-52.599l-5.226-41.372c-.692-5.479-5.698-9.36-11.174-8.668-5.479.691-9.36 5.694-8.668 11.174l5.226 41.372c1.685 13.342-2.449 26.779-11.342 36.866-8.894 10.088-21.707 15.873-35.155 15.873s-26.261-5.785-35.154-15.872c-8.894-10.087-13.027-23.524-11.342-36.866l21.883-173.262h49.226l5.336 42.252c.639 5.055 4.944 8.748 9.909 8.748.417 0 .841-.026 1.266-.08 5.479-.691 9.36-5.694 8.668-11.174l-12.754-100.982c37.985-15.437 64.962-53.887 64.962-98.764 0-58.448-45.757-106-102-106zm22.087 246h-44.174l4.494-35.583c5.717 1.037 11.595 1.583 17.593 1.583s11.876-.546 17.593-1.583zm-22.087-54c-45.215 0-82-38.579-82-86s36.785-86 82-86 82 38.579 82 86-36.785 86-82 86z"/><path id="XMLID_663_" d="m122 48c-30.878 0-56 26.019-56 58 0 5.522 4.477 10 10 10s10-4.478 10-10c0-20.953 16.149-38 36-38 5.523 0 10-4.478 10-10s-4.477-10-10-10z"/><path id="XMLID_666_" d="m463.084.019c-8.224-.276-16.005 2.688-21.916 8.394-5.912 5.705-9.168 13.371-9.168 21.587v77.696c0 5.514-4.486 10-10 10s-10-4.486-10-10v-77.217c0-16.504-12.701-29.884-28.916-30.461-8.217-.276-16.005 2.688-21.916 8.394-5.912 5.706-9.168 13.372-9.168 21.588v77.696c0 5.514-4.486 10-10 10s-10-4.486-10-10v-77.217c0-16.504-12.701-29.884-28.916-30.461-8.222-.276-16.005 2.688-21.916 8.394-5.912 5.706-9.168 13.372-9.168 21.588v90.866c0 43.916 30.98 80.727 72.231 89.741l-28.562 226.148c-2.404 19.035 3.495 38.207 16.183 52.599s30.97 22.646 50.156 22.646 37.467-8.254 50.155-22.646 18.587-33.563 16.183-52.599l-28.563-226.151c41.244-9.02 72.216-45.827 72.216-89.738v-90.387c.001-16.503-12.7-29.883-28.915-30.46zm-63.191 212.707 4.202 33.274h-44.174l4.202-33.274zm17.269 263.402c-8.893 10.087-21.706 15.872-35.154 15.872-13.447 0-26.26-5.785-35.153-15.872-8.894-10.087-13.027-23.524-11.342-36.866l21.882-173.262h49.226l21.883 173.262c1.685 13.342-2.449 26.779-11.342 36.866zm54.838-355.262c0 39.623-32.235 71.859-71.858 71.859h-36.283c-39.623 0-71.858-32.236-71.858-71.859v-90.866c0-2.738 1.086-5.295 3.057-7.197 1.881-1.815 4.336-2.803 6.947-2.803.123 0 .247.002.37.007 5.308.188 9.626 4.887 9.626 10.473v77.217c0 16.542 13.458 30 30 30s30-13.458 30-30v-77.697c0-2.738 1.086-5.295 3.057-7.197 1.97-1.9 4.581-2.896 7.317-2.796 5.308.188 9.626 4.887 9.626 10.473v77.217c0 16.542 13.458 30 30 30s30-13.458 30-30v-77.697c0-2.738 1.086-5.295 3.057-7.197 1.97-1.9 4.58-2.896 7.317-2.796 5.308.188 9.626 4.887 9.626 10.473v90.386z"/><path id="XMLID_686_" d="m160.48 344.93c-1.86 1.86-2.92 4.44-2.92 7.07s1.06 5.21 2.92 7.069c1.86 1.86 4.44 2.931 7.07 2.931 2.64 0 5.21-1.07 7.08-2.931 1.86-1.859 2.92-4.439 2.92-7.069s-1.06-5.21-2.92-7.07c-1.87-1.86-4.44-2.93-7.08-2.93-2.63 0-5.21 1.069-7.07 2.93z"/></svg>