<svg id="Capa_1" enable-background="new 0 0 512 512" height="512" viewBox="0 0 512 512" width="512" xmlns="http://www.w3.org/2000/svg"><g><g><g><path d="m140.75 208.92c-30.52 0-55.26-24.74-55.26-55.26s24.74-55.26 55.26-55.26c1.85 0 3.67.1 5.46.28 5.39-49.86 47.6-88.68 98.87-88.68 38.92 0 72.6 22.36 88.93 54.92 6.12-1.66 12.57-2.56 19.23-2.56 39.42 0 73.27 33.5 73.27 73.28 0 39.74-33.51 73.28-73.27 73.28z" fill="#f9f5f3"/></g><g><g><g><path d="m19.191 334.883h127.459v167.117h-127.459z" fill="#e0e7ef"/></g><g><path d="m192.77 334.883h127.459v167.117h-127.459z" fill="#e0e7ef"/></g><g><path d="m365.349 334.883h127.459v167.117h-127.459z" fill="#e0e7ef"/></g></g><g><circle cx="256.5" cy="272.241" fill="#ff7e96" r="25.913"/></g></g></g><path d="m395.382 375.68c0 5.522 4.478 10 10 10h24.682c5.522 0 10-4.478 10-10s-4.478-10-10-10h-24.682c-5.523 0-10 4.477-10 10z"/><path d="m395.382 415.587c0 5.522 4.478 10 10 10h44.698c5.522 0 10-4.478 10-10s-4.478-10-10-10h-44.698c-5.523 0-10 4.477-10 10z"/><path d="m421.936 453.644h-16.554c-5.522 0-10 4.478-10 10s4.478 10 10 10h16.554c5.522 0 10-4.478 10-10s-4.478-10-10-10z"/><path d="m222.014 262.241h-120.144c-16.107 0-29.212 13.104-29.212 29.212v33.43h-53.467c-5.522 0-10 4.478-10 10v167.117c0 5.522 4.478 10 10 10h127.459c5.522 0 10-4.478 10-10v-167.117c0-5.522-4.478-10-10-10h-53.992v-33.43c0-5.079 4.133-9.212 9.212-9.212h120.144c3.42 11.774 12.712 21.066 24.486 24.486v18.156h-53.729c-5.522 0-10 4.478-10 10v167.117c0 5.522 4.478 10 10 10h127.459c5.522 0 10-4.478 10-10v-167.117c0-5.522-4.478-10-10-10h-53.73v-18.156c11.774-3.42 21.066-12.712 24.486-24.486h119.144c5.079 0 9.212 4.133 9.212 9.212v33.43h-53.992c-5.522 0-10 4.478-10 10v167.117c0 5.522 4.478 10 10 10h127.459c5.522 0 10-4.478 10-10v-167.117c0-5.522-4.478-10-10-10h-53.467v-33.43c0-16.107-13.104-29.212-29.212-29.212h-119.144c-3.42-11.774-12.712-21.066-24.486-24.486v-18.835h86.74c26.589 0 51.934-13.288 67.798-35.547 3.205-4.497 2.158-10.741-2.34-13.947-4.497-3.204-10.742-2.156-13.947 2.34-12.118 17.003-31.375 27.154-51.511 27.154h-212.49c-24.956 0-45.26-20.304-45.26-45.26s20.304-45.26 45.26-45.26c1.444 0 2.945.077 4.461.229 5.481.552 10.352-3.414 10.941-8.875 4.915-45.467 43.146-79.754 88.928-79.754 34.057 0 64.707 18.93 79.991 49.403 2.132 4.252 6.963 6.412 11.557 5.168 5.408-1.467 10.997-2.211 16.612-2.211 20.123 0 39.404 10.229 51.579 27.363 3.198 4.503 9.442 5.56 13.943 2.359 4.502-3.198 5.559-9.441 2.359-13.943-15.917-22.404-41.294-35.779-67.881-35.779-4.715 0-9.417.399-14.052 1.19-19.686-33.222-55.067-53.55-94.108-53.55-52.91 0-97.578 37.433-107.439 88.474-34.545 1.63-62.15 30.245-62.15 65.187 0 35.984 29.275 65.26 65.26 65.26h105.749v18.835c-11.774 3.419-21.066 12.712-24.486 24.485zm-85.364 229.759h-107.459v-147.117h107.459zm173.579 0h-107.458v-147.117h107.459v147.117zm172.58 0h-107.459v-147.117h107.459zm-210.396-219.759c0 8.774-7.139 15.913-15.913 15.913s-15.913-7.139-15.913-15.913 7.139-15.913 15.913-15.913 15.913 7.139 15.913 15.913z"/><path d="m49.224 375.68c0 5.522 4.478 10 10 10h24.682c5.522 0 10-4.478 10-10s-4.478-10-10-10h-24.682c-5.523 0-10 4.477-10 10z"/><path d="m49.224 415.587c0 5.522 4.478 10 10 10h44.699c5.522 0 10-4.478 10-10s-4.478-10-10-10h-44.699c-5.523 0-10 4.477-10 10z"/><path d="m75.778 453.644h-16.554c-5.522 0-10 4.478-10 10s4.478 10 10 10h16.555c5.522 0 10-4.478 10-10s-4.478-10-10.001-10z"/><path d="m222.803 375.68c0 5.522 4.478 10 10 10h24.682c5.522 0 10-4.478 10-10s-4.478-10-10-10h-24.682c-5.523 0-10 4.477-10 10z"/><path d="m222.803 415.587c0 5.522 4.478 10 10 10h44.698c5.522 0 10-4.478 10-10s-4.478-10-10-10h-44.698c-5.523 0-10 4.477-10 10z"/><path d="m249.356 453.644h-16.554c-5.522 0-10 4.478-10 10s4.478 10 10 10h16.554c5.522 0 10-4.478 10-10s-4.477-10-10-10z"/><path d="m418.189 130.09c-5.08 7.634 2.428 17.785 11.22 15.11 4.081-1.242 6.983-5.049 7.094-9.316.113-4.352-2.736-8.373-6.861-9.738-4.219-1.396-8.975.264-11.453 3.944z"/></g></svg>