<svg id="Capa_1" enable-background="new 0 0 512 512" height="512" viewBox="0 0 512 512" width="512" xmlns="http://www.w3.org/2000/svg"><g><g><g><g><path d="m204.337 370.194h-177.339l-16.998-17.998v-31.886l16.998-17.999h177.339l18.998 17.999v31.886z" fill="#b7bcce"/></g><g><path d="m204.337 438.076h-177.339l-16.998-17.998v-31.886l16.998-17.998h177.339l18.998 17.998v31.886z" fill="#e0e7ef"/></g><g><path d="m204.337 302.311h-177.339l-16.998-17.998v-31.886l16.998-17.998h177.339l18.998 17.998v31.886z" fill="#e0e7ef"/></g></g><g><path d="m406.246 117.658c-19.324 0-37.856-7.676-51.52-21.34l-6.877-6.877-6.877 6.877c-13.664 13.664-32.196 21.34-51.52 21.34h-25.077v93.867c0 31.624 19.385 60.014 48.838 71.527l34.636 15.102 33.636-15.102c29.453-11.513 48.838-39.904 48.838-71.527v-93.867z" fill="#ffd88e"/></g><g><path d="m313.234 186.281h69.23v51.235h-69.23z" fill="#ff7e96"/></g></g><path d="m43.18 344.57c7.554 5.034 17.6-2.272 15.176-10.984-1.144-4.111-4.87-7.107-9.14-7.319-4.258-.211-8.285 2.419-9.814 6.39-1.664 4.321-.058 9.33 3.778 11.913z"/><path d="m19.728 444.942c1.889 2 4.519 3.134 7.27 3.134h11.731v18.905h-9.817c-5.523 0-10 4.477-10 10s4.477 10 10 10h41.129c5.523 0 10-4.477 10-10s-4.477-10-10-10h-11.312v-18.905h117.72v18.905h-9.818c-5.523 0-10 4.477-10 10s4.477 10 10 10h41.129c5.523 0 10-4.477 10-10s-4.477-10-10-10h-11.312v-18.905h7.888c2.559 0 5.02-.981 6.877-2.74l18.998-17.998c1.994-1.889 3.123-4.514 3.123-7.26v-31.886c0-2.746-1.129-5.371-3.123-7.26l-11.335-10.738 11.335-10.738c1.994-1.889 3.123-4.514 3.123-7.26v-31.886c0-2.746-1.129-5.371-3.123-7.26l-11.335-10.738 11.335-10.738c1.994-1.889 3.123-4.514 3.123-7.26v-31.886c0-2.746-1.129-5.371-3.123-7.26l-18.998-17.998c-1.857-1.759-4.319-2.74-6.877-2.74h-177.338c-2.751 0-5.381 1.134-7.27 3.134l-16.998 17.997c-1.753 1.856-2.73 4.313-2.73 6.866v31.886c0 2.553.977 5.01 2.73 6.866l10.513 11.132-10.513 11.132c-1.753 1.857-2.73 4.313-2.73 6.867v31.886c0 2.553.977 5.01 2.73 6.866l10.513 11.132-10.513 11.132c-1.753 1.856-2.73 4.313-2.73 6.866v31.886c0 2.553.977 5.01 2.73 6.866zm193.607-29.165-12.983 12.299h-169.043l-11.309-11.973v-23.935l11.309-11.974h169.043l12.983 12.299zm-193.335-91.492 11.309-11.974h169.043l12.983 12.299v23.284l-12.983 12.299h-169.043l-11.309-11.973zm0-67.882 11.309-11.974h169.043l12.983 12.299v23.284l-12.983 12.299h-169.043l-11.309-11.973z"/><path d="m39.49 272.19c2.066 5.039 8.043 7.493 13.06 5.41 5.035-2.09 7.497-8.018 5.41-13.06-2.08-5.026-8.037-7.491-13.06-5.4-5.019 2.088-7.507 8.016-5.41 13.05z"/><path d="m57.96 400.31c-2.096-5.031-8.015-7.499-13.06-5.41-5.029 2.082-7.498 8.03-5.41 13.06 2.089 5.033 8.025 7.489 13.06 5.41 5.028-2.077 7.506-8.032 5.41-13.06z"/><path d="m309.388 292.294 34.464 15.027c2.562 1.116 5.544 1.101 8.093-.044l33.417-15.004c16.23-6.398 30.005-17.391 39.846-31.804 9.889-14.483 15.115-31.407 15.115-48.944v-93.867c0-5.523-4.478-10-10-10h-24.076c-16.791 0-32.576-6.539-44.449-18.411l-6.877-6.877c-3.85-3.851-10.293-3.851-14.143 0l-6.877 6.877c-11.873 11.873-27.658 18.411-44.448 18.411h-25.077c-5.522 0-10 4.477-10 10v93.867c0 17.537 5.227 34.461 15.115 48.944 9.851 14.428 23.644 25.429 39.897 31.825zm-35.013-164.636h15.077c22.04 0 42.768-8.548 58.396-24.075 15.628 15.527 36.356 24.075 58.397 24.075h14.076v83.867c0 27.706-16.674 52.126-42.479 62.213-.153.06-30.055 13.481-30.055 13.481s-30.815-13.434-30.936-13.481c-25.805-10.087-42.479-34.507-42.479-62.213v-83.867z"/><path d="m313.233 247.516h69.23c5.522 0 10-4.477 10-10v-51.235c0-5.14-3.879-9.369-8.868-9.932v-6.718c0-19.711-16.036-35.747-35.747-35.747s-35.747 16.036-35.747 35.747v6.718c-4.989.563-8.868 4.792-8.868 9.932v51.235c0 5.523 4.478 10 10 10zm59.231-20h-49.23v-31.235h49.23zm-40.362-57.885c0-8.683 7.064-15.747 15.747-15.747s15.747 7.064 15.747 15.747v6.65h-31.494z"/><path d="m278.955 315.838c-4.848-2.641-10.922-.854-13.565 3.995s-.854 10.923 3.995 13.566c23.922 13.038 51.055 19.929 78.465 19.929 90.513 0 164.15-73.637 164.15-164.15 0-25.375-5.645-49.715-16.777-72.344-2.438-4.956-8.432-6.998-13.387-4.559-4.956 2.438-6.997 8.432-4.559 13.387 9.77 19.859 14.723 41.229 14.723 63.516 0 79.484-64.666 144.15-144.15 144.15-24.077.001-47.9-6.048-68.895-17.49z"/><path d="m422.243 65.68c4.728 2.854 10.875 1.334 13.729-3.395s1.334-10.875-3.395-13.729c-25.516-15.399-54.813-23.539-84.728-23.539-43.293 0-84.142 16.705-115.02 47.036-25.452 25.001-41.763 56.933-47.152 91.602l-4.076-4.914c-3.526-4.25-9.831-4.839-14.081-1.312-4.25 3.526-4.838 9.83-1.312 14.081l19.782 23.847c3.476 4.191 9.882 4.791 14.077 1.315l24.203-20.056c4.253-3.523 4.843-9.828 1.319-14.08-3.524-4.253-9.828-4.843-14.08-1.32l-5.984 4.958c4.824-30.217 19.11-58.039 41.318-79.854 27.116-26.635 62.986-41.304 101.004-41.304 26.274.003 51.999 7.147 74.396 20.664z"/><path d="m452.149 88.85c1.635 3.922 5.721 6.477 9.972 6.148 4.351-.338 8.048-3.521 9.014-7.779 1.978-8.72-8.175-15.507-15.498-10.366-3.774 2.649-5.266 7.729-3.488 11.997z"/></g></svg>