<svg id="Capa_1" enable-background="new 0 0 511.962 511.962" height="512" viewBox="0 0 511.962 511.962" width="512" xmlns="http://www.w3.org/2000/svg"><path id="XMLID_1357_" d="m117.981 501.962v-491.962h296l64 63.962v428z" fill="#eff3f3"/><path id="XMLID_1350_" d="m413.981 9.962v64h64z" fill="#ffe6c0"/><path id="XMLID_1296_" d="m337.981 341.962h-264c-22.091 0-40 17.909-40 40v80c0 22.091 17.909 40 40 40h264c22.091 0 40-17.909 40-40v-80c0-22.091-17.909-40-40-40z" fill="#98a1b3"/><path id="XMLID_3021_" d="m405.981 208.109v-40.257h-19.647c-2.295-10.117-6.285-19.589-11.652-28.106l13.9-13.9-28.466-28.466-13.9 13.9c-8.517-5.368-17.989-9.357-28.106-11.652v-19.647h-40.257v19.647c-10.117 2.295-19.589 6.285-28.106 11.652l-13.9-13.9-28.466 28.466 13.9 13.9c-5.368 8.517-9.357 17.989-11.652 28.106h-19.647v40.257h19.647c2.295 10.117 6.285 19.589 11.652 28.106l-13.9 13.9 28.466 28.466 13.9-13.9c8.517 5.368 17.989 9.357 28.106 11.652v19.647h40.257v-19.647c10.117-2.295 19.589-6.285 28.106-11.652l13.9 13.9 28.466-28.466-13.9-13.9c5.368-8.517 9.357-17.989 11.652-28.106z" fill="#91def5"/><circle id="XMLID_3020_" cx="297.981" cy="187.981" fill="#fff" r="43.915"/><path id="XMLID_582_" d="m485.05 66.889-64-63.962c-1.876-1.874-4.418-2.927-7.069-2.927h-296c-5.522 0-10 4.477-10 10v321.962h-34c-27.57 0-50 22.43-50 50v80c0 27.57 22.43 50 50 50h264 140c5.522 0 10-4.478 10-10v-200.873c0-5.522-4.478-10-10-10s-10 4.478-10 10v190.873h-90.027c6.292-8.363 10.027-18.753 10.027-30v-80c0-27.57-22.43-50-50-50h-210v-311.962h276v53.962c0 5.523 4.477 10 10 10h54v127.127c0 5.523 4.478 10 10 10s10-4.477 10-10v-137.127c0-2.653-1.055-5.198-2.931-7.073zm-117.069 315.073v80c0 16.542-13.458 30-30 30h-264c-16.542 0-30-13.458-30-30v-80c0-16.542 13.458-30 30-30h264c16.542 0 30 13.458 30 30zm56-347.83 29.848 29.83h-29.848z"/><path id="XMLID_584_" d="m477.981 246.092c-2.63 0-5.21 1.07-7.07 2.93s-2.93 4.43-2.93 7.07c0 2.63 1.069 5.2 2.93 7.07 1.86 1.859 4.44 2.93 7.07 2.93s5.21-1.07 7.069-2.93c1.86-1.87 2.931-4.44 2.931-7.07s-1.07-5.21-2.931-7.07c-1.859-1.86-4.439-2.93-7.069-2.93z"/><path id="XMLID_587_" d="m91.981 381.962v80c0 5.522 4.478 10 10 10h22.25c19.713 0 35.75-16.037 35.75-35.75v-28.5c0-19.713-16.037-35.75-35.75-35.75h-22.25c-5.523 0-10 4.477-10 10zm20 10h12.25c8.685 0 15.75 7.065 15.75 15.75v28.5c0 8.685-7.065 15.75-15.75 15.75h-12.25z"/><path id="XMLID_588_" d="m269.981 471.962h40c5.522 0 10-4.478 10-10s-4.478-10-10-10h-30v-70c0-5.522-4.478-10-10-10s-10 4.478-10 10v80c0 5.522 4.477 10 10 10z"/><path id="XMLID_1036_" d="m189.981 471.962h40c5.522 0 10-4.478 10-10s-4.478-10-10-10h-30v-70c0-5.522-4.478-10-10-10s-10 4.478-10 10v80c0 5.522 4.477 10 10 10z"/><path id="XMLID_1039_" d="m405.981 218.109c5.522 0 10-4.477 10-10v-40.257c0-5.523-4.478-10-10-10h-11.994c-1.778-5.675-4.058-11.172-6.821-16.449l8.487-8.486c1.875-1.875 2.929-4.419 2.929-7.071s-1.054-5.196-2.929-7.071l-28.466-28.466c-3.904-3.904-10.234-3.905-14.143 0l-8.486 8.487c-5.277-2.763-10.774-5.043-16.449-6.821v-11.994c0-5.523-4.478-10-10-10h-40.256c-5.522 0-10 4.477-10 10v11.994c-5.675 1.778-11.172 4.058-16.449 6.821l-8.486-8.487c-3.906-3.905-10.236-3.904-14.143 0l-28.466 28.466c-1.875 1.875-2.929 4.419-2.929 7.071s1.054 5.196 2.929 7.071l8.487 8.486c-2.764 5.277-5.043 10.774-6.821 16.449h-11.994c-5.522 0-10 4.477-10 10v40.257c0 5.523 4.478 10 10 10h11.994c1.778 5.674 4.058 11.172 6.821 16.449l-8.487 8.486c-1.875 1.875-2.929 4.419-2.929 7.071s1.054 5.196 2.929 7.071l28.466 28.466c3.906 3.904 10.236 3.905 14.143 0l8.486-8.486c5.278 2.764 10.774 5.043 16.449 6.821v11.993c0 5.522 4.478 10 10 10h40.256c5.522 0 10-4.478 10-10v-11.993c5.675-1.778 11.171-4.058 16.449-6.821l8.486 8.486c3.906 3.904 10.236 3.904 14.143 0l28.466-28.466c1.875-1.875 2.929-4.418 2.929-7.071s-1.054-5.196-2.929-7.071l-8.487-8.486c2.764-5.277 5.043-10.774 6.821-16.449zm-19.648-20c-4.671 0-8.719 3.233-9.752 7.788-2.011 8.862-5.496 17.269-10.36 24.987-2.49 3.952-1.914 9.101 1.389 12.403l6.829 6.829-14.323 14.324-6.829-6.829c-3.304-3.303-8.453-3.878-12.402-1.389-7.721 4.865-16.128 8.351-24.987 10.361-4.555 1.033-7.788 5.081-7.788 9.752v9.646h-20.256v-9.646c0-4.671-3.233-8.719-7.788-9.752-8.859-2.01-17.267-5.496-24.987-10.361-3.949-2.489-9.099-1.914-12.402 1.389l-6.829 6.829-14.323-14.324 6.829-6.829c3.303-3.303 3.879-8.452 1.389-12.403-4.864-7.718-8.35-16.125-10.36-24.987-1.033-4.555-5.081-7.788-9.752-7.788h-9.647v-20.257h9.647c4.671 0 8.719-3.233 9.752-7.788 2.011-8.862 5.496-17.269 10.36-24.987 2.49-3.952 1.914-9.101-1.389-12.403l-6.829-6.829 14.323-14.324 6.829 6.829c3.304 3.302 8.452 3.879 12.402 1.389 7.719-4.864 16.126-8.35 24.988-10.36 4.555-1.033 7.787-5.082 7.787-9.752v-9.647h20.256v9.647c0 4.67 3.232 8.719 7.787 9.752 8.862 2.011 17.27 5.497 24.988 10.36 3.949 2.49 9.099 1.914 12.402-1.389l6.829-6.829 14.323 14.324-6.829 6.829c-3.303 3.303-3.879 8.452-1.389 12.403 4.864 7.718 8.35 16.125 10.36 24.987 1.033 4.555 5.081 7.788 9.752 7.788h9.647v20.257z"/><path id="XMLID_1080_" d="m297.981 134.066c-29.729 0-53.915 24.186-53.915 53.915s24.187 53.915 53.915 53.915 53.915-24.186 53.915-53.915-24.187-53.915-53.915-53.915zm0 87.83c-18.701 0-33.915-15.214-33.915-33.915s15.214-33.915 33.915-33.915 33.915 15.214 33.915 33.915-15.214 33.915-33.915 33.915z"/></svg>