<svg id="Capa_1" enable-background="new 0 0 511.962 511.962" height="512" viewBox="0 0 511.962 511.962" width="512" xmlns="http://www.w3.org/2000/svg"><path id="XMLID_2420_" d="m117.981 501.962v-491.962h296l64 63.962v428z" fill="#eff3f3"/><path id="XMLID_2419_" d="m413.981 9.962v64h64z" fill="#ffe6c0"/><path id="XMLID_2881_" d="m337.981 341.962h-264c-22.091 0-40 17.909-40 40v80c0 22.091 17.909 40 40 40h264c22.091 0 40-17.909 40-40v-80c0-22.091-17.909-40-40-40z" fill="#ff9357"/><path id="XMLID_1184_" d="m485.05 66.889-64-63.962c-1.875-1.874-4.418-2.927-7.069-2.927h-296c-5.523 0-10 4.477-10 10v321.962h-34c-27.57 0-50 22.43-50 50v80c0 27.57 22.43 50 50 50h264 140c5.523 0 10-4.478 10-10v-200.873c0-5.522-4.477-10-10-10s-10 4.478-10 10v190.873h-90.027c6.292-8.363 10.027-18.753 10.027-30v-80c0-27.57-22.43-50-50-50h-210v-311.962h276v53.962c0 5.523 4.477 10 10 10h54v127.127c0 5.523 4.477 10 10 10s10-4.477 10-10v-137.127c0-2.653-1.054-5.198-2.931-7.073zm-117.069 315.073v80c0 16.542-13.458 30-30 30h-264c-16.542 0-30-13.458-30-30v-80c0-16.542 13.458-30 30-30h264c16.542 0 30 13.458 30 30zm56-347.83 29.848 29.83h-29.848z"/><path id="XMLID_1192_" d="m477.981 246.092c-2.63 0-5.21 1.06-7.07 2.93-1.86 1.86-2.93 4.44-2.93 7.07s1.07 5.21 2.93 7.07c1.86 1.859 4.44 2.93 7.07 2.93s5.21-1.07 7.07-2.93 2.93-4.44 2.93-7.07-1.07-5.21-2.93-7.07c-1.86-1.87-4.44-2.93-7.07-2.93z"/><path id="XMLID_1193_" d="m417.981 168.609h-149c-5.523 0-10 4.477-10 10s4.477 10 10 10h149c5.523 0 10-4.477 10-10s-4.477-10-10-10z"/><path id="XMLID_1194_" d="m417.981 109.962h-149c-5.523 0-10 4.477-10 10s4.477 10 10 10h149c5.523 0 10-4.477 10-10s-4.477-10-10-10z"/><path id="XMLID_1195_" d="m417.981 285.962h-238.529c-5.523 0-10 4.478-10 10s4.477 10 10 10h238.529c5.523 0 10-4.478 10-10s-4.477-10-10-10z"/><path id="XMLID_1756_" d="m417.981 227.256h-238.529c-5.523 0-10 4.477-10 10s4.477 10 10 10h238.529c5.523 0 10-4.477 10-10s-4.477-10-10-10z"/><path id="XMLID_1757_" d="m203.452 188.609c5.523 0 10-4.477 10-10v-48.647h14c5.523 0 10-4.477 10-10s-4.477-10-10-10h-48c-5.523 0-10 4.477-10 10s4.477 10 10 10h14v48.647c0 5.523 4.477 10 10 10z"/><path id="XMLID_1821_" d="m207.981 471.962c17.645 0 32-14.355 32-32v-36c0-17.645-14.355-32-32-32s-32 14.355-32 32v36c0 17.644 14.355 32 32 32zm-12-68c0-6.617 5.383-12 12-12s12 5.383 12 12v36c0 6.617-5.383 12-12 12s-12-5.383-12-12z"/><path id="XMLID_1822_" d="m281.481 471.962h21c11.855 0 21.5-9.645 21.5-21.5 0-5.522-4.477-10-10-10s-10 4.478-10 10c0 .827-.673 1.5-1.5 1.5h-21c-.827 0-1.5-.673-1.5-1.5v-57c0-.827.673-1.5 1.5-1.5h21c.827 0 1.5.673 1.5 1.5 0 5.522 4.477 10 10 10s10-4.478 10-10c0-11.855-9.645-21.5-21.5-21.5h-21c-11.855 0-21.5 9.645-21.5 21.5v57c0 11.855 9.645 21.5 21.5 21.5z"/><path id="XMLID_1825_" d="m87.981 381.962v80c0 5.522 4.477 10 10 10h22.25c19.712 0 35.75-16.037 35.75-35.75v-28.5c0-19.713-16.038-35.75-35.75-35.75h-22.25c-5.523 0-10 4.477-10 10zm20 10h12.25c8.685 0 15.75 7.065 15.75 15.75v28.5c0 8.685-7.065 15.75-15.75 15.75h-12.25z"/></svg>