<svg id="Layer_1" height="512" viewBox="0 0 128 128" width="512" xmlns="http://www.w3.org/2000/svg" data-name="Layer 1"><path d="m70.634 112.715v8.845h-12.577v-9.26a56.649 56.649 0 0 1 -32.2-14.787l9.95-12.3a47.287 47.287 0 0 0 22.25 11.887v-26.95c-17-4.423-28.469-10.5-28.469-26.811 0-14.925 11.47-26.4 28.469-28.469v-8.43h12.577v8.569a51.408 51.408 0 0 1 29.022 12.852l-9.4 12.714a45.169 45.169 0 0 0 -19.622-10.364v25.981c18.933 4.284 31.509 10.779 31.509 27.639 0 15.894-11.471 27.502-31.509 28.884zm-12.577-59.84v-22.941c-6.771 1.658-11.057 6.495-11.057 11.885 0 5.528 3.594 8.43 11.057 11.056zm26.811 32.614c0-6.357-4.423-9.259-14.234-12.161v24.6c9.397-1.106 14.234-6.357 14.234-12.439z" fill="#72bd39"/><g fill="#26180d"><path d="m45.171 20.691a36.123 36.123 0 0 1 13.1-4.084 1.75 1.75 0 0 0 1.538-1.737v-6.681h9.077v6.819a1.75 1.75 0 0 0 1.565 1.74 49.536 49.536 0 0 1 26.82 11.395l-7.315 9.9a45.8 45.8 0 0 0 -18.946-9.543 1.749 1.749 0 0 0 -2.126 1.709v25.98a1.751 1.751 0 0 0 1.364 1.711 92.162 92.162 0 0 1 12.806 3.734 1.727 1.727 0 0 0 .631.118 1.75 1.75 0 0 0 .631-3.382 91.274 91.274 0 0 0 -11.932-3.57v-22.342a44.528 44.528 0 0 1 16.73 9.442 1.749 1.749 0 0 0 2.551-.284l9.4-12.715a1.75 1.75 0 0 0 -.265-2.365 53.334 53.334 0 0 0 -28.416-13.08v-7.017a1.75 1.75 0 0 0 -1.75-1.75h-12.577a1.75 1.75 0 0 0 -1.75 1.75v6.907a39.04 39.04 0 0 0 -12.821 4.278 1.75 1.75 0 1 0 1.686 3.066z"/><path d="m71.13 71.65a1.749 1.749 0 0 0 -2.246 1.678v24.6a1.75 1.75 0 0 0 1.75 1.75 1.8 1.8 0 0 0 .205-.012c9.585-1.129 15.779-6.693 15.779-14.177 0-7.743-5.679-10.937-15.488-13.839zm1.254 24.231v-20.181c8.067 2.637 10.734 5.162 10.734 9.786 0 5.193-4.061 9.064-10.734 10.396z"/><path d="m90.678 61.343a1.75 1.75 0 0 0 -1.729 3.043c.873.5 1.707 1.021 2.476 1.563a1.75 1.75 0 0 0 2.012-2.865c-.861-.605-1.789-1.19-2.759-1.741z"/><path d="m98.617 67.815a1.75 1.75 0 1 0 -2.7 2.225c3.012 3.658 4.477 8.169 4.477 13.791 0 15.469-11.449 25.867-29.879 27.138a1.75 1.75 0 0 0 -1.63 1.746v7.1h-9.078v-7.515a1.749 1.749 0 0 0 -1.542-1.737 54.737 54.737 0 0 1 -30-13.243l7.752-9.582a48.7 48.7 0 0 0 21.675 11.073 1.75 1.75 0 0 0 2.115-1.711v-9.85a1.75 1.75 0 0 0 -3.5 0v7.63a45.833 45.833 0 0 1 -19.319-10.957 1.749 1.749 0 0 0 -2.542.19l-9.95 12.3a1.75 1.75 0 0 0 .175 2.388 58.107 58.107 0 0 0 31.636 15.034v7.726a1.75 1.75 0 0 0 1.75 1.75h12.577a1.75 1.75 0 0 0 1.75-1.75v-7.235c19.483-1.908 31.509-13.48 31.509-30.494 0-6.468-1.726-11.707-5.276-16.017z"/><path d="m56.307 71.5v7.836a1.75 1.75 0 0 0 3.5 0v-9.186a1.749 1.749 0 0 0 -1.31-1.693c-16.767-4.363-27.159-10.087-27.159-25.118a24.672 24.672 0 0 1 7.823-18.281 1.75 1.75 0 0 0 -2.413-2.535 28.47 28.47 0 0 0 -8.91 20.816c0 16.804 11.325 23.521 28.469 28.161z"/><path d="m57.641 28.233c-7.411 1.815-12.39 7.274-12.39 13.586 0 7.387 5.876 10.473 12.225 12.706a1.747 1.747 0 0 0 1.592-.223 1.75 1.75 0 0 0 .739-1.428v-22.94a1.75 1.75 0 0 0 -2.166-1.7zm-1.334 22.108c-5.529-2.275-7.556-4.648-7.556-8.521 0-4.062 2.958-7.688 7.556-9.5z"/></g></svg>