<svg id="Capa_1" enable-background="new 0 0 512 512" height="512" viewBox="0 0 512 512" width="512" xmlns="http://www.w3.org/2000/svg"><g><g><g><path d="m429.802 138.063c0 40.496-34.162 74.688-74.689 74.688h-56.907l21.804-24.406h-36.124v-54.485h-56.277v54.486h-35.603l21.804 24.406h-75.279c-31.1 0-56.317-25.216-56.317-56.327s25.216-56.327 56.317-56.327c1.891 0 3.742.11 5.574.29 5.485-50.822 48.513-90.388 100.777-90.388 39.666 0 73.988 22.795 90.639 55.976 6.244-1.691 12.818-2.612 19.593-2.612 40.256.001 74.688 34.543 74.688 74.699z" fill="#f9f5f3"/></g><g><path d="m157.824 259.988h196.371v242.012h-196.371z" fill="#e0e7ef"/></g><g><path d="m283.886 188.35v-54.49h-56.278v54.49h-35.598l63.999 71.638 63.999-71.638z" fill="#a0e4a5"/></g></g><path d="m138.533 222.752h70.802l24.332 27.236h-75.843c-5.523 0-10 4.477-10 10v242.012c0 5.523 4.477 10 10 10h196.371c5.523 0 10-4.477 10-10v-242.012c0-5.523-4.477-10-10-10h-75.843l24.332-27.236h52.43c27.522 0 53.562-13.882 69.653-37.135 3.143-4.542 2.009-10.771-2.532-13.914-4.542-3.144-10.771-2.009-13.914 2.532-12.358 17.856-32.249 28.517-53.208 28.517h-34.562l6.914-7.74c2.6-2.91 3.267-7.189 1.672-10.751-1.61-3.599-5.185-5.915-9.127-5.915h-26.124v-44.486c0-5.449-4.548-10-10.001-10h-56.277c-5.523 0-10 4.477-10 10v44.486h-25.601c-3.942 0-7.517 2.316-9.127 5.915-1.594 3.562-.928 7.841 1.672 10.751l6.914 7.74h-52.935c-25.539 0-46.316-20.782-46.316-46.327s20.777-46.327 46.316-46.327c1.437 0 2.94.079 4.594.242 5.464.536 10.333-3.425 10.922-8.879 5.012-46.44 44.062-81.461 90.835-81.461 34.776 0 66.082 19.336 81.701 50.461 2.133 4.25 6.963 6.41 11.553 5.167 5.546-1.502 11.258-2.264 16.978-2.264 20.665 0 40.453 10.614 52.934 28.393 3.173 4.52 9.41 5.613 13.93 2.439 4.52-3.173 5.612-9.41 2.439-13.93-16.221-23.107-42.128-36.902-69.303-36.902-4.829 0-9.652.415-14.415 1.236-20.024-33.872-56.058-54.6-95.817-54.6-53.896 0-99.38 38.158-109.35 90.166-35.179 1.576-63.315 30.694-63.315 66.26-.001 36.572 29.749 66.326 66.316 66.326zm205.662 269.248h-176.371v-222.012h176.371zm-129.84-293.65h13.253c5.448 0 10.002-4.55 10.002-10.004v-44.486h36.275v44.49c0 5.523 4.477 10 10 10h13.778l-41.654 46.628z"/><path d="m203.941 298.002c-5.523 0-10 4.477-10 10s4.477 10 10 10h52.068c5.523 0 10-4.477 10-10s-4.477-10-10-10z"/><path d="m193.941 362.344c0 5.523 4.477 10 10 10h103.708c5.523 0 10-4.477 10-10s-4.477-10-10-10h-103.708c-5.523 0-10 4.477-10 10z"/><path d="m307.649 392.823h-103.708c-5.523 0-10 4.477-10 10s4.477 10 10 10h103.708c5.523 0 10-4.477 10-10s-4.477-10-10-10z"/><path d="m307.649 445.535h-51.854c-5.523 0-10 4.477-10 10s4.477 10 10 10h51.854c5.523 0 10-4.477 10-10s-4.477-10-10-10z"/><path d="m439.039 134.24c-2.067-5.043-8.04-7.483-13.06-5.41-5.038 2.081-7.495 8.025-5.41 13.06 2.085 5.033 8.025 7.495 13.06 5.41 5.023-2.08 7.503-8.037 5.41-13.06z"/></g></svg>