<svg id="Capa_1" enable-background="new 0 0 511.962 511.962" height="512" viewBox="0 0 511.962 511.962" width="512" xmlns="http://www.w3.org/2000/svg"><path id="XMLID_1256_" d="m29.981 501.962v-491.962h296l64 63.962v428z" fill="#eff3f3"/><path id="XMLID_1255_" d="m325.981 10v64h64z" fill="#ffe6c0"/><path id="XMLID_3203_" d="m313.68 217.518h90.548v257.425h-90.548z" fill="#ffcb7c" transform="matrix(.707 .707 -.707 .707 349.957 -152.41)"/><path id="XMLID_3202_" d="m299.954 469.258-64.027-64.027-32.742 96.769z" fill="#98a1b3"/><path id="XMLID_1259_" d="m101.981 266h216c5.523 0 10-4.477 10-10s-4.477-10-10-10h-216c-5.523 0-10 4.477-10 10s4.477 10 10 10z"/><path id="XMLID_1263_" d="m101.981 202h216c5.523 0 10-4.477 10-10s-4.477-10-10-10h-216c-5.523 0-10 4.477-10 10s4.477 10 10 10z"/><path id="XMLID_1268_" d="m489.052 280.16-64.027-64.027c-3.905-3.905-10.237-3.905-14.143 0l-10.902 10.902v-153.073c0-2.653-1.054-5.198-2.931-7.073l-64-63.962c-1.874-1.874-4.417-2.927-7.068-2.927h-296c-5.523 0-10 4.477-10 10v491.962c0 5.523 4.477 10 10 10h360c5.523 0 10-4.477 10-10v-118.588l89.071-89.071c3.905-3.906 3.905-10.238 0-14.143zm-71.098-42.814 17.871 17.871-167.884 167.885-17.871-17.871zm-177.714 186.34 41.26 41.26-62.359 21.099zm95.741-389.554 29.886 29.868h-29.886zm-296-14.132h276v54c0 5.523 4.477 10 10 10h54v161.629c0 .445.039.88.096 1.31l-63.061 63.061h-215.035c-5.523 0-10 4.477-10 10s4.477 10 10 10h195.035l-44 44h-151.035c-5.523 0-10 4.477-10 10s4.477 10 10 10h131.035l-4.16 4.16c-1.123 1.123-1.912 2.45-2.389 3.859-.004.002-.008.005-.012.007l-30.43 89.936h-156.044zm340 471.962h-115.927l39.105-13.231c.001-.004.003-.007.004-.011 1.41-.477 2.738-1.266 3.862-2.39l72.956-72.956zm-80.027-36.847-17.871-17.871 167.885-167.884 17.871 17.871z"/><path id="XMLID_18_" d="m317.981 138h-171c-5.523 0-10-4.477-10-10s4.477-10 10-10h171c5.523 0 10 4.477 10 10s-4.477 10-10 10z"/><path id="XMLID_17_" d="m101.981 138c-2.63 0-5.21-1.07-7.07-2.93s-2.93-4.44-2.93-7.07 1.07-5.21 2.93-7.07 4.44-2.93 7.07-2.93 5.21 1.07 7.07 2.93 2.93 4.44 2.93 7.07-1.07 5.21-2.93 7.07-4.44 2.93-7.07 2.93z"/></svg>