<?xml version="1.0" encoding="iso-8859-1"?>
<!-- Generator: Adobe Illustrator 19.0.0, SVG Export Plug-In . SVG Version: 6.00 Build 0)  -->
<svg version="1.1" id="Capa_1" xmlns="http://www.w3.org/2000/svg" xmlns:xlink="http://www.w3.org/1999/xlink" x="0px" y="0px"
	 viewBox="0 0 512 512" style="enable-background:new 0 0 512 512;" xml:space="preserve">
<path style="fill:#FFB954;" d="M40,92.979c-16.569,0-30,13.431-30,30v266.042c0,16.569,13.431,30,30,30h432
	c16.569,0,30-13.431,30-30V122.979c0-16.569-13.431-30-30-30H40z"/>
<path style="fill:#FEA02C;" d="M40,419.021h432c7.203,0,13.811-2.541,18.983-6.772L293.274,214.54
	c-20.586-20.586-53.962-20.586-74.548,0L21.017,412.249C26.189,416.48,32.797,419.021,40,419.021z"/>
<path style="fill:#FFC66C;" d="M472,92.979H40c-7.203,0-13.811,2.541-18.983,6.772L218.726,297.46
	c20.586,20.586,53.962,20.586,74.548,0L490.983,99.751C485.811,95.52,479.203,92.979,472,92.979z"/>
<path d="M137.364,102.979h0.125c5.523,0,10-4.477,10-10c0-5.523-4.477-10-10-10h-0.125c-5.523,0-10,4.477-10,10
	C127.364,98.502,131.841,102.979,137.364,102.979z"/>
<path d="M472,82.979H182.068c-5.523,0-10,4.477-10,10c0,5.523,4.477,10,10,10H472c0.518,0,1.027,0.039,1.535,0.078L445.592,131
	H315.15c-5.523,0-10,4.477-10,10s4.477,10,10,10h110.442L286.203,290.389c-16.654,16.654-43.752,16.655-60.406,0L38.465,103.057
	c0.508-0.039,1.017-0.078,1.535-0.078h53c5.523,0,10-4.477,10-10c0-5.523-4.477-10-10-10H40c-22.056,0-40,17.944-40,40v266.042
	c0,22.056,17.944,40,40,40h432c22.056,0,40-17.944,40-40V122.979C512,100.923,494.056,82.979,472,82.979z M350.999,253.878
	l139.182-139.183c1.157,2.528,1.819,5.327,1.819,8.284v266.042c0,1.786-0.258,3.509-0.699,5.158L350.999,253.878z M20.699,394.179
	C20.258,392.53,20,390.807,20,389.021V122.979c0-2.957,0.662-5.756,1.819-8.284l139.182,139.182L20.699,394.179z M40,409.021
	c-1.786,0-3.509-0.258-5.158-0.699L175.144,268.02l36.512,36.512C223.881,316.757,239.94,322.87,256,322.87
	s32.119-6.113,44.345-18.338l36.511-36.512l140.302,140.302c-1.649,0.441-3.372,0.699-5.158,0.699H40z"/>
<path d="M273.3,151c5.523,0,10-4.477,10-10s-4.477-10-10-10h-0.15c-5.523,0-10,4.477-10,10s4.477,10,10,10H273.3z"/>
<g>
</g>
<g>
</g>
<g>
</g>
<g>
</g>
<g>
</g>
<g>
</g>
<g>
</g>
<g>
</g>
<g>
</g>
<g>
</g>
<g>
</g>
<g>
</g>
<g>
</g>
<g>
</g>
<g>
</g>
</svg>
