<svg id="Capa_1" enable-background="new 0 0 511.962 511.962" height="512" viewBox="0 0 511.962 511.962" width="512" xmlns="http://www.w3.org/2000/svg"><path id="XMLID_1131_" d="m117.981 501.962v-491.962h296l64 63.962v428z" fill="#eff3f3"/><path id="XMLID_1130_" d="m413.981 9.962v64h64z" fill="#ffe6c0"/><path id="XMLID_1201_" d="m337.981 341.962h-264c-22.091 0-40 17.909-40 40v80c0 22.091 17.909 40 40 40h264c22.091 0 40-17.909 40-40v-80c0-22.091-17.909-40-40-40z" fill="#f5737f"/><path id="XMLID_1295_" d="m177.981 140.903v134.118c0 11.695 9.481 21.176 21.176 21.176h197.647c11.695 0 21.176-9.481 21.176-21.176v-134.118c0-11.695-9.481-21.176-21.176-21.176h-197.647c-11.695 0-21.176 9.481-21.176 21.176z" fill="#91def5"/><path id="XMLID_472_" d="m485.05 66.889-64-63.962c-1.875-1.874-4.418-2.927-7.069-2.927h-296c-5.523 0-10 4.477-10 10v321.962h-34c-27.57 0-50 22.43-50 50v80c0 27.57 22.43 50 50 50h264 140c5.523 0 10-4.478 10-10v-200.873c0-5.522-4.477-10-10-10s-10 4.478-10 10v190.873h-90.027c6.292-8.363 10.027-18.753 10.027-30v-80c0-27.57-22.43-50-50-50h-210v-311.962h276v53.962c0 5.523 4.477 10 10 10h54v127.127c0 5.523 4.477 10 10 10s10-4.477 10-10v-137.127c0-2.653-1.054-5.198-2.931-7.073zm-117.069 315.073v80c0 16.542-13.458 30-30 30h-264c-16.542 0-30-13.458-30-30v-80c0-16.542 13.458-30 30-30h264c16.542 0 30 13.458 30 30zm56-347.83 29.848 29.83h-29.848z"/><path id="XMLID_474_" d="m477.981 246.092c-2.63 0-5.21 1.06-7.07 2.93-1.86 1.86-2.93 4.44-2.93 7.07s1.07 5.21 2.93 7.07c1.86 1.859 4.44 2.93 7.07 2.93s5.21-1.07 7.07-2.93 2.93-4.44 2.93-7.07-1.07-5.21-2.93-7.07c-1.86-1.87-4.44-2.93-7.07-2.93z"/><path id="XMLID_475_" d="m81.981 401.962c0 7.678 2.902 14.688 7.663 20-4.761 5.312-7.663 12.322-7.663 20 0 16.542 13.458 30 30 30h24c5.523 0 10-4.478 10-10s-4.477-10-10-10h-24c-5.514 0-10-4.486-10-10s4.486-10 10-10h13.667 10.333c5.523 0 10-4.478 10-10s-4.477-10-10-10h-10.333-13.667c-5.514 0-10-4.486-10-10s4.486-10 10-10h24c5.523 0 10-4.478 10-10s-4.477-10-10-10h-24c-16.542 0-30 13.458-30 30z"/><path id="XMLID_476_" d="m175.981 471.962c5.523 0 10-4.478 10-10v-51.492l14.191 17.739c1.897 2.372 4.771 3.753 7.809 3.753s5.911-1.381 7.809-3.753l14.191-17.739v51.492c0 5.522 4.477 10 10 10s10-4.478 10-10v-80c0-4.247-2.683-8.03-6.69-9.437-4.008-1.401-8.465-.127-11.119 3.189l-24.191 30.239-24.191-30.239c-2.654-3.316-7.113-4.594-11.119-3.189-4.007 1.406-6.69 5.189-6.69 9.437v80c0 5.522 4.477 10 10 10z"/><path id="XMLID_477_" d="m279.981 471.962h40c5.523 0 10-4.478 10-10s-4.477-10-10-10h-30v-70c0-5.522-4.477-10-10-10s-10 4.478-10 10v80c0 5.522 4.477 10 10 10z"/><path id="XMLID_480_" d="m199.157 109.727c-17.19 0-31.176 13.986-31.176 31.177v134.117c0 17.19 13.986 31.177 31.176 31.177h197.647c17.19 0 31.176-13.986 31.176-31.177v-134.118c0-17.191-13.986-31.177-31.176-31.177h-197.647zm208.824 162.298-62.627-62.626 62.627-62.627zm-220-125.35 62.71 62.71c-.139.125-.283.243-.417.376l-62.293 62.293zm76.436 77.229c.134-.134.252-.277.376-.417l9.958 9.958c6.418 6.417 14.848 9.626 23.278 9.626s16.86-3.209 23.278-9.626l9.904-9.904 62.657 62.656h-191.744zm42.748-4.601c-5.037 5.038-13.233 5.038-18.271 0l-89.577-89.576h197.423z"/></svg>