<svg id="Capa_1" enable-background="new 0 0 512.055 512.055" height="512" viewBox="0 0 512.055 512.055" width="512" xmlns="http://www.w3.org/2000/svg"><g><g><path d="m486.799 475.281h-461.545c-9.805 0-17.754-7.949-17.754-17.754v-356.452h497.052v356.453c.001 9.804-7.948 17.753-17.753 17.753z" fill="#f8f6f6"/></g><g><path d="m504.557 101.077v356.45c0 9.8-7.95 17.75-17.76 17.75h-20c9.81 0 17.76-7.95 17.76-17.75v-356.45z" fill="#ebebeb"/></g><g><path d="m504.554 101.075h-497.052v-46.547c0-9.805 7.949-17.754 17.754-17.754h461.545c9.805 0 17.754 7.949 17.754 17.754v46.547z" fill="#b3dafe"/></g><g><path d="m504.557 54.527v46.55h-20v-46.55c0-9.8-7.95-17.75-17.76-17.75h20c9.81 0 17.76 7.95 17.76 17.75z" fill="#8ac9fe"/></g><g><path d="m238.732 169.253-60.426 104.661c-7.686 13.313 1.922 29.954 17.294 29.954h120.852c15.373 0 24.98-16.641 17.294-29.954l-60.426-104.661c-7.686-13.313-26.901-13.313-34.588 0z" fill="#fedba6"/></g><g><path d="m316.447 303.867h-2.06c2.77-5.62 2.95-12.55-.64-18.76l-60.43-104.66c-3.47-6.01-9.29-9.31-15.34-9.88l.75-1.31c7.69-13.32 26.91-13.32 34.59 0l60.43 104.66c7.69 13.31-1.92 29.95-17.3 29.95z" fill="#fece85"/></g><g><path d="m197.685 365.315c0-14.16-11.981-25.68-26.708-25.68h-18.588c-.004 0-.008 0-.012 0s-.008 0-.011 0c-4.142 0-7.5 3.357-7.5 7.5v69.951c0 4.143 3.358 7.5 7.5 7.5s7.5-3.357 7.5-7.5v-23.096l24.689 28.052c1.482 1.685 3.552 2.545 5.633 2.545 1.76 0 3.527-.616 4.952-1.87 3.109-2.736 3.412-7.476.675-10.585l-19.128-21.734c11.991-2.521 20.998-12.807 20.998-25.083zm-26.708 10.68c-2.545 0-7.066.02-11.002.039-.021-3.856-.052-17.363-.063-21.398h11.065c6.346 0 11.708 4.891 11.708 10.68s-5.362 10.679-11.708 10.679z"/><path d="m266.368 365.315c0-14.16-11.981-25.68-26.708-25.68h-18.588c-.004 0-.008 0-.012 0s-.008 0-.011 0c-4.142 0-7.5 3.357-7.5 7.5v69.951c0 4.143 3.358 7.5 7.5 7.5s7.5-3.357 7.5-7.5v-23.096l24.689 28.052c1.482 1.685 3.552 2.545 5.633 2.545 1.76 0 3.527-.616 4.952-1.87 3.109-2.736 3.412-7.476.675-10.585l-19.128-21.734c11.992-2.521 20.998-12.807 20.998-25.083zm-26.708 10.68c-2.545 0-7.066.02-11.002.039v-21.398h11.002c6.346 0 11.708 4.891 11.708 10.68s-5.362 10.679-11.708 10.679z"/><path d="m431.602 365.315c0-14.16-11.981-25.68-26.708-25.68 0 0-18.588 0-18.611 0-4.142 0-7.5 3.357-7.5 7.5v69.951c0 4.143 3.358 7.5 7.5 7.5s7.5-3.357 7.5-7.5v-23.096s24.689 28.052 24.689 28.052c2.677 3.042 7.537 3.357 10.585.675 3.109-2.736 3.412-7.476.675-10.585l-19.128-21.734c11.991-2.521 20.998-12.807 20.998-25.083zm-26.708 10.68c-2.545 0-7.066.02-11.002.039v-21.398h11.002c6.346 0 11.708 4.891 11.708 10.68s-5.362 10.679-11.708 10.679z"/><path d="m322.665 424.587c23.421 0 42.476-19.055 42.476-42.476s-19.055-42.476-42.476-42.476-42.476 19.055-42.476 42.476 19.055 42.476 42.476 42.476zm0-69.951c15.15 0 27.476 12.325 27.476 27.476s-12.326 27.476-27.476 27.476-27.476-12.325-27.476-27.476 12.326-27.476 27.476-27.476z"/><path d="m117.156 355.274c4.142 0 7.5-3.357 7.5-7.5s-3.358-7.5-7.5-7.5h-29.205c-4.142 0-7.5 3.357-7.5 7.5v69.313c0 4.143 3.358 7.5 7.5 7.5h29.205c4.142 0 7.5-3.357 7.5-7.5s-3.358-7.5-7.5-7.5h-21.705v-19.656h19.552c4.142 0 7.5-3.357 7.5-7.5s-3.358-7.5-7.5-7.5h-19.552v-19.656h21.705z"/><ellipse cx="256.026" cy="275.996" rx="7.534" ry="7.534" transform="matrix(.987 -.16 .16 .987 -40.904 44.575)"/><path d="m256.137 258.856c4.142 0 7.5-3.357 7.5-7.5v-52.332c0-4.143-3.358-7.5-7.5-7.5s-7.5 3.357-7.5 7.5v52.332c0 4.143 3.358 7.5 7.5 7.5z"/><path d="m340.242 297.633c4.965-8.6 4.965-18.869 0-27.469l-60.426-104.661c-4.965-8.6-13.858-13.734-23.789-13.734s-18.824 5.135-23.789 13.734l-60.426 104.661c-4.965 8.6-4.966 18.868 0 27.469s13.859 13.735 23.79 13.735h8.903c4.142 0 7.5-3.357 7.5-7.5s-3.358-7.5-7.5-7.5h-8.903c-4.508 0-8.545-2.331-10.799-6.235-2.254-3.903-2.254-8.564 0-12.469 0 0 60.266-104.384 60.425-104.661 4.807-8.325 16.81-8.292 21.598 0l60.426 104.661c2.254 3.903 2.254 8.565 0 12.469s-6.291 6.235-10.799 6.235h-76.483c-4.142 0-7.5 3.357-7.5 7.5s3.358 7.5 7.5 7.5h76.482c9.931 0 18.824-5.135 23.79-13.735z"/><path d="m504.553 150.591c4.142 0 7.5-3.357 7.5-7.5l.002-88.563c0-13.925-11.329-25.253-25.254-25.253h-461.545c-13.925 0-25.254 11.328-25.254 25.253l-.002 402.999c0 13.925 11.329 25.253 25.254 25.253h461.545c13.925 0 25.254-11.328 25.254-25.253v-280.442c0-4.143-3.358-7.5-7.5-7.5s-7.5 3.357-7.5 7.5v280.442c0 5.653-4.6 10.253-10.254 10.253h-461.545c-5.654 0-10.254-4.6-10.254-10.253v-348.953h482.053v34.517c0 4.142 3.358 7.5 7.5 7.5zm-489.551-57.017v-39.047c0-5.653 4.6-10.253 10.254-10.253h461.545c5.654 0 10.254 4.6 10.254 10.253v39.047z"/><ellipse cx="62.84" cy="68.924" rx="10.038" ry="10.038" transform="matrix(.995 -.099 .099 .995 -6.486 6.528)"/><ellipse cx="101.236" cy="68.924" rx="10.038" ry="10.038" transform="matrix(.995 -.099 .099 .995 -6.299 10.311)"/><ellipse cx="139.632" cy="68.924" rx="10.038" ry="10.038" transform="matrix(.16 -.987 .987 .16 49.232 195.713)"/></g></g></svg>