<svg id="Capa_1" enable-background="new 0 0 511.962 511.962" height="512" viewBox="0 0 511.962 511.962" width="512" xmlns="http://www.w3.org/2000/svg"><path id="XMLID_2770_" d="m117.981 501.962v-491.962h296l64 63.962v428z" fill="#eff3f3"/><path id="XMLID_2477_" d="m177.981 119.962h240v175.941h-240z" fill="#ffe6c0"/><path id="XMLID_2769_" d="m413.981 9.962v64h64z" fill="#ffe6c0"/><path id="XMLID_2689_" d="m337.981 341.962h-264c-22.091 0-40 17.909-40 40v80c0 22.091 17.909 40 40 40h264c22.091 0 40-17.909 40-40v-80c0-22.091-17.909-40-40-40z" fill="#d8ec84"/><path id="XMLID_1211_" d="m485.05 66.889-64-63.962c-1.876-1.874-4.418-2.927-7.069-2.927h-296c-5.522 0-10 4.478-10 10v321.962h-34c-27.57 0-50 22.43-50 50v80c0 27.57 22.43 50 50 50h264 140c5.522 0 10-4.478 10-10v-200.873c0-5.522-4.478-10-10-10s-10 4.478-10 10v190.873h-90.027c6.292-8.363 10.027-18.752 10.027-30v-80c0-27.57-22.43-50-50-50h-210v-311.962h276v53.962c0 5.523 4.477 10 10 10h54v127.127c0 5.522 4.478 10 10 10s10-4.478 10-10v-137.127c0-2.653-1.055-5.197-2.931-7.073zm-117.069 315.073v80c0 16.542-13.458 30-30 30h-264c-16.542 0-30-13.458-30-30v-80c0-16.542 13.458-30 30-30h264c16.542 0 30 13.458 30 30zm56-347.83 29.848 29.83h-29.848z"/><path id="XMLID_1213_" d="m477.981 246.092c-2.63 0-5.21 1.06-7.07 2.92-1.86 1.87-2.93 4.44-2.93 7.08 0 2.63 1.069 5.2 2.93 7.07 1.86 1.859 4.44 2.93 7.07 2.93s5.21-1.07 7.069-2.93c1.86-1.87 2.931-4.44 2.931-7.07 0-2.64-1.07-5.21-2.931-7.08-1.859-1.861-4.439-2.92-7.069-2.92z"/><path id="XMLID_1214_" d="m79.961 401.962c0 7.678 2.902 14.688 7.664 20-4.761 5.312-7.664 12.322-7.664 20 0 16.542 13.458 30 30 30h24c5.522 0 10-4.478 10-10s-4.478-10-10-10h-24c-5.514 0-10-4.486-10-10s4.486-10 10-10h13.666 10.334c5.522 0 10-4.478 10-10s-4.478-10-10-10h-10.334-13.666c-5.514 0-10-4.486-10-10s4.486-10 10-10h24c5.522 0 10-4.478 10-10s-4.478-10-10-10h-24c-16.542 0-30 13.458-30 30z"/><path id="XMLID_1215_" d="m298 471.962h24c5.522 0 10-4.478 10-10s-4.478-10-10-10h-24c-5.514 0-10-4.486-10-10s4.486-10 10-10h13.667 10.333c5.522 0 10-4.478 10-10s-4.478-10-10-10h-10.333-13.667c-5.514 0-10-4.486-10-10s4.486-10 10-10h24c5.522 0 10-4.478 10-10s-4.478-10-10-10h-24c-16.542 0-30 13.458-30 30 0 7.678 2.902 14.688 7.664 20-4.761 5.312-7.664 12.322-7.664 20 0 16.542 13.458 30 30 30z"/><path id="XMLID_1216_" d="m167.714 469.771c1.844 1.476 4.05 2.191 6.241 2.191 2.933 0 5.84-1.284 7.814-3.753l24.191-30.239 24.191 30.239c1.976 2.469 4.881 3.753 7.814 3.753 2.191 0 4.397-.717 6.241-2.191 4.313-3.45 5.012-9.743 1.562-14.056l-27.002-33.753 27.002-33.753c3.45-4.313 2.751-10.605-1.562-14.056-4.311-3.45-10.604-2.751-14.056 1.562l-24.191 30.239-24.191-30.239c-3.451-4.313-9.745-5.011-14.056-1.562-4.313 3.45-5.012 9.743-1.562 14.056l27.002 33.753-27.002 33.753c-3.447 4.312-2.748 10.605 1.564 14.056z"/><path id="XMLID_1217_" d="m229.439 257.933h21c11.855 0 21.5-9.645 21.5-21.5 0-5.522-4.478-10-10-10s-10 4.478-10 10c0 .827-.673 1.5-1.5 1.5h-21c-.827 0-1.5-.673-1.5-1.5v-57c0-.827.673-1.5 1.5-1.5h21c.827 0 1.5.673 1.5 1.5 0 5.522 4.478 10 10 10s10-4.478 10-10c0-11.855-9.645-21.5-21.5-21.5h-21c-11.855 0-21.5 9.645-21.5 21.5v57c0 11.855 9.644 21.5 21.5 21.5z"/><path id="XMLID_1235_" d="m309 257.932c2.63 0 5.21-1.07 7.07-2.93s2.93-4.44 2.93-7.07-1.069-5.21-2.93-7.07c-1.86-1.859-4.44-2.93-7.07-2.93s-5.21 1.07-7.069 2.93c-1.86 1.86-2.931 4.44-2.931 7.07s1.07 5.21 2.931 7.07c1.86 1.859 4.44 2.93 7.069 2.93z"/><path id="XMLID_1236_" d="m309 217.932c2.63 0 5.21-1.07 7.07-2.93s2.93-4.44 2.93-7.07-1.069-5.21-2.93-7.07c-1.86-1.859-4.44-2.93-7.07-2.93s-5.21 1.07-7.069 2.93c-1.86 1.86-2.931 4.44-2.931 7.07s1.07 5.21 2.931 7.07c1.86 1.859 4.44 2.93 7.069 2.93z"/><path id="XMLID_1237_" d="m353.33 257.574c.887.244 1.779.361 2.657.361 4.39 0 8.416-2.913 9.636-7.352l22-80c1.465-5.325-1.665-10.829-6.99-12.293-5.319-1.465-10.829 1.664-12.293 6.99l-22 80c-1.465 5.326 1.664 10.83 6.99 12.294z"/><path id="XMLID_1248_" d="m177.981 109.962c-5.522 0-10 4.478-10 10v175.94c0 5.522 4.478 10 10 10h240c5.522 0 10-4.478 10-10v-175.94c0-5.522-4.478-10-10-10zm230 175.94h-220v-155.94h220z"/></svg>