<svg id="Capa_1" enable-background="new 0 0 511.998 511.998" height="512" viewBox="0 0 511.998 511.998" width="512" xmlns="http://www.w3.org/2000/svg"><g><g><path d="m491.265 123.296-82.258-82.257-8.64-1.663-20.375 9.125-.835 5.863-5.29-.488-319.512 320.66v4.631l-9.863 3.084-6.492 18.25 3.03 8.515 82.258 82.258c17.636 17.636 46.333 17.637 63.969 0l304.009-304.008c17.635-17.637 17.635-46.333-.001-63.97z" fill="#f27182"/><path d="m54.963 378.53 323.557-323.557c8.482-8.482 19.369-13.118 30.487-13.934l-20.31-20.311c-17.637-17.637-46.333-17.637-63.97 0l-304.009 304.009c-17.636 17.636-17.636 46.333.001 63.969l20.31 20.31c.816-11.117 5.452-22.004 13.934-30.486z" fill="#ed5469"/><path d="m469.677 144.884-90.52-90.52-5.29-.488-319.512 320.66v4.631l90.52 90.52c5.742 5.742 15.052 5.742 20.794 0l304.008-304.008c5.742-5.743 5.742-15.053 0-20.795z" fill="#ed5469"/><path d="m379.157 54.364-12.048-12.048c-5.742-5.742-15.052-5.742-20.795 0l-304.008 304.008c-5.742 5.742-5.742 15.052 0 20.794l12.048 12.048c.204-.211.399-.428.608-.637l323.558-323.556c.209-.209.426-.405.637-.609z" fill="#e63850"/></g><g><path d="m319.146 145.863c-2.93-2.928-7.678-2.928-10.607 0l-18.389 18.389c-2.929 2.93-2.929 7.678 0 10.607l46.993 46.993c1.465 1.464 3.385 2.196 5.304 2.196s3.839-.732 5.304-2.196l18.389-18.389c2.929-2.93 2.929-7.678 0-10.607-2.93-2.928-7.678-2.928-10.607 0l-13.085 13.086-12.89-12.89 12.063-12.063c2.929-2.93 2.929-7.678 0-10.607-2.93-2.928-7.678-2.928-10.607 0l-12.063 12.063-12.89-12.89 13.086-13.085c2.927-2.929 2.927-7.677-.001-10.607z"/><path d="m128.468 336.541c-2.93-2.928-7.678-2.928-10.607 0l-18.389 18.389c-2.929 2.93-2.929 7.678 0 10.607l46.993 46.993c2.931 2.929 7.678 2.928 10.607 0l18.389-18.389c2.929-2.93 2.929-7.678 0-10.607-2.93-2.928-7.678-2.928-10.607 0l-13.085 13.086-12.89-12.89 12.063-12.063c2.929-2.93 2.929-7.678 0-10.607-2.93-2.928-7.678-2.928-10.607 0l-12.063 12.063-12.89-12.89 13.086-13.085c2.929-2.929 2.929-7.677 0-10.607z"/><path d="m324.537 241.969c3.715 0 6.94-2.759 7.429-6.542.529-4.107-2.371-7.867-6.479-8.397l-27.201-3.508c5.982-9.331 4.91-21.909-3.241-30.06-9.402-9.402-24.702-9.4-34.104 0l-14.012 14.012c-2.929 2.93-2.929 7.678 0 10.607l46.993 46.993c2.931 2.929 7.678 2.928 10.607 0 2.929-2.93 2.929-7.678 0-10.607l-17.239-17.239 36.278 4.679c.326.041.649.062.969.062zm-40.099-25.012-8.708 8.709-12.891-12.89 8.709-8.708c3.553-3.553 9.337-3.555 12.89 0 3.553 3.554 3.553 9.335 0 12.889z"/><path d="m240.867 328.735c2.929-2.93 2.929-7.678 0-10.607l-18.193-18.193 8.709-8.708c9.401-9.402 9.401-24.701 0-34.104-9.402-9.402-24.702-9.401-34.104 0l-14.012 14.012c-2.929 2.93-2.929 7.678 0 10.607l46.993 46.993c2.931 2.929 7.678 2.928 10.607 0zm-28.799-39.407-12.891-12.89 8.709-8.708c3.553-3.554 9.337-3.555 12.89 0 3.554 3.554 3.554 9.335 0 12.889z"/><path d="m383.239 186.364 6.657-6.657c15.405-15.406 15.405-40.472 0-55.878l-1.723-1.723c-15.407-15.405-40.473-15.403-55.878 0l-6.657 6.657c-2.929 2.93-2.929 7.678 0 10.607l46.993 46.993c2.931 2.93 7.678 2.929 10.608.001zm-40.336-53.65c4.629-4.63 10.784-7.18 17.332-7.18 6.547 0 12.702 2.55 17.331 7.18l1.723 1.723c4.63 4.629 7.18 10.784 7.18 17.331 0 6.548-2.55 12.703-7.18 17.332l-1.354 1.354-36.387-36.387z"/><path d="m285.361 284.242c2.929-2.93 2.929-7.678 0-10.607l-46.993-46.993c-2.93-2.928-7.678-2.928-10.607 0-2.929 2.93-2.929 7.678 0 10.607l46.993 46.993c2.93 2.929 7.677 2.928 10.607 0z"/><path d="m225.456 342.55c.943-4.033-1.561-8.067-5.595-9.011l-33.549-7.849-7.849-33.549c-.942-4.034-4.981-6.538-9.011-5.595-4.034.943-6.538 4.978-5.595 9.012l6.158 26.32-26.32-6.158c-4.034-.944-8.068 1.561-9.012 5.594-.943 4.034 1.561 8.068 5.595 9.012l33.549 7.849 7.849 33.549c.943 4.035 4.98 6.539 9.012 5.595 4.033-.943 6.537-4.978 5.594-9.012l-6.158-26.32 26.32 6.158c4.033.944 8.069-1.562 9.012-5.595z"/><path d="m333.307 312.664 141.682-141.682c4.194-4.193 6.505-9.77 6.505-15.701s-2.31-11.507-6.503-15.701l-102.569-102.568c-8.658-8.656-22.744-8.656-31.402 0l-304.008 304.009c-4.193 4.194-6.503 9.77-6.503 15.7 0 5.932 2.31 11.507 6.503 15.701l102.568 102.568c4.194 4.193 9.77 6.503 15.701 6.503s11.506-2.31 15.7-6.503l137.577-137.576c2.929-2.93 2.929-7.678 0-10.607-2.93-2.928-7.678-2.928-10.607 0l-137.577 137.576c-2.809 2.81-7.378 2.808-10.187 0l-102.568-102.569c-2.81-2.809-2.81-7.378 0-10.187l304.007-304.008c2.811-2.809 7.382-2.809 10.188 0l102.568 102.568c1.361 1.36 2.11 3.169 2.11 5.094 0 1.924-.75 3.733-2.111 5.094l-141.682 141.682c-2.929 2.93-2.929 7.678 0 10.607 2.929 2.927 7.677 2.929 10.608 0z"/><path d="m394.01 15.424c-9.947-9.946-23.189-15.424-37.288-15.424-14.1 0-27.342 5.478-37.289 15.424l-304.008 304.01c-9.947 9.946-15.425 23.188-15.425 37.288 0 14.099 5.479 27.341 15.424 37.288l102.569 102.568c10.28 10.28 23.784 15.42 37.288 15.42s27.008-5.141 37.288-15.42l304.008-304.009c20.561-20.562 20.561-54.017 0-74.577l-36.789-36.789c-2.932-2.929-7.68-2.928-10.607 0-2.929 2.93-2.929 7.678 0 10.607l36.789 36.79c14.713 14.712 14.713 38.65 0 53.363l-304.008 304.008c-14.712 14.713-38.652 14.713-53.362 0l-102.569-102.568c-7.113-7.114-11.031-16.59-11.031-26.681 0-10.093 3.918-19.568 11.031-26.681l304.009-304.01c14.712-14.714 38.652-14.712 53.362 0l41.03 41.03c2.93 2.929 7.678 2.927 10.607 0 2.929-2.93 2.929-7.678 0-10.607z"/></g></g></svg>