<svg id="Capa_1" enable-background="new 0 0 511.984 511.984" height="512" viewBox="0 0 511.984 511.984" width="512" xmlns="http://www.w3.org/2000/svg"><g><g><path d="m354.689 28.334-324.215 327.333-7.664 15.328 125.087 125.087c11.225 11.225 29.424 11.225 40.649 0l307.509-307.509c5.39-5.391 8.419-12.702 8.418-20.325v-128.763l-18.667-11.151zm97.799 60.396c-8.075 8.075-21.168 8.075-29.244 0-8.075-8.076-8.075-21.168 0-29.244 8.075-8.075 21.168-8.075 29.244 0s8.076 21.168 0 29.244z" fill="#ff9568"/><path d="m475.731 7.5h-132.006c-7.623 0-14.934 3.028-20.324 8.418l-307.509 307.509c-11.225 11.225-11.225 29.424 0 40.649l10.061 10.061c1.312-2.349 2.95-4.565 4.946-6.561l319.347-319.348c5.598-5.598 13.19-8.743 21.107-8.743h133.121v-3.242c0-15.875-12.868-28.743-28.743-28.743z" fill="#ff7c42"/></g><g><path d="m128.686 323.246c-2.93-2.928-7.678-2.928-10.607 0l-23.499 23.498c-2.929 2.93-2.929 7.678 0 10.607l60.052 60.052c2.931 2.929 7.678 2.928 10.607 0l23.498-23.498c2.929-2.93 2.929-7.678 0-10.607-2.93-2.928-7.678-2.928-10.607 0l-18.194 18.195-19.419-19.419 16.89-16.89c2.929-2.93 2.929-7.678 0-10.607-2.93-2.928-7.678-2.928-10.607 0l-16.89 16.89-19.419-19.419 18.195-18.194c2.928-2.93 2.928-7.678 0-10.608z"/><path d="m346.238 232.275c4.117.53 7.869-2.378 8.398-6.479.53-4.108-2.371-7.868-6.479-8.398l-38.226-4.931c4.23-5.129 6.532-11.508 6.531-18.243 0-7.675-2.988-14.89-8.415-20.316-11.203-11.201-29.43-11.201-40.633 0l-17.906 17.906c-2.929 2.93-2.929 7.678 0 10.607l60.052 60.052c2.931 2.929 7.678 2.928 10.607 0 2.929-2.93 2.929-7.678 0-10.607l-24.723-24.723 1.258-1.258zm-61.399-15.738-19.419-19.419 12.604-12.603c5.354-5.355 14.065-5.354 19.419 0 2.594 2.593 4.022 6.041 4.022 9.709s-1.429 7.116-4.022 9.709z"/><path d="m322.026 119.299c-2.203 2.203-2.814 5.541-1.535 8.383l37.293 82.811c1.702 3.778 6.143 5.459 9.919 3.759 3.776-1.701 5.459-6.142 3.759-9.919l-7.098-15.762c.007-.007.014-.012.02-.019l26.917-26.917 15.762 7.098c3.771 1.699 8.217.018 9.918-3.76 1.7-3.776.018-8.217-3.76-9.918l-82.812-37.293c-2.841-1.28-6.178-.668-8.383 1.537zm54.647 35.749-18.896 18.896-15.482-34.377z"/><path d="m277.082 302.453c1.919 0 3.839-.732 5.304-2.196 2.929-2.93 2.929-7.678 0-10.607l-54.748-54.748 13.7-13.7c2.929-2.93 2.929-7.678 0-10.607-2.93-2.928-7.678-2.928-10.607 0l-38.008 38.008c-2.929 2.93-2.929 7.678 0 10.607 1.465 1.464 3.385 2.196 5.304 2.196s3.839-.732 5.304-2.196l13.7-13.7 54.748 54.748c1.464 1.463 3.384 2.195 5.303 2.195z"/><path d="m248.097 332.95c.943-4.033-1.561-8.068-5.594-9.012l-44.133-10.325-10.325-44.133c-.944-4.033-4.98-6.54-9.012-5.594-4.033.943-6.537 4.979-5.594 9.012l8.634 36.902-36.902-8.633c-4.033-.946-8.069 1.56-9.012 5.594-.943 4.033 1.561 8.068 5.594 9.012l44.133 10.325 10.325 44.133c.944 4.034 4.98 6.538 9.012 5.594 4.033-.943 6.537-4.979 5.594-9.012l-8.634-36.902 36.902 8.633c4.032.945 8.069-1.561 9.012-5.594z"/><path d="m457.802 94.033c10.986-10.987 10.986-28.864 0-39.852-10.988-10.986-28.863-10.986-39.852 0-10.986 10.987-10.986 28.864 0 39.852 10.989 10.987 28.863 10.987 39.852 0zm-29.244-29.244c5.138-5.14 13.5-5.139 18.637 0 5.139 5.138 5.139 13.499 0 18.637-5.137 5.139-13.5 5.139-18.637 0-5.139-5.138-5.139-13.499 0-18.637z"/><path d="m511.984 110.842c0-4.143-3.357-7.5-7.5-7.5s-7.5 3.357-7.5 7.5v57.407c.001 5.673-2.209 11.008-6.222 15.021l-126.269 126.268c-2.929 2.93-2.929 7.678 0 10.607 1.465 1.464 3.385 2.196 5.304 2.196s3.839-.732 5.304-2.196l126.269-126.27c6.846-6.847 10.615-15.949 10.614-25.628z"/><path d="m511.984 36.242c.002-20.029-16.209-36.242-36.244-36.242h-132.006c-9.682 0-18.782 3.77-25.628 10.614l-307.508 307.51c-14.131 14.132-14.13 37.125 0 51.256l132.007 132.006c14.129 14.129 37.125 14.131 51.256 0l156.491-156.492c2.929-2.93 2.929-7.678 0-10.607-2.929-2.927-7.677-2.929-10.607 0l-156.492 156.491c-8.282 8.284-21.76 8.282-30.042 0l-132.006-132.005c-8.283-8.282-8.283-21.76 0-30.042l307.509-307.509c4.012-4.013 9.346-6.222 15.02-6.222h132.006c11.741 0 21.243 9.499 21.243 21.242v39.6c0 4.143 3.357 7.5 7.5 7.5s7.5-3.357 7.5-7.5v-39.6z"/></g></g></svg>