<svg id="Capa_1" enable-background="new 0 0 512.002 512.002" viewBox="0 0 512.002 512.002" xmlns="http://www.w3.org/2000/svg"><g><path clip-rule="evenodd" d="m228.501 357.843v42.157h-35c-15.125 0-27.5 12.375-27.5 27.5s12.375 27.5 27.5 27.5h35v19.502c0 15.083 12.306 27.431 27.374 27.5h.126.125c15.068-.068 27.375-12.416 27.375-27.5v-19.502h35c15.125 0 27.5-12.375 27.5-27.5s-12.375-27.5-27.5-27.5h-35v-42.157c83.583-13.194 147.5-85.55 147.5-172.843 0-96.649-78.35-175-175-175s-175 78.35-175 175c0 87.292 63.916 159.648 147.5 172.843zm147.5-172.843c0 66.274-53.726 120-120 120s-120-53.726-120-120 53.726-120 120-120 120 53.725 120 120z" fill="#66e0f7" fill-rule="evenodd"/><g><g><path d="m256.001 315c-26.158 0-51.421-7.77-73.057-22.47-21.637-14.7-38.166-35.325-47.802-59.643-2.034-5.134.479-10.946 5.613-12.98 5.132-2.035 10.945.479 12.98 5.613 16.724 42.208 56.866 69.48 102.266 69.48 60.654 0 110-49.346 110-110s-49.346-110-110-110c-45.4 0-85.542 27.273-102.265 69.48-2.034 5.134-7.845 7.648-12.98 5.613-5.134-2.035-7.647-7.846-5.613-12.98 9.636-24.318 26.165-44.943 47.802-59.643 21.635-14.7 46.898-22.47 73.056-22.47 71.682 0 130 58.318 130 130s-58.318 130-130 130z"/></g><g><path d="m256.001 512.002c-20.678 0-37.5-16.822-37.5-37.5v-9.502h-25c-20.677 0-37.5-16.822-37.5-37.5s16.822-37.5 37.5-37.5h25v-23.816c-39.746-8.201-75.943-29.452-102.667-60.446-28.911-33.53-44.833-76.409-44.833-120.738 0-102.009 82.991-185 185-185s185 82.991 185 185c0 44.329-15.922 87.208-44.833 120.738-26.724 30.994-62.922 52.245-102.667 60.446v23.816h25c20.677 0 37.5 16.822 37.5 37.5s-16.822 37.5-37.5 37.5h-25v9.502c0 20.678-16.822 37.5-37.5 37.5zm-62.5-102.002c-9.649 0-17.5 7.85-17.5 17.5 0 9.649 7.85 17.5 17.5 17.5h35c5.523 0 10 4.477 10 10v19.502c0 9.649 7.85 17.5 17.5 17.5s17.5-7.851 17.5-17.5v-19.502c0-5.523 4.477-10 10-10h35c9.649 0 17.5-7.851 17.5-17.5s-7.85-17.5-17.5-17.5h-35c-5.523 0-10-4.477-10-10v-42.157c0-4.921 3.58-9.11 8.441-9.877 80.576-12.72 139.059-81.257 139.059-162.965 0-90.981-74.019-165-165-165s-165 74.019-165 165c0 81.708 58.483 150.246 139.059 162.965 4.861.767 8.441 4.957 8.441 9.877v42.157c0 5.523-4.477 10-10 10z"/></g><g><path d="m136.001 195c-5.523 0-10.004-4.477-10.004-10s4.473-10 9.996-10h.008c5.523 0 10 4.477 10 10s-4.477 10-10 10z"/></g></g></g><g/><g/><g/><g/><g/><g/><g/><g/><g/><g/><g/><g/><g/><g/><g/></svg>