<svg id="Capa_1" enable-background="new 0 0 511.984 511.984" height="512" viewBox="0 0 511.984 511.984" width="512" xmlns="http://www.w3.org/2000/svg"><path id="XMLID_1135_" d="m409.667 390h50.333v-380h-296v380z" fill="#e1e3e9"/><path id="XMLID_1134_" d="m353.651 446.016h50.333v-380h-296v53.968" fill="#eff3f3"/><path id="XMLID_1133_" d="m51.984 501.984v-379.968h232l64 63.968v316z" fill="#fff"/><path id="XMLID_1103_" d="m283.984 121.984v64h64z" fill="#ffe6c0"/><path id="XMLID_1011_" d="m460 0h-296c-5.523 0-10 4.477-10 10v46.016h-46.016c-5.523 0-10 4.477-10 10v46h-46c-5.523 0-10 4.477-10 10v379.968c0 5.523 4.477 10 10 10h296c5.523 0 10-4.477 10-10v-45.968h46c5.523 0 10-4.477 10-10v-46.016h46.016c5.523 0 10-4.477 10-10v-380c0-5.523-4.477-10-10-10zm-398.016 491.984v-359.968h212v53.968c0 5.523 4.477 10 10 10h54v296zm232-345.834 29.849 29.834h-29.849zm100 289.866h-36v-250.032c0-2.653-1.054-5.197-2.931-7.073l-64-63.968c-1.875-1.875-4.418-2.927-7.069-2.927h-166v-36h276zm56.016-56.016h-36.016v-313.984c0-5.523-4.477-10-10-10h-229.984v-36.016h276z"/><path id="XMLID_1017_" d="m278.871 333.317h-157.774c-5.523 0-10 4.477-10 10s4.477 10 10 10h157.774c5.523 0 10-4.477 10-10s-4.477-10-10-10z"/><path id="XMLID_1018_" d="m278.871 221.317h-112.774c-5.523 0-10 4.477-10 10s4.477 10 10 10h112.774c5.523 0 10-4.477 10-10s-4.477-10-10-10z"/><path id="XMLID_1084_" d="m121.102 241.314c2.63 0 5.2-1.06 7.07-2.93 1.86-1.86 2.92-4.43 2.92-7.07 0-2.63-1.06-5.21-2.92-7.07-1.87-1.86-4.44-2.93-7.07-2.93-2.64 0-5.22 1.07-7.08 2.93s-2.93 4.44-2.93 7.07 1.07 5.21 2.93 7.07c1.87 1.87 4.44 2.93 7.08 2.93z"/><path id="XMLID_1085_" d="m278.871 277.317h-157.774c-5.523 0-10 4.477-10 10s4.477 10 10 10h157.774c5.523 0 10-4.477 10-10s-4.477-10-10-10z"/><path id="XMLID_1177_" d="m278.871 389.317h-157.774c-5.523 0-10 4.477-10 10s4.477 10 10 10h157.774c5.523 0 10-4.477 10-10s-4.477-10-10-10z"/></svg>