<?xml version="1.0" encoding="iso-8859-1"?>
<!-- Generator: Adobe Illustrator 19.0.0, SVG Export Plug-In . SVG Version: 6.00 Build 0)  -->
<svg version="1.1" id="Capa_1" xmlns="http://www.w3.org/2000/svg" xmlns:xlink="http://www.w3.org/1999/xlink" x="0px" y="0px"
	 viewBox="0 0 512 512" style="enable-background:new 0 0 512 512;" xml:space="preserve">
<path style="fill:#72D8FF;" d="M445,10H225h-64c-16.568,0-30,13.431-30,30v38v326c0,16.569,13.432,30,30,30h220h64
	c16.568,0,30-13.431,30-30v-38V40C475,23.431,461.568,10,445,10z"/>
<path style="fill:#FFFFFF;" d="M277,78H67c-16.569,0-30,13.431-30,30v364c0,16.569,13.431,30,30,30h284c16.569,0,30-13.431,30-30
	V182L277,78z"/>
<path style="fill:#4DBAF6;" d="M381,182h-71.5c-17.949,0-32.5-14.551-32.5-32.5V78L381,182z"/>
<path d="M445,0H161c-22.056,0-40,17.944-40,40v28H67c-22.056,0-40,17.944-40,40v138.333c0,5.523,4.478,10,10,10s10-4.477,10-10V108
	c0-11.028,8.972-20,20-20h200v61.5c0,23.435,19.065,42.5,42.5,42.5H371v280c0,11.028-8.972,20-20,20H67c-11.028,0-20-8.972-20-20
	V329.667c0-5.522-4.478-10-10-10s-10,4.478-10,10V472c0,22.056,17.944,40,40,40h284c22.056,0,40-17.944,40-40v-28h54
	c22.056,0,40-17.944,40-40V40C485,17.944,467.056,0,445,0z M309.5,172c-12.406,0-22.5-10.093-22.5-22.5v-47.358L356.857,172H309.5z
	 M465,404c0,11.028-8.972,20-20,20h-54V182c-0.008-0.001-0.016-0.002-0.024-0.003c-0.002-2.6-0.994-5.156-2.905-7.068l-104-104
	c-1.914-1.914-4.473-2.905-7.077-2.904c0.002-0.009,0.003-0.016,0.005-0.025H141V40c0-11.028,8.972-20,20-20h256v90
	c0,5.523,4.478,10,10,10s10-4.477,10-10V20h8c11.028,0,20,8.972,20,20V404z"/>
<path d="M114.529,192h98.995c5.522,0,10-4.477,10-10s-4.478-10-10-10h-98.995c-5.522,0-10,4.477-10,10S109.007,192,114.529,192z"/>
<path d="M114.529,264H303.47c5.522,0,10-4.478,10-10c0-5.523-4.478-10-10-10H114.529c-5.522,0-10,4.477-10,10
	C104.529,259.522,109.007,264,114.529,264z"/>
<path d="M114.529,336H303.47c5.522,0,10-4.478,10-10s-4.478-10-10-10H114.529c-5.522,0-10,4.478-10,10S109.007,336,114.529,336z"/>
<path d="M114.529,408H303.47c5.522,0,10-4.478,10-10s-4.478-10-10-10H114.529c-5.522,0-10,4.478-10,10S109.007,408,114.529,408z"/>
<path d="M37,300c2.63,0,5.21-1.07,7.069-2.931C45.93,295.21,47,292.63,47,290s-1.07-5.21-2.931-7.07C42.21,281.069,39.63,280,37,280
	s-5.21,1.069-7.07,2.93S27,287.359,27,290c0,2.63,1.069,5.21,2.93,7.069C31.79,298.93,34.37,300,37,300z"/>
<path d="M427,139.333c-5.522,0-10,4.477-10,10v0.161c0,5.523,4.478,10,10,10s10-4.477,10-10v-0.161
	C437,143.811,432.522,139.333,427,139.333z"/>
<g>
</g>
<g>
</g>
<g>
</g>
<g>
</g>
<g>
</g>
<g>
</g>
<g>
</g>
<g>
</g>
<g>
</g>
<g>
</g>
<g>
</g>
<g>
</g>
<g>
</g>
<g>
</g>
<g>
</g>
</svg>
