<?xml version="1.0" encoding="iso-8859-1"?>
<!-- Generator: Adobe Illustrator 19.0.0, SVG Export Plug-In . SVG Version: 6.00 Build 0)  -->
<svg version="1.1" id="Capa_1" xmlns="http://www.w3.org/2000/svg" xmlns:xlink="http://www.w3.org/1999/xlink" x="0px" y="0px"
	 viewBox="0 0 512 512" style="enable-background:new 0 0 512 512;" xml:space="preserve">
<path style="fill:#FFB954;" d="M414.107,412.095l-0.214-210.136c-0.023-22.075-17.925-39.959-40-39.959H253.959l-34.63-81.623
	C213.059,65.598,198.561,56,182.506,56H10v360c0,22.091,17.909,40,40,40h406l-0.002-0.052
	C432.698,454.875,414.129,435.66,414.107,412.095z"/>
<path style="fill:#FEA02C;" d="M458.053,456C482.324,456,502,436.324,502,412.053v-275.09c0-22.091-17.909-40-40-40H226.366
	L253.959,162h119.933c22.075,0,39.977,17.884,40,39.959l0.214,210.136C414.13,436.35,433.799,456,458.053,456L458.053,456"/>
<path d="M462,86.963H327.5c-5.523,0-10,4.478-10,10s4.477,10,10,10H462c16.542,0,30,13.458,30,30v275.091
	C492,430.771,476.771,446,458.053,446c-18.7,0-33.929-15.214-33.947-33.915l-0.214-210.136c-0.028-27.542-22.458-49.949-50-49.949
	H260.579l-32.044-75.529C220.681,57.961,202.614,46,182.506,46H10C4.477,46,0,50.478,0,56v360c0,27.57,22.43,50,50,50h406
	c0.208,0,0.414-0.006,0.619-0.019c0.476,0.013,0.956,0.019,1.435,0.019C487.799,466,512,441.8,512,412.054V136.963
	C512,109.393,489.57,86.963,462,86.963z M50,446c-15.869,0-28.892-12.388-29.926-28h130.777c5.523,0,10-4.478,10-10s-4.477-10-10-10
	H20V66h162.506c12.064,0,22.905,7.177,27.618,18.282l34.629,81.623c1.567,3.695,5.192,6.095,9.206,6.095h119.934
	c16.525,0,29.983,13.444,30,29.969l0.214,210.136c0.012,12.831,4.532,24.63,12.055,33.896L50,446L50,446z"/>
<path d="M284.51,106.963c5.523,0,10-4.478,10-10s-4.477-10-10-10h-0.01c-5.523,0-9.995,4.478-9.995,10
	S278.987,106.963,284.51,106.963z"/>
<path d="M190.345,398h-0.161c-5.523,0-10,4.478-10,10s4.477,10,10,10h0.161c5.523,0,10-4.478,10-10S195.868,398,190.345,398z"/>
<g>
</g>
<g>
</g>
<g>
</g>
<g>
</g>
<g>
</g>
<g>
</g>
<g>
</g>
<g>
</g>
<g>
</g>
<g>
</g>
<g>
</g>
<g>
</g>
<g>
</g>
<g>
</g>
<g>
</g>
</svg>
