<svg id="Capa_1" enable-background="new 0 0 512 512" height="512" viewBox="0 0 512 512" width="512" xmlns="http://www.w3.org/2000/svg"><path id="XMLID_979_" d="m111.976 230v-219.992l304-.008v220z" fill="#eff3f3"/><path id="XMLID_978_" d="m160 427v-368.875h226.887l69.113 69.081v299.794z" fill="#fff"/><path id="XMLID_939_" d="m386.887 58.093v69.113h69.113z" fill="#ffe6c0"/><path id="XMLID_888_" d="m424 502h-280-56c-17.673 0-32-14.327-32-32v-240h118.667l34.333 32h183v208c0 17.673 14.327 32 32 32z" fill="#ffcb7c"/><path id="XMLID_938_" d="m424 502c-17.673 0-32-14.327-32-32v-48h64v48c0 17.673-14.327 32-32 32z" fill="#b5bcc9"/><path id="XMLID_887_" d="m132 326h184v112h-184z" fill="#91def5"/><path id="XMLID_824_" d="m463.069 120.133-37.093-37.076v-73.057c0-2.652-1.054-5.196-2.929-7.071s-4.419-2.929-7.071-2.929l-304 .008c-5.522 0-10 4.477-10 10v209.992h-45.976c-5.523 0-10 4.477-10 10v240c0 23.159 18.841 42 42 42h336c23.159 0 42-18.841 42-42v-152.333c0-5.523-4.477-10-10-10s-10 4.477-10 10v94.333h-44v-150c0-5.523-4.477-10-10-10h-179.062l-31.453-29.315c-1.851-1.725-4.288-2.685-6.818-2.685h-4.667v-151.875h206.887v59.081c0 5.523 4.477 10 10 10h59.113v90.461c0 5.523 4.477 10 10 10s10-4.477 10-10v-100.461c0-2.653-1.054-5.198-2.931-7.073zm-17.069 349.867c0 12.131-9.869 22-22 22s-22-9.869-22-22v-38h44zm-243.818-200.685c1.851 1.726 4.288 2.685 6.818 2.685h173v198c0 8.062 2.288 15.597 6.242 22h-300.242c-12.131 0-22-9.869-22-22v-230h104.729zm-42.182-221.19c-5.523 0-10 4.477-10 10v161.875h-28.024v-199.993l284-.007v43.066l-12.02-12.014c-1.875-1.875-4.418-2.927-7.069-2.927zm236.887 34.134 34.963 34.946h-34.963z"/><path id="XMLID_926_" d="m122 326v112c0 5.523 4.477 10 10 10h184c5.523 0 10-4.477 10-10v-112c0-5.523-4.477-10-10-10h-184c-5.523 0-10 4.477-10 10zm20 10h164v92h-164z"/><path id="XMLID_928_" d="m456 262.67c-2.63 0-5.21 1.06-7.07 2.93-1.86 1.86-2.93 4.43-2.93 7.07 0 2.63 1.07 5.21 2.93 7.07s4.44 2.93 7.07 2.93 5.21-1.07 7.07-2.93c1.86-1.87 2.93-4.44 2.93-7.07 0-2.64-1.07-5.21-2.93-7.07-1.86-1.87-4.44-2.93-7.07-2.93z"/><path id="XMLID_929_" d="m274 372h-100c-5.523 0-10 4.477-10 10s4.477 10 10 10h100c5.523 0 10-4.477 10-10s-4.477-10-10-10z"/></svg>