<svg id="Filled_Expand" height="512" viewBox="0 0 64 64" width="512" xmlns="http://www.w3.org/2000/svg" data-name="Filled Expand"><path d="m37 5a4 4 0 0 1 8 0 4 4 0 0 1 4 4v14h-16v-14a4 4 0 0 1 4-4z" fill="#96d228"/><path d="m50 19h13v11h-13z" fill="#f0f0f0"/><path d="m46 9h13v4h-13z" fill="#f0f0f0" transform="matrix(-1 0 0 -1 105 22)"/><path d="m46 13 4 6v11h-8v-11z" fill="#e1e1e1"/><path d="m50 19h13l-4-6h-13z" fill="#fff"/><path d="m24 30h14l-4.84-22.59a6.85 6.85 0 0 0 -6.69-5.41 6.85 6.85 0 0 0 -6.7 8.28z" fill="#d99932"/><circle cx="39" cy="27" fill="#f65d69" r="8"/><path d="m50 63h13l-6.5-6z" fill="#d99932"/><path d="m46.75 27-3.25 3-3.25-3-3.25 3-3.25-3-3.25 3-3.25-3-3.25 3v33h26v-33z" fill="#e8aa41"/><path d="m56.5 57-6.5 6v-33l3.25-3 3.25 3z" fill="#f1bd68"/><path d="m56.5 57 6.5 6v-33l-3.25-3-3.25 3z" fill="#e8aa41"/><path d="m12 20.28v-6.28h-6v6.28a16.46 16.46 0 0 1 -2.5 8.72 16.46 16.46 0 0 0 -2.5 8.72v23.28a2 2 0 0 0 2 2h12a2 2 0 0 0 2-2v-23.28a16.46 16.46 0 0 0 -2.5-8.72 16.46 16.46 0 0 1 -2.5-8.72z" fill="#d7f05a"/><path d="m1 39h16v14h-16z" fill="#f0f0f0"/><path d="m6 10h6a1 1 0 0 1 1 1v3a0 0 0 0 1 0 0h-8a0 0 0 0 1 0 0v-3a1 1 0 0 1 1-1z" fill="#8cc3fa"/><path d="m28.5 45.08a6 6 0 0 0 -4.5 1.1 6 6 0 0 0 -4.5-1.1c-3.8.68-6.19 5.22-5.32 10.14s4.64 8.37 8.45 7.7a5.77 5.77 0 0 0 1.37-.44 5.77 5.77 0 0 0 1.37.44c3.81.67 7.59-2.77 8.45-7.7s-1.52-9.46-5.32-10.14z" fill="#f65d69"/><path d="m63.83 18.45-3.83-5.75v-3.7a1 1 0 0 0 -1-1h-9.11a5 5 0 0 0 -4-3.92 5 5 0 0 0 -9.84 0 5 5 0 0 0 -2.56 1.36 7.88 7.88 0 0 0 -7.02-4.44 7.84 7.84 0 0 0 -7.67 9.49l4.2 19.62v14.4a6.63 6.63 0 0 0 -3.67-.41 6 6 0 0 0 -1.33.4v-6.78a17.48 17.48 0 0 0 -2.65-9.25 15.41 15.41 0 0 1 -2.35-8.19v-5.28a1 1 0 0 0 1-1v-3a2 2 0 0 0 -2-2h-6a2 2 0 0 0 -2 2v3a1 1 0 0 0 1 1v5.28a15.41 15.41 0 0 1 -2.35 8.19 17.48 17.48 0 0 0 -2.65 9.25v23.28a3 3 0 0 0 3 3h12a3 3 0 0 0 2.52-1.38 7.22 7.22 0 0 0 4.16 1.38 6 6 0 0 0 1.12-.1 5.43 5.43 0 0 0 .58-.13 1 1 0 0 0 .62.23h39a1 1 0 0 0 1-1v-44a1 1 0 0 0 -.17-.55zm-5.83-8.45v2h-11v-2zm-21-4a1 1 0 0 0 1-1 3 3 0 0 1 6 0 1 1 0 0 0 1 1 3 3 0 0 1 2.82 2h-1.82a1 1 0 0 0 -1 1v3.7l-3.74 5.6a8.86 8.86 0 0 0 -2.26-.3 9.1 9.1 0 0 0 -2.47.35l-2.26-10.53a3 3 0 0 1 2.73-1.82zm9 20.37-2.5 2.27-2.57-2.38a1 1 0 0 0 -1.36 0l-2.57 2.38-2.57-2.38a1 1 0 0 0 -1.36 0l-1 1a1.94 1.94 0 0 1 -.07-.26 7 7 0 0 1 14-.63zm-25.25-16.3a5.84 5.84 0 1 1 11.43-2.45l2.47 11.51a9 9 0 0 0 -4.65 7.87 8.9 8.9 0 0 0 .09 1.26l-2.16-2a1 1 0 0 0 -1.36 0l-2 1.82zm-14.75.93h6v2h-6zm-4 26.72a15.41 15.41 0 0 1 2.35-8.19 17.48 17.48 0 0 0 2.65-9.25v-5.28h4v5.28a17.48 17.48 0 0 0 2.65 9.25 15.41 15.41 0 0 1 2.35 8.19v.28h-14zm0 2.28h14v5.78a9.74 9.74 0 0 0 -2.93 6.22h-11.07zm13 22h-12a1 1 0 0 1 -1-1v-7h11a11.29 11.29 0 0 0 .15 1.4 11.79 11.79 0 0 0 2.85 5.83 1 1 0 0 1 -1 .77zm14.33-1a5 5 0 0 1 -3.78.94 4.64 4.64 0 0 1 -1.13-.36 1 1 0 0 0 -.84 0 4.64 4.64 0 0 1 -1.13.36 5 5 0 0 1 -3.78-.94 9.1 9.1 0 0 1 -3.51-5.94c-.76-4.37 1.26-8.4 4.52-9a4 4 0 0 1 .77-.07 5.09 5.09 0 0 1 2.55.74v1.27a1 1 0 0 0 2 0v-1.25a4.83 4.83 0 0 1 3.32-.68c3.26.58 5.28 4.61 4.52 9a9.1 9.1 0 0 1 -3.51 5.93zm19.67 1h-17.73a11.45 11.45 0 0 0 3.54-6.6c.95-5.46-1.8-10.53-6.14-11.3a6.48 6.48 0 0 0 -3.45.33 4 4 0 0 1 3.78-2.75 1 1 0 1 0 0-2 5.93 5.93 0 0 0 -4 1.54v-10.78l2.25-2.08 2.57 2.38a1 1 0 0 0 1.36 0l2.57-2.38 2.57 2.38a1 1 0 0 0 1.36 0l2.57-2.38 2.57 2.38a1 1 0 0 0 1.36 0l2.57-2.38 2.25 2.08zm0-34.28-1-.94a9 9 0 0 0 -4.82-7.78l2.82-4.2 3 4.5zm-1.13-13.72h10.59l2.67 4h-10.59zm3.13 16.44 2.25-2.08 2.25 2.08v26.12l-4.5 4.16zm1.56 31.56 3.94-3.64 3.94 3.64zm9.44-1.28-4.5-4.16v-26.12l2.25-2.08 2.25 2.08zm0-33-1.57-1.45a1 1 0 0 0 -1.36 0l-2.57 2.37-2.57-2.37a1 1 0 0 0 -1.36 0l-1.57 1.45v-7.72h11z"/><path d="m25.71 15.71 4-4a1 1 0 0 0 -1.42-1.42l-4 4a1 1 0 0 0 1.42 1.42z"/><path d="m26.29 22.71a1 1 0 0 0 1.42 0l4-4a1 1 0 0 0 -1.42-1.42l-4 4a1 1 0 0 0 0 1.42z"/></svg>