<svg height="512pt" viewBox="0 0 512 512.00149" width="512pt" xmlns="http://www.w3.org/2000/svg"><path d="m202.660156 176.011719h183.328125v195.023437h-183.328125zm0 0" fill="#ffb954"/><path d="m392.519531 98.011719h-201.109375c-7.039062 0-12.75 5.710937-12.75 12.753906v52.496094c0 7.039062 5.710938 12.75 12.75 12.75h201.109375c7.042969 0 12.75-5.710938 12.75-12.75v-52.496094c0-7.042969-5.707031-12.753906-12.75-12.753906zm0 0" fill="#ff5d5d"/><path d="m163.785156 502 31.617188-31.621094c6.300781-6.300781 7.558594-15.257812 2.808594-20.007812l-98.730469-98.730469c-4.75-4.75-13.710938-3.492187-20.011719 2.808594l-31.617188 31.617187zm0 0" fill="#ff5d5d"/><path d="m309.148438 403.460938 2.847656 1.015624h21.625c25.671875 0 50.394531-9.730468 69.183594-27.230468l64.082031-59.675782c9.054687-8.433593 22.75-9.308593 32.808593-2.203124 4.847657-10.769532 1.945313-24.089844-8.25-31.652344-10.101562-7.496094-24.109374-6.714844-33.3125 1.859375l-64.082031 59.675781c-18.789062 17.5-43.511719 27.230469-69.1875 27.230469h-8.632812c4.808593 10.445312 2.234375 23.328125-7.082031 30.980469zm0 0" fill="#fff"/><path d="m196.964844 298.335938c25.589844 0 50.28125 9.449218 69.335937 26.53125l41.335938 37.050781c4.332031-9.851563 2.367187-22.023438-6.445313-29.921875l-43.644531-39.125c-19.054687-17.082032-43.746094-26.527344-69.335937-26.527344-16.355469 0-32.480469 3.859375-47.0625 11.269531l-76.710938 38.984375 24.511719 23.988282 60.957031-30.976563c14.582031-7.410156 30.703125-11.273437 47.058594-11.273437zm0 0" fill="#fff"/><g fill="#ffd9d8"><path d="m300.394531 371.464844 2.847657 1.015625h12.988281c-1.4375-3.117188-3.519531-6.011719-6.285157-8.492188l-2.308593-2.070312c-1.582031 3.601562-4.007813 6.890625-7.242188 9.546875zm0 0"/><path d="m270.792969 373.941406c8.378906 4.835938 18.75 4.628906 26.929687-.542968.945313-.597657 1.835938-1.246094 2.671875-1.933594l-88.402343-31.460938zm0 0"/><path d="m279.546875 405.9375c8.378906 4.835938 18.75 4.625 26.929687-.542969.945313-.597656 1.835938-1.246093 2.671876-1.933593l-88.398438-31.460938zm0 0"/><path d="m466.886719 317.570312-64.082031 59.675782c-18.789063 17.5-43.507813 27.230468-69.183594 27.230468h-21.625l-2.847656-1.015624c-.835938.691406-1.726563 1.335937-2.671876 1.933593-8.179687 5.171875-18.550781 5.378907-26.929687.542969l-58.796875-33.9375 88.398438 31.460938c9.316406-7.652344 11.890624-20.535157 7.082031-30.980469h-12.988281l-2.847657-1.011719c-.835937.6875-1.726562 1.335938-2.671875 1.933594-8.179687 5.167968-18.550781 5.375-26.929687.539062l-58.800781-33.933594 88.402343 31.460938c3.238281-2.660156 5.660157-5.949219 7.242188-9.546875l-41.335938-37.054687c-19.054687-17.082032-43.742187-26.527344-69.335937-26.527344-16.355469 0-32.476563 3.859375-47.058594 11.269531l-60.957031 30.976563 99.546875 97.414062h140.371094c27.039062 0 53.078124-10.242188 72.871093-28.667969l91.9375-85.585937c2.640625-2.457032 4.640625-5.316406 6.019531-8.378906-10.058593-7.105469-23.753906-6.230469-32.808593 2.203124zm0 0"/></g><path d="m255.992188 98.011719-17.324219-61.792969c-7.402344-26.40625-40.496094-35.070312-59.890625-15.679688-19.332032 19.335938-10.785156 52.332032 15.507812 59.84375zm0 0" fill="#fff"/><path d="m255.992188 98.011719 17.324218-61.792969c7.402344-26.40625 40.5-35.070312 59.890625-15.679688 19.335938 19.335938 10.785157 52.332032-15.507812 59.84375zm0 0" fill="#fff"/><path d="m511.929688 302.652344c-.597657-10.734375-5.894532-20.5625-14.527344-26.96875-13.972656-10.367188-33.351563-9.285156-46.085938 2.570312l-55.328125 51.527344v-144.363281c11.019531-2.453125 19.285157-12.296875 19.285157-24.042969v-48.726562c0-13.582032-11.050782-24.632813-24.636719-24.632813h-64.609375c12.984375-5.550781 22.597656-16.648437 26.21875-30.613281 4.117187-15.894532-.355469-32.320313-11.96875-43.933594-11.644532-11.644531-28.109375-16.105469-44.042969-11.9375-15.933594 4.171875-28.101563 16.128906-32.546875 31.988281l-7.695312 27.445313-7.695313-27.445313c-4.445313-15.859375-16.609375-27.816406-32.542969-31.988281-15.9375-4.167969-32.398437.292969-44.046875 11.9375-11.609375 11.613281-16.085937 28.035156-11.964843 43.933594 3.617187 13.964844 13.230468 25.058594 26.214843 30.609375h-64.609375c-13.582031 0-24.632812 11.050781-24.632812 24.636719v48.726562c0 11.746094 8.261718 21.589844 19.28125 24.042969v93.761719l-50.6875 25.757812c-9.878906-5.253906-22.445313-3.726562-30.757813 4.589844l-31.621093 31.617187c-3.90625 3.90625-3.90625 10.238281 0 14.144531 3.90625 3.902344 10.238281 3.902344 14.140624 0l31.621094-31.621093c2.390625-2.394531 6.285156-2.394531 8.675782 0l130.964843 130.964843c1.160157 1.160157 1.796875 2.699219 1.796875 4.339844 0 1.636719-.636718 3.179688-1.796875 4.335938l-31.621093 31.621094c-3.902344 3.90625-3.902344 10.238281 0 14.144531 1.953124 1.949219 4.515624 2.925781 7.074218 2.925781s5.117188-.976562 7.070313-2.925781l31.617187-31.621094c4.9375-4.9375 7.65625-11.5 7.65625-18.480469 0-3.851562-.832031-7.574218-2.402344-10.96875h15.265626c5.523437 0 10-4.476562 10-10 0-5.523437-4.476563-10-10-10h-33.007813l-108.730469-108.734375 64.429688-32.742187c13.109375-6.664063 27.816406-10.1875 42.527344-10.1875 23.160156 0 45.414062 8.515625 62.660156 23.976562l43.644531 39.125c3.777344 3.386719 5.703125 8.226563 5.277344 13.28125-.421875 5.058594-3.125 9.511719-7.414063 12.222656-5.054687 3.195313-11.410156 3.320313-16.589844.332032l-58.796874-33.933594c-4.78125-2.757812-10.898438-1.121094-13.660157 3.664062-2.761719 4.78125-1.121093 10.898438 3.664063 13.65625l58.796875 33.9375c5.601562 3.230469 11.8125 4.84375 18.019531 4.84375 6.332031 0 12.644531-1.699218 18.292969-5.035156.375.042969.75.070313 1.136719.070313h21.621093c28.300781 0 55.292969-10.621094 76.003907-29.910157l64.078124-59.679687c5.675782-5.28125 14.316407-5.765625 20.542969-1.144531 3.847657 2.855468 6.207031 7.234375 6.472657 12.019531.265624 4.785156-1.59375 9.398437-5.097657 12.664063l-91.9375 85.585937c-18.003906 16.761719-41.464843 25.988281-66.058593 25.988281h-30.375c-5.523438 0-10 4.476563-10 10 0 5.523438 4.476562 10 10 10h30.375c29.667968 0 57.96875-11.132812 79.683593-31.351562l91.9375-85.585938c7.867188-7.324218 12.039063-17.679687 11.441407-28.414062zm-228.984376-263.734375c2.503907-8.941407 9.367188-15.6875 18.351563-18.039063 2.214844-.578125 4.449219-.863281 6.660156-.863281 6.738281 0 13.230469 2.648437 18.179688 7.597656 6.546875 6.546875 9.070312 15.808594 6.746093 24.773438-2.320312 8.964843-9.023437 15.835937-17.929687 18.382812l-44.5 12.714844zm-103.84375 13.46875c-2.324218-8.964844.199219-18.226563 6.75-24.773438 4.945313-4.949219 11.4375-7.597656 18.179688-7.597656 2.203125 0 4.441406.285156 6.65625.863281 8.984375 2.351563 15.847656 9.097656 18.351562 18.039063l12.496094 44.5625-44.503906-12.710938c-8.902344-2.546875-15.605469-9.417969-17.929688-18.382812zm-62.386718 60.261719c0-2.554688 2.078125-4.636719 4.632812-4.636719h269.289063c2.554687 0 4.636719 2.082031 4.636719 4.636719v48.726562c0 2.558594-2.082032 4.636719-4.636719 4.636719h-269.289063c-2.554687 0-4.632812-2.078125-4.632812-4.636719zm201.402344 249.832031c.828124-2.589844 1.371093-5.296875 1.605468-8.085938.953125-11.359375-3.367187-22.238281-11.855468-29.847656l-43.648438-39.125c-20.917969-18.753906-47.914062-29.082031-76.007812-29.082031-17.84375 0-35.683594 4.273437-51.589844 12.355468l-.625.320313v-83.007813h191.492187v62.664063c0 5.523437 4.476563 10 10 10 5.523438 0 10-4.476563 10-10v-62.664063h28.5v160.84375c-15.019531 10.136719-32.730469 15.625-51.125 15.625h-6.746093zm0 0"/><path d="m260.492188 428.003906c-2.628907 0-5.210938 1.066406-7.070313 2.929688-1.859375 1.859375-2.929687 4.4375-2.929687 7.070312 0 2.628906 1.070312 5.207032 2.929687 7.066406 1.859375 1.859376 4.441406 2.933594 7.070313 2.933594 2.628906 0 5.210937-1.070312 7.070312-2.933594 1.859375-1.859374 2.929688-4.4375 2.929688-7.066406 0-2.632812-1.070313-5.210937-2.929688-7.070312s-4.441406-2.929688-7.070312-2.929688zm0 0"/><path d="m453.988281 71.015625h13.996094v14c0 5.519531 4.480469 9.996094 10 9.996094 5.523437 0 10-4.476563 10-9.996094v-14h14c5.523437 0 10-4.480469 10-10 0-5.523437-4.476563-10-10-10h-14v-14c0-5.523437-4.476563-10-10-10-5.519531 0-10 4.476563-10 10v14h-13.996094c-5.523437 0-10 4.476563-10 10 0 5.519531 4.476563 10 10 10zm0 0"/><path d="m10 202.011719h14v13.996093c0 5.523438 4.476562 10 10 10s10-4.476562 10-10v-13.996093h14c5.523438 0 10-4.480469 10-10 0-5.523438-4.476562-10-10-10h-14v-14c0-5.523438-4.476562-10-10-10s-10 4.476562-10 10v14h-14c-5.523438 0-10 4.476562-10 10 0 5.519531 4.476562 10 10 10zm0 0"/><path d="m337.488281 278.335938c-2.628906 0-5.207031 1.070312-7.066406 2.933593-1.863281 1.859375-2.929687 4.4375-2.929687 7.066407 0 2.640624 1.066406 5.210937 2.929687 7.070312 1.859375 1.871094 4.4375 2.929688 7.066406 2.929688 2.632813 0 5.210938-1.058594 7.070313-2.929688 1.859375-1.859375 2.929687-4.429688 2.929687-7.070312 0-2.628907-1.070312-5.207032-2.929687-7.066407-1.859375-1.863281-4.4375-2.933593-7.070313-2.933593zm0 0"/></svg>