<svg id="Capa_1" enable-background="new 0 0 512 512" viewBox="0 0 512 512" xmlns="http://www.w3.org/2000/svg"><g><g><g><path clip-rule="evenodd" d="m267.191 19.525h110.455v86.456h-110.455z" fill="#fee6b9" fill-rule="evenodd" transform="matrix(-1 0 0 -1 644.838 125.505)"/></g><g><path clip-rule="evenodd" d="m357.356 55.819h76.214v50.162h-76.214z" fill="#23ccf0" fill-rule="evenodd" transform="matrix(-1 0 0 -1 790.927 161.8)"/></g><g><path clip-rule="evenodd" d="m151.415 50.807h122.271v55.174h-122.271z" fill="#8cde92" fill-rule="evenodd"/></g><g><path clip-rule="evenodd" d="m284.606 51.508h-.026v-31.983h-44.653v31.984h-.026c-15.105 0-27.351 12.245-27.351 27.351v27.122h99.406v-27.123c.001-15.105-12.244-27.351-27.35-27.351z" fill="#d3f5fc" fill-rule="evenodd"/></g><g><path clip-rule="evenodd" d="m478.546 152.888h-378.565v-46.907h378.566c12.953 0 23.453 10.5 23.453 23.453 0 12.953-10.501 23.454-23.454 23.454z" fill="#fecd74" fill-rule="evenodd"/></g><g><path clip-rule="evenodd" d="m405.257 344.906h-270.843l-29.698-192.018h361.484l-24.749 160.964c-2.747 17.865-18.118 31.054-36.194 31.054z" fill="#fee6b9" fill-rule="evenodd"/></g><g><path clip-rule="evenodd" d="m364.036 390.232h-190.196l-73.039-312.075c-3.75-16.021-18.037-27.35-34.491-27.35h-56.31v46.907h47.204l79.44 339.425h227.392z" fill="#e6e8ef" fill-rule="evenodd"/></g><g><circle clip-rule="evenodd" cx="362.135" cy="441.354" fill="#8690af" fill-rule="evenodd" r="51.122"/></g><g><circle clip-rule="evenodd" cx="180.36" cy="441.354" fill="#8690af" fill-rule="evenodd" r="51.122"/></g></g><g><path d="m380.021 301.892c.408.05.813.073 1.214.073 4.986 0 9.301-3.725 9.915-8.8l10.425-86.136c.664-5.483-3.243-10.465-8.726-11.129-5.477-.664-10.466 3.243-11.129 8.726l-10.425 86.136c-.663 5.484 3.244 10.467 8.726 11.13z"/><path d="m319.771 205.466-3.127 86.136c-.2 5.519 4.112 10.156 9.631 10.356.124.004.247.007.369.007 5.355 0 9.791-4.242 9.987-9.637l3.128-86.136c.2-5.519-4.112-10.156-9.631-10.356-5.531-.199-10.156 4.111-10.357 9.63z"/><path d="m268.561 195.835c-5.519.2-9.831 4.837-9.631 10.356l3.128 86.136c.196 5.396 4.631 9.637 9.987 9.637.122 0 .246-.002.369-.007 5.519-.2 9.831-4.837 9.631-10.356l-3.127-86.136c-.201-5.518-4.841-9.833-10.357-9.63z"/><path d="m216.968 204.627c-.664-5.483-5.646-9.391-11.129-8.726-5.482.664-9.39 5.646-8.726 11.129l10.424 86.136c.614 5.075 4.929 8.8 9.915 8.8.401 0 .806-.024 1.214-.073 5.482-.664 9.39-5.646 8.726-11.129z"/><path d="m358.306 432.125c-7.276 2.789-8.313 13.396-1.719 17.54 6.387 4.489 15.715-.518 15.549-8.31.188-6.887-7.516-12.061-13.83-9.23z"/><path d="m189.596 437.525c-2.454-6.45-11.577-8.269-16.31-3.24-6.277 6.122-1.688 17.174 7.071 17.07 6.895.188 12.075-7.523 9.239-13.83z"/><path d="m308.576 149.065c-2.43-6.459-11.57-8.259-16.3-3.25-6.293 6.092-1.687 17.21 7.07 17.07 6.889.215 12.071-7.543 9.23-13.82z"/><path d="m478.546 95.981h-34.976v-40.162c0-5.523-4.477-10-10-10h-45.923v-26.294c0-5.523-4.477-10-10-10h-137.719c-5.523 0-10 4.477-10 10v21.282h-78.512c-5.523 0-10 4.477-10 10v45.174h-25.957l-4.92-20.102c-4.833-20.65-23.02-35.072-44.227-35.072h-56.312c-5.523 0-10 4.477-10 10v46.907c0 5.523 4.477 10 10 10h39.274l73.38 313.531c-2.203 6.302-3.415 13.065-3.415 20.109 0 33.703 27.419 61.122 61.122 61.122 31.751 0 57.915-24.338 60.84-55.336h60.094c2.925 30.999 29.089 55.336 60.84 55.336 33.703 0 61.122-27.419 61.122-61.122s-27.419-61.122-61.122-61.122h-180.365l-5.927-25.326h229.415c23.177 0 42.555-16.627 46.078-39.535l23.445-152.483h3.766c18.446 0 33.454-15.007 33.454-33.454s-15.008-33.453-33.455-33.453zm-54.976 0h-56.214v-30.162h56.214zm-55.923-50.162h-10.291c-5.523 0-10 4.477-10 10v40.162h-25.399v-17.122c0-17.142-11.608-31.625-27.377-35.999v-13.335h73.066v16.294zm-117.719 5.689v-21.983h24.653v21.983c0 5.523 4.477 10 10 10h.026c9.567 0 17.351 7.783 17.351 17.351v17.122h-79.406v-17.122c0-9.567 7.783-17.351 17.376-17.351 5.523 0 10-4.477 10-10zm-88.512 9.299h45.801c-2.969 5.354-4.665 11.508-4.665 18.052v17.122h-41.136zm-104.212 26.907h-37.204v-26.907h46.311c11.87 0 22.048 8.072 24.753 19.629l70.834 302.652c-9.208 2.924-17.471 7.978-24.223 14.576l-70.735-302.229c-1.058-4.523-5.091-7.721-9.736-7.721zm123.156 394.761c-22.674 0-41.122-18.447-41.122-41.122s18.447-41.122 41.122-41.122 41.122 18.447 41.122 41.122-18.447 41.122-41.122 41.122zm122.34-55.336h-62.904c-2.437-10.19-7.419-19.403-14.255-26.907h91.414c-6.836 7.504-11.818 16.717-14.255 26.907zm100.556 14.215c0 22.675-18.447 41.122-41.122 41.122s-41.122-18.447-41.122-41.122 18.447-41.122 41.122-41.122 41.122 18.447 41.122 41.122zm75.29-298.466h-134.202c-5.523 0-10 4.477-10 10s4.477 10 10 10h110.201l-22.978 149.444c-2.011 13.08-13.076 22.574-26.31 22.574h-234.096l-40.26-172.018h123.443c5.523 0 10-4.477 10-10s-4.477-10-10-10h-128.123l-6.297-26.907h358.623c7.418 0 13.454 6.035 13.454 13.453s-6.036 13.454-13.455 13.454z"/></g></g><g/><g/><g/><g/><g/><g/><g/><g/><g/><g/><g/><g/><g/><g/><g/></svg>