<svg id="Capa_1" enable-background="new 0 0 512 512" viewBox="0 0 512 512" xmlns="http://www.w3.org/2000/svg"><g><g><g><path clip-rule="evenodd" d="m478.547 137.247h-378.566v-46.907h378.566c12.953 0 23.453 10.5 23.453 23.453 0 12.953-10.5 23.454-23.453 23.454z" fill="#fecd74" fill-rule="evenodd"/></g><g><path clip-rule="evenodd" d="m405.258 329.265h-270.843l-29.698-192.018h361.484l-24.749 160.963c-2.747 17.866-18.119 31.055-36.194 31.055z" fill="#fee6b9" fill-rule="evenodd"/></g><g><path clip-rule="evenodd" d="m364.036 374.591h-190.196l-73.038-312.075c-3.75-16.021-18.037-27.35-34.491-27.35h-56.311v46.907h47.204l79.44 339.425h227.392z" fill="#e6e8ef" fill-rule="evenodd"/></g><g><circle clip-rule="evenodd" cx="362.135" cy="425.713" fill="#8690af" fill-rule="evenodd" r="51.122"/></g><g><circle clip-rule="evenodd" cx="180.361" cy="425.713" fill="#8690af" fill-rule="evenodd" r="51.122"/></g></g><g><g><path d="m380.022 286.251c5.379.685 10.489-3.222 11.129-8.726l10.425-86.136c.663-5.483-3.243-10.465-8.727-11.129-5.479-.665-10.465 3.243-11.129 8.726l-10.425 86.136c-.662 5.483 3.244 10.466 8.727 11.129z"/><path d="m326.275 286.317c5.479.213 10.166-4.106 10.355-9.631l3.127-86.136c.2-5.519-4.111-10.156-9.631-10.356-5.486-.195-10.155 4.111-10.355 9.631l-3.127 86.136c-.2 5.519 4.112 10.156 9.631 10.356z"/><path d="m272.045 286.324c5.65.014 10.218-4.715 10-10.363l-3.128-86.136c-.2-5.52-4.841-9.834-10.356-9.631-5.519.2-9.83 4.837-9.63 10.356l3.128 86.136c.195 5.397 4.63 9.638 9.986 9.638z"/><path d="m197.113 191.389 10.425 86.136c1.412 12.944 21.599 10.427 19.855-2.403l-10.425-86.136c-.664-5.484-5.665-9.392-11.129-8.726-5.483.664-9.389 5.646-8.726 11.129z"/></g><path d="m358.307 416.48c-7.276 2.802-8.306 13.381-1.719 17.55 6.388 4.488 15.722-.536 15.549-8.32.191-6.894-7.516-12.056-13.83-9.23z"/><path d="m189.597 421.89c-2.441-6.457-11.58-8.258-16.31-3.25-6.271 6.102-1.694 17.202 7.07 17.07 6.888.216 12.077-7.536 9.24-13.82z"/><path d="m293.797 98.65c6.378 4.49 15.729-.525 15.55-8.31.175-7.793-9.158-12.784-15.55-8.319-5.848 3.662-5.867 12.976 0 16.629z"/><path d="m478.547 80.34h-134.202c-5.522 0-10 4.477-10 10s4.478 10 10 10h134.202c7.418 0 13.453 6.035 13.453 13.453s-6.035 13.454-13.453 13.454h-352.325l-6.297-26.907h134.42c5.522 0 10-4.477 10-10s-4.478-10-10-10h-139.101l-4.705-20.103c-4.834-20.649-23.021-35.071-44.229-35.071h-56.31c-5.522 0-10 4.477-10 10v46.907c0 5.523 4.478 10 10 10h39.274l73.379 313.533c-2.202 6.302-3.414 13.064-3.414 20.107 0 33.703 27.419 61.122 61.121 61.122 31.751 0 57.916-24.338 60.841-55.336h60.094c2.925 30.999 29.089 55.336 60.841 55.336 33.702 0 61.121-27.419 61.121-61.122s-27.419-61.122-61.121-61.122h-180.365l-5.927-25.326h229.415c23.177 0 42.556-16.627 46.078-39.535l23.445-152.483h3.766c18.446 0 33.453-15.007 33.453-33.454s-15.008-33.453-33.454-33.453zm-421.343-8.267h-37.204v-26.907h46.311c11.87 0 22.049 8.072 24.754 19.629l70.834 302.653c-9.208 2.924-17.471 7.978-24.223 14.576l-70.735-302.23c-1.058-4.523-5.092-7.721-9.737-7.721zm123.156 394.761c-22.674 0-41.121-18.447-41.121-41.122s18.447-41.122 41.121-41.122c22.675 0 41.122 18.447 41.122 41.122s-18.447 41.122-41.122 41.122zm122.34-55.336h-62.904c-2.437-10.19-7.419-19.403-14.255-26.907h91.414c-6.836 7.504-11.818 16.716-14.255 26.907zm100.557 14.215c0 22.675-18.447 41.122-41.121 41.122-22.675 0-41.122-18.447-41.122-41.122s18.447-41.122 41.122-41.122c22.674 0 41.121 18.447 41.121 41.122zm28.311-129.023c-2.012 13.08-13.076 22.574-26.311 22.574h-234.095l-40.259-172.018h323.643z"/></g></g><g/><g/><g/><g/><g/><g/><g/><g/><g/><g/><g/><g/><g/><g/><g/></svg>