<?xml version="1.0" encoding="iso-8859-1"?>
<!-- Generator: Adobe Illustrator 19.0.0, SVG Export Plug-In . SVG Version: 6.00 Build 0)  -->
<svg version="1.1" id="Capa_1" xmlns="http://www.w3.org/2000/svg" xmlns:xlink="http://www.w3.org/1999/xlink" x="0px" y="0px"
	 viewBox="0 0 512 512" style="enable-background:new 0 0 512 512;" xml:space="preserve">
<path style="fill:#FFB954;" d="M272.5,448h-33c-8.561,0-15.5,6.94-15.5,15.5v23c0,8.56,6.939,15.5,15.5,15.5H288v-38.5
	C288,454.94,281.061,448,272.5,448z"/>
<path style="fill:#2E9DE3;" d="M58,286v-30.242c0-109.352,88.648-198,198-198l0,0c109.352,0,198,88.648,198,198V286h48v-30
	c0-135.862-110.138-246-246-246l0,0C120.138,10,10,120.138,10,256v30H58z"/>
<g>
	<path style="fill:#72D8FF;" d="M79,286H10v184h69c32.585,0,59-26.415,59-59v-66C138,312.415,111.585,286,79,286z"/>
	<path style="fill:#72D8FF;" d="M433,470h69V286h-69c-32.585,0-59,26.415-59,59v66C374,443.585,400.415,470,433,470z"/>
</g>
<g>
	<rect x="454" y="286" style="fill:#FFFFFF;" width="48" height="184"/>
	<rect x="10" y="286" style="fill:#FFFFFF;" width="48" height="184"/>
</g>
<path d="M437.02,74.98C388.667,26.628,324.38,0,256,0S123.333,26.628,74.98,74.98C26.629,123.333,0,187.62,0,256v214
	c0,5.523,4.478,10,10,10h69c38.047,0,69-30.953,69-69v-66c0-38.047-30.953-69-69-69H68v-20.242
	c0-88.265,60.001-163.629,145.912-183.272c5.384-1.231,8.75-6.594,7.519-11.978c-1.23-5.383-6.591-8.75-11.977-7.52
	c-45.16,10.326-86.143,35.979-115.4,72.232C64.355,162.02,48,208.379,48,255.758V276H20v-20C20,125.87,125.869,20,256,20
	s236,105.869,236,236v20h-28v-20.242c0-47.438-16.392-93.842-46.155-130.664c-29.326-36.28-70.39-61.914-115.627-72.18
	c-5.384-1.226-10.743,2.152-11.965,7.539c-1.223,5.386,2.153,10.743,7.539,11.965C383.877,91.954,444,167.346,444,255.758V276h-11
	c-38.047,0-69,30.953-69,69v66c0,38.047,30.953,69,69,69h57.899c-2.533,6.986-9.216,12-17.066,12H298v-28.5
	c0-14.061-11.439-25.5-25.5-25.5h-33c-14.061,0-25.5,11.439-25.5,25.5v23c0,14.061,11.439,25.5,25.5,25.5h234.333
	C494.878,512,512,494.878,512,473.833V470V256C512,187.62,485.371,123.333,437.02,74.98z M128,345v66c0,27.019-21.981,49-49,49H68
	v-99.5c0-5.523-4.478-10-10-10s-10,4.477-10,10V460H20V296h59C106.019,296,128,317.981,128,345z M278,492h-38.5
	c-3.032,0-5.5-2.467-5.5-5.5v-23c0-3.033,2.468-5.5,5.5-5.5h33c3.032,0,5.5,2.467,5.5,5.5V492z M384,411v-66
	c0-27.019,21.981-49,49-49h59v164h-28v-82c0-5.523-4.478-10-10-10s-10,4.477-10,10v82h-11C405.981,460,384,438.019,384,411z"/>
<path d="M256,67.758c5.521,0,10.053-4.473,10.056-9.994c0.004-5.521-4.522-10-10.043-10.006H256c-5.515,0-10.045,4.465-10.056,9.981
	c-0.011,5.521,4.51,10.005,10.03,10.019C255.983,67.758,255.991,67.758,256,67.758z"/>
<path d="M454,345.03c2.63,0,5.21-1.06,7.069-2.93c1.86-1.86,2.931-4.44,2.931-7.07s-1.07-5.2-2.931-7.07
	c-1.859-1.86-4.439-2.93-7.069-2.93s-5.21,1.07-7.07,2.93c-1.86,1.86-2.93,4.44-2.93,7.07c0,2.64,1.069,5.21,2.93,7.07
	C448.79,343.97,451.37,345.03,454,345.03z"/>
<g>
</g>
<g>
</g>
<g>
</g>
<g>
</g>
<g>
</g>
<g>
</g>
<g>
</g>
<g>
</g>
<g>
</g>
<g>
</g>
<g>
</g>
<g>
</g>
<g>
</g>
<g>
</g>
<g>
</g>
</svg>
