<?xml version="1.0" encoding="iso-8859-1"?>
<!-- Generator: Adobe Illustrator 19.0.0, SVG Export Plug-In . SVG Version: 6.00 Build 0)  -->
<svg version="1.1" id="Capa_1" xmlns="http://www.w3.org/2000/svg" xmlns:xlink="http://www.w3.org/1999/xlink" x="0px" y="0px"
	 viewBox="0 0 512.001 512.001" style="enable-background:new 0 0 512.001 512.001;" xml:space="preserve">
<g>
	<path style="fill:#4DBAF6;" d="M423.996,10H88.005C74.75,10,64.005,20.744,64.005,33.999l0,0c0,13.255,10.745,23.999,23.999,23.999
		h335.991c13.255,0,23.999-10.745,23.999-23.999l0,0C447.996,20.744,437.251,10,423.996,10z"/>
	<path style="fill:#4DBAF6;" d="M423.996,454H88.005C74.75,454,64.005,464.745,64.005,478l0,0c0,13.255,10.745,23.999,23.999,23.999
		h335.991c13.255,0,23.999-10.745,23.999-23.999l0,0C447.996,464.745,437.251,454,423.996,454z"/>
</g>
<path style="fill:#FEDA9B;" d="M395.997,142.577V57.999H116.004v84.579c0,53.601,37.185,98.508,87.164,110.352
	c1.458,0.346,2.5,1.627,2.5,3.125v0.005c0,1.499-1.042,2.78-2.5,3.125c-49.979,11.845-87.164,56.752-87.164,110.352v84.579h279.993
	v-84.579c0-53.601-37.185-98.51-87.164-110.355c-1.458-0.346-2.5-1.627-2.5-3.125l0,0c0-1.499,1.042-2.78,2.5-3.125
	C358.812,241.087,395.997,196.178,395.997,142.577z"/>
<path style="fill:#FFFFFF;" d="M394.336,161.996c1.089-6.31,1.661-12.798,1.661-19.419V57.999H116.004v84.579
	c0,6.622,0.572,13.109,1.661,19.419H394.336z"/>
<path d="M423.996,444.002h-18v-74.464c0-27.942-9.601-55.32-27.034-77.087c-12.743-15.911-29.299-28.425-47.858-36.394
	c18.558-7.969,35.117-20.484,47.858-36.393c17.434-21.768,27.034-49.145,27.034-77.087V67.998h18
	c18.748,0,33.999-15.252,33.999-33.999S442.744,0,423.996,0H88.005C69.257,0,54.006,15.252,54.006,33.999
	s15.252,33.999,33.999,33.999h18v74.579c0,27.942,9.601,55.319,27.034,77.086c12.744,15.912,29.302,28.426,47.863,36.394
	c-18.562,7.969-35.12,20.482-47.863,36.395c-17.434,21.767-27.034,49.144-27.034,77.086v74.464h-18
	c-18.748,0-33.999,15.252-33.999,33.999c0,18.748,15.252,33.999,33.999,33.999h335.991c18.748,0,33.999-15.252,33.999-33.999
	C457.995,459.254,442.744,444.002,423.996,444.002z M74.005,33.999c0-7.72,6.28-14,14-14h335.991c7.72,0,14,6.28,14,14
	s-6.28,14-14,14H88.005C80.286,47.999,74.005,41.719,74.005,33.999z M126.004,369.538c0-48.156,32.679-89.534,79.47-100.622
	c6.002-1.423,10.194-6.709,10.194-12.861c0-6.146-4.192-11.433-10.194-12.855c-36.894-8.744-64.999-36.324-75.245-71.204h182.759
	c5.523,0,10-4.477,10-10c0-5.523-4.477-10-10-10H126.433c-0.278-3.107-0.429-6.247-0.429-9.419V67.998h259.993v27.999H228.89
	c-5.523,0-10,4.477-10,10c0,5.523,4.477,10,10,10h157.107v26.58c0,48.157-32.679,89.536-79.469,100.624
	c-6.003,1.421-10.196,6.708-10.196,12.856c0,6.146,4.191,11.433,10.194,12.855c46.791,11.09,79.471,52.469,79.471,100.625v74.464
	H126.004L126.004,369.538L126.004,369.538z M423.996,492.001H88.005c-7.72,0-14-6.28-14-14c0-7.72,6.28-14,14-14h335.991
	c7.72,0,14,6.28,14,14C437.996,485.721,431.716,492.001,423.996,492.001z"/>
<path d="M353.328,171.996c2.64,0,5.21-1.07,7.07-2.93c1.87-1.86,2.93-4.44,2.93-7.07c0-2.63-1.06-5.21-2.93-7.07
	c-1.86-1.86-4.43-2.93-7.07-2.93c-2.63,0-5.21,1.07-7.07,2.93c-1.86,1.86-2.93,4.44-2.93,7.07c0,2.63,1.07,5.21,2.93,7.07
	C348.118,170.926,350.698,171.996,353.328,171.996z"/>
<path d="M256,263.226c-5.523,0-10,4.478-10,10v39.099c0,5.522,4.477,10,10,10c5.523,0,10-4.478,10-10v-39.099
	C266,267.704,261.523,263.226,256,263.226z"/>
<path d="M256,192.328c-5.523,0-10,4.477-10,10v33.332c0,5.523,4.477,10,10,10c5.523,0,10-4.477,10-10v-33.332
	C266,196.806,261.523,192.328,256,192.328z"/>
<path d="M256,346.31c-5.523,0-10,4.478-10,10v12.909c0,5.522,4.477,10,10,10c5.523,0,10-4.478,10-10V356.31
	C266,350.788,261.523,346.31,256,346.31z"/>
<path d="M256,397.729c-5.523,0-10,4.478-10,10v0.149c0,5.522,4.477,10,10,10c5.523,0,10-4.478,10-10v-0.149
	C266,402.207,261.523,397.729,256,397.729z"/>
<path d="M188.133,95.998h-0.15c-5.523,0-10,4.477-10,10c0,5.523,4.477,10,10,10h0.15c5.523,0,10-4.477,10-10
	C198.133,100.474,193.656,95.998,188.133,95.998z"/>
<g>
</g>
<g>
</g>
<g>
</g>
<g>
</g>
<g>
</g>
<g>
</g>
<g>
</g>
<g>
</g>
<g>
</g>
<g>
</g>
<g>
</g>
<g>
</g>
<g>
</g>
<g>
</g>
<g>
</g>
</svg>
