<?xml version="1.0" encoding="iso-8859-1"?>
<!-- Generator: Adobe Illustrator 19.0.0, SVG Export Plug-In . SVG Version: 6.00 Build 0)  -->
<svg version="1.1" id="Capa_1" xmlns="http://www.w3.org/2000/svg" xmlns:xlink="http://www.w3.org/1999/xlink" x="0px" y="0px"
	 viewBox="0 0 512 512" style="enable-background:new 0 0 512 512;" xml:space="preserve">
<path style="fill:#FFFFFF;" d="M365.758,359.539C415.47,324.84,448,267.223,448,202c0-106.039-85.961-192-192-192S64,95.961,64,202
	c0,65.212,32.519,122.821,82.218,157.522L365.758,359.539z"/>
<g>
	<path style="fill:#2E9DE3;" d="M138.873,435.539L138.873,435.539c0,15.464,12.536,28,28,28h178c15.464,0,28-12.536,28-28l0,0
		c0-15.464-12.536-28-28-28h-178C151.409,407.539,138.873,420.075,138.873,435.539z"/>
	<path style="fill:#2E9DE3;" d="M138.873,379.539L138.873,379.539c0,15.464,12.536,28,28,28h178c15.464,0,28-12.536,28-28l0,0
		c0-15.464-12.536-28-28-28h-178C151.409,351.539,138.873,364.075,138.873,379.539z"/>
</g>
<path style="fill:#B3B6C3;" d="M217.412,463.539c0,21.241,17.219,38.461,38.461,38.461s38.461-17.219,38.461-38.461H217.412z"/>
<path style="fill:#62CD4D;" d="M256.296,275.992l0.014-0.014c-0.04-0.225-5.253-52.306,23.684-80.705
	c28.953-28.4,80.139-23.364,80.365-23.343l0.008-0.008l-0.011,0.011l0.007-0.007l-0.009,0.009c0.041,0.433,6.44,53.596-22.45,81.947
	C308.899,282.351,256.296,275.992,256.296,275.992z"/>
<path style="fill:#A0E557;" d="M173.842,253.882c-28.889-28.351-22.49-81.514-22.45-81.947l-0.009-0.009l0.007,0.007l-0.011-0.011
	l0.008,0.008c0.225-0.021,51.412-5.057,80.365,23.343c28.936,28.399,23.723,80.48,23.684,80.705l0.014,0.014
	C255.45,275.992,202.848,282.351,173.842,253.882z"/>
<path d="M448,191.89c-5.522,0-10,4.477-10,10V202c0,5.523,4.478,10,10,10s10-4.477,10-10v-0.11
	C458,196.367,453.522,191.89,448,191.89z"/>
<path d="M444.494,240.058c-5.354-1.373-10.798,1.858-12.167,7.208c-10.24,40.004-33.943,75.363-67.036,100.251
	c-5.902-3.777-12.906-5.977-20.418-5.977h-79v-54.96c1.042,0.022,2.137,0.036,3.296,0.036c19.057,0,53.176-3.45,75.739-25.596
	c30.349-29.782,26.264-81.74,25.438-89.685c-0.133-2.233-1.012-4.436-2.651-6.205c-1.74-1.876-4.033-2.935-6.397-3.155l0,0
	c-2.297-0.219-56.557-4.983-88.309,26.163c-7.626,7.485-13.14,16.318-17.117,25.469c-3.977-9.152-9.491-17.985-17.118-25.471
	c-30.771-30.185-82.688-26.64-87.918-26.195c-2.5,0.137-4.951,1.208-6.788,3.188c-1.626,1.755-2.503,3.938-2.644,6.155
	c-0.806,7.678-5.009,59.864,25.433,89.737h-0.001c22.566,22.149,56.686,25.597,75.741,25.597c1.158,0,2.254-0.014,3.295-0.036v54.96
	h-79c-7.453,0-14.406,2.165-20.279,5.888C101.022,313.084,74,259.216,74,202c0-100.355,81.645-182,182-182
	c81.357,0,153.447,54.659,175.309,132.921c1.485,5.319,7.005,8.429,12.321,6.941c5.319-1.486,8.427-7.002,6.94-12.322
	c-11.63-41.635-36.999-79.167-71.435-105.683C343.572,14.474,300.993,0,256,0C144.617,0,54,90.617,54,202
	c0,62.869,29.396,122.085,79.055,160.243c-2.667,5.192-4.182,11.069-4.182,17.296c0,11.071,4.761,21.048,12.341,28
	c-7.58,6.952-12.341,16.929-12.341,28c0,20.953,17.047,38,38,38h41.582C213.077,495.478,232.579,512,255.873,512
	s42.796-16.522,47.418-38.461h41.582c20.953,0,38-17.047,38-38c0-11.071-4.761-21.048-12.341-28c7.58-6.952,12.341-16.929,12.341-28
	c0-6.163-1.484-11.982-4.099-17.135c35.958-27.552,61.71-66.356,72.928-110.179C453.072,246.875,449.845,241.427,444.494,240.058z
	 M286.997,202.411c18.665-18.309,49.175-20.779,63.932-20.811c0.376,15.148-1.319,46.784-20.029,65.145
	c-18.742,18.395-50.05,20.129-64.985,19.802C265.849,251.786,268.163,220.896,286.997,202.411z M180.847,246.745
	C180.847,246.745,180.847,246.744,180.847,246.745c-18.71-18.361-20.405-49.999-20.029-65.146
	c14.733,0.032,45.262,2.499,63.93,20.811c18.836,18.486,21.15,49.377,21.085,64.138
	C230.885,266.873,199.587,265.138,180.847,246.745z M255.873,492c-12.175,0-22.585-7.687-26.643-18.461h53.285
	C278.458,484.313,268.048,492,255.873,492z M362.873,435.539c0,9.925-8.075,18-18,18h-178c-9.925,0-18-8.075-18-18s8.075-18,18-18
	h178C354.798,417.539,362.873,425.614,362.873,435.539z M166.873,397.539c-9.925,0-18-8.075-18-18s8.075-18,18-18h178
	c9.925,0,18,8.075,18,18s-8.075,18-18,18H166.873z"/>
<path d="M97.208,209.211L97.206,210c0,5.523,4.478,10,10,10s10-4.477,10-10l0.002-0.711c0.021-5.523-4.438-10.018-9.961-10.039
	C101.769,199.211,97.229,203.688,97.208,209.211z"/>
<path d="M122.564,171.247C139.761,110.578,195.865,68.207,259,68.207c5.522,0,10-4.477,10-10s-4.478-10-10-10
	c-35.93,0-69.953,11.531-98.392,33.346c-27.529,21.118-47.874,51.035-57.286,84.24c-1.506,5.313,1.58,10.842,6.895,12.348
	c0.911,0.258,1.829,0.381,2.731,0.381C117.309,178.522,121.316,175.648,122.564,171.247z"/>
<g>
</g>
<g>
</g>
<g>
</g>
<g>
</g>
<g>
</g>
<g>
</g>
<g>
</g>
<g>
</g>
<g>
</g>
<g>
</g>
<g>
</g>
<g>
</g>
<g>
</g>
<g>
</g>
<g>
</g>
</svg>
