<svg height="512pt" viewBox="-14 0 512 512" width="512pt" xmlns="http://www.w3.org/2000/svg"><g fill-rule="evenodd"><path d="m198.082031 342.875c-7.785156-7.78125-20.390625-7.804688-28.203125-.0625l-97.84375 97.84375c-7.804687 7.804688-7.804687 20.460938 0 28.265625l27.25 27.25c7.804688 7.804687 20.460938 7.804687 28.265625 0 7.804688-7.804687 7.804688-20.460937 0-28.265625l-13.117187-13.117188 20.625-20.625 13.117187 13.117188c7.804688 7.804688 20.460938 7.804688 28.265625 0 7.804688-7.804688 7.804688-20.460938 0-28.265625l-13.117187-13.117187 20.625-20.625 13.117187 13.117187c7.804688 7.804687 20.460938 7.804687 28.265625 0 7.804688-7.804687 7.804688-20.460937 0-28.265625zm0 0" fill="#ffd89e"/><path d="m169.878906 342.8125 128.214844-128.207031-28.269531-28.269531-253.988281 253.992187c-7.804688 7.808594-7.804688 20.460937 0 28.265625 7.804687 7.804688 20.460937 7.804688 28.265624 0l27.9375-27.9375zm0 0" fill="#ffc059"/><path d="m269.824219 186.335938 28.269531 28.269531c7.773438 7.773437 20.492188 7.773437 28.265625 0 .730469-.730469 1.390625-1.503907 1.984375-2.3125 5.722656-7.804688 5.0625-18.910157-1.984375-25.953125l-28.265625-28.269532c-7.042969-7.042968-18.148438-7.703124-25.953125-1.984374-.808594.59375-1.582031 1.253906-2.316406 1.984374-7.769531 7.773438-7.769531 20.496094 0 28.265626zm0 0" fill="#ffd89e"/><path d="m298.09375 158.070312 28.265625 28.269532c7.046875 7.042968 7.707031 18.148437 1.984375 25.953125 14.402344 23.859375 40 37.988281 67.40625 37.988281v.078125c20.136719 0 40.269531-7.679687 55.636719-23.046875 15.3125-15.308594 22.96875-35.449219 22.96875-55.628906h.078125c0-14.425782-3.945313-28.847656-11.828125-41.519532 7.832031-12.640624 11.75-27.050781 11.75-41.484374h.078125c0-20.136719-7.683594-40.269532-23.046875-55.632813-26.117188-26.117187-66.476563-30.300781-97.136719-11.230469-12.667969-7.878906-27.082031-11.820312-41.5-11.820312-20.132812 0-40.269531 7.683594-55.636719 23.050781-15.3125 15.308594-22.96875 35.449219-22.96875 55.632813h-.078125c0 20.132812 7.683594 40.265624 23.046875 55.632812 4.621094 4.621094 9.671875 8.542969 15.027344 11.777344 7.804687-5.722656 18.910156-5.0625 25.953125 1.980468zm93.253906-69.394531c.003906-12.523437-2.949218-25.027343-8.84375-36.375 25.148438-9.136719 51.953125 9.449219 51.953125 36.375h.074219c0 4.480469-.785156 8.96875-2.355469 13.246094-12.703125-6.640625-26.839843-9.582031-40.875-8.796875.082031-1.480469.128907-2.964844.128907-4.449219zm-22.964844 110.375c-10.824218-10.820312-14.054687-26.695312-9.019531-40.589843 22.738281 11.863281 50.039063 11.863281 72.773438 0 1.546875 4.261718 2.320312 8.742187 2.320312 13.222656h.078125c0 9.855468-3.804687 19.757812-11.414062 27.367187-7.554688 7.558594-17.460938 11.335938-27.367188 11.335938v.078125c-9.863281 0-19.765625-3.804688-27.371094-11.414063zm-42.414062-73.988281c-25.144531 9.113281-51.925781-9.464844-51.925781-36.386719h-.078125c0-9.855469 3.804687-19.757812 11.414062-27.367187 7.554688-7.558594 17.460938-11.335938 27.367188-11.335938 4.488281 0 8.976562.777344 13.246094 2.328125-5.894532 11.34375-8.84375 23.851563-8.84375 36.375h-.078126c0 12.511719 2.96875 25.023438 8.898438 36.386719zm0 0" fill="#ffc059"/></g><path d="m444.429688 170.289062c-.148438-5.214843-1.117188-10.335937-2.894532-15.238281-.984375-2.710937-3.085937-4.863281-5.773437-5.90625-2.683594-1.046875-5.691407-.882812-8.246094.453125-9.734375 5.078125-20.71875 7.765625-31.765625 7.765625s-22.027344-2.6875-31.761719-7.765625c-2.554687-1.335937-5.5625-1.5-8.246093-.453125-2.6875 1.042969-4.789063 3.195313-5.773438 5.90625-1.933594 5.339844-2.914062 10.933594-2.914062 16.625 0 13.011719 5.0625 25.242188 14.261718 34.4375 9.246094 9.25 21.476563 14.34375 34.4375 14.34375.46875 0 .933594-.035156 1.386719-.101562 12.492187-.34375 24.179687-5.371094 33.050781-14.238281.027344-.03125.054688-.058594.082032-.089844 9.195312-9.234375 14.257812-21.429688 14.257812-34.347656-.003906-.472657-.039062-.9375-.101562-1.390626zm-28.375 21.691407c-.023438.023437-.046876.046875-.070313.070312-5.414063 5.378907-12.59375 8.335938-20.234375 8.335938-.363281 0-.722656.023437-1.074219.058593-7.222656-.269531-14.011719-3.25-19.226562-8.464843-5.207031-5.207031-8.167969-12.0625-8.394531-19.394531 9.203124 3.136718 18.933593 4.761718 28.695312 4.761718 9.785156 0 19.53125-1.632812 28.753906-4.78125.003906.0625.011719.125.019532.1875-.273438 7.21875-3.253907 14.011719-8.46875 19.226563zm0 0"/><path d="m334.863281 56.90625c1.328125-2.554688 1.488281-5.558594.441407-8.238281-1.042969-2.683594-3.195313-4.78125-5.898438-5.765625-5.347656-1.941406-10.953125-2.925782-16.660156-2.925782-13.007813 0-25.238282 5.0625-34.4375 14.261719-9.246094 9.246094-14.339844 21.476563-14.339844 34.433594 0 .472656.035156.9375.101562 1.390625.34375 12.488281 5.371094 24.175781 14.242188 33.046875 9.195312 9.195313 21.425781 14.261719 34.433594 14.261719 5.695312 0 11.289062-.980469 16.628906-2.914063 2.710938-.980469 4.863281-3.085937 5.910156-5.773437 1.042969-2.683594.878906-5.691406-.457031-8.246094-4.898437-9.390625-7.570313-19.941406-7.753906-30.589844.046875-.386718.066406-.777344.066406-1.171875.003906-11.066406 2.671875-22.050781 7.722656-31.769531zm-23.023437 60.464844c-7.332032-.226563-14.1875-3.1875-19.394532-8.394532-5.421874-5.421874-8.40625-12.632812-8.40625-20.300781 0-.363281-.023437-.722656-.0625-1.074219.273438-7.222656 3.253907-14.015624 8.46875-19.226562 5.21875-5.222656 12.097657-8.183594 19.445313-8.398438-2.976563 8.78125-4.585937 18.046876-4.726563 27.367188-.054687.4375-.085937.878906-.085937 1.332031 0 9.761719 1.625 19.492188 4.761719 28.695313zm0 0"/><path d="m384.234375 100.191406c2.015625 2.011719 4.792969 3.078125 7.625 2.910156 1.308594-.074218 2.617187-.109374 3.890625-.109374 11.0625 0 22.058594 2.691406 31.800781 7.78125 1.445313.753906 3.03125 1.136718 4.628907 1.136718 1.21875 0 2.4375-.222656 3.601562-.671875 2.683594-1.035156 4.789062-3.179687 5.78125-5.878906 1.96875-5.363281 2.964844-10.976563 2.964844-16.683594 0-.472656-.03125-.933593-.097656-1.390625-.34375-12.488281-5.371094-24.175781-14.242188-33.046875-9.195312-9.199219-21.425781-14.261719-34.433594-14.261719-.003906 0-.007812 0-.011718 0-5.699219 0-11.300782.984376-16.648438 2.925782-2.703125.984375-4.855469 3.082031-5.898438 5.765625-1.046874 2.683593-.882812 5.683593.441407 8.238281 5.050781 9.71875 7.71875 20.707031 7.71875 31.769531 0 .390625.023437.777344.070312 1.160157-.015625.902343-.050781 1.816406-.101562 2.730468-.160157 2.839844.898437 5.613282 2.910156 7.625zm31.820313-31.820312c5.207031 5.207031 8.167968 12.066406 8.390624 19.394531-7.496093-2.554687-15.34375-4.109375-23.273437-4.597656-.492187-7.90625-2.035156-15.722657-4.566406-23.191407 7.351562.210938 14.230469 3.175782 19.449219 8.394532zm0 0"/><path d="m484.335938 89.996094c.058593-.433594.089843-.875.089843-1.320313 0-23.683593-9.222656-45.953125-25.972656-62.703125s-39.019531-25.972656-62.703125-25.972656c-14.542969 0-28.765625 3.542969-41.5 10.289062-12.734375-6.746093-26.960938-10.289062-41.503906-10.289062-23.679688 0-45.949219 9.222656-62.699219 25.972656-16.390625 16.390625-25.550781 38.140625-25.886719 61.378906-.058594.4375-.085937.878907-.085937 1.320313 0 23.644531 9.191406 45.878906 25.886719 62.617187.027343.027344.058593.058594.085937.085938 2.371094 2.371094 4.871094 4.59375 7.480469 6.675781-4.492188 8.402344-4.695313 18.507813-.621094 27.066407l-181.609375 181.613281c-3.902344 3.902343-3.902344 10.230469 0 14.132812 1.953125 1.953125 4.507813 2.929688 7.066406 2.929688 2.558594 0 5.117188-.976563 7.066407-2.929688l180.394531-180.394531 14.132812 14.132812-246.925781 246.921876c-3.894531 3.894531-10.234375 3.894531-14.128906 0-3.898438-3.894532-3.898438-10.234376-.003906-14.128907l9.996093-9.996093c3.902344-3.902344 3.902344-10.230469 0-14.132813-3.902343-3.902344-10.226562-3.902344-14.132812 0l-9.996094 9.992187c-11.6875 11.691407-11.6875 30.710938 0 42.398438 5.847656 5.84375 13.523437 8.765625 21.199219 8.765625 7.679687 0 15.355468-2.921875 21.199218-8.765625l7.953126-7.953125c1.429687 2.996094 3.375 5.804687 5.851562 8.28125l27.25 27.25c5.84375 5.84375 13.523438 8.765625 21.199219 8.765625s15.355469-2.921875 21.199219-8.765625c11.6875-11.6875 11.6875-30.710937 0-42.398437l-6.050782-6.050782 6.492188-6.492187 6.050781 6.050781c5.664063 5.660156 13.191406 8.78125 21.199219 8.78125 8.007812 0 15.535156-3.121094 21.199218-8.78125 5.660157-5.664062 8.78125-13.191406 8.78125-21.199219 0-8.007812-3.121093-15.535156-8.78125-21.199219l-6.050781-6.050781 6.492188-6.492187 6.050781 6.050781c5.664062 5.664063 13.191406 8.78125 21.199219 8.78125 8.007812 0 15.535156-3.117187 21.199219-8.78125 11.6875-11.6875 11.6875-30.707031 0-42.398437l-27.25-27.25c-2.476563-2.476563-5.285157-4.421876-8.28125-5.847657l102.4375-102.4375c4.074218 1.941407 8.496093 2.917969 12.921874 2.917969 4.875 0 9.746094-1.183594 14.152344-3.539062 2.078125 2.609374 4.304688 5.109374 6.671875 7.480468 16.386719 16.386719 38.132813 25.546875 61.371094 25.886719.433594.054687.878906.085937 1.328125.085937 7.472656 0 14.925781-.941406 22.144531-2.796874 5.347657-1.375 8.566407-6.820313 7.191407-12.167969-1.371094-5.34375-6.816407-8.5625-12.164063-7.191407-5.222656 1.34375-10.597656 2.066407-16 2.160157-.382813-.046875-.773437-.070313-1.171875-.070313-18.394531 0-35.644531-7.117187-48.566406-20.039062-2.632813-2.632813-5.023438-5.484375-7.183594-8.484375 4.386719-10.828125 2.195312-23.722657-6.574219-32.492188l-28.265625-28.269531c-8.769531-8.765625-21.664062-10.960938-32.496094-6.570312-2.972656-2.144532-5.796874-4.507813-8.410156-7.113282-.027344-.027344-.050781-.050781-.074218-.078125-12.699219-12.695312-19.8125-29.488281-20.109376-47.398437.042969-.382813.066407-.773438.066407-1.164063 0-18.394531 7.117187-35.644531 20.042969-48.570312 12.976562-12.972657 30.222656-20.117188 48.566406-20.117188 12.855468 0 25.378906 3.5625 36.226562 10.308594 3.230469 2.011719 7.320313 2.011719 10.554688 0 10.84375-6.746094 23.371094-10.308594 36.222656-10.308594 18.34375 0 35.59375 7.144531 48.570312 20.121094 12.695313 12.695313 19.8125 29.488281 20.109376 47.398437-.046876.386719-.070313.773438-.070313 1.167969 0 12.875-3.542969 25.398438-10.25 36.222657-2.003906 3.230468-2 7.316406.011719 10.542968 6.542968 10.515625 10.097656 22.617188 10.308594 35.0625-.046876.386719-.070313.777344-.070313 1.175782 0 5.792968-.722656 11.558593-2.144531 17.148437-1.363282 5.347656 1.867187 10.789063 7.214844 12.152344.828124.210937 1.65625.3125 2.476562.3125 4.460938 0 8.523438-3.007813 9.675781-7.527344 1.726563-6.769531 2.652344-13.746094 2.757813-20.753906.058594-.4375.089844-.882813.089844-1.332031 0-14.554688-3.546876-28.792969-10.308594-41.53125 6.503906-12.324219 10.011718-26.066407 10.214844-40.152344zm-307.453126 259.941406c3.898438-3.894531 10.234376-3.894531 14.132813 0l27.25 27.25c3.894531 3.894531 3.894531 10.234375 0 14.132812-1.886719 1.886719-4.398437 2.925782-7.066406 2.925782s-5.179688-1.039063-7.0625-2.925782l-13.117188-13.117187c-3.90625-3.902344-10.230469-3.902344-14.136719 0l-20.625 20.625c-3.902343 3.902344-3.902343 10.230469 0 14.136719l13.117188 13.117187c3.894531 3.894531 3.894531 10.234375 0 14.128907-3.898438 3.894531-10.234375 3.894531-14.132812 0l-13.117188-13.117188c-3.902344-3.902344-10.226562-3.902344-14.132812 0l-20.625 20.625c-3.902344 3.902344-3.902344 10.230469 0 14.136719l13.117187 13.117187c3.894531 3.894532 3.894531 10.234375 0 14.128906-3.898437 3.894532-10.234375 3.894532-14.132813 0l-27.25-27.25c-3.894531-3.894531-3.894531-10.234374 0-14.128906.003907-.003906.007813-.007812.011719-.011718l97.761719-97.757813c.003906-.007813.007812-.007813.007812-.015625zm114.144532-184.804688 28.265625 28.269532c3.898437 3.894531 3.898437 10.234375 0 14.132812-1.871094 1.871094-4.382813 2.902344-7.066407 2.902344-2.6875 0-5.195312-1.03125-7.066406-2.902344l-28.265625-28.265625c-1.871093-1.875-2.902343-4.382812-2.902343-7.066406 0-2.6875 1.03125-5.195313 2.902343-7.066406 1.871094-1.871094 4.378907-2.902344 7.066407-2.902344 2.683593-.003906 5.195312 1.027344 7.066406 2.898437zm0 0"/><path d="m54.09375 412.0625c2.558594 0 5.117188-.976562 7.066406-2.929688l.003906-.003906c3.90625-3.902344 3.902344-10.226562 0-14.128906-3.902343-3.902344-10.234374-3.902344-14.136718 0s-3.902344 10.230469 0 14.132812c1.953125 1.953126 4.507812 2.929688 7.066406 2.929688zm0 0"/><path d="m444.3125 220.25c-3.902344 3.902344-3.902344 10.230469 0 14.132812 1.953125 1.953126 4.511719 2.929688 7.066406 2.929688 2.558594 0 5.117188-.976562 7.066406-2.929688l.007813-.003906c3.902344-3.902344 3.898437-10.226562-.003906-14.128906-3.902344-3.90625-10.234375-3.902344-14.136719 0zm0 0"/></svg>