<svg id="Capa_1" enable-background="new 0 0 512 512" height="512" viewBox="0 0 512 512" width="512" xmlns="http://www.w3.org/2000/svg"><g><g><path d="m466.813 363.581c-16.082 0-29.119 13.037-29.119 29.119-1.933 55.563-67.811 65.027-92.691 29.878-5.741-8.111-14.261-19.515-14.346-32.359 3.711-93.568 123.178-97.963 125.01-225.019-3.732-110.11-83.058-155.15-165.242-154.394-70.583 6.728-136.736 57.876-140.038 153.493-66.381-13.929-131.395 39.176-130.609 107.157 4.638 144.414 213.92 144.353 218.514-.003-.057-21.523-6.055-41.172-17.03-58.514-37.244-63.234 11.725-147.374 85.276-146.053 90.691 2.681 143.146 112.73 45.951 188.64-72.669 58.173-88.932 131.876-65.251 183.504 21.387 30.595 50.646 54.632 98.975 57.244 60.248-.001 102.874-37.861 102.874-98.105 0-15.135-4.739-28.713-19.466-34.455-.924-.088-1.861-.133-2.808-.133zm-337.778-41.107c-67.42-2.144-67.416-99.901.001-102.038 19.445.014 36.177 10.819 44.936 26.887 18.5 32.791-7.066 75.87-44.937 75.151z" fill="#ffc8b7"/><g fill="#ff96b9"><path d="m337.676 418.15c2.717 1.635 5.049 3.009 6.989 3.923-5.538-8.041-8.964-18.354-9.047-30.939 3.711-93.568 125.238-99.7 127.07-226.756-3.784-111.645-93.386-162.733-175.662-153.204 70.855 3.248 142.274 51.431 145.514 147.015-1.763 122.205-109.111 119.076-115.458 218.398.13 19.564 8.637 33.441 20.594 41.563z"/><path d="m469.621 363.718c.989 2.841 1.532 5.891 1.532 9.069 0 57.11-46.462 103.572-103.575 103.573-35.052-1.895-62.65-16.21-80.562-37.827 16.103 35.586 51.101 60.801 99.655 63.426 60.248-.001 109.261-49.014 109.261-109.259 0-15.134-11.547-27.568-26.311-28.982z"/></g></g><g fill="#4e0325"><path d="m129.043 210.395c-.118-.012-.217.001-.324.005-18.475.586-34.076 7.473-45.116 19.915-9.784 11.027-15.172 25.635-15.174 41.135 0 15.501 5.386 30.111 15.17 41.139 11.039 12.444 26.64 19.333 45.115 19.921.043.001.086.003.13.003.378.007.751.011 1.128.011 20.966 0 40.074-11.114 51.283-29.898 11.397-19.097 11.955-41.586 1.497-60.175-10.801-19.759-31.374-32.04-53.709-32.056zm34.968 81.94c-7.539 12.633-20.227 20.107-34.057 20.107-.22 0-.441-.002-.662-.006-28.17-.925-40.781-21.244-40.78-40.984.002-19.715 12.579-40.006 40.675-40.974 14.948.069 28.719 8.354 35.968 21.651.023.043.047.086.071.128 6.909 12.244 6.454 27.227-1.215 40.078z"/><path d="m466.813 353.54c-21.529 0-39.055 17.461-39.159 38.965-1.064 28.507-21.633 41.022-41.529 40.707-19.951-.28-40.168-13.353-40.465-41.915 1.626-38.638 25.602-60.819 53.356-86.496 34.057-31.508 72.657-67.219 73.711-140.278.002-.161.001-.323-.005-.485-1.713-50.57-20.429-93.069-54.124-122.904-29.942-26.512-69.727-41.12-112.027-41.134-.021 0-.038 0-.059 0-42.273 0-82.037 14.581-111.971 41.058-31.168 27.569-49.537 65.982-53.507 111.61-31.097-3.319-62.49 6.177-87.636 26.835-28.155 23.132-44.069 56.69-43.66 92.068.001.069.002.137.004.206 1.168 36.344 14.593 66.917 38.826 88.414 21.513 19.084 50.087 29.593 80.465 29.593h.02c30.382-.004 58.962-10.521 80.475-29.612 24.227-21.5 37.644-52.068 38.801-88.4.004-.115.005-.23.005-.346-.061-22.924-6.284-44.36-18.496-63.714-15.556-26.519-15.11-59.02 1.201-86.971 16.322-27.971 44.482-44.34 75.26-43.816 39.562 1.191 72.6 24.769 84.174 60.08 12.439 37.946-4.071 79.296-44.163 110.608-.031.025-.063.05-.094.075-32.982 26.402-56.974 57.959-69.382 91.258-11.621 31.188-12.943 62.697-3.821 91.12 7.38 22.998 21.381 42.695 40.487 56.963 19.862 14.832 44.977 23.461 72.631 24.956.18.01.362.015.542.015 65.783-.001 119.302-53.519 119.302-119.3-.002-21.593-17.569-39.16-39.162-39.16zm-79.873 138.377c-46.547-2.608-81.978-28.008-94.807-67.987-13.232-41.234-2.69-105.052 66.588-160.53 47.015-36.744 66.019-86.329 50.834-132.65-6.801-20.75-19.906-38.723-37.896-51.975-18.514-13.637-40.929-21.219-64.823-21.925-.039-.001-.077-.002-.117-.003-38.182-.68-72.976 19.416-93.026 53.773-20.053 34.364-20.458 74.52-1.083 107.416.054.092.11.183.167.274 10.186 16.096 15.392 33.925 15.473 52.997-2.236 67.593-52.97 98.389-99.2 98.396-.006 0-.01 0-.016 0-46.242 0-96.995-30.81-99.217-98.466-.306-29.219 12.932-56.992 36.329-76.215 23.5-19.307 53.453-26.921 82.179-20.895 2.901.609 5.922-.095 8.255-1.924 2.334-1.828 3.74-4.594 3.842-7.556 3.431-99.338 78.122-144.563 146.094-144.563h.05c67.945.022 142.601 45.214 146.078 144.393-1.008 64.293-34.69 95.448-67.265 125.585-28.479 26.347-57.927 53.591-59.795 100.676-.006.155-.009.31-.008.465.124 18.748 6.713 34.685 19.052 46.087 10.93 10.1 25.567 15.784 41.215 16.004 15.584.227 30.395-5.037 41.584-14.805 12.631-11.026 19.651-26.738 20.302-45.438.004-.116.006-.233.006-.349 0-10.52 8.559-19.078 19.078-19.078 10.52 0 19.078 8.559 19.078 19.078 0 54.616-44.365 99.068-98.951 99.215z"/><path d="m432.541 187.64c3.327 0 6.025-2.698 6.025-6.025v-10.774c0-3.327-2.698-6.025-6.025-6.025s-6.025 2.697-6.025 6.025v10.774c0 3.327 2.698 6.025 6.025 6.025z"/><path d="m416.641 238.527c3.327 0 6.025-2.697 6.025-6.025v-10.774c0-3.327-2.697-6.025-6.025-6.025-3.327 0-6.025 2.697-6.025 6.025v10.774c0 3.327 2.697 6.025 6.025 6.025z"/></g><g fill="#fff"><path d="m122.786 201.073c-5.084 0-9.446-3.848-9.977-9.015-.568-5.517 3.445-10.448 8.962-11.015 2.719-.279 5.52-.466 8.323-.555 5.52-.175 10.177 4.175 10.354 9.718.176 5.543-4.175 10.179-9.719 10.354-2.332.074-4.655.229-6.905.46-.348.035-.695.053-1.038.053z"/><path d="m51.081 262.507c-.769 0-1.549-.089-2.33-.274-5.395-1.282-8.73-6.695-7.449-12.09 5.044-21.232 17.107-39.682 33.969-51.952 4.481-3.263 10.762-2.274 14.027 2.21 3.262 4.484 2.273 10.764-2.211 14.027-13.177 9.59-22.252 23.544-26.246 40.356-1.095 4.615-5.215 7.723-9.76 7.723z"/></g><g><ellipse cx="122.798" cy="21.402" fill="#ffa785" rx="18.058" ry="18.058" transform="matrix(.23 -.973 .973 .23 73.755 135.998)"/><ellipse cx="484.348" cy="47.084" fill="#ffa785" rx="7.623" ry="7.623" transform="matrix(.707 -.707 .707 .707 108.569 356.276)"/><g fill="#ffc8b7"><path d="m481.955 257.823-6.118 17.204c-.262.737-.781 1.32-1.435 1.615l-15.285 6.886c-2.159.973-2.159 4.414 0 5.387l15.285 6.887c.654.295 1.173.879 1.435 1.615l6.118 17.204c.864 2.43 3.921 2.43 4.785 0l6.118-17.204c.262-.736.781-1.32 1.435-1.615l15.285-6.887c2.159-.973 2.159-4.413 0-5.387l-15.285-6.886c-.655-.295-1.173-.879-1.435-1.615l-6.118-17.204c-.864-2.431-3.92-2.431-4.785 0z"/><path d="m33.773 57.165-8.248 23.193c-.353.993-1.052 1.78-1.934 2.177l-20.606 9.283c-2.911 1.312-2.911 5.95 0 7.261l20.606 9.284c.882.398 1.581 1.184 1.934 2.177l8.248 23.193c1.165 3.277 5.286 3.277 6.452 0l8.248-23.193c.353-.993 1.052-1.78 1.935-2.177l20.606-9.284c2.911-1.312 2.911-5.95 0-7.261l-20.606-9.284c-.882-.398-1.581-1.185-1.935-2.177l-8.248-23.193c-1.166-3.276-5.287-3.276-6.452.001z"/></g></g></g></svg>