<svg id="Capa_1" enable-background="new 0 0 512 512" height="512" viewBox="0 0 512 512" width="512" xmlns="http://www.w3.org/2000/svg"><g><g><path d="m466.553 489.677-425.872 1.349c-16.587 0-27.882-8.458-27.882-25.045 0-3.852-.741-10.919-.741-10.919 4.368-11.189 15.252-19.115 27.988-19.115h424.622l7.732 3.363c13.491 5.621 21.586 10.084 21.586 26.671 0 16.588-10.845 23.696-27.433 23.696z" fill="#ff8cc0"/><path d="m471.37 435.947h-6.702c.881 2.713 1.363 5.606 1.363 8.613 0 15.393-12.479 27.872-27.872 27.872h-400.275c-11.675 0-21.669-7.182-25.817-17.367-1.322 3.384-2.055 7.064-2.055 10.916 0 16.587 13.447 30.034 30.034 30.034h431.324c16.587 0 30.034-13.447 30.034-30.034s-13.447-30.034-30.034-30.034z" fill="#ff68c1"/><path d="m310.38 345.122s-9.263-7.01-11.273-10.366c-1.189-10.991 3.782-21.953 13.242-28.238 28.728-19.087 45.879-51.038 45.879-85.469 0-56.529-45.99-102.519-102.519-102.519s-102.519 45.99-102.519 102.519c0 32.404 15.2 62.626 40.946 81.981 2.59 4.552 6.676 11.177 7.303 13.059 5.575 16.725-5.877 35.68-19.113 35.68-.001 0-142.277-.002-142.277-.002-16.588 0-26.209-3.688-26.209-20.275 0-4.395-1.42-7.26-1.185-12.375 4.706-10.436 15.202-17.702 27.393-17.702h.001l74.284.001c-13.714-24.116-21.211-51.702-21.211-80.368 0-81.636 60.478-149.413 138.984-160.879 10.122-.33 17.086.993 25.101.993 72.072 6.783 150.834 67.495 150.834 157.146 0 28.689-4.899 54.266-10.974 83.151l60.327-.036 9.461 5.393c7.824 8.011 2.653 40.063-13.935 40.073z" fill="#ff8cc0"/><g fill="#ff68c1"><path d="m380.785 179.859c11.846 40.4 1.822 95.913-.038 107.423-1.86 11.509 11.929 18.223 16.318 14.178 13.727-24.123 21.23-51.722 21.23-80.411 0-89.651-72.937-162.588-162.588-162.588-8.016 0-15.894.593-23.602 1.719-.151.028-.29.048-.411.058-.01.001-.02.003-.029.004 101.589 23.101 137.315 79.359 149.12 119.617z"/><path d="m198.972 306.456c-1.652-1.1-3.26-2.247-4.834-3.43.646 4.01.424 8.195-.809 12.27-3.495 11.552-14.142 19.454-26.211 19.454l-129.723-.002c-10.915 0-20.335-6.387-24.735-15.625-1.697 3.763-2.649 7.933-2.649 12.329 0 16.587 13.446 30.034 30.034 30.035l142.277.002c13.237 0 24.914-8.667 28.748-21.337 3.834-12.672-1.08-26.358-12.098-33.696z"/><path d="m471.37 301.416c-.005 0-.013 0-.017 0l-13.96.008c.422 1.908.652 3.888.653 5.922.009 15.124-12.245 27.391-27.368 27.4l-129.836.077c-.005 0-.011 0-.016 0-.571 0-1.135-.034-1.699-.069.198 1.83.546 3.66 1.094 5.47 3.83 12.675 15.51 21.345 28.75 21.345h.018l142.401-.084c16.587-.01 30.026-13.465 30.017-30.052-.013-16.583-13.457-30.017-30.037-30.017z"/></g></g><g fill="#4e0325"><path d="m471.37 425.936h-431.324c-22.081 0-40.046 17.964-40.046 40.045s17.965 40.046 40.046 40.046h431.324c22.081 0 40.046-17.964 40.046-40.046-.001-22.081-17.966-40.045-40.046-40.045zm0 60.068h-431.324c-11.041 0-20.023-8.982-20.023-20.023 0-11.04 8.982-20.023 20.023-20.023h431.324c11.041 0 20.023 8.982 20.023 20.023-.001 11.041-8.983 20.023-20.023 20.023z"/><path d="m40.046 371.496 142.277.002c17.778 0 33.181-11.433 38.33-28.449 5.148-17.016-1.335-35.071-16.132-44.926-25.874-17.233-41.322-46.046-41.322-77.074 0-51.009 41.498-92.508 92.508-92.508 51.009 0 92.508 41.499 92.508 92.508 0 31.07-15.48 59.904-41.408 77.13-14.821 9.847-21.32 27.907-16.172 44.941 5.145 17.023 20.55 28.46 38.333 28.46h.023l142.401-.084c22.082-.013 40.035-17.988 40.022-40.069-.013-22.068-17.978-40.022-40.069-40.022l-58.008.034c9.829-22.052 14.968-46.084 14.968-70.39 0-95.172-77.428-172.599-172.599-172.599s-172.598 77.428-172.598 172.599c0 24.289 5.136 48.311 14.958 70.357l-58.02-.001c-22.081 0-40.046 17.964-40.046 40.045s17.964 40.046 40.046 40.046zm.001-60.068 74.284.001c3.565 0 6.861-1.896 8.653-4.977 1.793-3.082 1.812-6.884.049-9.983-13.02-22.896-19.902-48.975-19.902-75.419 0-84.131 68.445-152.576 152.576-152.576s152.576 68.445 152.576 152.576c0 26.464-6.889 52.558-19.92 75.46-1.764 3.1-1.745 6.904.048 9.987 1.793 3.081 5.089 4.976 8.653 4.976h.006l74.299-.044c11.034 0 20.016 8.977 20.023 20.011.007 11.04-8.97 20.028-20.011 20.035l-142.395.084h-.018c-8.892 0-16.594-5.718-19.166-14.23-2.574-8.517.676-17.547 8.086-22.471 31.527-20.946 50.349-56.015 50.349-93.808 0-62.05-50.481-112.531-112.531-112.531-62.049 0-112.531 50.481-112.531 112.531 0 37.742 18.783 72.784 50.246 93.739 7.398 4.928 10.64 13.955 8.066 22.463s-10.276 14.225-19.165 14.225l-142.277-.003c-11.041-.001-20.023-8.983-20.023-20.023s8.983-20.023 20.025-20.023z"/><path d="m379.536 342.871c3.317 0 6.007-2.69 6.007-6.007v-10.742c0-3.317-2.69-6.007-6.007-6.007s-6.007 2.69-6.007 6.007v10.742c0 3.317 2.69 6.007 6.007 6.007z"/><path d="m357.452 298.864c-3.317 0-6.007 2.69-6.007 6.007v10.742c0 3.317 2.69 6.007 6.007 6.007s6.007-2.69 6.007-6.007v-10.742c-.001-3.318-2.69-6.007-6.007-6.007z"/></g><g fill="#fff"><path d="m187.558 117.938c-3.304 0-6.538-1.634-8.447-4.624-2.976-4.66-1.611-10.85 3.049-13.826 4.074-2.602 8.318-5.011 12.615-7.161 4.944-2.477 10.958-.473 13.433 4.472s.472 10.959-4.472 13.433c-3.677 1.84-7.31 3.903-10.8 6.132-1.669 1.065-3.534 1.574-5.378 1.574z"/><path d="m129.436 198.021c-.858 0-1.73-.111-2.599-.344-5.341-1.432-8.509-6.922-7.077-12.263 4.813-17.947 12.782-34.599 23.688-49.494 3.267-4.462 9.534-5.43 13.992-2.164 4.461 3.266 5.43 9.53 2.164 13.992-9.437 12.889-16.335 27.307-20.503 42.852-1.201 4.472-5.245 7.421-9.665 7.421z"/></g><g><circle cx="415.031" cy="40.457" fill="#ff8cc0" r="18.005"/><path d="m17.612 148.549c0 4.198-3.403 7.601-7.601 7.601s-7.601-3.403-7.601-7.601 3.403-7.601 7.601-7.601 7.601 3.403 7.601 7.601z" fill="#ff8cc0"/><g fill="#ffc5dd"><path d="m482.843 72.964-6.1 17.153c-.261.734-.778 1.316-1.431 1.61l-15.24 6.866c-2.153.97-2.153 4.4 0 5.371l15.24 6.866c.652.294 1.169.876 1.431 1.61l6.1 17.153c.862 2.423 3.909 2.423 4.771 0l6.1-17.153c.261-.734.778-1.316 1.431-1.61l15.24-6.866c2.153-.97 2.153-4.4 0-5.371l-15.24-6.866c-.653-.294-1.17-.876-1.431-1.61l-6.1-17.153c-.861-2.424-3.909-2.424-4.771 0z"/><path d="m80.509 8.423-8.224 23.124c-.352.99-1.049 1.775-1.929 2.171l-20.545 9.256c-2.903 1.308-2.903 5.932 0 7.24l20.545 9.256c.88.396 1.577 1.181 1.929 2.171l8.224 23.124c1.162 3.267 5.271 3.267 6.432 0l8.224-23.124c.352-.99 1.049-1.775 1.929-2.171l20.545-9.256c2.903-1.308 2.903-5.932 0-7.24l-20.545-9.256c-.88-.396-1.577-1.181-1.929-2.171l-8.224-23.124c-1.162-3.267-5.271-3.267-6.432 0z"/></g></g></g></svg>