<svg id="Capa_1" enable-background="new 0 0 512 512" height="512" viewBox="0 0 512 512" width="512" xmlns="http://www.w3.org/2000/svg"><g><g><path d="m240.285 210.694c1.403-.271 75.638-132.33 75.638-132.33-4.45-3.88-8.902-7.756-13.344-11.632h-133.866v106.084c28.177 29.094 52.891 41.494 71.572 37.878z" fill="#eaa998"/><path d="m315.923 78.364c-14.139 14.139-29.709 29.709-43.823 43.823-21.621 21.621-32.159 46.759-32.003 70.91.022 3.333-2.387 8.297-9.798 8.006-18.611-.73-44.417-17.855-61.586-28.287v20c19.101 11.605 48.891 31.494 67.571 27.878 16.665-3.226 29-18.365 39.054-56.565l22.213 22.213 72.603-58.719c-17.265-16.867-35.714-33.112-54.231-49.259z" fill="#e49280"/><path d="m419.559 428.037c23.5-32.811 34.11-74.341 34.11-116.355 0-73.93-37.657-128.478-98.217-178.825-53.096 19.777-73.52 39.234-73.52 106.104v74.242l-64.327 37.139 68.388 39.744z" fill="#f3f0f3"/><path d="m370.155 127.623c-5.158 1.769-10.054 3.503-14.703 5.234 49.619 49.585 88.217 104.896 88.217 178.825 0 38.48-7.922 68.918-23.979 96.891-2.53 4.407-7.99 6.188-12.65 4.161l-82.015-35.671c40.168-27.096 61.098-57.892 76.763-120.714 1.291-5.176-1.494-10.677-6.579-12.289-5.557-1.761-11.359 1.546-12.743 7.115-16.479 66.292-37.105 94.636-96.472 128.912v10l136.857 49.523c24.781-32.626 40.819-76.259 40.819-127.928-.001-76.541-41.373-133.125-93.515-184.059z" fill="#cbc4cc"/><path d="m171.289 220.786v-111.713h36l4.533-9.519 74.748-46.895c-2.439-2.16-4.886-4.317-7.304-6.484-23.113-20.719-48.648-38.675-85.083-38.675-70.567 0-110.537 75.01-110.537 126.232 0 31.619 13.429 58.622 24.608 75.625l23.647-30.912c21.182 26.568 39.388 42.341 39.388 42.341z" fill="#918291"/><path d="m286.57 52.659-74.748 36.895-4.533 9.519h-36c-5.523 0-10 4.477-10 10v79.361c0 4.556-5.59 6.742-8.676 3.391-5.559-6.038-13.201-14.85-21.137-25.576-2.391-3.231-7.426-2.465-8.743 1.333l-14.48 41.776c7.969 12.122 14.796 19.164 14.796 19.164l12.851-37.076c17.404 25.248 45.388 49.34 45.388 49.34v-121.713h30l4.533-9.519 86.756-42.822c-5.366-4.682-10.7-9.373-16.007-14.073z" fill="#7a6d79"/><path d="m255.912 114.018c0-10.824-16.976-33.788-38.256-33.788-11.469 0-20.765 8.909-20.765 19.898 0 8.861 6.045 16.37 14.399 18.945z" fill="#eaa998"/><path d="m337.689 173.204h83.109c26.723 0 42.87-28.935 26.692-54.441l-70.982-70.983s-58.726 58.726-89.407 89.407c-26.953 26.953-31.966 60.874-16.222 87.583 7.037-25.944 24.59-51.566 66.81-51.566z" fill="#cbc4cc"/><path d="m447.491 118.763c7.983 20.629-6.395 44.441-26.692 44.441h-83.109c-47.465 0-64.715 30.708-66.811 61.566 2.957 5.016 6.641 9.779 11.054 14.192 0-30.794 24.964-55.758 55.758-55.758h83.109c33.629 0 50.471-40.661 26.691-64.441z" fill="#b5adb6"/><path d="m403.027 430.989-185.423-80.646-68.769-29.909c-37.158-16.161-69.942 14.543-69.367 46.801 28.833 50.605 148.051 127.265 222.177 127.265 44.09 0 86.99-20.651 101.382-63.511z" fill="#918291"/><path d="m403.027 430.989c-28.777 32.808-62.374 53.511-101.382 53.511-65.583 0-147.765-52.339-222.176-117.265.22 12.356 5.327 24.94 16.968 35.205 69.401 61.197 144.502 102.06 205.208 102.06 44.578 0 89.879-23.647 121.204-64.89z" fill="#7a6d79"/><path d="m212.786 460.034c-3.989-5.358-9.841-9.249-16.614-10.665-53.2-11.119-44.61-19.866-77.991-39.138-19.523-11.271-51.424-14.236-65.142 9.523-8.328 14.425-4.765 29.724 3.683 42.045 32.069 29.2 79.07 33.891 124.551 33.891 18.365 0 36.331-13.423 31.513-35.656z" fill="#dd7f66"/><path d="m212.786 460.034c-3.013 14.644-15.977 25.656-31.513 25.656-45.481 0-84.896-2.859-124.551-23.891 5.466 7.973 12.971 14.702 20.641 19.13 36.117 20.852 71.699 23.571 113.08 23.571 15.387 0 27.86-12.474 27.86-27.86.001-6.23-2.062-11.966-5.517-16.606z" fill="#aa6a51"/></g><g><path d="m432.502 189.233c13.478-3.483 24.512-12.971 30.101-26.462 7.137-17.229 3.378-36.125-9.809-49.312l-70.983-70.983c-1.407-1.406-3.314-2.196-5.304-2.196s-3.896.79-5.304 2.196l-39.62 39.621c-5.604-4.921-37.279-32.513-47.311-41.506-23.517-21.082-50.709-40.591-90.089-40.591-33.311 0-64.051 16.11-86.559 45.363-2.526 3.282-1.912 7.991 1.371 10.518 3.283 2.525 7.992 1.912 10.518-1.371 13.868-18.025 38.08-39.51 74.67-39.51 32.425 0 55.463 14.695 80.078 36.76 4.915 4.406 9.917 8.825 14.924 13.219l-41.504 20.486c-8.981-8.23-19.529-12.735-30.025-12.735-15.586 0-28.266 12.291-28.266 27.398 0 4.059.926 7.937 2.583 11.445h-10.684c-4.142 0-7.5 3.357-7.5 7.5v104.518c-9.396-9.165-22.262-22.69-31.713-36.402-1.605-2.327-4.379-3.551-7.184-3.175-2.802.38-5.152 2.304-6.078 4.976l-8.48 24.467c-10.971-14.672-29.188-44.361-29.188-79.724 0-17.085 4.691-36.383 13.21-54.337 1.776-3.742.182-8.215-3.561-9.991-3.741-1.774-8.215-.181-9.991 3.562-9.453 19.922-14.659 41.503-14.659 60.767 0 56.55 39.824 98.263 41.52 100.011 1.813 1.869 4.465 2.662 7.007 2.101 2.542-.563 4.61-2.405 5.463-4.866l8.232-23.749c16.916 20.979 37.033 38.385 38.028 39.241 1.388 1.195 3.131 1.816 4.895 1.816 1.059 0 2.125-.225 3.125-.683 2.665-1.223 4.374-3.886 4.374-6.817v-27.178c15.069 8.45 29.996 15.017 42.745 15.017 2.122 0 4.185-.182 6.176-.567 8.018-1.552 14.995-5.348 21.073-11.494 3.352 9.194 8.619 17.798 15.649 25.395v66.916l-57.303 33.083-65.302-28.402c-3.798-1.653-8.217.088-9.869 3.887-1.652 3.798.088 8.217 3.886 9.869l264.991 115.253c-5.262 6.204-10.903 11.989-16.878 17.27-3.104 2.743-3.396 7.482-.652 10.586 1.481 1.677 3.547 2.533 5.622 2.533 1.765 0 3.537-.619 4.964-1.881 20.269-17.914 37.032-41.07 48.479-66.965 12.474-28.219 18.798-59.314 18.798-92.425.001-43.016-12.673-83.182-38.666-122.452zm-135.274-62.177c-2.931-2.93-7.678-2.929-10.606.003l-4.824 4.824c-16.929 16.93-26.351 36.78-27.247 57.404-.118 2.715-.069 5.413.121 8.09-5.663 9.459-11.837 14.409-19.812 15.954-12.287 2.375-34.001-9.819-46.071-17.042v-69.715h22.476c3.205 0 6.198-2.068 7.191-5.291 1.22-3.958-1-8.156-4.958-9.376-5.448-1.68-9.108-6.413-9.108-11.778 0-6.837 5.951-12.398 13.266-12.398 17.648 0 30.756 20.129 30.756 26.288 0 4.143 3.358 7.5 7.5 7.5s7.5-3.357 7.5-7.5c0-4.889-2.153-10.87-5.819-16.718l43.824-21.631c1.189 1.036 14.195 12.368 19.537 17.057l-13.587 13.587c-2.93 2.929-2.93 7.678-.001 10.606s7.678 2.93 10.606.001l58.534-58.534 65.68 65.681c10.538 10.537 10.297 23.938 6.558 32.965s-13.044 18.673-27.946 18.673h-83.108c-28.516 0-52.676 18.97-60.547 44.95-5.47-9.373-8.082-19.773-7.607-30.717.729-16.811 8.638-33.218 22.868-47.447l4.826-4.828c2.929-2.932 2.927-7.681-.002-10.608zm141.424 270.986c-5.055 11.436-11.234 22.276-18.333 32.289l-97.956-42.604c48.649-30.938 70.514-64.44 86.79-129.917.999-4.021-1.449-8.089-5.469-9.088-4.022-1.006-8.09 1.449-9.088 5.469-16.313 65.629-37.354 95.698-89.019 126.235l-71.337-31.027 51.443-29.7c2.32-1.34 3.75-3.815 3.75-6.495v-74.243c0-26.609 21.648-48.257 48.258-48.257h77.651c27.462 38.944 40.829 78.547 40.829 120.979-.002 31.007-5.895 60.063-17.519 86.359z"/><path d="m370.733 476.918c-21.808 13.138-45.699 20.082-69.088 20.082-22.696 0-48.222-6.016-75.938-17.879.057-.821.097-1.646.097-2.481 0-16.652-11.817-31.209-28.098-34.612-33.885-7.082-40.995-12.832-51.758-21.535-5.569-4.504-12.5-10.108-24.016-16.757-6.788-3.919-14.297-6.724-21.938-8.237-11.223-10.707-15.488-25.016-11.672-39.565 4.119-15.706 16.993-28.409 32.035-31.609 4.051-.862 6.637-4.846 5.775-8.896-.863-4.052-4.846-6.629-8.897-5.775-20.77 4.42-37.813 21.093-43.422 42.476-3.952 15.07-1.673 29.905 6.206 42.531-13.631 1.702-25.994 8.391-33.473 21.345-7.428 12.865-7.62 27.896-.542 42.324 5.723 11.665 15.787 22.271 27.61 29.097 39.312 22.693 77.695 24.573 116.83 24.573 13.352 0 24.998-7.441 31.013-18.393 28.968 12.201 55.917 18.393 80.188 18.393 26.117 0 52.685-7.688 76.828-22.234 3.548-2.137 4.691-6.746 2.554-10.294-2.137-3.55-6.747-4.693-10.294-2.554zm-180.289 20.082c-44.487 0-76.638-3.692-109.33-22.566-9.173-5.296-17.265-13.787-21.644-22.713-4.946-10.082-4.924-19.575.065-28.218 4.989-8.642 13.2-13.407 24.404-14.165.982-.066 1.977-.099 2.984-.099 9.169 0 19.243 2.715 27.508 7.486 10.498 6.061 16.653 11.039 22.084 15.431 12.012 9.713 20.69 16.73 58.122 24.555 9.367 1.957 16.166 10.339 16.166 19.929.001 11.226-9.133 20.36-20.359 20.36z"/></g></g></svg>