<svg height="512pt" viewBox="0 0 512.00239 512" width="512pt" xmlns="http://www.w3.org/2000/svg"><g fill-rule="evenodd"><path d="m122.230469 418.054688-28.28125-28.28125-78.105469 78.101562c-7.777344 7.777344-7.777344 20.503906 0 28.285156 7.78125 7.777344 20.507812 7.777344 28.285156 0zm0 0" fill="#d675a7"/><path d="m93.949219 389.773438 28.28125 28.28125 187.363281-187.363282-8.515625-19.816406-19.746094-8.484375zm0 0" fill="#dff5fb"/><path d="m301.078125 210.875 8.515625 19.816406 3.109375 7.238282c5.265625 14.941406 24.941406 19.078124 35.667969 6.914062l20.40625-23.265625 28.804687-2.648437c16.085938-.050782 26.46875-17.726563 18.046875-31.886719l-15.792968-26.542969 6.703124-29.625c3.6875-14.988281-9.722656-29.035156-25.109374-25.539062l-29.972657 6.785156-26.582031-15.730469c-13.082031-7.789063-30.257812.65625-31.679688 16.144531l-2.816406 30.644532-23.242187 20.433593c-11.394531 10.039063-8.667969 28.917969 5.570312 35.070313l8.625 3.707031zm0 0" fill="#ffc059"/></g><path d="m410.46875 158.816406 5.804688-25.652344c2.542968-10.472656-.472657-21.332031-8.074219-29.070312-7.59375-7.726562-18.421875-10.90625-28.976563-8.511719l-26.097656 5.90625-23.132812-13.6875c-9.171876-5.464843-20.371094-5.8125-29.957032-.933593-9.539062 4.859374-15.820312 14.113281-16.800781 24.753906l-2.449219 26.675781-20.257812 17.8125c-7.992188 7.039063-11.757813 17.566406-10.082032 28.160156 1.398438 8.808594 6.40625 16.402344 13.726563 21.136719l-177.289063 177.289062c-.003906.003907-.003906.003907-.007812.007813 0 0 0 .003906-.003906.003906l-11.527344 11.53125c-3.90625 3.902344-3.90625 10.234375 0 14.140625 1.953125 1.953125 4.511719 2.929688 7.070312 2.929688 2.558594 0 5.117188-.976563 7.070313-2.929688l4.460937-4.460937 14.140626 14.140625-71.027344 71.027344c-3.898438 3.902343-10.242188 3.902343-14.144532 0-3.898437-3.898438-3.898437-10.242188 0-14.140626l10-10c3.90625-3.902343 3.90625-10.234374 0-14.140624s-10.238281-3.90625-14.140624 0l-10 10c-11.699219 11.695312-11.699219 30.726562 0 42.425781 5.847656 5.847656 13.53125 8.773437 21.210937 8.773437 7.683594 0 15.367187-2.925781 21.214844-8.773437l255.34375-255.34375c4.515625 6.96875 11.664062 11.851562 20.148437 13.503906 2.023438.390625 4.042969.585937 6.042969.585937 8.792969 0 17.144531-3.726562 23.152344-10.539062l17.773437-20.269531 24.433594-2.242188c11.082031-.199219 20.945312-6.085937 26.457031-15.816406 5.5625-9.820313 5.441407-21.476563-.332031-31.179687zm-302.378906 230.957032 175.519531-175.519532 9.859375 4.234375 4.261719 9.925781-175.5 175.5zm299.0625-186.523438c-2.007813 3.542969-5.597656 5.667969-9.601563 5.679688-.296875 0-.589843.015624-.886719.042968l-28.804687 2.648438c-2.550781.230468-4.914063 1.4375-6.601563 3.363281l-20.390624 23.246094c-3.761719 4.269531-8.5 3.886719-10.359376 3.523437-3.9375-.761718-7.066406-3.4375-8.375-7.148437-.074218-.210938-.15625-.417969-.242187-.625l-3.023437-7.035157c-.007813-.019531-.015626-.035156-.023438-.054687l-8.578125-19.964844c-1.011719-2.351562-2.886719-4.226562-5.238281-5.238281l-19.917969-8.558594c-.007813-.003906-.015625-.007812-.023437-.011718l-8.414063-3.613282c-3.511719-1.515625-5.871094-4.566406-6.472656-8.367187-.601563-3.789063.726562-7.535157 3.542969-10.011719l23.238281-20.4375c1.921875-1.6875 3.121093-4.050781 3.355469-6.59375l2.8125-30.640625c.351562-3.820313 2.523437-7.015625 5.960937-8.765625 1.617187-.824219 3.355469-1.234375 5.085937-1.234375 1.9375 0 3.863282.515625 5.585938 1.542969l26.582031 15.726562c2.199219 1.300782 4.808594 1.710938 7.296875 1.148438l29.984375-6.785156c5.398438-1.230469 8.992188 1.703124 10.285157 3.019531 2.730468 2.777343 3.8125 6.65625 2.898437 10.375-.015625.0625-.03125.121093-.042969.183593l-6.703125 29.625c-.566406 2.5-.152343 5.121094 1.160157 7.320313l15.789062 26.542969c2.964844 4.980468 1.070312 9.417968.121094 11.097656zm0 0"/><path d="m467.003906 0c-5.523437 0-10 4.476562-10 10v12.75c0 5.523438 4.476563 10 10 10 5.519532 0 10-4.476562 10-10v-12.75c0-5.523438-4.476562-10-10-10zm0 0"/><path d="m467.003906 57.25c-5.523437 0-10 4.476562-10 10v12.75c0 5.523438 4.476563 10 10 10 5.519532 0 10-4.476562 10-10v-12.75c0-5.523438-4.476562-10-10-10zm0 0"/><path d="m444.753906 35h-12.75c-5.523437 0-10 4.476562-10 10s4.476563 10 10 10h12.75c5.519532 0 10-4.476562 10-10s-4.476562-10-10-10zm0 0"/><path d="m502.003906 55c5.519532 0 9.996094-4.476562 9.996094-10s-4.476562-10-9.996094-10h-12.75c-5.523437 0-10 4.476562-10 10s4.476563 10 10 10zm0 0"/><path d="m149.25 121.511719c5.519531 0 10-4.476563 10-10v-12.75c0-5.523438-4.480469-10-10-10-5.523438 0-10 4.476562-10 10v12.75c0 5.523437 4.476562 10 10 10zm0 0"/><path d="m149.25 178.757812c5.519531 0 10-4.476562 10-10v-12.75c0-5.519531-4.480469-9.996093-10-9.996093-5.523438 0-10 4.476562-10 9.996093v12.75c0 5.523438 4.476562 10 10 10zm0 0"/><path d="m114.25 143.761719h12.75c5.523438 0 10-4.480469 10-10 0-5.523438-4.476562-10-10-10h-12.75c-5.523438 0-10 4.476562-10 10 0 5.519531 4.476562 10 10 10zm0 0"/><path d="m171.5 143.761719h12.75c5.519531 0 10-4.480469 10-10 0-5.523438-4.480469-10-10-10h-12.75c-5.523438 0-10 4.476562-10 10 0 5.519531 4.476562 10 10 10zm0 0"/><path d="m378.242188 317.753906c-5.519532 0-10 4.476563-10 10v12.75c0 5.523438 4.480468 10 10 10 5.523437 0 10-4.476562 10-10v-12.75c0-5.523437-4.476563-10-10-10zm0 0"/><path d="m378.242188 375.003906c-5.519532 0-10 4.476563-10 10v12.75c0 5.523438 4.480468 10 10 10 5.523437 0 10-4.476562 10-10v-12.75c0-5.523437-4.476563-10-10-10zm0 0"/><path d="m355.996094 352.753906h-12.75c-5.523438 0-10 4.476563-10 10 0 5.523438 4.476562 10 10 10h12.75c5.519531 0 10-4.476562 10-10 0-5.523437-4.480469-10-10-10zm0 0"/><path d="m413.242188 352.753906h-12.75c-5.519532 0-10 4.476563-10 10 0 5.523438 4.480468 10 10 10h12.75c5.523437 0 10-4.476562 10-10 0-5.523437-4.476563-10-10-10zm0 0"/><path d="m341.867188 20.003906c2.722656 0 5.433593-1.105468 7.40625-3.277344 3.714843-4.085937 3.414062-10.410156-.671876-14.125-4.085937-3.714843-10.410156-3.414062-14.125.671876l-.003906.007812c-3.714844 4.085938-3.414062 10.40625.671875 14.121094 1.917969 1.742187 4.324219 2.601562 6.722657 2.601562zm0 0"/><path d="m494.601562 162.695312-.003906.003907c-3.714844 4.085937-3.410156 10.40625.675782 14.125 1.914062 1.738281 4.320312 2.597656 6.722656 2.597656 2.722656 0 5.433594-1.105469 7.40625-3.273437 3.714844-4.085938 3.414062-10.414063-.671875-14.128907-4.089844-3.710937-10.410157-3.414062-14.128907.675781zm0 0"/><path d="m207.222656 29.21875c2.417969 0 4.839844-.871094 6.757813-2.632812 4.070312-3.730469 4.347656-10.054688.617187-14.128907-3.730468-4.070312-10.058594-4.347656-14.128906-.613281l-.007812.007812c-4.070313 3.730469-4.34375 10.054688-.609376 14.125 1.972657 2.148438 4.667969 3.242188 7.371094 3.242188zm0 0"/><path d="m486.421875 297-.003906.007812c-3.90625 3.902344-3.902344 10.234376.003906 14.136719 1.953125 1.953125 4.511719 2.929688 7.066406 2.929688 2.5625 0 5.125-.976563 7.078125-2.929688 3.902344-3.90625 3.902344-10.238281 0-14.144531-3.90625-3.902344-10.238281-3.902344-14.144531 0zm0 0"/><path d="m107.117188 247.304688c2.5625 0 5.121093-.976563 7.074218-2.929688 3.90625-3.90625 3.90625-10.238281 0-14.144531-3.90625-3.902344-10.234375-3.902344-14.140625 0l-.007812.007812c-3.902344 3.902344-3.902344 10.234375.003906 14.136719 1.953125 1.953125 4.511719 2.929688 7.070313 2.929688zm0 0"/><path d="m268.652344 396.804688-.007813.003906c-4.070312 3.730468-4.34375 10.054687-.609375 14.125 1.972656 2.152344 4.667969 3.242187 7.371094 3.242187 2.414062 0 4.839844-.871093 6.757812-2.628906 4.070313-3.730469 4.347657-10.058594.613282-14.128906-3.730469-4.070313-10.054688-4.347657-14.125-.613281zm0 0"/><path d="m54.125 439.59375c2.5625 0 5.121094-.976562 7.074219-2.929688l.003906-.003906c3.902344-3.90625 3.902344-10.234375-.003906-14.140625s-10.238281-3.902343-14.144531.003907c-3.90625 3.902343-3.90625 10.234374 0 14.140624 1.953124 1.953126 4.511718 2.929688 7.070312 2.929688zm0 0"/></svg>