<svg id="Capa_1" enable-background="new 0 0 512.002 512.002" viewBox="0 0 512.002 512.002" xmlns="http://www.w3.org/2000/svg"><g><path clip-rule="evenodd" d="m371.036 183.392 70.966-70.966v42.574c0 16.505 13.495 30 30 30s30-13.495 30-30v-122.5c0-12.379-10.121-22.5-22.5-22.5h-122.5c-16.505 0-30 13.495-30 30s13.495 30 30 30h42.574l-70.966 70.966c-33.184-24.486-74.205-38.964-118.61-38.964-110.457 0-200 89.543-200 200s89.543 200 200 200 200-89.543 200-200c0-44.406-14.48-85.424-38.964-118.61zm-161.036-21.391c77.32 0 140 62.68 140 140s-62.68 140-140 140-140-62.68-140-140c0-77.319 62.68-140 140-140z" fill="#ff9c9b" fill-rule="evenodd"/><g><g><path d="m210 512.002c-115.794 0-210-94.206-210-210s94.206-210 210-210c42.308 0 82.747 12.396 117.497 35.933l47.936-47.935h-18.432c-22.056 0-40-17.944-40-40s17.944-40 40-40h122.5c17.921 0 32.5 14.58 32.5 32.5v122.5c0 22.056-17.944 40-40 40s-39.999-17.944-39.999-40v-18.433l-47.936 47.936c23.537 34.755 35.934 75.196 35.934 117.499 0 115.794-94.206 210-210 210zm0-400.001c-104.767 0-190 85.234-190 190s85.233 190 190 190 190-85.234 190-190c0-40.893-12.799-79.854-37.012-112.673-2.937-3.98-2.522-9.51.976-13.008l70.967-70.966c2.859-2.859 7.16-3.716 10.898-2.167 3.736 1.548 6.173 5.194 6.173 9.239v42.574c0 11.028 8.972 20 19.999 20 11.028 0 20-8.972 20-20v-122.5c0-6.893-5.607-12.5-12.5-12.5h-122.5c-11.028 0-20 8.972-20 20s8.972 20 20 20h42.574c4.045 0 7.691 2.437 9.239 6.173 1.547 3.737.691 8.038-2.168 10.898l-70.967 70.966c-3.499 3.498-9.027 3.912-13.009.975-32.812-24.212-71.773-37.011-112.67-37.011z"/></g><g><path d="m210 452.002c-64.594 0-121.761-41.156-142.252-102.413-1.752-5.237 1.073-10.904 6.311-12.656 5.246-1.753 10.904 1.074 12.656 6.311 17.76 53.088 67.304 88.757 123.285 88.757 71.683 0 130-58.318 130-130 0-71.683-58.317-130-130-130-55.981 0-105.525 35.669-123.285 88.758-1.753 5.237-7.416 8.064-12.656 6.311-5.237-1.752-8.062-7.418-6.311-12.656 20.493-61.256 77.659-102.413 142.252-102.413 82.71 0 150 67.29 150 150s-67.29 150.001-150 150.001z"/></g><g><path d="m70 312.002c-5.522 0-10.003-4.477-10.003-10s4.474-10 9.996-10h.007c5.522 0 10 4.477 10 10s-4.478 10-10 10z"/></g></g></g><g/><g/><g/><g/><g/><g/><g/><g/><g/><g/><g/><g/><g/><g/><g/></svg>