<?xml version="1.0" encoding="iso-8859-1"?>
<!-- Generator: Adobe Illustrator 19.0.0, SVG Export Plug-In . SVG Version: 6.00 Build 0)  -->
<svg version="1.1" id="Capa_1" xmlns="http://www.w3.org/2000/svg" xmlns:xlink="http://www.w3.org/1999/xlink" x="0px" y="0px"
	 viewBox="0 0 512 512" style="enable-background:new 0 0 512 512;" xml:space="preserve">
<g>
	<circle style="fill:#FFB954;" cx="75.997" cy="435.993" r="65.998"/>
	<circle style="fill:#FFB954;" cx="75.997" cy="256" r="65.998"/>
</g>
<circle style="fill:#FFC66C;" cx="75.997" cy="76.007" r="65.998"/>
<path d="M75.997,511.991C34.092,511.991,0,477.899,0,435.993s34.092-75.997,75.997-75.997s75.997,34.092,75.997,75.997
	S117.903,511.991,75.997,511.991z M75.997,379.995c-30.877,0-55.998,25.121-55.998,55.998s25.121,55.998,55.998,55.998
	s55.998-25.121,55.998-55.998S106.874,379.995,75.997,379.995z"/>
<path d="M75.997,331.997C34.092,331.997,0,297.905,0,256s34.092-75.997,75.997-75.997s75.997,34.092,75.997,75.997
	S117.903,331.997,75.997,331.997z M75.997,200.002c-30.877,0-55.998,25.121-55.998,55.998s25.121,55.998,55.998,55.998
	s55.998-25.121,55.998-55.998S106.874,200.002,75.997,200.002z"/>
<path d="M502,54.008H223.992c-5.523,0-10-4.477-10-10s4.477-10,10-10H502c5.523,0,10,4.477,10,10S507.523,54.008,502,54.008z"/>
<path d="M362.997,118.005H223.992c-5.523,0-10-4.477-10-10s4.477-10,10-10h139.005c5.523,0,10,4.477,10,10
	S368.519,118.005,362.997,118.005z"/>
<path d="M402.315,118.005c-2.63,0-5.21-1.07-7.07-2.93s-2.93-4.44-2.93-7.07s1.07-5.21,2.93-7.07c1.86-1.86,4.44-2.93,7.07-2.93
	c2.64,0,5.21,1.07,7.08,2.93c1.86,1.86,2.92,4.44,2.92,7.07s-1.06,5.21-2.92,7.07C407.525,116.934,404.955,118.005,402.315,118.005z
	"/>
<path d="M502,234.001H223.992c-5.523,0-10-4.477-10-10c0-5.523,4.477-10,10-10H502c5.523,0,10,4.477,10,10
	C512,229.524,507.523,234.001,502,234.001z"/>
<path d="M402.318,297.998H263.313c-5.523,0-10-4.477-10-10c0-5.523,4.477-10,10-10h139.005c5.523,0,10,4.477,10,10
	C412.318,293.522,407.841,297.998,402.318,297.998z"/>
<path d="M223.992,297.998c-2.63,0-5.21-1.07-7.07-2.93c-1.86-1.86-2.93-4.44-2.93-7.07c0-2.63,1.07-5.21,2.93-7.07
	c1.86-1.86,4.44-2.93,7.07-2.93c2.63,0,5.21,1.07,7.07,2.93c1.86,1.86,2.93,4.44,2.93,7.07c0,2.63-1.07,5.21-2.93,7.07
	C229.202,296.929,226.622,297.998,223.992,297.998z"/>
<path d="M502,413.994H223.992c-5.523,0-10-4.477-10-10c0-5.523,4.477-10,10-10H502c5.523,0,10,4.477,10,10
	C512,409.517,507.523,413.994,502,413.994z"/>
<path d="M362.997,477.992H223.992c-5.523,0-10-4.477-10-10c0-5.523,4.477-10,10-10h139.005c5.523,0,10,4.477,10,10
	C372.996,473.515,368.519,477.992,362.997,477.992z"/>
<path d="M402.315,477.992c-2.63,0-5.21-1.07-7.07-2.93s-2.93-4.44-2.93-7.07c0-2.63,1.07-5.21,2.93-7.07
	c1.86-1.86,4.44-2.93,7.07-2.93c2.64,0,5.21,1.07,7.07,2.93c1.87,1.86,2.93,4.44,2.93,7.07c0,2.63-1.06,5.21-2.93,7.07
	C407.525,476.921,404.955,477.992,402.315,477.992z"/>
<path d="M75.997,152.004C34.092,152.004,0,117.912,0,76.007S34.092,0.01,75.997,0.01s75.997,34.092,75.997,75.997
	S117.903,152.004,75.997,152.004z M75.997,20.009c-30.877,0-55.998,25.121-55.998,55.998s25.121,55.998,55.998,55.998
	s55.998-25.121,55.998-55.998S106.874,20.009,75.997,20.009z"/>
<g>
</g>
<g>
</g>
<g>
</g>
<g>
</g>
<g>
</g>
<g>
</g>
<g>
</g>
<g>
</g>
<g>
</g>
<g>
</g>
<g>
</g>
<g>
</g>
<g>
</g>
<g>
</g>
<g>
</g>
</svg>
