<svg height="512pt" viewBox="0 0 512 512" width="512pt" xmlns="http://www.w3.org/2000/svg"><path d="m208.410156 331.199219c61.457032-61.164063.136719-59.324219-54.570312-74.15625-25.019532-64-11.695313-139.53125 40.007812-191.230469 12.992188-12.996094 27.496094-23.566406 42.941406-31.714844 16.023438-9.25 9.011719-25.507812-5.621093-24-54.390625 5.597656-107.273438 29.234375-148.949219 70.910156-96.308594 96.308594-96.308594 252.457032 0 348.765626 96.308594 96.304687 252.457031 96.304687 348.765625 0 41.386719-41.390626 64.980469-93.832032 70.789063-147.824219 1.609374-14.957031-15.734376-22.402344-23.417969-7.632813-8.207031 15.777344-18.933594 30.582032-32.175781 43.824219-54.351563 54.351563-135.03125 66.300781-200.96875 35.863281-12.9375-5.96875-25.308594-13.574218-36.800782-22.804687zm0 0" fill="#ffd89e" fill-rule="evenodd"/><path d="m358.238281 202.722656 29.59375 22.097656c15.09375 12.925782 39.054688 5.082032 43.082031-14.855468l7.574219-38.074219 29.628907-20.941406c17.445312-10.144531 17.636718-35.855469-.394532-45.957031l-33.800781-18.929688-11.296875-36.386719c-5.394531-18.589843-28.773438-25.441406-43.292969-11.992187l-28.308593 26.167968-38.738282-.414062c-19.09375-.257812-32.453125 19.6875-24.289062 37.40625l16.160156 35.050781-12.429688 36.777344c-6.082031 18.050781 8.71875 36.851563 28.046876 34.601563zm0 0" fill="#ffc059" fill-rule="evenodd"/><path d="m495.789062 257.195312c-8.511718-2.574218-19.949218.296876-26.304687 12.507813-7.910156 15.203125-18.132813 29.125-30.378906 41.371094-50.796875 50.800781-126.347657 62.90625-188.921875 34.269531-.363282-.207031-.734375-.402344-1.128906-.566406-.136719-.054688-.269532-.097656-.40625-.144532-8.699219-4.089843-17.144532-8.964843-25.226563-14.648437 17.214844-18.933594 23.300781-33.273437 19.648437-45.730469-5.542968-18.894531-30.578124-24.289062-59.566406-30.535156-7.269531-1.566406-14.746094-3.175781-22.117187-5.039062-21.84375-61.175782-6.597657-129.671876 39.53125-175.796876 12.015625-12.019531 25.65625-22.09375 40.535156-29.941406.113281-.0625.226563-.121094.335937-.1875 13.800782-7.964844 15.71875-19.988281 13.167969-27.859375-3.191406-9.855469-13.394531-15.921875-24.8125-14.746093-44.464843 4.582031-87.066406 20.746093-123.207031 46.75-4.484375 3.226562-5.5 9.472656-2.277344 13.957031 3.226563 4.480469 9.476563 5.5 13.957032 2.273437 33.308593-23.96875 72.582031-38.867187 113.574218-43.089844 2.515625-.257812 3.625.652344 3.742188 1.011719.140625.425781-.589844 2.292969-3.996094 4.300781-16.582031 8.769532-31.773438 20.003907-45.160156 33.390626-52.929688 52.929687-69.515625 132.195312-42.25 201.941406 1.152344 2.949218 3.636718 5.179687 6.695312 6.007812 9.457032 2.5625 18.921875 4.601563 28.070313 6.574219 18.886719 4.070313 42.394531 9.132813 44.589843 16.613281.628907 2.148438.863282 10.953125-22.523437 34.230469-2.015625 2.003906-3.082031 4.777344-2.933594 7.617187.152344 2.839844 1.503907 5.480469 3.722657 7.261719 9.121093 7.332031 18.84375 13.738281 29.03125 19.1875-9.941407 12.636719-29.433594 22.191407-49.457032 23.417969-5.511718.339844-9.707031 5.082031-9.367187 10.59375.324219 5.300781 4.726562 9.382812 9.96875 9.382812.207031 0 .414062-.003906.621093-.015624 28.015626-1.722657 53.902344-15.554688 66.679688-34.765626 25.152344 10.121094 52.433594 14.765626 80.074219 13.355469 46.628906-2.382812 90.503906-21.890625 123.546875-54.933593 13.691406-13.691407 25.121094-29.261719 33.976562-46.28125.574219-1.101563 1.808594-2.886719 2.78125-2.59375.902344.273437 2.132813 1.707031 1.828125 4.539062-5.828125 54.175781-29.3125 103.21875-67.921875 141.824219-92.253906 92.257812-242.367187 92.253906-334.625 0-82.421875-82.421875-92.910156-210.808594-24.9375-305.277344 3.226563-4.480469 2.207032-10.726563-2.273437-13.953125-4.484375-3.226562-10.730469-2.207031-13.957031 2.273438-35.15625 48.859374-51.976563 108.996093-47.367188 169.332031 4.660156 61 31.082031 118.449219 74.398438 161.765625 48.46875 48.46875 112.910156 75.160156 181.453124 75.160156 68.542969 0 132.984376-26.691406 181.453126-75.160156 21.0625-21.0625 38.125-45.285156 50.710937-71.992188 12.164063-25.804687 19.886719-53.339844 22.953125-81.832031 1.285156-11.980469-5.261719-22.597656-15.929688-25.820313zm0 0"/><path d="m121.179688 261.820312c-10.519532-2.820312-21.832032.210938-29.53125 7.910157-7.699219 7.699219-10.730469 19.015625-7.914063 29.53125 1.199219 4.464843 5.238281 7.410156 9.652344 7.410156.855469 0 1.726562-.109375 2.59375-.34375 5.332031-1.425781 8.5-6.910156 7.070312-12.242187-.976562-3.640626.074219-7.550782 2.738281-10.214844 2.664063-2.664063 6.574219-3.710938 10.214844-2.738282 5.332032 1.425782 10.8125-1.734374 12.242188-7.070312 1.429687-5.332031-1.734375-10.8125-7.066406-12.242188zm0 0"/><path d="m293.410156 136.464844-11.15625 33.015625c-3.984375 11.824219-1.640625 24.71875 6.277344 34.492187 7.878906 9.730469 19.992188 14.675782 32.417969 13.230469l34.503906-4.082031 26.152344 19.527344c6.664062 5.597656 14.839843 8.519531 23.230469 8.519531 4.023437 0 8.097656-.671875 12.078124-2.042969 12.324219-4.246094 21.222657-14.40625 23.808594-27.210938l6.792969-34.160156 26.039063-18.402344c11.179687-6.691406 17.773437-18.476562 17.667968-31.621093-.105468-13.230469-7.066406-24.992188-18.613281-31.460938l-30.320313-16.980469-10.089843-32.496093c-3.558594-12.125-12.988281-21.390625-25.25-24.792969-12.234375-3.394531-25.097657-.273438-34.402344 8.34375l-25.386719 23.46875-34.738281-.371094c-12.507813-.191406-24.082031 6.042969-30.953125 16.617188-6.839844 10.523437-7.792969 23.601562-2.546875 34.972656zm4.824219-55.511719c3.105469-4.785156 8.269531-7.59375 13.945313-7.519531l38.738281.414062c2.5625.003906 5.019531-.921875 6.894531-2.65625l28.3125-26.171875c4.25-3.9375 9.890625-5.304687 15.476562-3.753906 5.566407 1.542969 9.835938 5.730469 11.421876 11.195313.015624.0625.035156.121093.050781.179687l11.300781 36.390625c.757812 2.445312 2.429688 4.503906 4.664062 5.757812l33.796876 18.929688c5.285156 2.957031 8.34375 8.125 8.390624 14.175781.050782 6.035157-2.992187 11.425781-8.132812 14.414063-.257812.148437-.503906.308594-.746094.476562l-29.628906 20.941406c-2.09375 1.476563-3.539062 3.703126-4.035156 6.214844l-7.570313 38.042969c-1.175781 5.835937-5.082031 10.292969-10.710937 12.234375-5.617188 1.933594-11.621094.816406-16.066406-2.992188-.167969-.144531-.34375-.28125-.519532-.414062l-29.597656-22.101562c-1.734375-1.296876-3.835938-1.984376-5.980469-1.984376-.390625 0-.78125.019532-1.175781.066407l-38.445312 4.550781c-5.648438.65625-10.953126-1.511719-14.550782-5.953125-3.582031-4.421875-4.652344-10.226563-2.867187-15.519531l12.429687-36.773438c.816406-2.421875.675782-5.066406-.394531-7.386718l-16.160156-35.050782c-2.382813-5.179687-1.960938-10.90625 1.160156-15.707031zm0 0"/><path d="m352.144531 117.800781c.917969.261719 1.84375.386719 2.75.386719 4.351563 0 8.355469-2.863281 9.613281-7.257812 1.515626-5.308594-1.558593-10.839844-6.867187-12.359376-5.308594-1.515624-10.84375 1.558594-12.359375 6.867188l-.003906.007812c-1.515625 5.308594 1.558594 10.839844 6.867187 12.355469zm0 0"/><path d="m405.914062 132.210938c.863282.226562 1.730469.339843 2.582032.339843 4.417968 0 8.460937-2.957031 9.65625-7.429687 1.421875-5.335938-1.75-10.8125-7.085938-12.234375-5.332031-1.421875-10.8125 1.75-12.234375 7.082031l-.003906.007812c-1.421875 5.335938 1.75 10.808594 7.085937 12.234376zm0 0"/><path d="m366.609375 171.644531c2.59375.695313 5.234375 1.035157 7.859375 1.035157 8 0 15.832031-3.144532 21.621094-8.929688 3.902344-3.90625 3.902344-10.234375 0-14.140625-3.90625-3.90625-10.234375-3.902344-14.140625 0-2.648438 2.648437-6.542969 3.691406-10.164063 2.722656-3.617187-.96875-6.46875-3.820312-7.4375-7.4375-1.429687-5.335937-6.910156-8.5-12.246094-7.070312-5.332031 1.429687-8.496093 6.910156-7.070312 12.246093 2.816406 10.496094 11.082031 18.765626 21.578125 21.574219zm0 0"/><path d="m59.039062 193.066406c-5.410156-1.085937-10.683593 2.429688-11.765624 7.84375v.007813c-1.082032 5.414062 2.429687 10.675781 7.84375 11.757812.660156.132813 1.320312.199219 1.96875.199219 4.667968 0 8.84375-3.292969 9.792968-8.042969 1.085938-5.414062-2.425781-10.683593-7.839844-11.765625zm0 0"/><path d="m272.03125 457.828125c4.351562 0 8.355469-2.867187 9.609375-7.257813 1.519531-5.308593-1.554687-10.84375-6.863281-12.359374-5.308594-1.515626-10.84375 1.558593-12.359375 6.867187l-.003907.007813c-1.515624 5.308593 1.558594 10.839843 6.867188 12.355468.917969.261719 1.839844.386719 2.75.386719zm0 0"/><path d="m400.003906 405.839844c4.417969 0 8.464844-2.957032 9.65625-7.429688 1.421875-5.332031-1.75-10.8125-7.085937-12.234375-5.332031-1.417969-10.8125 1.75-12.234375 7.085938l-.003906.003906c-1.421876 5.335937 1.75 10.8125 7.085937 12.234375.863281.230469 1.730469.339844 2.582031.339844zm0 0"/><path d="m119.257812 344.878906v.003906c-1.082031 5.417969 2.429688 10.679688 7.84375 11.761719.660157.132813 1.316407.199219 1.96875.199219 4.667969 0 8.84375-3.292969 9.792969-8.042969 1.085938-5.414062-2.425781-10.683593-7.84375-11.765625-5.410156-1.085937-10.679687 2.429688-11.761719 7.84375zm0 0"/><path d="m75.144531 73.945312c-3.902343 3.902344-3.902343 10.234376 0 14.136719 1.953125 1.953125 4.511719 2.929688 7.070313 2.929688s5.117187-.976563 7.070312-2.929688l.003906-.003906c3.902344-3.90625 3.902344-10.230469-.003906-14.136719-3.902344-3.902344-10.234375-3.902344-14.140625.003906zm0 0"/><path d="m234.617188 133.222656c-5.335938-1.417968-10.816407 1.75-12.238282 7.085938v.003906c-1.425781 5.335938 1.75 10.8125 7.082032 12.234375.863281.230469 1.730468.339844 2.582031.339844 4.421875 0 8.464843-2.957031 9.65625-7.425781 1.421875-5.335938-1.75-10.816407-7.082031-12.238282zm0 0"/><path d="m362.019531 248.613281c0-5.519531-4.476562-9.996093-9.996093-9.996093-5.523438 0-10 4.476562-10 9.996093v12.75c0 5.519531 4.476562 9.996094 10 9.996094 5.519531 0 9.996093-4.476563 9.996093-9.996094zm0 0"/><path d="m352.023438 295.855469c-5.523438 0-10 4.476562-10 9.996093v12.746094c0 5.523438 4.476562 10 10 10 5.519531 0 9.996093-4.476562 9.996093-10v-12.746094c0-5.519531-4.476562-9.996093-9.996093-9.996093zm0 0"/><path d="m317.03125 273.609375c-5.523438 0-10 4.476563-10 9.996094 0 5.523437 4.476562 10 10 10h12.746094c5.523437 0 10-4.476563 10-10 0-5.519531-4.476563-9.996094-10-9.996094zm0 0"/><path d="m374.269531 273.609375c-5.523437 0-10 4.476563-10 9.996094 0 5.523437 4.476563 10 10 10h12.746094c5.523437 0 9.996094-4.476563 9.996094-10 0-5.519531-4.472657-9.996094-9.996094-9.996094zm0 0"/><path d="m44.988281 32.742188c5.523438 0 10-4.476563 10-9.996094v-12.75c0-5.519532-4.476562-9.996094-10-9.996094-5.519531 0-9.996093 4.476562-9.996093 9.996094v12.75c0 5.519531 4.476562 9.996094 9.996093 9.996094zm0 0"/><path d="m44.988281 89.980469c5.523438 0 10-4.476563 10-9.996094v-12.75c0-5.519531-4.476562-9.996094-10-9.996094-5.519531 0-9.996093 4.476563-9.996093 9.996094v12.75c0 5.519531 4.476562 9.996094 9.996093 9.996094zm0 0"/><path d="m9.996094 54.988281h12.75c5.519531 0 9.996094-4.476562 9.996094-10 0-5.519531-4.476563-9.996093-9.996094-9.996093h-12.75c-5.519532 0-9.996094 4.476562-9.996094 9.996093 0 5.523438 4.476562 10 9.996094 10zm0 0"/><path d="m67.234375 54.988281h12.75c5.519531 0 9.996094-4.476562 9.996094-10 0-5.519531-4.476563-9.996093-9.996094-9.996093h-12.75c-5.519531 0-9.996094 4.476562-9.996094 9.996093 0 5.523438 4.476563 10 9.996094 10zm0 0"/></svg>