<svg id="Capa_1" enable-background="new 0 0 512 512" viewBox="0 0 512 512" xmlns="http://www.w3.org/2000/svg"><g><g><path d="m306.588 14.379 75.033 75.033v15.588h-95.621v-90.621z" fill="#fff"/><path d="m46 10h250c8.284 0 15 6.716 15 15v60h60c8.284 0 15 6.716 15 15v402h-340z" fill="#fff"/><path d="m96 232h240v40h-240z" fill="#99ebfa"/><path d="m96 187v5h130v-5c0-35.898-29.101-65-65-65-35.899 0-65 29.101-65 65z" fill="#ffda8f"/><circle cx="161" cy="87" fill="#ffdcd5" r="35"/><circle cx="386" cy="382" fill="#99ebfa" r="80"/></g><g><path d="m276 162h60c5.522 0 10-4.477 10-10s-4.478-10-10-10h-60c-5.522 0-10 4.477-10 10s4.478 10 10 10z"/><path d="m276 202h60c5.522 0 10-4.477 10-10s-4.478-10-10-10h-60c-5.522 0-10 4.477-10 10s4.478 10 10 10z"/><path d="m86 272c0 5.523 4.478 10 10 10h240c5.522 0 10-4.477 10-10v-40c0-5.523-4.478-10-10-10h-240c-5.522 0-10 4.477-10 10zm20-30h220v20h-220z"/><path d="m96 322h170c5.522 0 10-4.477 10-10s-4.478-10-10-10h-170c-5.522 0-10 4.477-10 10s4.478 10 10 10z"/><path d="m96 362h170c5.522 0 10-4.477 10-10s-4.478-10-10-10h-170c-5.522 0-10 4.477-10 10s4.478 10 10 10z"/><path d="m96 402h90c5.522 0 10-4.477 10-10s-4.478-10-10-10h-90c-5.522 0-10 4.477-10 10s4.478 10 10 10z"/><path d="m86 187v5c0 5.523 4.478 10 10 10h130c5.522 0 10-4.477 10-10v-5c0-30.067-17.784-56.058-43.385-68.007 8.259-8.163 13.385-19.49 13.385-31.993 0-24.813-20.187-45-45-45s-45 20.187-45 45c0 12.503 5.126 23.83 13.385 31.993-25.601 11.949-43.385 37.94-43.385 68.007zm50-100c0-13.785 11.215-25 25-25s25 11.215 25 25-11.215 25-25 25-25-11.215-25-25zm25 45c28.643 0 52.241 22.006 54.774 50h-109.548c2.533-27.994 26.131-50 54.774-50z"/><path d="m476 382c0-46.246-35.062-84.458-80-89.448v-192.552c0-6.686-2.638-12.768-6.929-17.258-.122-.136-75.68-75.694-75.818-75.817-4.489-4.288-10.569-6.925-17.253-6.925h-250c-5.522 0-10 4.477-10 10v202c0 5.523 4.478 10 10 10s10-4.477 10-10v-192h240c1.366 0 2.606.551 3.51 1.443.002.002.004.005.007.007l.048.048c.887.902 1.435 2.139 1.435 3.502v60c0 5.523 4.478 10 10 10h60c1.363 0 2.6.548 3.503 1.436l.047.047c.002.002.005.005.007.007.892.903 1.443 2.143 1.443 3.51v192.552c-44.938 4.99-80 43.201-80 89.448s35.062 84.458 80 89.448v20.552h-320v-190c0-5.523-4.478-10-10-10s-10 4.477-10 10v200c0 5.523 4.478 10 10 10h340c5.522 0 10-4.477 10-10v-30.552c44.938-4.99 80-43.202 80-89.448zm-155-307v-32.067l32.067 32.067zm65 377c-38.598 0-70-31.402-70-70s31.402-70 70-70 70 31.402 70 70-31.402 70-70 70z"/><path d="m421 372h-25v-25c0-5.523-4.478-10-10-10s-10 4.477-10 10v25h-25c-5.522 0-10 4.477-10 10s4.478 10 10 10h25v25c0 5.523 4.478 10 10 10s10-4.477 10-10v-25h25c5.522 0 10-4.477 10-10s-4.478-10-10-10z"/><circle cx="46" cy="257" r="10"/></g></g><g/><g/><g/><g/><g/><g/><g/><g/><g/><g/><g/><g/><g/><g/><g/></svg>