<svg id="Capa_1" enable-background="new 0 0 511.962 511.962" height="512" viewBox="0 0 511.962 511.962" width="512" xmlns="http://www.w3.org/2000/svg"><path id="XMLID_2043_" d="m117.981 501.962v-491.962h296l64 63.962v428z" fill="#eff3f3"/><path id="XMLID_1227_" d="m313.981 287.962h-40v-84h-28v-40h68z" fill="#f5737f"/><path id="XMLID_1220_" d="m273.981 83.962h40v40h-40z" fill="#f5737f"/><path id="XMLID_2042_" d="m413.981 9.962v64h64z" fill="#ffe6c0"/><path id="XMLID_2946_" d="m337.981 341.962h-264c-22.091 0-40 17.909-40 40v80c0 22.091 17.909 40 40 40h264c22.091 0 40-17.909 40-40v-80c0-22.091-17.909-40-40-40z" fill="#d8ec84"/><path id="XMLID_1383_" d="m485.05 66.889-64-63.962c-1.875-1.874-4.418-2.927-7.069-2.927h-296c-5.523 0-10 4.478-10 10v321.962h-34c-27.57 0-50 22.43-50 50v80c0 27.57 22.43 50 50 50h264 140c5.523 0 10-4.478 10-10v-200.873c0-5.522-4.477-10-10-10s-10 4.478-10 10v190.873h-90.027c6.292-8.363 10.027-18.752 10.027-30v-80c0-27.57-22.43-50-50-50h-210v-311.962h276v53.962c0 5.523 4.477 10 10 10h54v127.127c0 5.522 4.477 10 10 10s10-4.478 10-10v-137.127c0-2.653-1.054-5.197-2.931-7.073zm-117.069 315.073v80c0 16.542-13.458 30-30 30h-264c-16.542 0-30-13.458-30-30v-80c0-16.542 13.458-30 30-30h264c16.542 0 30 13.458 30 30zm56-347.83 29.848 29.83h-29.848z"/><path id="XMLID_1394_" d="m477.981 246.092c-2.63 0-5.21 1.06-7.07 2.93-1.86 1.86-2.93 4.431-2.93 7.07 0 2.63 1.07 5.21 2.93 7.07 1.86 1.859 4.44 2.93 7.07 2.93s5.21-1.07 7.07-2.93 2.93-4.44 2.93-7.07c0-2.64-1.07-5.21-2.93-7.07-1.86-1.871-4.44-2.93-7.07-2.93z"/><path id="XMLID_1418_" d="m90.819 372.425c-4.163 1.312-6.994 5.173-6.994 9.537v80c0 5.522 4.477 10 10 10s10-4.478 10-10v-48.276l37.808 54.011c1.907 2.725 4.992 4.267 8.193 4.267 1.001 0 2.014-.151 3.005-.464 4.163-1.312 6.994-5.173 6.994-9.537v-80c0-5.522-4.477-10-10-10s-10 4.478-10 10v48.276l-37.808-54.011c-2.502-3.577-7.036-5.115-11.198-3.803z"/><path id="XMLID_1420_" d="m190.137 471.962c5.523 0 10-4.478 10-10v-30h34c5.523 0 10-4.478 10-10s-4.477-10-10-10h-34v-6.092-13.908h34c5.523 0 10-4.478 10-10s-4.477-10-10-10h-44c-5.523 0-10 4.478-10 10v23.908 16.092 40c0 5.522 4.477 10 10 10z"/><path id="XMLID_1424_" d="m296.137 471.962c17.645 0 32-14.355 32-32v-36c0-17.645-14.355-32-32-32s-32 14.355-32 32v36c0 17.644 14.355 32 32 32zm-12-68c0-6.617 5.383-12 12-12s12 5.383 12 12v36c0 6.617-5.383 12-12 12s-12-5.383-12-12z"/><path id="XMLID_1449_" d="m273.981 297.962h40c5.523 0 10-4.478 10-10v-124c0-5.522-4.477-10-10-10h-68c-5.523 0-10 4.478-10 10v40c0 5.522 4.477 10 10 10h18v74c0 5.522 4.477 10 10 10zm-18-104v-20h48v104h-20v-74c0-5.522-4.477-10-10-10z"/><path id="XMLID_1464_" d="m323.981 83.962c0-5.522-4.477-10-10-10h-40c-5.523 0-10 4.478-10 10v40c0 5.522 4.477 10 10 10h40c5.523 0 10-4.478 10-10zm-20 30h-20v-20h20z"/></svg>