<svg id="Capa_1" enable-background="new 0 0 499.979 499.979" height="512" viewBox="0 0 499.979 499.979" width="512" xmlns="http://www.w3.org/2000/svg"><g><g><path d="m458.658 60.074v342.13 7.09c0 11.55-9.36 20.91-20.91 20.91l-391.415-9.295c-11.55 0-20.91-9.36-20.91-20.91l-2.124-340.455 219.174-13.976z" fill="#fece85"/><path d="m458.658 28.414v31.66h-440.514l-.353-28.694c0-11.55 7.509-20.894 19.059-20.894l8.138-2.982h392.76c11.55 0 20.91 9.36 20.91 20.91z" fill="#918291"/><path d="m54.988 402.204c-5.523 0-10-4.477-10-10v-332.13l-13.714-7.164-16.286 7.164v349.22c0 11.548 9.362 20.91 20.91 20.91h392.221c-1.161-9.691-3.615-19.264-7.701-28z" fill="#fdb97e"/><path d="m44.988 7.504v52.57h-30v-31.66c0-11.55 9.36-20.91 20.91-20.91z" fill="#7a6d79"/><circle cx="236.826" cy="244.983" fill="#dfeef4" r="115.495"/><ellipse cx="236.826" cy="244.983" fill="#f2fbff" rx="87.517" ry="87.517" transform="matrix(.189 -.982 .982 .189 -48.522 431.207)"/><path d="m357.106 352.508h37.638v61.157h-37.638z" fill="#7a6d79" transform="matrix(.707 -.707 .707 .707 -160.776 377.861)"/><path d="m374.755 412.521 9.563-12.176 21.478-21.465c4.067-4.064 10.66-4.064 14.727 0l54.401 54.784c9.89 9.884 12.492 24.295 7.804 36.56 0 0-6.117 7.208-9.647 10.735l-.208.208c-13.42 13.412-33.38 9.883-46.8-3.529l-51.318-50.4c-4.066-4.064-4.066-10.653 0-14.717z" fill="#918291"/><path d="m291.545 358.781 62.08-62.043 6.819 16.456 16.632 6.981 1.622 1.621c9.288 9.282 9.288 24.337 0 33.619l-28.508 28.491-6.494.767c-9.28 9.274-20.508 6.874-29.788-2.4z" fill="#f2fbff"/><path d="m482.728 470.224c-1.67 4.38-4.27 8.48-7.8 12.01l-.21.21c-13.42 13.41-35.18 13.41-48.6 0l-54.4-54.79c-4.07-4.06-4.07-10.65 0-14.72l12.6-12.59 61.8 62.1c9.9 9.89 24.33 12.49 36.61 7.78z" fill="#7a6d79"/><path d="m338.037 371.979 12.151 11.925-2.78 2.78c-9.278 9.278-24.321 9.278-33.6 0l-1.6-1.6-23.49-23.47 19.19-19.19 45.72-45.69 23.45 23.44c-9.804 18.204-23.058 34.29-38.873 47.371-1.363 1.128-1.429 3.196-.168 4.434z" fill="#dfeef4"/><path d="m236.826 103.885c-34.426 0-65.973 12.313-90.474 32.773-5.815 5.472-10.72 10.954-15.832 16.911-21.177 24.677-29.576 56.354-29.576 91.414 0 77.928 57.907 130.849 135.882 130.849 43.593 0 79.147-9.892 108.462-40.527 20.426-24.472 32.721-55.96 32.721-90.322 0-77.928-63.208-141.098-141.183-141.098zm0 245.615c-57.76 0-104.58-46.792-104.58-104.517s46.821-104.517 104.58-104.517 104.58 46.792 104.58 104.517-46.821 104.517-104.58 104.517z" fill="#918291"/><path d="m345.288 335.304c-25.89 31.04-64.87 50.78-108.46 50.78-77.98 0-141.19-63.17-141.19-141.1 0-43.53 19.72-82.45 50.72-108.32-20.43 24.47-32.72 55.96-32.72 90.32 0 77.93 63.21 141.1 141.19 141.1 34.41 0 65.96-12.31 90.46-32.78z" fill="#7a6d79"/><path d="m260.426 243.568 34.272-34.251c2.45-2.449 2.45-6.42 0-8.869l-13.311-13.303c-2.451-2.449-6.423-2.449-8.874 0l-34.274 34.253c-.781.78-2.047.78-2.828 0l-34.274-34.253c-2.451-2.449-6.423-2.449-8.874 0l-13.311 13.303c-2.45 2.449-2.45 6.42 0 8.869l34.272 34.251c.782.781.782 2.048 0 2.829l-34.272 34.251c-2.45 2.449-2.45 6.42 0 8.869l13.311 13.303c2.451 2.449 6.423 2.449 8.874 0l34.274-34.253c.781-.78 2.047-.78 2.828 0l34.274 34.253c2.451 2.449 6.423 2.449 8.874 0l13.311-13.303c2.45-2.449 2.45-6.42 0-8.869l-34.272-34.251c-.782-.781-.782-2.048 0-2.829z" fill="#fe99a0"/></g><g><path d="m46.786 26.289c-4.142 0-7.495 3.358-7.495 7.5s3.363 7.5 7.505 7.5c4.143 0 7.5-3.358 7.5-7.5s-3.357-7.5-7.5-7.5z"/><path d="m78.16 26.289c-4.142 0-7.495 3.358-7.495 7.5s3.363 7.5 7.505 7.5c4.143 0 7.5-3.358 7.5-7.5s-3.357-7.5-7.5-7.5z"/><path d="m109.534 26.289c-4.142 0-7.495 3.358-7.495 7.5s3.363 7.5 7.505 7.5c4.143 0 7.5-3.358 7.5-7.5s-3.357-7.5-7.5-7.5z"/><path d="m480.246 428.379-14.084-14.183v-385.786c0-15.666-12.745-28.41-28.41-28.41h-401.853c-15.665 0-28.409 12.745-28.409 28.41v286.344c0 4.142 3.357 7.5 7.5 7.5s7.5-3.358 7.5-7.5v-247.176h322.615c4.143 0 7.5-3.358 7.5-7.5s-3.357-7.5-7.5-7.5h-322.615v-24.168c0-7.395 6.016-13.41 13.409-13.41h401.854c7.395 0 13.41 6.016 13.41 13.41v24.168h-71.058c-4.143 0-7.5 3.358-7.5 7.5s3.357 7.5 7.5 7.5h71.058v331.513l-25.338-25.516c-6.451-6.446-16.63-6.925-23.65-1.464l-15.045-15.036c3.916-5.326 6.035-11.734 6.035-18.47 0-8.354-3.255-16.208-9.164-22.115l-11.272-11.264c8.208-18.424 12.781-38.809 12.781-60.244 0-81.938-66.699-148.598-148.684-148.598s-148.684 66.661-148.684 148.599c0 81.937 66.699 148.598 148.684 148.598 21.503 0 41.952-4.592 60.424-12.837l11.256 11.25c6.094 6.091 14.097 9.136 22.102 9.135 6.869-.001 13.736-2.251 19.397-6.737l14.939 14.93c-2.441 3.128-3.778 6.947-3.778 10.977 0 .814.073 1.615.179 2.409h-325.446c-7.394 0-13.409-6.016-13.409-13.41v-58.715c0-4.142-3.357-7.5-7.5-7.5s-7.5 3.358-7.5 7.5v58.715c0 15.665 12.744 28.41 28.409 28.41h335.226l18.693 18.825c2.922 2.941 7.671 2.956 10.606.037 2.939-2.918 2.956-7.667.038-10.606l-23.445-23.61c-.741-.741-.852-1.605-.852-2.055 0-.449.11-1.313.852-2.054l34.08-34.059c1.137-1.136 2.985-1.138 4.103-.02l54.422 54.804c5.073 5.07 7.867 11.811 7.867 18.979 0 7.169-2.794 13.91-7.875 18.988l-.2.2c-10.476 10.468-27.521 10.469-37.975.021l-6.302-6.347c-2.919-2.939-7.666-2.956-10.606-.038-2.939 2.918-2.956 7.667-.038 10.607l6.322 6.367c8.161 8.155 18.877 12.233 29.598 12.232s21.447-4.081 29.612-12.241l.2-.201c7.908-7.903 12.264-18.412 12.264-29.589.001-11.177-4.355-21.685-12.243-29.569zm-104.801-29.77-14.678-14.669 16.012-16.002 14.678 14.669zm-272.303-153.626c0-73.667 59.971-133.598 133.684-133.598s133.684 59.932 133.684 133.598-59.971 133.598-133.684 133.598-133.684-59.932-133.684-133.598zm215.968 136.401-7.825-7.82c22.477-13.052 41.237-31.817 54.274-54.296l7.839 7.834c3.074 3.073 4.768 7.159 4.768 11.505 0 4.347-1.693 8.433-4.768 11.505l-31.292 31.273c-6.341 6.336-16.657 6.334-22.996-.001z"/><path d="m236.825 132.965c-13.869 0-27.408 2.503-40.243 7.439-3.866 1.487-5.795 5.826-4.308 9.692 1.486 3.865 5.822 5.795 9.692 4.308 11.109-4.273 22.838-6.439 34.858-6.439 53.53 0 97.081 43.522 97.081 97.018s-43.549 97.017-97.08 97.017-97.08-43.521-97.08-97.017c0-28.3 12.325-55.123 33.816-73.592 3.141-2.7 3.499-7.435.8-10.576-2.699-3.142-7.434-3.499-10.577-.8-24.81 21.321-39.039 52.291-39.039 84.968 0 61.767 50.279 112.017 112.08 112.017 61.802 0 112.081-50.25 112.081-112.017s-50.279-112.018-112.081-112.018z"/><path d="m304.035 204.882c0-3.68-1.434-7.139-4.036-9.739l-13.311-13.303c-5.368-5.366-14.105-5.367-19.478 0l-30.386 30.367-30.386-30.367c-5.367-5.366-14.104-5.367-19.478 0l-13.311 13.303c-2.603 2.601-4.036 6.06-4.036 9.739s1.434 7.138 4.036 9.739l30.38 30.361-30.38 30.361c-2.603 2.601-4.036 6.06-4.036 9.739s1.434 7.138 4.036 9.739l13.312 13.304c2.686 2.682 6.212 4.023 9.738 4.023s7.054-1.342 9.738-4.025l30.386-30.367 30.387 30.369c5.371 5.364 14.107 5.365 19.477-.001l13.31-13.301c2.604-2.602 4.037-6.061 4.037-9.74s-1.434-7.139-4.036-9.74l-30.38-30.36 30.379-30.36c2.605-2.602 4.038-6.061 4.038-9.741zm-50.327 34.796c-1.407 1.406-2.198 3.315-2.198 5.305s.791 3.898 2.198 5.305l34.816 34.795-11.575 11.568-34.822-34.802c-2.928-2.927-7.676-2.927-10.604 0l-34.822 34.802-11.575-11.568 34.816-34.795c1.407-1.407 2.198-3.315 2.198-5.305s-.791-3.898-2.198-5.305l-34.816-34.796 11.575-11.568 34.822 34.802c2.928 2.927 7.676 2.927 10.604 0l34.822-34.802 11.575 11.568z"/></g></g></svg>