<svg id="Capa_1" enable-background="new 0 0 512 512" height="512" viewBox="0 0 512 512" width="512" xmlns="http://www.w3.org/2000/svg"><circle id="XMLID_1732_" cx="256" cy="73" fill="#e1e3e9" r="28"/><path id="XMLID_1730_" d="m419.818 467h42.182c22.091 0 40-17.909 40-40v-159.999c0-22.091-17.909-40-40-40h-412c-22.091 0-40 17.909-40 40v159.999c0 22.091 17.909 40 40 40h289.553z" fill="#91def5"/><path id="XMLID_155_" d="m462 217h-44.958l-127.047-127.048c2.557-5.107 4.005-10.862 4.005-16.952 0-20.953-17.047-38-38-38s-38 17.047-38 38c0 6.09 1.448 11.845 4.005 16.952l-127.048 127.048h-44.957c-27.57 0-50 22.43-50 50v160c0 27.57 22.43 50 50 50h161.063c5.522 0 10-4.477 10-10s-4.478-10-10-10h-161.063c-16.542 0-30-13.458-30-30v-160c0-16.542 13.458-30 30-30h412c16.542 0 30 13.458 30 30v160c0 16.542-13.458 30-30 30h-160.937c-5.522 0-10 4.477-10 10s4.478 10 10 10h160.937c27.57 0 50-22.43 50-50v-160c0-27.57-22.43-50-50-50zm-206-162c9.925 0 18 8.075 18 18s-8.075 18-18 18-18-8.075-18-18 8.075-18 18-18zm-20.639 49.882c5.948 3.864 13.033 6.118 20.639 6.118s14.691-2.255 20.639-6.119l112.119 112.119h-265.516z"/><path id="XMLID_1156_" d="m256.066 456.94c-2.63 0-5.21 1.06-7.069 2.92-1.87 1.86-2.931 4.44-2.931 7.08 0 2.63 1.061 5.21 2.931 7.07 1.859 1.86 4.43 2.93 7.069 2.93 2.631 0 5.211-1.07 7.07-2.93 1.86-1.86 2.93-4.44 2.93-7.07 0-2.64-1.069-5.21-2.93-7.08-1.869-1.86-4.439-2.92-7.07-2.92z"/><path id="XMLID_1192_" d="m98.853 331.441v31.119c0 18.991 15.45 34.44 34.44 34.44s34.44-15.45 34.44-34.44v-31.119c0-18.991-15.45-34.441-34.44-34.441s-34.44 15.45-34.44 34.441zm48.88 0v31.119c0 7.962-6.478 14.44-14.44 14.44s-14.44-6.478-14.44-14.44v-31.119c0-7.963 6.478-14.441 14.44-14.441s14.44 6.478 14.44 14.441z"/><path id="XMLID_1206_" d="m253.281 325.003c0-15.441-12.563-28.003-28.003-28.003h-27.461c-5.522 0-10 4.477-10 10v20 20 40c0 5.523 4.478 10 10 10s10-4.477 10-10v-30h17.461c15.44 0 28.003-12.562 28.003-28.002zm-20 3.995c0 4.413-3.59 8.002-8.003 8.002h-17.461v-10-10h17.461c4.413 0 8.003 3.59 8.003 8.003z"/><path id="XMLID_1207_" d="m315.147 396.994c5.522 0 10-4.477 10-10s-4.478-10-10-10h-21.473c-.198 0-.359-.161-.359-.359v-19.635h11.73c5.522 0 10-4.477 10-10s-4.478-10-10-10h-11.73v-19.634c0-.198.161-.359.359-.359h21.473c5.522 0 10-4.477 10-10s-4.478-10-10-10h-21.473c-11.227 0-20.359 9.133-20.359 20.359v59.269c0 11.226 9.133 20.359 20.359 20.359z"/><path id="XMLID_1208_" d="m365.147 387v-43.897l29.425 49.042c1.84 3.066 5.127 4.856 8.575 4.856.886 0 1.783-.119 2.669-.364 4.332-1.2 7.331-5.143 7.331-9.637v-80c0-5.523-4.478-10-10-10s-10 4.477-10 10v43.897l-29.425-49.042c-2.313-3.853-6.911-5.692-11.244-4.492-4.332 1.2-7.331 5.143-7.331 9.637v80c0 5.523 4.478 10 10 10s10-4.477 10-10z"/></svg>