<svg id="Capa_1" enable-background="new 0 0 512 512" viewBox="0 0 512 512" xmlns="http://www.w3.org/2000/svg"><g><path d="m283.784 502c0-15.345-12.44-27.784-27.784-27.784s-27.784 12.44-27.784 27.784h-218.216v-338.369h48 395.958 48.042v338.369z" fill="#ff7d97"/><path d="m256 455.63h98.979 98.979v-39.998h-157.96c-22.09-.001-39.998 17.907-39.998 39.998z" fill="#ffda8f"/><path d="m256 455.63h-98.979-98.979v-39.998h157.96c22.09-.001 39.998 17.907 39.998 39.998z" fill="#ffda8f"/><path id="XMLID_780_" d="m58 415.631h158.002c22.09 0 39.998 17.908 39.998 39.998v-312.998c0-22.091-17.909-40-40-40h-158v155z" fill="#ffe6b4"/><path id="XMLID_770_" d="m256.127 125.939c-31.91-49.554-77.688-72.129-155.376-72.129v314.223c77.688 0 123.466 22.575 155.376 72.129z" fill="#fff3da"/><g><path id="XMLID_678_" d="m256 455.629c0-62.131-50.367-127.617-112.498-127.617v-318.012c62.131 0 112.498 65.486 112.498 127.617z" fill="#fff3da"/></g><path id="XMLID_779_" d="m453.958 254.298v161.333h-157.96c-22.09 0-39.998 17.908-39.998 39.998v-312.998c0-22.091 17.909-40 40-40h157.958v155z" fill="#ffe6b4"/><g><path id="XMLID_772_" d="m256 455.629c0-56.023 64.683-115.071 144.473-115.071v-286.749c-79.79 0-144.473 59.049-144.473 115.072z" fill="#fff"/></g><g><path d="m374.03 425.63c.66 0 1.31-.07 1.96-.19 12.885-3.071 9.154-21.733-3.91-19.61-11.727 2.569-10.053 19.556 1.95 19.8z"/><path d="m502 153.631h-38v-51c0-5.523-4.477-10-10-10h-43.527v-38.821c0-5.523-4.477-10-10-10-39.916 0-78.469 13.794-108.556 38.842-11.343 9.443-20.795 19.967-28.125 31.093-4.566-24.997-16.074-49.497-33.098-69.681-23.965-28.416-54.93-44.064-87.192-44.064-5.523 0-10 4.477-10 10v35.295c-10.262-.985-21.232-1.485-32.752-1.485-5.523 0-10 4.477-10 10v38.821h-32.75c-5.523 0-10 4.477-10 10v51h-38c-5.523 0-10 4.477-10 10v338.369c0 5.523 4.477 10 10 10h218.216c5.523 0 10-4.477 10-10 0-9.806 7.978-17.784 17.784-17.784s17.784 7.978 17.784 17.784c0 5.523 4.477 10 10 10h218.216c5.523 0 10-4.477 10-10v-338.369c0-5.523-4.477-10-10-10zm-391.25-89.686c7.952.219 15.555.705 22.751 1.449v262.618c0 5.523 4.477 10 10 10 26.268 0 51.804 13.125 71.904 36.957 5.236 6.208 9.864 12.878 13.841 19.859-9.025-7.261-18.784-13.372-29.382-18.361-24.134-11.362-53.364-17.376-89.114-18.306zm133.53 381.684h-176.238v-19.998h147.96c13.035 0 24.15 8.36 28.278 19.998zm-176.28-332.998h22.75v255.401c0 5.523 4.477 10 10 10 37.337 0 66.971 5.407 90.595 16.529 6.702 3.155 13.022 6.847 19.006 11.069h-142.351zm151.559 379.369h-199.559v-318.369h28l.042 281.998c0 5.523 4.477 10 10 10h187.736c-12.705 3.575-22.721 13.635-26.219 26.371zm26.441-108.149c-4.437-7.653-9.557-14.96-15.306-21.776-21.477-25.464-48.576-40.675-77.192-43.559v-297.881c22.689 2.886 44.367 15.529 61.904 36.322 19.443 23.053 30.594 52.452 30.594 80.66zm164.473-43.293v-227.927h33.527v293h-24.967c-5.523 0-10 4.477-10 10s4.477 10 10 10h24.926v19.998h-176.239c4.128-11.638 15.242-19.998 28.278-19.998h33.035c5.523 0 10-4.477 10-10s-4.477-10-10-10h-33.035c-4.344 0-8.559.559-12.581 1.605 5.794-7.932 12.938-15.508 21.295-22.466 26.502-22.062 60.51-34.212 95.76-34.212 5.524 0 10.001-4.477 10.001-10zm-144.473-171.677c0-24.55 14.11-50.377 38.713-70.859 23.986-19.968 54.12-31.816 85.76-33.886v266.711c-36.316 2.102-70.99 15.604-98.556 38.552-10.23 8.517-18.931 17.91-25.917 27.833zm226 323.119h-199.559c-3.499-12.736-13.515-22.796-26.219-26.371h187.736c5.523 0 10-4.477 10-10l.042-281.998h28z"/></g></g><g/><g/><g/><g/><g/><g/><g/><g/><g/><g/><g/><g/><g/><g/><g/></svg>