<svg id="Capa_1" enable-background="new 0 0 512 512" viewBox="0 0 512 512" xmlns="http://www.w3.org/2000/svg"><g><g><g><path clip-rule="evenodd" d="m502 453.422v-198.864c0-11.231-9.105-20.336-20.336-20.336h-451.328c-11.231 0-20.336 9.105-20.336 20.336v198.864c0 11.231 9.105 20.336 20.336 20.336h451.328c11.232-.001 20.336-9.105 20.336-20.336z" fill="#8cde92" fill-rule="evenodd"/></g><g><circle clip-rule="evenodd" cx="256" cy="73.114" fill="#fee6b9" fill-rule="evenodd" r="34.875"/></g></g><g><path d="m376.44 299.115c-4.178 1.302-7.023 5.17-7.023 9.547v90.825c0 5.523 4.478 10 10 10s10-4.477 10-10v-58.747l43.184 62.533c2.994 4.324 7.962 6.169 12.665 4.703 4.809-1.502 7.916-6.038 7.916-11.652l-.851-87.929c-.055-5.522-4.617-9.963-10.097-9.903-5.522.053-9.956 4.574-9.903 10.096l.581 59.939-45.267-65.548c-2.486-3.6-7.023-5.167-11.205-3.864z"/><path d="m336.995 318.908c5.522 0 10-4.477 10-10s-4.478-10-10-10h-37.991c-5.522 0-10 4.477-10 10v90.164c0 5.523 4.478 10 10 10h37.991c5.522 0 10-4.477 10-10s-4.478-10-10-10h-27.991v-25.082h25.189c5.522 0 10-4.477 10-10s-4.478-10-10-10h-25.189v-25.082z"/><path d="m265.685 334.171c0-19.673-16.231-35.679-36.182-35.679h-25.337c-5.373-.105-10.093 4.636-10 10v90.995c0 5.523 4.478 10 10 10s10-4.477 10-10v-29.58c5.446-.029 11.82-.057 15.337-.057 19.95 0 36.182-16.006 36.182-35.679zm-36.182 15.679c-3.503 0-9.794.028-15.217.057-.028-5.598-.074-25.575-.091-31.415h15.308c8.771 0 16.182 7.18 16.182 15.679s-7.411 15.679-16.182 15.679z"/><path d="m58.819 353.99c0 30.602 24.896 55.498 55.497 55.498s55.498-24.896 55.498-55.498-24.896-55.498-55.498-55.498-55.497 24.896-55.497 55.498zm90.995 0c0 19.573-15.925 35.498-35.498 35.498s-35.497-15.924-35.497-35.498 15.924-35.498 35.497-35.498 35.498 15.924 35.498 35.498z"/><path d="m481.665 224.222h-51.467l-135.542-128.353c3.945-6.677 6.219-14.453 6.219-22.755 0-24.745-20.131-44.875-44.876-44.875-24.744 0-44.875 20.131-44.875 44.875 0 8.31 2.279 16.094 6.232 22.776l-135.174 128.332h-51.846c-16.728 0-30.336 13.609-30.336 30.336v198.864c0 16.727 13.608 30.335 30.336 30.335h180.664c5.522 0 10-4.477 10-10s-4.478-10-10-10h-180.664c-5.699 0-10.336-4.637-10.336-10.335v-198.864c0-5.699 4.637-10.336 10.336-10.336h451.329c5.698 0 10.335 4.637 10.335 10.336v198.864c0 5.699-4.637 10.335-10.335 10.335h-180.665c-5.522 0-10 4.477-10 10s4.478 10 10 10h180.665c16.727 0 30.335-13.608 30.335-30.335v-198.864c0-16.727-13.608-30.336-30.335-30.336zm-225.665-175.983c13.717 0 24.876 11.159 24.876 24.875s-11.159 24.876-24.876 24.876c-13.716 0-24.875-11.159-24.875-24.875s11.159-24.876 24.875-24.876zm-24.904 62.184c7.13 4.775 15.697 7.566 24.904 7.566 9.217 0 17.791-2.796 24.926-7.58l120.013 113.812h-289.709z"/><path d="m265.236 469.928c-2.456-6.447-11.579-8.251-16.31-3.239-6.275 6.116-1.691 17.18 7.071 17.069 6.894.193 12.074-7.529 9.239-13.83z"/></g></g><g/><g/><g/><g/><g/><g/><g/><g/><g/><g/><g/><g/><g/><g/><g/></svg>