<?xml version="1.0" encoding="iso-8859-1"?>
<!-- Generator: Adobe Illustrator 19.0.0, SVG Export Plug-In . SVG Version: 6.00 Build 0)  -->
<svg version="1.1" id="Capa_1" xmlns="http://www.w3.org/2000/svg" xmlns:xlink="http://www.w3.org/1999/xlink" x="0px" y="0px"
	 viewBox="0 0 512 512" style="enable-background:new 0 0 512 512;" xml:space="preserve">
<path style="fill:#4DBAF6;" d="M408,198H104c-22.091,0-40,17.909-40,40v224c0,22.091,17.909,40,40,40h304c22.091,0,40-17.909,40-40
	V238C448,215.909,430.091,198,408,198z"/>
<path style="fill:#B3B6C3;" d="M256,10L256,10c-66.274,0-120,53.726-120,120v68h48v-68c0-39.764,32.235-72,72-72l0,0
	c39.765,0,72,32.235,72,72v68h48v-68C376,63.726,322.274,10,256,10z"/>
<path style="fill:#EDF2FA;" d="M296,322.153c0-22.468-18.525-40.61-41.134-39.984c-20.722,0.573-37.827,17.312-38.819,38.018
	c-0.703,14.674,6.508,27.712,17.731,35.226v40.211c0,12.273,9.949,22.222,22.222,22.222l0,0c12.273,0,22.222-9.949,22.222-22.222
	v-40.211C288.941,348.237,296,336.021,296,322.153z"/>
<path d="M184,150.25c-2.63,0-5.21,1.07-7.07,2.93c-1.86,1.86-2.93,4.44-2.93,7.07s1.069,5.21,2.93,7.07s4.44,2.93,7.07,2.93
	s5.21-1.07,7.069-2.93c1.86-1.86,2.931-4.44,2.931-7.07s-1.07-5.21-2.931-7.07C189.21,151.32,186.63,150.25,184,150.25z"/>
<path d="M254.59,272.173c-25.973,0.718-47.29,21.599-48.531,47.537c-0.758,15.838,5.791,30.675,17.719,40.684v35.231
	c0,17.768,14.455,32.222,32.223,32.222s32.223-14.455,32.223-32.222v-35.239C299.443,350.933,306,337.008,306,322.153
	c0-13.618-5.377-26.347-15.14-35.844C281.101,276.816,268.226,271.799,254.59,272.173z M272.659,347.104
	c-2.772,1.856-4.437,4.973-4.437,8.31v40.211c0,6.739-5.483,12.222-12.223,12.222s-12.223-5.483-12.223-12.222v-40.211
	c0-3.336-1.664-6.453-4.437-8.31c-8.841-5.919-13.814-15.802-13.306-26.438c0.745-15.551,13.53-28.069,29.107-28.5
	c0.287-0.008,0.573-0.012,0.859-0.012c7.865,0,15.264,2.997,20.913,8.493c5.858,5.699,9.085,13.337,9.085,21.507
	C286,332.184,281.013,341.511,272.659,347.104z"/>
<path d="M408,188h-22v-58C386,58.318,327.683,0,256,0S126,58.318,126,130v58h-22c-27.57,0-50,22.43-50,50v224
	c0,27.57,22.43,50,50,50h304c27.57,0,50-22.43,50-50V238C458,210.43,435.57,188,408,188z M146,130c0-60.654,49.346-110,110-110
	s110,49.346,110,110v58h-28v-58c0-45.215-36.785-82-82-82c-41.936,0-76.979,31.396-81.515,73.031
	c-0.598,5.49,3.368,10.426,8.858,11.024c5.481,0.594,10.426-3.368,11.024-8.858C197.796,91.729,224.292,68,256,68
	c34.187,0,62,27.813,62,62v58H146V130z M438,462c0,16.542-13.458,30-30,30H131.875v-95.591c0-5.523-4.478-10-10-10s-10,4.477-10,10
	V492H104c-16.542,0-30-13.458-30-30V238c0-16.542,13.458-30,30-30h304c16.542,0,30,13.458,30,30V462z"/>
<path d="M121.875,345.501c-5.522,0-10,4.477-10,10v0.15c0,5.523,4.478,10,10,10s10-4.477,10-10v-0.15
	C131.875,349.978,127.397,345.501,121.875,345.501z"/>
<g>
</g>
<g>
</g>
<g>
</g>
<g>
</g>
<g>
</g>
<g>
</g>
<g>
</g>
<g>
</g>
<g>
</g>
<g>
</g>
<g>
</g>
<g>
</g>
<g>
</g>
<g>
</g>
<g>
</g>
</svg>
