<svg height="512pt" viewBox="0 -20 512 512" width="512pt" xmlns="http://www.w3.org/2000/svg"><g fill="#ffb954"><path d="m433 389.738281h40v72h-40zm0 0"/><path d="m203 389.738281h40v72h-40zm0 0"/><path d="m219.332031 351.738281h282.667969v38h-282.667969zm0 0"/><path d="m502 249.238281c0-10.769531-8.730469-19.5-19.5-19.5h-256.046875c-7.28125 2.828125-12.453125 9.882813-12.453125 18.167969v60.5h288zm0 0"/></g><path d="m175.332031 245.90625c0-10.769531 8.730469-19.5 19.5-19.5h15.929688v-133.644531c0-18.949219-6.382813-36.402344-17.097657-50.355469-11.300781-5.789062-24.09375-9.074219-37.664062-9.074219-45.710938 0-82.761719 37.054688-82.761719 82.765625v134.210938c0 18.949218 6.382813 36.402344 17.097657 50.355468 11.300781 5.785157 24.09375 9.074219 37.664062 9.074219 17.605469 0 33.917969-5.515625 47.332031-14.890625zm0 0" fill="#a0e557"/><path d="m153.015625 444.246094c0-3.347656-.605469-6.554688-1.710937-9.519532-2.398438-.6875-4.921876-1.066406-7.539063-1.066406-.542969 0-1.078125.023438-1.613281.054688-2.9375-6.710938-7.691406-12.441406-13.632813-16.582032-.90625-.089843-1.824219-.136718-2.753906-.136718-.542969 0-1.078125.019531-1.613281.050781-.507813-1.15625-1.070313-2.28125-1.683594-3.378906-5.011719-2.308594-10.585938-3.597657-16.464844-3.597657-17.457031 0-32.257812 11.34375-37.457031 27.058594-3.933594-2.207031-8.464844-3.46875-13.296875-3.46875-15.050781.003906-27.25 12.203125-27.25 27.253906 0 .277344.027344.550782.035156.824219h118.621094c3.96875-4.734375 6.359375-10.832031 6.359375-17.492187zm0 0" fill="#62cd4d"/><path d="m45.238281 146.46875c2.632813 0 5.210938-1.070312 7.070313-2.929688 1.863281-1.859374 2.929687-4.441406 2.929687-7.070312s-1.066406-5.210938-2.929687-7.070312c-1.859375-1.859376-4.4375-2.929688-7.070313-2.929688-2.636719 0-5.207031 1.070312-7.066406 2.929688-1.871094 1.859374-2.933594 4.441406-2.933594 7.070312s1.0625 5.210938 2.933594 7.070312c1.859375 1.859376 4.429687 2.929688 7.066406 2.929688zm0 0"/><path d="m402 239.738281c2.628906 0 5.210938-1.070312 7.070312-2.929687 1.859376-1.859375 2.929688-4.441406 2.929688-7.070313 0-2.628906-1.070312-5.210937-2.929688-7.070312-1.859374-1.859375-4.441406-2.929688-7.070312-2.929688s-5.210938 1.070313-7.070312 2.929688c-1.859376 1.859375-2.929688 4.441406-2.929688 7.070312 0 2.628907 1.070312 5.210938 2.929688 7.070313 1.859374 1.859375 4.441406 2.929687 7.070312 2.929687zm0 0"/><path d="m502 319.738281c5.523438 0 10-4.476562 10-10v-60.5c0-16.265625-13.234375-29.5-29.5-29.5h-40.5c-5.523438 0-10 4.476563-10 10 0 5.523438 4.476562 10 10 10h40.5c5.238281 0 9.5 4.261719 9.5 9.5v50.5h-308v-50.5c0-5.238281 4.261719-9.5 9.5-9.5h168.5c5.523438 0 10-4.476562 10-10 0-5.523437-4.476562-10-10-10h-141.234375v-126.972656c0-51.152344-41.617187-92.765625-92.765625-92.765625s-92.765625 41.613281-92.765625 92.765625v3.703125c0 5.523438 4.480469 10 10 10 5.523437 0 10-4.476562 10-10v-3.703125c0-40.125 32.644531-72.765625 72.765625-72.765625s72.765625 32.640625 72.765625 72.765625v126.972656h-7.265625c-16.265625 0-29.5 13.234375-29.5 29.5v40.984375c-8.039062 4.585938-16.84375 7.566406-26 8.824219v-106.367187l39.523438-39.527344c3.90625-3.902344 3.90625-10.234375 0-14.140625s-10.238282-3.90625-14.140626 0l-25.382812 25.382812v-69.324219c0-5.523437-4.476562-10-10-10s-10 4.476563-10 10v38.023438l-17.613281-17.613281c-3.90625-3.902344-10.238281-3.902344-14.144531 0-3.902344 3.90625-3.902344 10.238281 0 14.144531l31.757812 31.757812v27.148438.007812 24.058594l-24.695312-24.699218c-3.90625-3.90625-10.238282-3.90625-14.144532 0s-3.90625 10.238281 0 14.144531l38.839844 38.839843v58.152344c-35.40625-4.890625-62.765625-35.332031-62.765625-72.0625v-50.503906c0-5.523438-4.476563-10-10-10-5.519531 0-10 4.476562-10 10v50.503906c0 47.773438 36.300781 87.222656 82.765625 92.222656v74.363282c-8.449219-6.449219-18.925781-10.15625-29.996094-10.15625-17.855468 0-33.960937 9.515625-42.691406 24.476562-2.636719-.582031-5.34375-.882812-8.058594-.882812-20.542968 0-37.253906 16.710937-37.253906 37.25 0 8.730468 3.085938 17.226562 8.691406 23.914062 1.902344 2.269532 4.707032 3.578125 7.664063 3.578125h130.300781c2.960938 0 5.765625-1.308593 7.667969-3.578125 5.605469-6.6875 8.691406-15.183594 8.691406-23.914062 0-16.253906-10.46875-30.101563-25.015625-35.175782v-89.871093c9.109375-.976563 17.976562-3.289063 26.351562-6.859375 1.148438 4.257812 5.027344 7.398437 9.648438 7.398437h39v20h-39c-5.523438 0-10 4.476563-10 10v40c0 5.519531 4.476562 10 10 10h19v62c0 5.519531 4.476562 10 10 10h40c5.523438 0 10-4.480469 10-10v-62h170v62c0 5.519531 4.476562 10 10 10h40c5.523438 0 10-4.480469 10-10v-62h19c5.523438 0 10-4.480469 10-10v-40c0-5.523437-4.476562-10-10-10h-39v-20zm-360.683594 132h-119.617187c-1.121094-2.308593-1.699219-4.84375-1.699219-7.492187 0-9.511719 7.738281-17.25 17.253906-17.25 2.984375 0 5.8125.734375 8.40625 2.1875 2.605469 1.460937 5.722656 1.679687 8.507813.601562 2.785156-1.082031 4.9375-3.347656 5.875-6.183594 3.996093-12.078124 15.234375-20.195312 27.960937-20.195312 11.699219 0 22.292969 6.929688 26.988282 17.652344 1.679687 3.832031 5.566406 6.222656 9.746093 5.972656.339844-.019531.683594-.035156 1.027344-.035156 9.511719 0 17.25 7.738281 17.25 17.25 0 2.648437-.582031 5.183594-1.699219 7.492187zm91.683594 0h-20v-52h20zm230 0h-20v-52h20zm29-72h-308v-20h308zm-49-40h-210v-20h210zm0 0"/></svg>