<svg id="Capa_1" enable-background="new 0 0 512 512" height="512" viewBox="0 0 512 512" width="512" xmlns="http://www.w3.org/2000/svg"><path d="m466 336v146c0 11.05-8.95 20-20 20h-380c-11.05 0-20-8.95-20-20v-146c0-11.05 8.95-20 20-20h380c11.05 0 20 8.95 20 20z" fill="#a8ebfa"/><path d="m346 120v116c0 11.05-8.95 20-20 20h-140c-11.05 0-20-8.95-20-20v-116c0-11.05 8.95-20 20-20h140c11.05 0 20 8.95 20 20z" fill="#ffcb7c"/><path d="m256 150c-5.522 0-10 4.478-10 10v36c0 5.522 4.478 10 10 10s10-4.478 10-10v-36c0-5.522-4.478-10-10-10z"/><path d="m256 0c-38.598 0-70 31.402-70 70v20c-16.542 0-30 13.458-30 30v116c0 16.542 13.458 30 30 30h140c16.542 0 30-13.458 30-30v-116c0-16.542-13.458-30-30-30v-20c0-38.598-31.402-70-70-70zm80 120v116c0 5.514-4.486 10-10 10h-140c-5.514 0-10-4.486-10-10v-116c0-5.514 4.486-10 10-10h140c5.514 0 10 4.486 10 10zm-130-30v-20c0-27.57 22.43-50 50-50s50 22.43 50 50v20z"/><path d="m173.071 371.929c-3.906-3.904-10.236-3.904-14.143 0l-22.928 22.928-22.929-22.929c-3.906-3.904-10.236-3.904-14.143 0-3.905 3.905-3.905 10.237 0 14.143l22.929 22.929-22.929 22.929c-3.905 3.905-3.905 10.237 0 14.143 3.907 3.905 10.236 3.904 14.143 0l22.929-22.929 22.929 22.929c3.907 3.905 10.236 3.904 14.143 0 3.905-3.905 3.905-10.237 0-14.143l-22.929-22.929 22.929-22.929c3.905-3.905 3.905-10.237-.001-14.142z"/><path d="m293.071 446.071c3.905-3.905 3.905-10.237 0-14.143l-22.928-22.928 22.929-22.929c3.905-3.905 3.905-10.237 0-14.143-3.906-3.904-10.236-3.904-14.143 0l-22.929 22.929-22.929-22.929c-3.906-3.904-10.236-3.904-14.143 0-3.905 3.905-3.905 10.237 0 14.143l22.929 22.929-22.929 22.929c-3.905 3.905-3.905 10.237 0 14.143 3.907 3.905 10.236 3.904 14.143 0l22.929-22.929 22.929 22.929c3.907 3.905 10.236 3.904 14.142-.001z"/><path d="m406 449c5.522 0 10-4.478 10-10s-4.478-10-10-10h-60c-5.522 0-10 4.478-10 10s4.478 10 10 10z"/><circle cx="256" cy="502" r="10"/><path d="m36 336v146c0 16.542 13.458 30 30 30h145c5.522 0 10-4.478 10-10s-4.478-10-10-10h-145c-5.514 0-10-4.486-10-10v-146c0-5.514 4.486-10 10-10h380c5.514 0 10 4.486 10 10v146c0 5.514-4.486 10-10 10h-145c-5.522 0-10 4.478-10 10s4.478 10 10 10h145c16.542 0 30-13.458 30-30v-146c0-16.542-13.458-30-30-30h-380c-16.542 0-30 13.458-30 30z"/></svg>