<svg id="Capa_1" enable-background="new 0 0 511.962 511.962" height="512" viewBox="0 0 511.962 511.962" width="512" xmlns="http://www.w3.org/2000/svg"><path id="XMLID_1243_" d="m117.981 501.962v-491.962h296l64 63.962v428z" fill="#eff3f3"/><path id="XMLID_1688_" d="m178.234 289.036c22.554 23.579 74.396-42.378 95.114-104.531s34.6-130.9 10.359-130.9c-23.799 0-42.378 74.396 36.727 144.084s100.765 53.678 101.706 34.844c.942-18.835-57.445-31.077-133.725-17.893-76.279 13.184-130.899 52.737-110.181 74.396z" fill="#e2f1a1"/><path id="XMLID_1242_" d="m413.981 9.962v64h64z" fill="#ffe6c0"/><path id="XMLID_2060_" d="m337.981 341.962h-264c-22.091 0-40 17.909-40 40v80c0 22.091 17.909 40 40 40h264c22.091 0 40-17.909 40-40v-80c0-22.091-17.909-40-40-40z" fill="#d8ec84"/><path id="XMLID_522_" d="m485.05 66.889-64-63.962c-1.876-1.874-4.418-2.927-7.069-2.927h-296c-5.522 0-10 4.477-10 10v321.962h-34c-27.57 0-50 22.43-50 50v80c0 27.57 22.43 50 50 50h264 140c5.522 0 10-4.478 10-10v-200.873c0-5.522-4.478-10-10-10s-10 4.478-10 10v190.873h-90.027c6.292-8.363 10.027-18.753 10.027-30v-80c0-27.57-22.43-50-50-50h-210v-311.962h276v53.962c0 5.523 4.477 10 10 10h54v127.127c0 5.523 4.478 10 10 10s10-4.477 10-10v-137.127c0-2.653-1.055-5.198-2.931-7.073zm-117.069 315.073v80c0 16.542-13.458 30-30 30h-264c-16.542 0-30-13.458-30-30v-80c0-16.542 13.458-30 30-30h264c16.542 0 30 13.458 30 30zm56-347.83 29.848 29.83h-29.848z"/><path id="XMLID_524_" d="m477.981 246.092c-2.63 0-5.21 1.06-7.07 2.93-1.86 1.86-2.93 4.44-2.93 7.07s1.069 5.21 2.93 7.07c1.86 1.859 4.44 2.93 7.07 2.93s5.21-1.07 7.069-2.93c1.86-1.86 2.931-4.44 2.931-7.07s-1.07-5.21-2.931-7.07c-1.859-1.87-4.439-2.93-7.069-2.93z"/><path id="XMLID_525_" d="m269.981 471.962c5.522 0 10-4.478 10-10v-30h34c5.522 0 10-4.478 10-10s-4.478-10-10-10h-34v-6.092-13.908h34c5.522 0 10-4.478 10-10s-4.478-10-10-10h-44c-5.522 0-10 4.478-10 10v23.908 16.092 40c0 5.522 4.477 10 10 10z"/><path id="XMLID_1047_" d="m87.981 381.962v23.908 16.092 40c0 5.522 4.478 10 10 10s10-4.478 10-10v-30h14c16.542 0 30-13.458 30-30s-13.458-30-30-30h-24c-5.523 0-10 4.477-10 10zm20 10h14c5.514 0 10 4.486 10 10s-4.486 10-10 10h-14v-6.092z"/><path id="XMLID_1159_" d="m181.981 471.962h22.25c19.713 0 35.75-16.037 35.75-35.75v-28.5c0-19.713-16.037-35.75-35.75-35.75h-22.25c-5.522 0-10 4.478-10 10v80c0 5.522 4.477 10 10 10zm10-80h12.25c8.685 0 15.75 7.065 15.75 15.75v28.5c0 8.685-7.065 15.75-15.75 15.75h-12.25z"/><path id="XMLID_1175_" d="m250.729 213.225c-44.507 13.348-78.355 35.157-85.486 56.806-3.144 9.541-1.096 18.745 5.765 25.918 5.017 5.245 11.431 7.975 18.5 7.975 2.122 0 4.305-.247 6.524-.745 22.54-5.057 49.062-36.881 68.356-73.046 8.073-2.163 16.661-4.07 25.73-5.638 13.903-2.403 27.667-4.01 40.812-4.8 39.838 32.336 68.076 44.395 86.021 36.821 9.091-3.836 14.623-12.395 15.178-23.483.219-4.37-.967-10.86-7.855-16.961-13.903-12.313-46.635-18.206-86.57-16.726-3.4-2.846-6.952-5.895-10.658-9.16-14.531-12.802-25.42-25.534-33.453-37.701 3.858-13.965 7.475-28.983 9.937-43.406 4.934-28.907 3.884-47.014-3.305-56.986-3.944-5.474-9.811-8.488-16.516-8.488-11.08 0-20.868 8.402-26.183 22.475-6.641 17.584-7.979 51.274 14.383 89.518-2.433 8.359-5.127 16.986-8.047 25.746-3.679 11.034-8.165 21.77-13.133 31.881zm-59.076 70.438c-3.235.729-4.769-.05-6.192-1.539-1.728-1.806-2.047-3.333-1.223-5.836 3.25-9.864 21.691-24.728 51.638-36.727-15.745 24.454-32.918 41.566-44.223 44.102zm186.153-62.893c25.342 3.196 33.344 9.68 34.333 11.508-.2 3.11-1.196 5.064-2.964 5.811-1.468.618-12.662 3.992-45.266-18.568 4.821.274 9.464.69 13.897 1.249zm-68.1-19.285c-7.543.86-15.229 1.959-22.993 3.301-3.775.653-7.518 1.37-11.207 2.146 2.757-6.473 5.22-12.935 7.33-19.265 1.139-3.417 2.342-7.108 3.579-11.017 6.543 8.207 14.25 16.518 23.291 24.835zm-33.471-128.339c2.485-6.581 5.866-9.541 7.473-9.541.059 0 .106.002.146.004.679.825 5.373 7.872.515 38.722-1.118 7.103-2.669 14.942-4.603 23.33-8.7-23.255-7.387-42.305-3.531-52.515z"/></svg>