<svg id="Capa_1" enable-background="new 0 0 511.916 511.916" height="512" viewBox="0 0 511.916 511.916" width="512" xmlns="http://www.w3.org/2000/svg"><path d="m457.381 55.679c-134.282-10.584-268.565-10.584-402.847 0-20.048 1.58-36.066 17.257-38.234 37.251-11.786 108.689-11.786 217.377 0 326.066 2.168 19.994 18.186 35.671 38.234 37.251 134.282 10.584 268.565 10.584 402.847 0 20.049-1.58 36.066-17.257 38.234-37.251 11.786-108.689 11.786-217.377 0-326.066-2.167-19.994-18.185-35.671-38.234-37.251z" fill="#f6f1f1"/><path d="m501.14 156.098-.2-.02c-163.318-14.4-326.637-14.4-489.955 0l-.2.03c1.39-21.06 3.23-42.11 5.52-63.169 2.17-20 18.19-35.68 38.23-37.26 134.288-10.58 268.567-10.58 402.856 0 20.04 1.58 36.06 17.26 38.23 37.26 2.289 21.049 4.129 42.109 5.519 63.159z" fill="#b9e4ef"/><circle cx="70.74" cy="100.844" fill="#df6b57" r="23.457"/><circle cx="211.48" cy="100.844" fill="#90dfc3" r="23.457"/><circle cx="141.11" cy="100.844" fill="#f6e738" r="23.457"/><path d="m72.006 344.66c-.046 0-.084 0-.13 0-11.144 0-20.174-9.037-20.174-20.174 0-11.144 9.03-20.181 20.174-20.181.145 0 .29 0 .435.008h160.744c.145-.008.29-.008.435-.008 11.144 0 20.174 9.037 20.174 20.181 0 11.136-9.03 20.174-20.174 20.174-.046 0-.084 0-.13 0" fill="#f1b986"/><path d="m241.211 306.124-119.23.511-59.207.249c-4.514-41.21-17.614-94.728 30.516-104.266 11.555-2.292 21.961-3.652 31.314-4.29 62.648-4.252 78.231 24.036 78.231 24.036s11.338-9.959 23.666-8.944c4.456.364 9.046 2.171 13.273 6.397 22.294 22.293 1.437 86.307 1.437 86.307z" fill="#aa593d"/><path d="m226.501 213.42c-14.645 10.061-24.228 40.169-28.665 57.33-4.341-17.48.964-36.722 4.999-48.385 0-.001 11.339-9.96 23.666-8.945z" fill="#934d36"/><path d="m115.379 262.22 6.601 44.415-59.207.249c-4.514-41.21-17.614-94.728 30.516-104.266 11.555-2.292 21.961-3.652 31.314-4.29 0 .006-.006.006-.006.006-24.1 14.824-16.656 41.229-9.218 63.886z" fill="#934d36"/><path d="m233.492 325.979c0 9.244-.236 18.495-.709 27.739-1.181 23.111-19.676 41.51-42.799 42.601-16.165.766-32.336 1.028-48.5.798h-.006c-8.702-.121-17.397-.389-26.098-.798-23.117-1.092-41.612-19.491-42.799-42.601-.843-16.471-.932-32.936-.275-49.407h.006c9.014-3.339 14.377-13.72 17.563-25.262 3.269-11.843 14.613-18.316 25.505-16.829 4.245.581 8.427 2.375 12.028 5.529 7.233 6.333 16.254 9.5 25.275 9.5s18.048-3.167 25.281-9.5c4.482-3.926 9.851-5.739 15.137-5.739 9.864 0 19.433 6.32 22.396 17.039 3.179 11.543 8.542 21.923 17.563 25.262.292 7.227.432 14.448.432 21.668z" fill="#f1d0a5"/><path d="m141.477 397.118c-8.702-.121-17.397-.389-26.098-.798-23.117-1.092-41.612-19.491-42.799-42.601-.843-16.471-.932-32.936-.275-49.407h.006c9.014-3.339 14.377-13.72 17.563-25.262 3.269-11.843 14.613-18.316 25.505-16.829-8.268 73.819 0 134.086 26.098 134.897z" fill="#f1b986"/><path d="m503.071 92.125c-2.56-23.595-21.525-42.069-45.097-43.927-110.815-8.729-223.14-10.26-333.851-4.553-4.137.213-7.317 3.74-7.104 7.876.215 4.136 3.745 7.325 7.876 7.104 110.065-5.674 221.732-4.151 331.9 4.527 16.39 1.292 29.58 14.158 31.363 30.592 1.953 18.006 3.572 36.054 4.871 54.13-157.362-13.382-316.783-13.382-474.145 0 1.3-18.076 2.918-36.125 4.871-54.13 1.783-16.434 14.974-29.3 31.36-30.592 11.776-.925 23.69-1.781 35.409-2.543 4.134-.269 7.267-3.837 6.998-7.971s-3.867-7.263-7.971-6.997c-11.786.767-23.768 1.627-35.613 2.557-23.568 1.858-42.534 20.332-45.093 43.928-11.793 108.714-11.793 218.96 0 327.675 2.56 23.595 21.525 42.069 45.097 43.927 67.024 5.281 134.521 7.921 202.017 7.921s134.993-2.64 202.018-7.921c23.57-1.858 42.536-20.333 45.096-43.928 11.791-108.714 11.791-218.96-.002-327.675zm-14.912 326.057c-1.783 16.434-14.974 29.3-31.362 30.592-133.268 10.499-268.411 10.499-401.677 0-16.39-1.292-29.58-14.158-31.363-30.592-9.178-84.61-11.137-170.157-5.886-255.167 158.022-13.571 318.153-13.571 476.175 0 5.25 85.011 3.291 170.557-5.887 255.167z"/><path d="m70.74 69.887c-17.069 0-30.957 13.887-30.957 30.957s13.888 30.956 30.957 30.956 30.957-13.887 30.957-30.957-13.887-30.956-30.957-30.956zm0 46.913c-8.799 0-15.957-7.158-15.957-15.957s7.158-15.957 15.957-15.957 15.957 7.158 15.957 15.957-7.158 15.957-15.957 15.957z"/><path d="m242.438 100.844c0-17.07-13.888-30.957-30.957-30.957s-30.957 13.887-30.957 30.957 13.887 30.956 30.956 30.956 30.958-13.887 30.958-30.956zm-46.915 0c0-8.799 7.158-15.957 15.957-15.957s15.957 7.158 15.957 15.957-7.158 15.956-15.957 15.956-15.957-7.158-15.957-15.956z"/><path d="m172.067 100.844c0-17.07-13.888-30.957-30.957-30.957s-30.957 13.887-30.957 30.957 13.888 30.956 30.957 30.956 30.957-13.887 30.957-30.956zm-46.914 0c0-8.799 7.158-15.957 15.957-15.957s15.957 7.158 15.957 15.957-7.158 15.956-15.957 15.956-15.957-7.158-15.957-15.956z"/><path d="m172.323 340.193c-3.739-1.775-8.215-.182-9.991 3.561-1.759 3.707-5.546 6.103-9.648 6.103s-7.89-2.396-9.648-6.103c-1.776-3.743-6.252-5.336-9.991-3.561-3.742 1.776-5.337 6.249-3.562 9.991 4.229 8.913 13.337 14.673 23.201 14.673s18.972-5.759 23.201-14.673c1.775-3.742.18-8.215-3.562-9.991z"/><path d="m250.132 302.385c1.809-6.539 4.554-17.679 6.159-30.096 3.536-27.363-.236-46.801-11.211-57.776-13.444-13.444-30.226-8.838-40.916-2.349-11.001-11.107-41.516-30.929-112.331-16.902-22.079 4.374-35.505 17.722-39.906 39.673-3.58 17.858-.911 38.612 1.67 58.683.405 3.148.792 6.176 1.151 9.148-6.417 5.074-10.546 12.92-10.546 21.718 0 12.873 8.834 23.721 20.759 26.799.043.939.08 1.88.128 2.818 1.391 27.06 22.858 48.43 49.937 49.708 12.495.59 25.077.885 37.659.885 12.581 0 25.162-.295 37.653-.885 27.086-1.279 48.553-22.649 49.936-49.71.048-.937.085-1.877.128-2.815 11.926-3.077 20.763-13.926 20.763-26.8-.001-9.018-4.337-17.042-11.033-22.099zm-190.93 22.101c0-4.242 2.1-7.994 5.305-10.298-.146 6.838-.17 13.696-.062 20.543-3.17-2.306-5.243-6.034-5.243-10.245zm166.091 28.85c-.987 19.321-16.318 34.579-35.662 35.492-24.516 1.158-49.377 1.158-73.898 0-19.339-.913-34.67-16.172-35.663-35.492-.75-14.684-.894-29.571-.428-44.318 7.823-4.9 13.686-14.281 17.463-27.975 1.467-5.32 5.333-9.278 10.607-10.859 5.251-1.573 10.626-.404 14.753 3.208 17.226 15.08 43.207 15.08 60.437 0 4.127-3.613 9.502-4.782 14.752-3.208 5.274 1.581 9.142 5.54 10.609 10.86 3.776 13.692 9.638 23.073 17.46 27.973.467 14.693.324 29.581-.43 44.319zm-2.571-76.282c-2.827-10.25-10.588-18.189-20.761-21.239-10.149-3.043-20.967-.69-28.94 6.29-11.595 10.149-29.082 10.149-40.675 0-7.977-6.981-18.794-9.332-28.942-6.29-10.172 3.05-17.933 10.99-20.759 21.239-2.057 7.455-5.78 16.728-11.959 19.78-.518.022-1.033.056-1.544.106-.221-1.753-.445-3.505-.667-5.235-5.797-45.076-7.101-75.117 26.272-81.728 42.945-8.507 68.428-3.514 82.243 2.173 13.985 5.757 18.824 13.11 19.303 13.883 1.052 2.026 2.929 3.351 5.173 3.789 2.264.443 4.557-.297 6.301-1.805.045-.039 4.56-3.91 10.451-5.962 8.771-3.055 13.478.287 16.256 3.065 7.277 7.277 9.752 23.271 6.969 45.035-1.365 10.677-3.702 20.526-5.377 26.772-.46-.043-.923-.074-1.388-.094-6.177-3.052-9.9-12.325-11.956-19.779zm18.197 57.678c.109-6.859.085-13.716-.062-20.545 3.207 2.303 5.307 6.056 5.307 10.299 0 4.212-2.074 7.94-5.245 10.246z"/><ellipse cx="115.306" cy="315.699" rx="7.391" ry="10.961"/><ellipse cx="190.062" cy="315.699" rx="7.391" ry="10.961"/><path d="m467.734 187.444h-176.91c-4.143 0-7.5 3.358-7.5 7.5s3.357 7.5 7.5 7.5h176.91c4.143 0 7.5-3.358 7.5-7.5s-3.357-7.5-7.5-7.5z"/><path d="m467.734 224.467h-176.91c-4.143 0-7.5 3.358-7.5 7.5s3.357 7.5 7.5 7.5h176.91c4.143 0 7.5-3.358 7.5-7.5s-3.357-7.5-7.5-7.5z"/><path d="m467.734 261.489h-176.91c-4.143 0-7.5 3.358-7.5 7.5s3.357 7.5 7.5 7.5h176.91c4.143 0 7.5-3.358 7.5-7.5s-3.357-7.5-7.5-7.5z"/><path d="m467.734 298.512h-176.91c-4.143 0-7.5 3.358-7.5 7.5s3.357 7.5 7.5 7.5h176.91c4.143 0 7.5-3.358 7.5-7.5s-3.357-7.5-7.5-7.5z"/><path d="m467.734 335.534h-45.819c-4.143 0-7.5 3.358-7.5 7.5s3.357 7.5 7.5 7.5h45.819c4.143 0 7.5-3.358 7.5-7.5s-3.357-7.5-7.5-7.5z"/><path d="m290.824 350.534h101.091c4.143 0 7.5-3.358 7.5-7.5s-3.357-7.5-7.5-7.5h-101.091c-4.143 0-7.5 3.358-7.5 7.5s3.358 7.5 7.5 7.5z"/><path d="m467.734 372.557h-176.91c-4.143 0-7.5 3.358-7.5 7.5s3.357 7.5 7.5 7.5h176.91c4.143 0 7.5-3.358 7.5-7.5s-3.357-7.5-7.5-7.5z"/><path d="m467.734 409.58h-176.91c-4.143 0-7.5 3.358-7.5 7.5s3.357 7.5 7.5 7.5h176.91c4.143 0 7.5-3.358 7.5-7.5s-3.357-7.5-7.5-7.5z"/></svg>