<svg height="512pt" viewBox="0 0 512 512" width="512pt" xmlns="http://www.w3.org/2000/svg"><path d="m74 214c-11.046875 0-20 8.953125-20 20v268h428c11.046875 0 20-8.953125 20-20v-268zm183 204c-44.183594 0-80-35.816406-80-80s35.816406-80 80-80 80 35.816406 80 80-35.816406 80-80 80zm0 0" fill="#4dbaf6"/><path d="m482 502c11.046875 0 20-8.953125 20-20v-280c0-11.046875-8.953125-20-20-20h-44.914062v320zm0 0" fill="#72d8ff"/><path d="m44 142h64v40h-64zm0 0" fill="#ffc66c"/><path d="m339.953125 106h-123.214844l-31.796875 73h186.8125zm0 0" fill="#c9f3ff"/><path d="m376 342c0 66.273438-53.726562 120-120 120s-120-53.726562-120-120 53.726562-120 120-120 120 53.726562 120 120zm0 0" fill="#fff"/><path d="m201 366c0 16.410156 4.949219 31.664062 13.425781 44.359375 12.117188 7.382813 26.347657 11.640625 41.574219 11.640625 44.183594 0 80-35.816406 80-80 0-16.410156-4.949219-31.664062-13.425781-44.359375-12.117188-7.382813-26.347657-11.640625-41.574219-11.640625-44.183594 0-80 35.816406-80 80zm0 0" fill="#898998"/><path d="m324.332031 370c0 22.273438-18.058593 40.332031-40.332031 40.332031s-40.332031-18.058593-40.332031-40.332031 18.058593-40.332031 40.332031-40.332031 40.332031 18.058593 40.332031 40.332031zm0 0" fill="#c9f3ff"/><path d="m64 218.332031h48.332031v40h-48.332031zm0 0" fill="#fff"/><path d="m482 172h-102.390625l-30.488281-69.992188c-1.589844-3.648437-5.191406-6.007812-9.167969-6.007812h-43.953125c-5.523438 0-10 4.476562-10 10s4.476562 10 10 10h37.402344l24.394531 56h-203.59375l24.394531-56h37.402344c5.523438 0 10-4.476562 10-10s-4.476562-10-10-10h-43.953125c-3.980469 0-7.578125 2.359375-9.167969 6.007812l-30.488281 69.992188h-14.390625v-30c0-5.523438-4.476562-10-10-10h-64c-5.523438 0-10 4.476562-10 10v30h-4c-16.542969 0-30 13.457031-30 30v280c0 16.542969 13.457031 30 30 30h452c16.542969 0 30-13.457031 30-30v-280c0-16.542969-13.457031-30-30-30zm-428-20h44v20h-44zm438 330c0 5.515625-4.484375 10-10 10h-452c-5.515625 0-10-4.484375-10-10v-280c0-5.515625 4.484375-10 10-10h397.085938v230c0 5.523438 4.476562 10 10 10 5.523437 0 10-4.476562 10-10v-230h34.914062c5.515625 0 10 4.484375 10 10zm0 0"/><path d="m256 116c2.628906 0 5.210938-1.070312 7.070312-2.929688 1.859376-1.859374 2.929688-4.441406 2.929688-7.070312s-1.070312-5.210938-2.929688-7.070312c-1.859374-1.859376-4.429687-2.929688-7.070312-2.929688-2.628906 0-5.210938 1.070312-7.070312 2.929688-1.859376 1.859374-2.929688 4.441406-2.929688 7.070312s1.070312 5.210938 2.929688 7.070312c1.859374 1.859376 4.441406 2.929688 7.070312 2.929688zm0 0"/><path d="m256 212c-71.683594 0-130 58.316406-130 130s58.316406 130 130 130 130-58.316406 130-130-58.316406-130-130-130zm0 240c-60.652344 0-110-49.347656-110-110s49.347656-110 110-110 110 49.347656 110 110-49.347656 110-110 110zm0 0"/><path d="m256 252c-49.625 0-90 40.375-90 90s40.375 90 90 90 90-40.375 90-90-40.375-90-90-90zm-2.332031 118c0-16.726562 13.605469-30.332031 30.332031-30.332031s30.332031 13.605469 30.332031 30.332031-13.605469 30.332031-30.332031 30.332031-30.332031-13.605469-30.332031-30.332031zm72.324219-27.707031c-9.015626-13.621094-24.46875-22.625-41.992188-22.625-27.753906 0-50.332031 22.578125-50.332031 50.332031 0 17.523438 9.003906 32.976562 22.628906 41.992188-.101563 0-.199219.007812-.296875.007812-38.597656 0-70-31.402344-70-70s31.402344-70 70-70 70 31.402344 70 70c0 .097656-.007812.195312-.007812.292969zm0 0"/><path d="m437.089844 452c-2.640625 0-5.210938 1.070312-7.070313 2.929688-1.871093 1.859374-2.929687 4.441406-2.929687 7.070312s1.058594 5.210938 2.929687 7.070312c1.859375 1.859376 4.429688 2.929688 7.070313 2.929688 2.628906 0 5.210937-1.070312 7.070312-2.929688 1.859375-1.859374 2.929688-4.441406 2.929688-7.070312 0-2.640625-1.070313-5.210938-2.929688-7.070312-1.871094-1.859376-4.441406-2.929688-7.070312-2.929688zm0 0"/><path d="m112.335938 208.332031h-48.335938c-5.523438 0-10 4.480469-10 10v40c0 5.523438 4.476562 10 10 10h48.335938c5.519531 0 10-4.476562 10-10v-40c0-5.519531-4.480469-10-10-10zm-10 40h-28.335938v-20h28.335938zm0 0"/><path d="m448 38.644531c5.523438 0 10-4.476562 10-10v-18.644531c0-5.523438-4.476562-10-10-10s-10 4.476562-10 10v18.644531c0 5.523438 4.476562 10 10 10zm0 0"/><path d="m448 128c5.523438 0 10-4.476562 10-10v-18.644531c0-5.523438-4.476562-10-10-10s-10 4.476562-10 10v18.644531c0 5.523438 4.476562 10 10 10zm0 0"/><path d="m483.355469 74h18.644531c5.523438 0 10-4.476562 10-10s-4.476562-10-10-10h-18.644531c-5.523438 0-10 4.476562-10 10s4.476562 10 10 10zm0 0"/><path d="m394 74h18.644531c5.523438 0 10-4.476562 10-10s-4.476562-10-10-10h-18.644531c-5.523438 0-10 4.476562-10 10s4.476562 10 10 10zm0 0"/></svg>