<svg id="Capa_1" enable-background="new 0 0 512 512" height="512" viewBox="0 0 512 512" width="512" xmlns="http://www.w3.org/2000/svg"><g><g><path d="m450.744 443.584c-7.767-2.372-14.705-8.327-19.396-14.841-14.514-9.615-25.504-23.107-33.589-36.285-3.103-5.058-9.429-9.756-11.711-14.485-11.882-24.619-21.66-59.342-24.632-91.491l56.83-2.991c16.658 0 26.568-6.222 26.568-22.88s-5.973-22.18-20.586-27.088l-6.757-3.074h-50.297c-4.416-31.682-1.042-61.439 10.779-86.047 10.879-22.649 37.338-56.494 69.46-66.325 15.929-4.875 20.793-15.907 15.918-31.836-4.875-15.93-11.797-19.896-28.453-21.507-41.962 12.842-76.346 45.038-99.435 93.106-15.548 32.369-25.485 71.516-28.815 112.609h-90.25c-3.237-41.349-13.193-80.701-28.834-113.109-23.04-47.738-57.455-79.762-99.523-92.611-15.93-4.866-32.793 4.104-37.658 20.036-4.866 15.931 4.104 32.791 20.035 37.657 32.291 9.863 51.983 38.692 62.818 61.139 11.881 24.619 19.645 54.739 22.617 86.888h-67.974c-16.658 0-30.162 13.504-30.162 30.162s13.504 30.162 30.162 30.162h67.881c-3.054 31.928-10.825 61.882-22.646 86.49-10.879 22.649-30.59 51.711-62.711 61.542-8.675 2.655-15.284 8.866-18.716 16.546.141 7.615-1.322 14.254 1.855 21.143 3.249 7.044 12.813 15.625 25.723 15.625 2.924 0 5.897-.429 8.838-1.328 41.962-12.842 70.587-41.302 93.675-89.37 15.549-32.369 26.014-76.664 29.344-117.756l95.434 7.11c3.237 41.349 13.193 80.7 28.833 113.108 5.623 11.651 11.924 22.365 18.848 32.094 24.596 25.326 46.654 44.314 78.455 54.027 2.937.897 7.711 3.012 10.63 3.012 12.916 0 19.063-5.43 23.032-18.425 4.867-15.934.341-26.141-15.59-31.007z" fill="#ad84e6"/><g fill="#a862e6"><path d="m397.77 392.452c-3.101-5.055-5.791-10.065-8.072-14.791-11.882-24.619-19.645-54.739-22.618-86.887h54.291c16.658 0 30.162-13.504 30.162-30.162s-13.504-30.162-30.162-30.162h-3.9c.859 3.691 1.016 7.652.219 11.758-2.588 13.327-14.589 22.75-28.165 22.75h-36.431c-7.399 0-13.031 6.567-11.993 13.893 3.503 24.724 10.116 47.742 19.463 67.108 7.445 15.424 19.388 34.069 37.206 46.493z"/><path d="m434.878 24.733c-.159.049-.316.104-.474.153 1.233.883 2.391 1.824 3.034 2.799 1.653 2.359 2.975 5.01 3.863 7.915 4.545 14.85-3.809 30.572-18.659 35.117-29.945 9.165-48.321 36.258-58.462 57.372-11.02 22.94-17.843 46.784-20.691 76.549-1.05 16.021 16.5 22.35 23.686 25.81 3.055-31.928 10.826-61.882 22.646-86.49 10.879-22.649 30.589-51.711 62.712-61.542 15.929-4.875 24.89-21.74 20.015-37.669-4.876-15.929-21.747-24.888-37.67-20.014z"/><path d="m452.516 438.8c-7.768-2.373-14.8-5.851-21.162-10.066.122 3.073-.255 6.218-1.205 9.326-3.699 12.115-14.841 19.912-26.882 19.912-2.722 0-5.487-.398-8.224-1.234-14.664-4.479-28.331-11.459-40.819-20.768 21.447 30.132 48.869 50.81 80.669 60.523 2.937.897 5.903 1.324 8.822 1.324 12.916 0 24.867-8.364 28.836-21.359 4.867-15.932-4.104-32.792-20.035-37.658z"/><path d="m285.671 264.957h-80.489c-7.829 0-14.372 5.875-15.31 13.647-4.018 33.293-12.726 64.762-25.489 91.332-21.523 44.811-53.578 74.826-92.697 86.798-2.741.839-5.513 1.238-8.239 1.238-4.12 0-8.125-.932-11.773-2.618-2.87 6.421-3.527 13.866-1.307 21.12 3.974 12.988 15.92 21.343 28.831 21.343 2.924 0 5.897-.429 8.838-1.329 41.962-12.842 76.346-45.038 99.434-93.106 15.548-32.369 25.486-71.516 28.816-112.609h90.25c-1.312-8.477-1.208-25.816-20.865-25.816z"/></g></g><g fill="#4e0325"><path d="m455.453 429.184c-28.813-8.8-46.737-35.253-56.699-55.894-9.949-20.614-16.949-45.482-20.444-72.463h43.063c22.175 0 40.216-18.041 40.216-40.216s-18.041-40.216-40.216-40.216h-42.933c3.555-26.762 10.554-51.495 20.443-72.083 10.009-20.837 27.951-47.516 56.592-56.281 10.272-3.143 18.705-10.099 23.745-19.585 5.041-9.486 6.084-20.367 2.942-30.639-3.144-10.272-10.1-18.705-19.589-23.746-9.485-5.039-20.365-6.085-30.637-2.941-44.718 13.686-81.218 47.701-105.555 98.367-14.862 30.941-24.796 67.729-28.914 106.908h-71.902c-4.043-39.438-13.995-76.406-28.966-107.425-24.29-50.329-60.82-84.167-105.64-97.857-10.274-3.138-21.154-2.088-30.639 2.958s-16.435 13.483-19.572 23.757c-3.138 10.274-2.087 21.154 2.958 30.638 5.046 9.483 13.482 16.434 23.756 19.572 28.812 8.8 46.737 35.253 56.7 55.893 9.949 20.615 16.949 45.483 20.443 72.464h-56.746c-22.175 0-40.216 18.041-40.216 40.216s18.041 40.216 40.216 40.216h56.616c-3.554 26.76-10.553 51.492-20.443 72.083-10.009 20.837-27.951 47.515-56.592 56.281-21.204 6.49-33.175 29.02-26.687 50.225 5.209 17.02 20.658 28.455 38.445 28.455 3.981 0 7.945-.595 11.78-1.769 44.718-13.686 81.218-47.701 105.554-98.367 14.861-30.938 24.796-67.727 28.915-106.908h71.902c4.042 39.436 13.993 76.404 28.964 107.424 24.292 50.329 60.821 84.168 105.642 97.857 3.828 1.169 7.784 1.762 11.759 1.762 17.797 0 33.25-11.444 38.451-28.476 3.138-10.274 2.087-21.154-2.958-30.638-5.044-9.483-13.48-16.434-23.754-19.572zm7.482 44.336c-2.601 8.519-10.325 14.242-19.22 14.242-1.982 0-3.962-.298-5.885-.885-39.316-12.008-71.616-42.219-93.406-87.366-15.064-31.212-24.699-69.084-27.864-109.522-.409-5.232-4.775-9.27-10.024-9.27h-90.25c-5.238 0-9.598 4.021-10.022 9.242-3.257 40.194-12.891 77.909-27.857 109.068-21.84 45.47-54.107 75.846-93.313 87.845-1.926.59-3.911.889-5.896.889-8.89 0-16.612-5.719-19.217-14.231-3.245-10.602 2.74-21.868 13.343-25.113 35.604-10.897 57.082-42.342 68.831-66.802 12.249-25.498 20.406-56.58 23.592-89.886.269-2.82-.664-5.624-2.568-7.72-1.906-2.096-4.608-3.292-7.44-3.292h-67.88c-11.088 0-20.108-9.021-20.108-20.108s9.02-20.108 20.108-20.108h67.974c2.828 0 5.524-1.191 7.43-3.28 1.905-2.089 2.842-4.884 2.582-7.7-3.104-33.572-11.256-64.808-23.574-90.333-11.707-24.255-33.17-55.461-68.935-66.385-10.604-3.239-16.595-14.5-13.356-25.105 1.568-5.137 5.044-9.355 9.785-11.878 4.742-2.522 10.182-3.048 15.32-1.479 39.317 12.008 71.616 42.219 93.405 87.366 15.064 31.21 24.7 69.083 27.866 109.523.41 5.233 4.776 9.27 10.024 9.27h90.249c5.238 0 9.599-4.022 10.022-9.242 3.256-40.191 12.889-77.906 27.856-109.068 21.841-45.47 54.109-75.846 93.316-87.846 5.134-1.572 10.574-1.049 15.318 1.471s8.223 6.736 9.794 11.872c1.572 5.136 1.05 10.577-1.47 15.32s-6.737 8.221-11.873 9.793c-35.604 10.896-57.083 42.342-68.831 66.802-12.247 25.494-20.405 56.576-23.592 89.885-.27 2.82.662 5.624 2.568 7.72 1.906 2.097 4.608 3.292 7.44 3.292h54.198c11.088 0 20.108 9.021 20.108 20.108s-9.02 20.108-20.108 20.108h-54.291c-2.828 0-5.525 1.191-7.43 3.28s-2.842 4.885-2.581 7.7c3.105 33.572 11.256 64.808 23.574 90.332 11.707 24.255 33.17 55.461 68.935 66.385 10.601 3.24 16.592 14.502 13.353 25.106z"/><path d="m338.936 248.636v-10.788c0-3.331-2.701-6.032-6.033-6.032-3.331 0-6.032 2.701-6.032 6.032v10.788c0 3.331 2.701 6.033 6.032 6.033 3.332-.001 6.033-2.702 6.033-6.033z"/><path d="m340.977 275.489c-3.331 0-6.032 2.701-6.032 6.032v10.789c0 3.331 2.701 6.033 6.032 6.033s6.033-2.701 6.033-6.033v-10.789c0-3.331-2.701-6.032-6.033-6.032z"/></g><g fill="#fff"><path d="m111.83 80.411c-2.045 0-4.109-.621-5.892-1.913-2.497-1.81-5.058-3.501-7.61-5.026-4.767-2.847-6.323-9.02-3.476-13.787s9.02-6.324 13.787-3.476c3.061 1.828 6.122 3.849 9.099 6.006 4.496 3.258 5.499 9.544 2.242 14.041-1.968 2.714-5.038 4.155-8.15 4.155z"/><path d="m169.27 162.079c-4.061 0-7.886-2.479-9.407-6.502-2.73-7.224-5.875-14.535-9.348-21.731-3.884-8.046-8.717-16.228-13.977-23.66-3.208-4.532-2.133-10.807 2.4-14.014 4.532-3.209 10.807-2.134 14.015 2.399 5.977 8.445 11.249 17.372 15.671 26.534 3.729 7.727 7.11 15.587 10.049 23.362 1.963 5.194-.656 10.996-5.85 12.959-1.171.443-2.372.653-3.553.653z"/></g><g><ellipse cx="18.081" cy="122.459" fill="#ad84e6" rx="18.081" ry="18.081" transform="matrix(.448 -.894 .894 .448 -99.504 83.768)"/><ellipse cx="278.038" cy="89.166" fill="#ad84e6" rx="7.633" ry="7.633" transform="matrix(.923 -.385 .385 .923 -12.911 113.751)"/><g fill="#d3b5f2"><path d="m215.286 5.954-6.126 17.226c-.262.738-.782 1.322-1.437 1.617l-15.305 6.895c-2.162.974-2.162 4.419 0 5.393l15.305 6.895c.655.295 1.174.88 1.437 1.617l6.126 17.226c.865 2.433 3.926 2.433 4.792 0l6.126-17.226c.262-.738.781-1.322 1.437-1.617l15.305-6.895c2.162-.974 2.162-4.419 0-5.393l-15.305-6.895c-.655-.295-1.174-.88-1.437-1.617l-6.126-17.226c-.866-2.433-3.926-2.433-4.792 0z"/><path d="m472.526 119.639-8.259 23.222c-.354.994-1.054 1.782-1.937 2.18l-20.632 9.295c-2.915 1.313-2.915 5.958 0 7.271l20.632 9.296c.883.398 1.583 1.186 1.937 2.18l8.259 23.223c1.167 3.281 5.293 3.281 6.46 0l8.259-23.223c.354-.994 1.054-1.782 1.937-2.18l20.632-9.296c2.915-1.313 2.915-5.958 0-7.271l-20.632-9.295c-.883-.398-1.583-1.186-1.937-2.18l-8.259-23.222c-1.167-3.281-5.293-3.281-6.46 0z"/></g></g></g></svg>