<svg id="Capa_1" enable-background="new 0 0 511.962 511.962" height="512" viewBox="0 0 511.962 511.962" width="512" xmlns="http://www.w3.org/2000/svg"><path id="XMLID_2137_" d="m117.981 501.962v-491.962h296l64 63.962v428z" fill="#eff3f3"/><path id="XMLID_2136_" d="m413.981 9.962v64h64z" fill="#ffe6c0"/><path id="XMLID_1423_" d="m383.281 341.962h-306.6c-23.582 0-42.7 19.117-42.7 42.7v74.601c0 23.582 19.117 42.7 42.7 42.7h306.601c23.582 0 42.7-19.117 42.7-42.7v-74.601c-.001-23.583-19.118-42.7-42.701-42.7z" fill="#ffcb7c"/><path id="XMLID_2088_" d="m394.966 195.962v50l-96.995 56-96.995-56v-50" fill="#ffcb7c"/><path id="XMLID_2077_" d="m297.981 189.99 35.478 35.477 96.994-56-35.496-35.496" fill="#ffe6c0"/><path id="XMLID_2071_" d="m297.981 189.99-35.478 35.477-96.994-56 35.496-35.496" fill="#ffe6c0"/><path id="XMLID_1846_" d="m394.966 133.993-96.995 56-96.995-56v-.031l96.995-56 96.995 56" fill="#d3d7df"/><path id="XMLID_890_" d="m485.05 66.889-64-63.962c-1.875-1.874-4.418-2.927-7.069-2.927h-296c-5.523 0-10 4.478-10 10v321.962h-31.3c-29.059 0-52.7 23.641-52.7 52.699v74.602c0 29.059 23.641 52.699 52.7 52.699h261.301 45.3 94.7c5.523 0 10-4.478 10-10v-200.873c0-5.522-4.477-10-10-10s-10 4.478-10 10v190.873h-43.418c7.138-8.993 11.418-20.352 11.418-32.699v-74.602c0-29.059-23.641-52.699-52.7-52.699h-255.3v-311.962h276v53.962c0 5.523 4.477 10 10 10h54v127.127c0 5.522 4.477 10 10 10s10-4.478 10-10v-137.127c-.001-2.653-1.055-5.197-2.932-7.073zm-69.069 317.772v74.602c0 18.03-14.669 32.699-32.7 32.699h-45.3-261.3c-18.031 0-32.7-14.669-32.7-32.699v-74.602c0-18.03 14.669-32.699 32.7-32.699h306.601c18.03 0 32.699 14.669 32.699 32.699zm8-350.529 29.848 29.83h-29.848z"/><path id="XMLID_892_" d="m477.981 246.092c-2.63 0-5.21 1.06-7.07 2.93-1.86 1.86-2.93 4.431-2.93 7.07 0 2.63 1.07 5.21 2.93 7.07 1.86 1.859 4.44 2.93 7.07 2.93s5.21-1.07 7.07-2.93 2.93-4.44 2.93-7.07c0-2.64-1.07-5.21-2.93-7.07-1.86-1.871-4.44-2.93-7.07-2.93z"/><path id="XMLID_898_" d="m115.981 405.87v16.092 40c0 5.522 4.477 10 10 10s10-4.478 10-10v-30h14c16.542 0 30-13.458 30-30s-13.458-30-30-30h-24c-5.523 0-10 4.478-10 10zm20-13.908h14c5.514 0 10 4.486 10 10s-4.486 10-10 10h-14v-6.092z"/><path id="XMLID_1271_" d="m199.981 421.967v39.995c0 5.522 4.477 10 10 10s10-4.478 10-10v-15.857l22.929 22.929c1.953 1.952 4.512 2.929 7.071 2.929s5.119-.977 7.071-2.929c3.905-3.905 3.905-10.237 0-14.143l-32.929-32.929 32.929-32.929c3.905-3.905 3.905-10.237 0-14.143-3.905-3.904-10.237-3.904-14.143 0l-22.929 22.929v-15.857c0-5.522-4.477-10-10-10s-10 4.478-10 10v39.995c.001.003.001.007.001.01z"/><path id="XMLID_1272_" d="m301.481 471.962h21c11.855 0 21.5-9.645 21.5-21.5v-26c0-.042-.006-.083-.006-.125s.006-.083.006-.125c0-5.522-4.477-10-10-10h-11.5c-5.523 0-10 4.478-10 10s4.477 10 10 10h1.5v16.25c0 .827-.673 1.5-1.5 1.5h-21c-.827 0-1.5-.673-1.5-1.5v-57c0-.827.673-1.5 1.5-1.5h21c.827 0 1.5.673 1.5 1.5 0 5.522 4.477 10 10 10s10-4.478 10-10c0-11.855-9.645-21.5-21.5-21.5h-21c-11.855 0-21.5 9.645-21.5 21.5v57c0 11.855 9.645 21.5 21.5 21.5z"/><path id="XMLID_1288_" d="m440.368 170.772c.406-3.083-.645-6.179-2.844-8.377l-35.158-35.157c-.545-.6-1.177-1.134-1.879-1.599-.024-.016-.049-.031-.073-.047-.149-.097-.292-.2-.448-.29l-91.985-53.107v-22.233c0-5.522-4.477-10-10-10s-10 4.478-10 10v22.221l-92.005 53.119c-.969.56-1.802 1.262-2.503 2.058l-35.036 35.035c-2.199 2.198-3.25 5.294-2.844 8.377.406 3.082 2.222 5.8 4.915 7.354l30.48 17.597c-.002.08-.012.157-.012.238v50c0 3.572 1.906 6.874 5 8.66l96.995 56c1.547.894 3.273 1.34 5 1.34s3.453-.446 5-1.34l96.995-56c3.094-1.786 5-5.088 5-8.66v-50c0-.076-.01-.15-.011-.226l30.499-17.609c2.692-1.554 4.508-4.272 4.914-7.354zm-152.387-51.734c-3.865-2.445-9.039-1.991-12.408 1.378-3.905 3.905-3.906 10.237 0 14.143l15.337 15.338c1.875 1.875 4.419 2.929 7.071 2.929s5.196-1.054 7.071-2.929l15.337-15.338c3.905-3.905 3.905-10.237 0-14.143-3.37-3.369-8.543-3.824-12.408-1.379v-23.749l67.011 38.689-77.021 44.468-77.021-44.468 67.031-38.701zm-85.355 27.454 79.063 45.647-20.831 20.831-79.063-45.647zm8.35 60.772 46.527 26.863c1.561.901 3.285 1.34 4.997 1.34 2.588 0 5.148-1.003 7.075-2.929l18.396-18.396v70.5l-76.995-44.453zm173.99 32.924-76.995 44.453v-70.52l18.417 18.417c1.926 1.926 4.486 2.929 7.075 2.929 1.712 0 3.436-.438 4.997-1.34l46.507-26.851v32.912zm-49.862-27.218-20.838-20.838 79.063-45.647 20.839 20.838z"/></svg>