<svg id="Layer_1" enable-background="new 0 0 68 68" viewBox="0 0 68 68" xmlns="http://www.w3.org/2000/svg"><g><g><g><g><g><path d="m30.9132214 65.9145584c-12.4632435-1.4184265-22.395154-11.7156105-23.3887239-24.2198982-.7255344-9.131012 3.2038255-17.401268 9.6672249-22.6900673 3.4134579-2.7931252 8.5313778-.4540176 8.5313778 3.9565659v.131279c0 1.5375957-.6298447 3.0406246-1.8212605 4.0125942-3.7449188 3.0551395-6.0969982 7.7630634-5.9166393 12.9941349.2857914 8.2889748 7.1439323 15.160202 15.4324665 15.4585533 9.0993347.3275375 16.6046829-6.9779434 16.6046829-16.0198631 0-4.9745483-2.2872772-9.431633-5.859211-12.3777256-1.1570206-.9542999-1.8883781-2.3267097-1.8883781-3.8265057v-.3712635c0-4.3062801 5.0026741-6.7975121 8.3580322-4.0983219 6.0496864 4.866621 9.9262466 12.3256435 9.9262466 20.6738167 0 13.8942108-10.7400475 25.3382187-24.3501053 26.4624252" fill="#ef586c"/></g><g><path d="m36.2077332 66.5c-.2568359 0-.4755859-.1972656-.4970703-.4589844-.0234375-.2753906.1816406-.5166016.4570313-.5390625 13.3974609-1.1064453 23.8916016-12.5117188 23.8916016-25.9638672 0-7.9121094-3.5498047-15.3056641-9.7402344-20.2841797-1.3984375-1.1259766-3.2119141-1.3271484-4.8525391-.5439453-1.6601563.7958984-2.6914063 2.4248047-2.6914063 4.2519531v.3720703c0 1.2919922.6220703 2.5458984 1.7060547 3.4404297 3.8388672 3.1669922 6.0410156 7.8183594 6.0410156 12.7636719 0 4.5263672-1.796875 8.7529297-5.0605469 11.9003906-3.2558594 3.1416016-7.5341797 4.7734375-12.0615234 4.6191406-8.4824219-.3046875-15.6220703-7.4560547-15.9150391-15.9404297-.1796875-5.2060547 2.0439453-10.0898438 6.1005859-13.3994141 1.0410156-.8496094 1.6376953-2.1708984 1.6376953-3.625v-.1318359c0-1.8466797-.9902344-3.4179688-2.6494141-4.2041016-1.6767578-.7949219-3.6162109-.5507813-5.0654297.6347656-6.6171865 5.4140625-10.163085 13.7363281-9.4863272 22.2626953.9833984 12.3681641 10.6337881 22.3623047 22.9472656 23.7636719.2744141.03125.4716797.2792969.4404297.5537109-.0322266.2744141-.28125.4667969-.5537109.4404297-12.7871102-1.4560545-22.8095702-11.8349608-23.830078-24.6777342-.7041016-8.8535156 2.9785156-17.4951172 9.8496084-23.1162109 1.7509766-1.4326172 4.0986328-1.7255859 6.1259766-.7646484 1.9873047.9414063 3.2216797 2.8984375 3.2216797 5.1074219v.1318359c0 1.7558594-.7304688 3.359375-2.0048828 4.4003906-3.8125 3.109375-5.9023438 7.6982422-5.7333984 12.5888672.2744141 7.9716797 6.9814453 14.6894531 14.9501953 14.9755859 4.2695313.1503906 8.2724609-1.3876953 11.3330078-4.3388672 3.0654297-2.9580078 4.7539063-6.9277344 4.7539063-11.1806641 0-4.6455078-2.0693359-9.0166016-5.6777344-11.9921875-1.3154297-1.0849609-2.0693359-2.6201172-2.0693359-4.2119141v-.3720703c0-2.2158203 1.2490234-4.1904297 3.2597656-5.1533203 1.9648438-.9433594 4.2304688-.6865234 5.9111328.6660156 6.4267578 5.1699219 10.1132813 12.8466797 10.1132813 21.0634766 0 13.96875-10.8974609 25.8115234-24.8095703 26.9599609-.013672.0009766-.0273439.0019532-.0419923.0019532z"/></g></g></g><g><g><path d="m39.2657051 14.6007853v13.2277269c0 2.9084129-2.3581734 5.265852-5.2658501 5.265852s-5.265852-2.357439-5.265852-5.265852v-20.5623798c0-2.9084125 2.3581734-5.2658501 5.265852-5.2658501s5.2658501 2.3574376 5.2658501 5.2658501v2.5124197" fill="#ef586c"/><path d="m33.9997253 33.5947266c-3.1787109 0-5.765625-2.5869141-5.765625-5.7666016v-20.5615234c0-3.1796875 2.5869141-5.7666016 5.765625-5.7666016s5.765625 2.5869141 5.765625 5.7666016v2.5117188c0 .2763672-.2236328.5-.5.5s-.5-.2236328-.5-.5v-2.5117188c0-2.6279297-2.1376953-4.7666016-4.765625-4.7666016s-4.765625 2.1386719-4.765625 4.7666016v20.5615234c0 2.6279297 2.1376953 4.7666016 4.765625 4.7666016s4.765625-2.1386719 4.765625-4.7666016v-13.2275391c0-.2763672.2236328-.5.5-.5s.5.2236328.5.5v13.2275391c0 3.1796875-2.586914 5.7666016-5.765625 5.7666016z"/></g></g></g></g></svg>