<svg id="Capa_1" enable-background="new 0 0 511.916 511.916" height="512" viewBox="0 0 511.916 511.916" width="512" xmlns="http://www.w3.org/2000/svg"><g><g><g><path d="m457.381 55.674c-134.282-10.584-268.565-10.584-402.847 0-20.048 1.58-36.066 17.257-38.234 37.25-11.786 108.689-11.786 217.377 0 326.066 2.168 19.994 18.186 35.67 38.234 37.251 134.282 10.584 268.565 10.584 402.847 0 20.049-1.58 36.066-17.257 38.234-37.251 11.786-108.689 11.786-217.378 0-326.066-2.167-19.993-18.185-35.67-38.234-37.25z" fill="#e4f6ff"/><path d="m501.14 156.093-.2-.02c-163.318-14.4-326.637-14.4-489.955 0l-.2.03c1.39-21.06 3.23-42.11 5.52-63.169 2.17-20 18.19-35.68 38.23-37.26 134.288-10.58 268.567-10.58 402.856 0 20.04 1.58 36.06 17.26 38.23 37.26 2.289 21.049 4.129 42.109 5.519 63.159z" fill="#617881"/><circle cx="70.74" cy="100.838" fill="#da4a54" r="23.457"/><circle cx="211.481" cy="100.838" fill="#86f1a7" r="23.457"/><circle cx="141.11" cy="100.838" fill="#f4dd45" r="23.457"/></g><g><path d="m283.852 359.155s-20.504 22.611-71.658 17.582h-45.683-45.679c-51.161 5.029-71.666-17.582-71.666-17.582 12.084-12.084 11.717-22.697 11.717-68.837s18.309-95.664 105.626-95.664 105.626 49.524 105.626 95.664c0 46.139-.367 56.753 11.717 68.837z" fill="#da4a54"/><path d="m131.256 289.011v87.726h-10.425c-51.161 5.029-71.666-17.582-71.666-17.582 12.084-12.084 11.717-22.697 11.717-68.837s18.309-95.664 105.626-95.664c-40.442-.001-35.252 53.503-35.252 94.357z" fill="#c32430"/><path d="m242.051 341.611c-1.109 21.796-18.551 39.151-40.362 40.179-17.157.808-34.313 1.028-51.477.653-.022 0-.051 0-.073-.007-6.269-.132-12.539-.352-18.808-.646-21.804-1.028-39.246-18.383-40.362-40.179-.8-15.534-.881-31.061-.264-46.595h.007s17.92-.91 40.546-6.005c20.108-4.522 43.93-12.355 62.188-25.79 0 0 19.043 31.795 48.871 31.795.622 15.534.534 31.061-.266 46.595z" fill="#f1d0a5"/><path d="m150.138 382.436c-6.269-.132-12.539-.352-18.808-.646-21.804-1.028-39.246-18.383-40.362-40.179-.8-15.534-.881-31.061-.264-46.595h.007s17.92-.91 40.546-6.005v.007c-5.052 43.314.058 92.64 18.881 93.418z" fill="#f1b986"/><g fill="#eaac9d"><ellipse cx="213.627" cy="330.597" rx="11.23" ry="7.08"/><ellipse cx="119.394" cy="330.597" rx="11.23" ry="7.08"/></g></g></g><g><path d="m503.071 92.115c-1.842-16.996-12.563-32.079-27.982-39.363-3.742-1.769-8.216-.167-9.984 3.578-1.77 3.745-.168 8.216 3.577 9.985 10.73 5.069 18.194 15.575 19.478 27.417 1.953 18.008 3.572 36.059 4.872 54.137-157.364-13.382-316.785-13.381-474.146.002 1.3-18.079 2.919-36.13 4.872-54.138 1.782-16.429 14.972-29.291 31.361-30.583 128.344-10.114 258.472-10.493 386.771-1.127 4.136.308 7.726-2.802 8.026-6.934.301-4.131-2.804-7.724-6.935-8.026-129.055-9.421-259.946-9.04-389.042 1.133-23.568 1.859-42.534 20.329-45.094 43.918-11.793 108.718-11.793 218.967 0 327.685 2.561 23.589 21.526 42.059 45.096 43.917 67.024 5.285 134.521 7.928 202.018 7.928s134.993-2.643 202.018-7.928c23.569-1.858 42.535-20.328 45.096-43.917 11.791-108.718 11.791-218.967-.002-327.684zm-14.912 326.066c-1.783 16.428-14.974 29.29-31.363 30.582-133.266 10.509-268.41 10.509-401.676 0-16.39-1.292-29.58-14.154-31.363-30.582-9.178-84.611-11.138-170.158-5.887-255.169 158.022-13.571 318.155-13.572 476.177-.002 5.25 85.013 3.29 170.56-5.888 255.171z"/><path d="m39.783 100.838c0 17.07 13.888 30.957 30.957 30.957s30.957-13.887 30.957-30.957-13.887-30.956-30.957-30.956-30.957 13.887-30.957 30.956zm46.914 0c0 8.799-7.158 15.957-15.957 15.957s-15.957-7.158-15.957-15.957 7.158-15.957 15.957-15.957 15.957 7.159 15.957 15.957z"/><path d="m180.523 100.838c0 17.07 13.888 30.957 30.957 30.957s30.957-13.887 30.957-30.957-13.887-30.956-30.957-30.956-30.957 13.887-30.957 30.956zm46.915 0c0 8.799-7.158 15.957-15.957 15.957s-15.957-7.158-15.957-15.957 7.158-15.957 15.957-15.957 15.957 7.159 15.957 15.957z"/><path d="m110.153 100.838c0 17.07 13.888 30.957 30.957 30.957s30.957-13.887 30.957-30.957-13.887-30.956-30.957-30.956-30.957 13.887-30.957 30.956zm46.914 0c0 8.799-7.158 15.957-15.957 15.957s-15.957-7.158-15.957-15.957 7.158-15.957 15.957-15.957 15.957 7.159 15.957 15.957z"/><path d="m185.218 328.474c-3.738-1.776-8.216-.183-9.991 3.56-1.59 3.349-5.011 5.512-8.716 5.512-3.704 0-7.125-2.164-8.715-5.512-1.776-3.743-6.251-5.335-9.991-3.56-3.742 1.776-5.336 6.25-3.56 9.991 4.06 8.554 12.8 14.081 22.266 14.081 9.467 0 18.207-5.527 22.267-14.081 1.776-3.742.182-8.215-3.56-9.991z"/><path d="m131.26 299.077c-3.852 0-6.984 4.644-6.984 10.352s3.133 10.352 6.984 10.352 6.984-4.644 6.984-10.352-3.133-10.352-6.984-10.352z"/><path d="m201.763 299.077c-3.852 0-6.984 4.644-6.984 10.352s3.133 10.352 6.984 10.352 6.984-4.644 6.984-10.352-3.133-10.352-6.984-10.352z"/><path d="m279.627 294.217.001-3.896c0-28.647-6.959-51.718-20.684-68.575-2.615-3.211-7.338-3.696-10.552-1.08-3.212 2.615-3.696 7.339-1.081 10.552 11.49 14.111 17.316 33.997 17.316 59.104l-.001 3.892c-.008 36.798-.011 51.74 8.564 63.958-5.726 3.818-16.468 9.172-33.409 11.081 5.692-7.66 9.24-17.027 9.763-27.255.805-15.737.893-31.644.263-47.281-.162-4.021-3.47-7.198-7.494-7.198-25.124 0-42.271-27.885-42.433-28.154-1.085-1.813-2.885-3.083-4.956-3.5-2.067-.416-4.221.06-5.924 1.312-36.502 26.86-98.055 30.319-98.608 30.348-3.901.163-7.025 3.292-7.182 7.194-.627 15.71-.539 31.617.263 47.28.526 10.227 4.075 19.594 9.767 27.253-16.934-1.907-27.668-7.253-33.386-11.057 8.548-11.987 8.544-26.266 8.536-63.981l-.001-3.892c0-59.329 32.095-88.169 98.119-88.169 24.548 0 44.738 4.101 60.01 12.188 3.663 1.94 8.2.542 10.138-3.118 1.938-3.661.543-8.199-3.118-10.138-17.456-9.245-40.009-13.932-67.029-13.932-41.774 0-72.479 11.158-91.259 33.164-14.506 16.996-21.86 40.549-21.86 70.006l.001 3.896c.01 42.965-.252 50.358-9.524 59.63-2.828 2.828-2.939 7.379-.252 10.342.813.896 19.367 20.774 62.798 20.774 1.969 0 4.008-.055 6.081-.141 5.66 2.582 11.895 4.151 18.483 4.462 11.79.557 23.663.835 35.536.835 11.872 0 23.743-.278 35.531-.835 6.59-.311 12.826-1.879 18.486-4.462 2.075.086 4.113.141 6.086.141 43.426-.002 61.978-19.88 62.789-20.776 2.687-2.963 2.574-7.512-.253-10.34-9.273-9.273-9.535-16.667-9.525-59.632zm-78.291 80.084c-23.107 1.092-46.54 1.092-69.653 0-18.019-.851-32.304-15.068-33.229-33.07-.665-13-.824-26.176-.477-39.258 16.888-1.61 60.983-7.644 93.585-28.386 7.134 9.233 22.315 25.282 43.48 28.399.349 13.024.188 26.195-.479 39.246-.918 18.001-15.204 32.218-33.227 33.069z"/><path d="m467.734 201.058h-150.307c-4.143 0-7.5 3.358-7.5 7.5s3.357 7.5 7.5 7.5h150.308c4.143 0 7.5-3.358 7.5-7.5s-3.358-7.5-7.501-7.5z"/><path d="m317.427 250.642h70.498c4.143 0 7.5-3.358 7.5-7.5s-3.357-7.5-7.5-7.5h-70.498c-4.143 0-7.5 3.358-7.5 7.5s3.357 7.5 7.5 7.5z"/><path d="m467.734 284.858h-150.307c-4.143 0-7.5 3.358-7.5 7.5s3.357 7.5 7.5 7.5h150.308c4.143 0 7.5-3.358 7.5-7.5s-3.358-7.5-7.501-7.5z"/><path d="m317.427 334.442h70.498c4.143 0 7.5-3.358 7.5-7.5s-3.357-7.5-7.5-7.5h-70.498c-4.143 0-7.5 3.358-7.5 7.5s3.357 7.5 7.5 7.5z"/><path d="m467.734 368.657h-150.307c-4.143 0-7.5 3.358-7.5 7.5s3.357 7.5 7.5 7.5h150.308c4.143 0 7.5-3.358 7.5-7.5s-3.358-7.5-7.501-7.5z"/><path d="m387.925 403.241h-70.498c-4.143 0-7.5 3.358-7.5 7.5s3.357 7.5 7.5 7.5h70.498c4.143 0 7.5-3.358 7.5-7.5s-3.358-7.5-7.5-7.5z"/></g></g></svg>