<svg height="512" viewBox="0 0 512 512" width="512" xmlns="http://www.w3.org/2000/svg"><g id="_33.Profile" data-name="33.Profile"><path d="m501 146.73v239.9237a58.9718 58.9718 0 0 1 -58.9763 58.9763h-372.0471a58.9719 58.9719 0 0 1 -58.9766-58.9763v-239.9237z" fill="#f7f5fb"/><path d="m501 132.6174v14.1126h-490v-14.1126c0-36.5913 26.4011-66.2474 58.9766-66.2474h372.0471c32.5752 0 58.9763 29.6561 58.9763 66.2474z" fill="#cfdce5"/><circle cx="82.05" cy="109.98" fill="#f17b89" r="16.66"/><circle cx="131.05" cy="109.98" fill="#f5d367" r="16.66"/><circle cx="180.05" cy="109.98" fill="#74d1d1" r="16.66"/><rect fill="#f7f5fb" height="28.42" rx="14.21" width="196" x="250.61" y="95.77"/><rect fill="#ffebb9" height="42.484" rx="21.242" width="174" x="283.389" y="323.696"/><rect fill="#f5d367" height="63.489" rx="27.745" width="188" x="276.389" y="226.18"/><circle cx="149.934" cy="296.18" fill="#ffebb9" r="102.323"/><circle cx="149.934" cy="270.113" fill="#74d1d1" r="37.26"/><rect fill="#74d1d1" height="41.826" rx="20.913" width="110.164" x="94.853" y="317.682"/><path d="m234.2143 445.6268h-164.24a58.9677 58.9677 0 0 1 -58.97-58.97v-239.93h31.58c25.4401 121.7799 95.2001 227.29 191.63 298.9z" fill="#e4e3e8"/><path d="m42.5844 146.7268h-31.58v-14.11c0-21.04 8.73-39.79 22.34-51.92a497.582 497.582 0 0 0 9.24 66.03z" fill="#bcc6cc"/><path d="m176.1045 395.1268a102.3413 102.3413 0 0 1 -106.96-161.74 500.523 500.523 0 0 0 106.96 161.74z" fill="#eddab0"/><path d="m144.1644 359.5068h-28.4a20.91 20.91 0 0 1 -2.15-41.71 495.9914 495.9914 0 0 0 30.55 41.71z" fill="#6cbcba"/><path d="m442.0244 451.6266h-372.0498a65.0437 65.0437 0 0 1 -64.97-64.97v-169.4a6 6 0 0 1 12 0v169.4a53.03 53.03 0 0 0 52.97 52.97h372.05a53.0348 53.0348 0 0 0 52.98-52.97v-233.93h-478v17.73a6 6 0 0 1 -12 0v-23.73a6 6 0 0 1 6-6h490a6 6 0 0 1 6 6v239.93a65.0486 65.0486 0 0 1 -64.9802 64.97z"/><path d="m11.0044 204.3566a6 6 0 0 1 -6-6v-9a6 6 0 0 1 12 0v9a6 6 0 0 1 -6 6z"/><path d="m501 152.73h-490a6 6 0 0 1 -6-6v-14.1127c0-39.8373 29.1484-72.2473 64.9765-72.2473h372.0474c35.8281 0 64.9761 32.41 64.9761 72.2473v14.1127a6 6 0 0 1 -6 6zm-484-12h478v-8.1128c0-33.22-23.7652-60.2471-52.9761-60.2471h-372.0474c-29.2114-.0001-52.9765 27.027-52.9765 60.2472z"/><path d="m82.05 132.64a22.66 22.66 0 1 1 22.66-22.66 22.6853 22.6853 0 0 1 -22.66 22.66zm0-33.32a10.66 10.66 0 1 0 10.66 10.66 10.672 10.672 0 0 0 -10.66-10.66z"/><path d="m131.05 132.64a22.66 22.66 0 1 1 22.66-22.66 22.6853 22.6853 0 0 1 -22.66 22.66zm0-33.32a10.66 10.66 0 1 0 10.66 10.66 10.672 10.672 0 0 0 -10.66-10.66z"/><path d="m180.05 132.64a22.66 22.66 0 1 1 22.66-22.66 22.6853 22.6853 0 0 1 -22.66 22.66zm0-33.32a10.66 10.66 0 1 0 10.66 10.66 10.672 10.672 0 0 0 -10.66-10.66z"/><path d="m432.4 130.19h-167.58a20.21 20.21 0 1 1 0-40.42h167.58a20.21 20.21 0 0 1 0 40.42zm-167.58-28.42a8.21 8.21 0 1 0 0 16.42h167.58a8.21 8.21 0 0 0 0-16.42z"/><path d="m436.1465 372.18h-131.5157a27.242 27.242 0 1 1 0-54.4839h131.5157a27.242 27.242 0 1 1 0 54.4839zm-131.5157-42.4841a15.242 15.242 0 1 0 0 30.4839h131.5157a15.242 15.242 0 1 0 0-30.4839z"/><path d="m436.644 295.67h-132.5107a33.7828 33.7828 0 0 1 -33.7447-33.7447v-8a33.7828 33.7828 0 0 1 33.7447-33.7453h132.5107a33.7827 33.7827 0 0 1 33.7446 33.7446v8a33.7828 33.7828 0 0 1 -33.7446 33.7454zm-132.5107-63.49a21.769 21.769 0 0 0 -21.7447 21.7446v8a21.769 21.769 0 0 0 21.7447 21.7454h132.5107a21.769 21.769 0 0 0 21.7446-21.7447v-8a21.769 21.769 0 0 0 -21.7446-21.7453z"/><path d="m149.934 404.5031a108.323 108.323 0 1 1 108.3233-108.3231 108.4458 108.4458 0 0 1 -108.3233 108.3231zm0-204.646a96.323 96.323 0 1 0 96.3233 96.3229 96.4321 96.4321 0 0 0 -96.3233-96.3229z"/><path d="m149.934 313.3727a43.26 43.26 0 1 1 43.2608-43.26 43.309 43.309 0 0 1 -43.2608 43.26zm0-74.52a31.26 31.26 0 1 0 31.2608 31.26 31.2958 31.2958 0 0 0 -31.2608-31.2605z"/><path d="m184.103 365.5079h-68.3374a26.9128 26.9128 0 1 1 0-53.8256h68.3374a26.9128 26.9128 0 1 1 0 53.8256zm-68.3374-41.8256a14.9128 14.9128 0 1 0 0 29.8256h68.3374a14.9128 14.9128 0 1 0 0-29.8256z"/></g></svg>