<svg id="Capa_1" enable-background="new 0 0 512.031 512.031" height="512" viewBox="0 0 512.031 512.031" width="512" xmlns="http://www.w3.org/2000/svg"><path id="XMLID_2004_" d="m250.41 211.452c-4.144 3.681-7.211 8.077-9.203 12.819-2.395 5.7-9.85 7.093-14.222 2.721l-32.491-32.491c-14.059-14.059-36.853-14.059-50.912 0l-32.491 32.491c-4.372 4.372-11.827 2.979-14.222-2.721-1.992-4.742-5.059-9.138-9.203-12.819-13.236-11.756-33.499-11.864-46.847-.235-15.695 13.673-16.308 37.511-1.841 51.979 3.338 3.338 7.174 5.871 11.27 7.602 5.724 2.419 7.182 9.855 2.788 14.249l-32.491 32.491c-14.059 14.059-14.059 36.853 0 50.912l32.416 32.416c4.351 4.351 11.776 3.001 14.195-2.657 2.015-4.714 5.096-9.08 9.244-12.733 13.24-11.66 33.42-11.721 46.724-.134 15.699 13.672 16.314 37.513 1.845 51.982-3.281 3.281-7.043 5.786-11.059 7.515-5.689 2.45-7.125 9.851-2.745 14.231l32.417 32.417c14.059 14.059 36.853 14.059 50.912 0l32.416-32.416c4.351-4.351 3.001-11.776-2.657-14.195-4.714-2.015-9.08-5.096-12.733-9.243-11.66-13.24-11.721-33.42-.135-46.724 13.672-15.699 37.514-16.315 51.983-1.845 3.281 3.281 5.786 7.043 7.515 11.059 2.45 5.689 9.851 7.125 14.231 2.745l32.417-32.417c14.059-14.059 14.059-36.853 0-50.912l-32.492-32.492c-4.394-4.394-2.936-11.83 2.788-14.249 4.095-1.731 7.932-4.264 11.27-7.602 14.468-14.468 13.854-38.305-1.84-51.978-13.349-11.629-33.611-11.522-46.847.234z" fill="#ba87d8"/><path id="XMLID_2003_" d="m474.519 87.665c-3.681 4.144-8.077 7.211-12.819 9.203-5.7 2.395-7.093 9.85-2.721 14.222l32.491 32.491c14.059 14.059 14.059 36.853 0 50.912l-32.491 32.491c-4.372 4.372-2.979 11.827 2.721 14.222 4.742 1.992 9.138 5.059 12.819 9.203 11.756 13.236 11.864 33.499.235 46.847-13.673 15.695-37.511 16.308-51.979 1.841-3.338-3.338-5.871-7.174-7.602-11.27-2.419-5.724-9.855-7.182-14.249-2.788l-32.491 32.491c-14.059 14.059-36.853 14.059-50.912 0l-32.416-32.416c-4.351-4.351-3.001-11.776 2.657-14.195 4.714-2.015 9.08-5.096 12.733-9.244 11.66-13.24 11.721-33.42.134-46.724-13.672-15.699-37.513-16.314-51.982-1.845-3.281 3.281-5.786 7.043-7.515 11.059-2.45 5.689-9.851 7.125-14.231 2.745l-32.417-32.417c-14.059-14.059-14.059-36.853 0-50.912l32.416-32.416c4.351-4.351 11.776-3.001 14.195 2.657 2.015 4.714 5.096 9.08 9.243 12.733 13.24 11.66 33.42 11.721 46.724.135 15.699-13.672 16.315-37.514 1.846-51.983-3.281-3.281-7.043-5.786-11.059-7.515-5.689-2.45-7.125-9.851-2.745-14.231l32.417-32.417c14.059-14.059 36.853-14.059 50.912 0l32.492 32.492c4.394 4.394 11.83 2.936 14.249-2.788 1.731-4.095 4.264-7.932 7.602-11.27 14.468-14.468 38.305-13.854 51.978 1.84 11.629 13.349 11.521 33.611-.235 46.847z" fill="#ffcb7c"/><path id="XMLID_1245_" d="m467.335 232.77 18.54-18.539c3.905-3.905 3.905-10.237 0-14.143-3.906-3.904-10.236-3.904-14.143 0l-19.824 19.824c-4.431 4.432-6.355 10.75-5.147 16.903 1.199 6.113 5.336 11.201 11.065 13.608 3.527 1.482 6.629 3.712 9.217 6.625 8.482 9.552 8.557 24.013.171 33.638-4.731 5.431-11.274 8.558-18.423 8.804-7.158.221-13.886-2.406-18.944-7.466-2.348-2.347-4.185-5.069-5.462-8.091-2.435-5.761-7.551-9.915-13.686-11.112-6.132-1.193-12.429.729-16.846 5.146l-32.491 32.491c-10.139 10.139-26.635 10.137-36.77 0l-31.197-31.197c4.74-2.231 9.03-5.251 12.773-8.993 8.892-8.893 13.743-21.203 13.311-33.774-.438-12.749-5.998-24.403-15.654-32.815-17.187-14.975-43.008-14.844-60.056.298v-.001c-4.681 4.158-8.375 9.083-10.999 14.662l-31.205-31.206c-.002-.002-.004-.004-.006-.006-.001-.001-.002-.002-.003-.003-4.911-4.911-7.616-11.44-7.616-18.385s2.705-13.475 7.616-18.385l31.14-31.141c2.646 5.537 6.352 10.425 11.034 14.549 17.035 15 42.787 15.074 59.9.171 9.659-8.412 15.221-20.067 15.66-32.817.434-12.573-4.418-24.885-13.312-33.779-3.679-3.677-7.886-6.658-12.527-8.879l31.141-31.14c4.91-4.911 11.439-7.616 18.385-7.616 6.944 0 13.474 2.705 18.385 7.616l32.491 32.491c4.419 4.417 10.72 6.343 16.847 5.145 6.135-1.197 11.251-5.352 13.686-11.112 1.276-3.021 3.114-5.744 5.461-8.091 5.059-5.06 11.765-7.721 18.944-7.465 7.148.246 13.691 3.372 18.423 8.803 8.385 9.626 8.312 24.087-.172 33.638-2.586 2.913-5.688 5.143-9.215 6.625-5.729 2.407-9.866 7.494-11.066 13.607-1.208 6.154.716 12.474 5.147 16.905l19.153 19.153c3.906 3.904 10.236 3.904 14.143 0 3.905-3.905 3.905-10.237 0-14.143l-17.869-17.868c5.58-2.625 10.506-6.319 14.661-10.999 15.144-17.05 15.271-42.868.298-60.056-8.412-9.656-20.066-15.216-32.815-15.654-12.568-.421-24.882 4.42-33.774 13.311-3.742 3.743-6.763 8.033-8.993 12.773l-31.206-31.206c-8.69-8.689-20.241-13.474-32.529-13.474s-23.839 4.785-32.527 13.474l-32.416 32.416c-4.399 4.398-6.327 10.671-5.157 16.777 1.172 6.118 5.291 11.243 11.018 13.71 2.962 1.275 5.635 3.093 7.943 5.401 5.061 5.061 7.712 11.789 7.465 18.946-.246 7.15-3.374 13.693-8.807 18.425-9.585 8.345-24.007 8.302-33.547-.098-2.92-2.571-5.159-5.653-6.659-9.161-2.431-5.685-7.517-9.78-13.606-10.956-6.14-1.189-12.438.744-16.854 5.159l-32.415 32.416c-8.688 8.688-13.474 20.239-13.474 32.527 0 1.768.111 3.517.306 5.248-13.448-1.52-27.443 2.854-37.736 13.146l-31.205 31.206c-2.624-5.578-6.316-10.503-10.998-14.661-17.052-15.145-42.87-15.271-60.056-.298-9.657 8.412-15.217 20.066-15.655 32.815-.432 12.572 4.42 24.882 13.312 33.774 3.743 3.743 8.033 6.763 12.772 8.993l-31.206 31.206c-17.935 17.937-17.935 47.119 0 65.055l32.416 32.416c4.417 4.416 10.716 6.344 16.854 5.16 6.09-1.176 11.177-5.272 13.607-10.959 1.499-3.506 3.738-6.588 6.658-9.158 9.541-8.404 23.963-8.444 33.547-.098 5.433 4.731 8.561 11.274 8.807 18.424.247 7.156-2.404 13.885-7.465 18.945-2.309 2.31-4.981 4.127-7.944 5.402-5.726 2.467-9.845 7.592-11.017 13.71-1.17 6.106.758 12.379 5.156 16.776l32.417 32.417c8.688 8.688 20.24 13.474 32.527 13.474s23.839-4.785 32.527-13.474l32.417-32.416c4.415-4.416 6.344-10.717 5.158-16.854-1.176-6.089-5.271-11.176-10.958-13.607-3.506-1.499-6.588-3.738-9.158-6.656-8.402-9.542-8.444-23.965-.099-33.549 4.731-5.433 11.274-8.561 18.425-8.807 7.162-.247 13.886 2.404 18.945 7.464 2.31 2.31 4.127 4.982 5.402 7.945 2.467 5.726 7.592 9.845 13.71 11.017 6.104 1.17 12.378-.759 16.776-5.156l32.416-32.417c8.689-8.688 13.475-20.239 13.475-32.527 0-1.767-.11-3.517-.306-5.247 1.73.195 3.469.305 5.208.305 11.777-.001 23.561-4.485 32.527-13.451l31.206-31.206c2.23 4.739 5.25 9.029 8.993 12.772 8.893 8.892 21.203 13.742 33.774 13.312 12.749-.438 24.403-5.998 32.815-15.654 14.974-17.188 14.846-43.006-.298-60.057-4.155-4.68-9.08-8.372-14.658-10.996zm-156.876 91.839c4.911 4.911 7.616 11.44 7.616 18.385s-2.705 13.475-7.616 18.385l-31.14 31.141c-2.221-4.642-5.202-8.85-8.88-12.528-8.894-8.893-21.206-13.735-33.778-13.311-12.75.439-24.405 6.001-32.817 15.66-14.903 17.114-14.83 42.866.172 59.902 4.124 4.681 9.012 8.386 14.548 11.032l-31.141 31.14c-4.91 4.911-11.439 7.616-18.385 7.616-6.944 0-13.474-2.705-18.385-7.616l-31.141-31.14c4.643-2.222 8.851-5.203 12.528-8.881 8.893-8.893 13.744-21.204 13.311-33.777-.439-12.75-6.001-24.405-15.66-32.816-17.114-14.905-42.864-14.831-59.9.17-4.682 4.123-8.388 9.011-11.034 14.549l-31.14-31.141c-10.138-10.137-10.138-26.632 0-36.77l32.49-32.49c4.419-4.418 6.343-10.716 5.146-16.847-1.196-6.135-5.351-11.251-11.112-13.687-3.021-1.276-5.743-3.113-8.09-5.461-5.061-5.06-7.712-11.788-7.466-18.944.246-7.148 3.373-13.691 8.805-18.423 9.624-8.387 24.086-8.313 33.636.171 2.914 2.588 5.144 5.689 6.626 9.217 2.407 5.729 7.495 9.866 13.608 11.065 6.154 1.214 12.473-.717 16.903-5.147l32.49-32.49c10.137-10.139 26.633-10.138 36.77 0l32.49 32.49c4.432 4.431 10.752 6.354 16.905 5.147 6.113-1.2 11.2-5.337 13.606-11.065 1.482-3.527 3.712-6.629 6.626-9.216 0-.001 0-.001 0-.001 9.55-8.482 24.012-8.558 33.638-.171 5.431 4.731 8.557 11.274 8.803 18.423.246 7.156-2.405 13.885-7.465 18.944-2.347 2.347-5.069 4.185-8.092 5.462-5.76 2.434-9.914 7.55-11.111 13.685-1.196 6.131.727 12.429 5.145 16.847z"/><path id="XMLID_1250_" d="m509.077 161.525c-1.859-1.86-4.439-2.93-7.069-2.93s-5.21 1.069-7.07 2.93-2.93 4.44-2.93 7.07c0 2.64 1.069 5.21 2.93 7.069 1.86 1.87 4.44 2.931 7.07 2.931s5.21-1.061 7.069-2.931c1.86-1.859 2.931-4.43 2.931-7.069 0-2.629-1.071-5.209-2.931-7.07z"/></svg>