<svg id="Capa_1" enable-background="new 0 0 512 512" height="512" viewBox="0 0 512 512" width="512" xmlns="http://www.w3.org/2000/svg"><g><g><g><path d="m227.567 168.467h-16.359v-68.884h-201.208v201.208h68.885v-16.358c0-17.52 14.199-31.719 31.719-31.719s31.719 14.199 31.719 31.719v16.358h68.885v-68.883h16.359c17.519 0 31.721-14.202 31.721-31.721s-14.202-31.72-31.721-31.72z" fill="#ff7d97"/><path d="m78.883 284.433v16.358h-68.883v201.209h201.208v-68.885h-16.358c-17.52 0-31.719-14.199-31.719-31.719s14.199-31.719 31.719-31.719h16.358v-68.885h-68.883v-16.358c0-17.519-14.202-31.721-31.721-31.721-17.519-.001-31.721 14.201-31.721 31.72z" fill="#c193dc"/><path d="m194.85 433.117h16.358v68.883h201.209v-201.208h-68.885v16.358c0 17.52-14.199 31.719-31.719 31.719s-31.719-14.199-31.719-31.719v-16.358h-68.885v68.883h-16.359c-17.519 0-31.721 14.202-31.721 31.721s14.202 31.721 31.721 31.721z" fill="#80b6ff"/><path d="m433.117 227.567v-16.358h68.883v-201.209h-201.208v68.885h16.358c17.52 0 31.719 14.199 31.719 31.719s-14.199 31.719-31.719 31.719h-16.358v68.885h68.883v16.358c0 17.519 14.202 31.721 31.721 31.721 17.519.001 31.721-14.201 31.721-31.72z" fill="#ffee80"/></g></g><g><path d="m412.417 290.792h-68.885c-5.523 0-10 4.477-10 10v16.358c0 11.976-9.743 21.719-21.719 21.719s-21.719-9.743-21.719-21.719v-16.358c0-5.523-4.477-10-10-10h-58.885v-48.883h6.358c23.005 0 41.721-18.716 41.721-41.721s-18.716-41.721-41.721-41.721h-6.358v-58.884c0-5.523-4.477-10-10-10h-201.209c-5.523 0-10 4.477-10 10v402.417c0 5.523 4.477 10 10 10h201.208 201.208c5.523 0 10-4.477 10-10v-201.208c.001-5.523-4.476-10-9.999-10zm-392.417-181.209h181.208v58.884c0 5.523 4.477 10 10 10h16.358c11.977 0 21.721 9.744 21.721 21.721s-9.744 21.721-21.721 21.721h-16.358c-5.523 0-10 4.477-10 10v58.883h-48.885v-6.358c0-23.004-18.715-41.719-41.719-41.719s-41.719 18.715-41.719 41.719v6.358h-48.885zm181.208 382.417h-181.208v-181.208h58.885c5.523 0 10-4.477 10-10v-16.358c0-11.976 9.743-21.719 21.719-21.719s21.719 9.743 21.719 21.719v16.358c0 5.523 4.477 10 10 10h58.885v48.885h-6.358c-23.004 0-41.719 18.715-41.719 41.719s18.715 41.719 41.719 41.719h6.358zm201.209 0h-181.209v-58.885c0-5.523-4.477-10-10-10h-16.358c-11.976 0-21.719-9.743-21.719-21.719s9.743-21.719 21.719-21.719h16.358c5.523 0 10-4.477 10-10v-58.885h48.885v6.358c0 23.004 18.715 41.719 41.719 41.719s41.719-18.715 41.719-41.719v-6.358h48.885v181.208z"/><path d="m502 0h-55.604c-5.523 0-10 4.477-10 10s4.477 10 10 10h45.604v181.208h-58.883c-5.523 0-10 4.477-10 10v16.358c0 11.977-9.744 21.721-21.721 21.721s-21.721-9.744-21.721-21.721v-16.358c0-5.523-4.477-10-10-10h-58.883v-48.885h6.358c23.004 0 41.719-18.715 41.719-41.719s-18.715-41.719-41.719-41.719h-6.358v-48.885h45.604c5.523 0 10-4.477 10-10s-4.477-10-10-10h-55.604c-5.523 0-10 4.477-10 10v68.885c0 5.523 4.477 10 10 10h16.358c11.976 0 21.719 9.743 21.719 21.719s-9.743 21.719-21.719 21.719h-16.358c-5.523 0-10 4.477-10 10v68.885c0 5.523 4.477 10 10 10h58.883v6.358c0 23.005 18.716 41.721 41.721 41.721s41.721-18.716 41.721-41.721v-6.358h58.883c5.523 0 10-4.477 10-10v-201.208c0-5.523-4.477-10-10-10z"/><circle cx="401.396" cy="10" r="10"/></g></g></svg>