<svg id="Capa_1" enable-background="new 0 0 511.962 511.962" height="512" viewBox="0 0 511.962 511.962" width="512" xmlns="http://www.w3.org/2000/svg"><path id="XMLID_2156_" d="m117.981 501.962v-491.962h296l64 63.962v428z" fill="#eff3f3"/><path id="XMLID_2894_" d="m178.481 119.962h239.5v58.647h-239.5z" fill="#f8a2aa"/><path id="XMLID_2255_" d="m178.481 178.609h239.5v58.647h-239.5z" fill="#b0e7f8"/><path id="XMLID_2256_" d="m178.481 237.256h239.5v58.647h-239.5z" fill="#e2f1a1"/><path id="XMLID_2155_" d="m413.981 9.962v64h64z" fill="#ffe6c0"/><path id="XMLID_896_" d="m383.281 341.962h-306.6c-23.582 0-42.7 19.117-42.7 42.7v74.601c0 23.582 19.117 42.7 42.7 42.7h306.601c23.582 0 42.7-19.117 42.7-42.7v-74.601c-.001-23.583-19.118-42.7-42.701-42.7z" fill="#91def5"/><path id="XMLID_3011_" d="m257.981 119.962h56v176h-56z" fill="#b5bcc9"/><path id="XMLID_1609_" d="m485.05 66.889-64-63.962c-1.876-1.874-4.418-2.927-7.069-2.927h-296c-5.522 0-10 4.478-10 10v321.962h-31.301c-29.059 0-52.699 23.641-52.699 52.699v74.602c0 29.059 23.641 52.699 52.699 52.699h261.301 45.301 94.699c5.522 0 10-4.478 10-10v-200.873c0-5.522-4.478-10-10-10s-10 4.478-10 10v190.873h-43.417c7.138-8.993 11.417-20.352 11.417-32.699v-74.602c0-29.059-23.641-52.699-52.699-52.699h-255.301v-311.962h276v53.962c0 5.522 4.478 10 10 10h54v127.127c0 5.522 4.478 10 10 10s10-4.478 10-10v-137.127c0-2.653-1.055-5.197-2.931-7.073zm-69.069 317.772v74.602c0 18.03-14.669 32.699-32.699 32.699h-45.301-261.301c-18.03 0-32.699-14.669-32.699-32.699v-74.602c0-18.03 14.669-32.699 32.699-32.699h306.602c18.03 0 32.699 14.669 32.699 32.699zm8-350.529 29.848 29.83h-29.848z"/><path id="XMLID_1611_" d="m477.981 246.092c-2.63 0-5.21 1.06-7.07 2.93-1.86 1.86-2.93 4.431-2.93 7.07 0 2.63 1.069 5.21 2.93 7.07 1.86 1.859 4.44 2.93 7.07 2.93s5.21-1.07 7.069-2.93c1.86-1.87 2.931-4.44 2.931-7.07s-1.07-5.21-2.931-7.07c-1.859-1.871-4.439-2.93-7.069-2.93z"/><path id="XMLID_1616_" d="m194.688 471.359c1.129.411 2.282.605 3.417.605 4.086 0 7.922-2.523 9.398-6.585l2.698-7.418h39.249l3.49 7.999c2.208 5.063 8.102 7.376 13.164 5.166 5.063-2.208 7.375-8.103 5.166-13.164l-6.05-13.864c-.01-.025-.022-.05-.032-.074l-28.826-66.062c-1.636-3.75-5.368-6.114-9.479-5.996-4.088.128-7.687 2.733-9.084 6.577l-29.092 80c-1.886 5.191.792 10.93 5.981 12.816zm33.354-62.458 12.681 29.061h-23.249z"/><path id="XMLID_1619_" d="m104.106 381.962v23.908 16.087.01 39.995c0 5.522 4.478 10 10 10s10-4.478 10-10v-15.857l22.679 22.679c1.953 1.952 4.512 2.929 7.071 2.929s5.118-.977 7.071-2.929c3.905-3.905 3.905-10.237 0-14.143l-22.682-22.682c16.478-.076 29.861-13.501 29.861-29.997 0-16.542-13.458-30-30-30h-24c-5.523 0-10 4.477-10 10zm20 10h14c5.514 0 10 4.486 10 10s-4.486 10-10 10h-14v-6.092z"/><path id="XMLID_1636_" d="m291.856 421.967v39.995c0 5.522 4.478 10 10 10s10-4.478 10-10v-15.857l22.679 22.679c1.953 1.952 4.512 2.929 7.071 2.929s5.118-.977 7.071-2.929c3.905-3.905 3.905-10.237 0-14.143l-22.682-22.682c16.478-.076 29.861-13.501 29.861-29.997 0-16.542-13.458-30-30-30h-24c-5.522 0-10 4.478-10 10v23.908 16.087zm20-30.005h14c5.514 0 10 4.486 10 10s-4.486 10-10 10h-14v-6.092z"/><path id="XMLID_1644_" d="m177.981 109.962c-5.522 0-10 4.478-10 10v175.94c0 5.522 4.478 10 10 10h240c5.522 0 10-4.478 10-10v-175.94c0-5.522-4.478-10-10-10zm10 78.646h60v20.642.01 17.995h-60zm116 16.505-18 18-18-18v-75.151h36zm-36 28.285 10.929 10.929c1.953 1.952 4.512 2.929 7.071 2.929s5.118-.977 7.071-2.929l10.929-10.929v52.504h-36zm56-24.137c0-.003 0-.007 0-.01v-20.642h84v38.647h-84zm84-40.653h-84v-38.646h84zm-160-38.646v38.646h-60v-38.646zm-60 117.294h60v38.646h-60zm136 38.646v-38.646h84v38.646z"/></svg>