<svg id="Capa_1" enable-background="new 0 0 511.973 511.973" height="512" viewBox="0 0 511.973 511.973" width="512" xmlns="http://www.w3.org/2000/svg"><g><g><g><g><path d="m380.449 501.307h95.944c13.944 0 25.248-11.304 25.248-25.248v-234.489h-327.539v234.49c0 13.944 11.304 25.248 25.248 25.248h93.108 87.991z" fill="#e0e7ef"/></g><g><path d="m501.64 199.017c0-13.944-11.304-25.248-25.248-25.248h-277.042c-13.944 0-25.248 11.304-25.248 25.248v42.553h327.538z" fill="#7ba8bd"/></g></g><g><g><path d="m337.873 77.8v95.97h-138.52c-13.95 0-25.25 11.3-25.25 25.25v138.52h-138.52c-13.95 0-25.25-11.31-25.25-25.25v-234.49z" fill="#e0e7ef"/></g><g><path d="m337.871 35.248c0-13.944-11.304-25.248-25.248-25.248h-277.043c-13.944 0-25.248 11.304-25.248 25.248v42.553h327.538v-42.553z" fill="#5c90ae"/></g></g><g><path d="m441.687 434.337h-207.629c-8.763 0-15.866-7.104-15.866-15.866v-107.069c0-8.763 7.104-15.866 15.866-15.866h207.628c8.763 0 15.866 7.104 15.866 15.866v107.069c.001 8.762-7.102 15.866-15.865 15.866z" fill="#00d5f5"/></g></g><path d="m511.64 476.06v-277.043c0-19.436-15.812-35.247-35.248-35.247h-128.52l-.001-99.936h72.878c2.407 0 4.366 1.958 4.366 4.365v40.692l-7.12-7.12c-3.905-3.904-10.237-3.904-14.142 0-3.905 3.905-3.905 10.237 0 14.143l24.19 24.189c3.849 3.849 10.294 3.853 14.147-.005l24.186-24.184c3.905-3.905 3.906-10.236 0-14.143-3.904-3.903-10.237-3.904-14.142 0l-7.12 7.119v-40.691c0-13.435-10.93-24.365-24.366-24.365h-72.878v-8.586c.001-19.436-15.811-35.248-35.247-35.248h-277.042c-19.436 0-35.248 15.812-35.248 35.248v277.042c0 19.437 15.813 35.25 35.25 35.25h128.519v95.637h-66.68c-2.407 0-4.365-1.958-4.365-4.365v-40.692l7.119 7.119c3.853 3.852 10.29 3.852 14.143 0 3.905-3.905 3.905-10.237 0-14.143l-24.19-24.19c-3.848-3.848-10.294-3.849-14.143 0l-24.19 24.19c-3.905 3.905-3.905 10.237 0 14.143 3.905 3.904 10.237 3.904 14.143 0l7.119-7.119v40.691c0 13.435 10.93 24.365 24.365 24.365h66.68v12.883c0 19.436 15.812 35.248 35.248 35.248h93.108c5.523 0 10-4.478 10-10s-4.477-10-10-10h-93.109c-8.408 0-15.248-6.84-15.248-15.248l.001-224.489h307.537v224.49c0 8.408-6.84 15.248-15.248 15.248h-95.943c-5.523 0-10 4.478-10 10s4.477 10 10 10h95.943c19.436 0 35.248-15.813 35.248-35.248zm-476.059-456.06h277.042c8.408 0 15.248 6.84 15.248 15.248v32.552h-307.538v-32.552c0-8.408 6.84-15.248 15.248-15.248zm.002 307.54c-8.409 0-15.25-6.841-15.25-15.25v-224.489h307.54v75.969h-128.52-.003c-19.436 0-35.248 15.812-35.248 35.247v128.523zm148.52-95.97v-32.55c0-8.409 6.841-15.25 15.25-15.25h277.04c8.408 0 15.248 6.84 15.248 15.247v32.554h-307.538z"/><path d="m467.553 418.471v-107.069c0-14.263-11.604-25.866-25.866-25.866h-207.628c-14.263 0-25.866 11.604-25.866 25.866v107.068c0 14.263 11.604 25.866 25.866 25.866h207.628c14.263.001 25.866-11.603 25.866-25.865zm-239.361 0v-107.069c0-3.234 2.631-5.866 5.866-5.866h207.628c3.235 0 5.866 2.632 5.866 5.866v107.068c0 3.234-2.631 5.866-5.866 5.866h-207.627c-3.235.001-5.867-2.631-5.867-5.865z"/><path d="m394.126 327.105c-3.838-3.972-10.168-4.08-14.14-.241-3.971 3.838-4.079 10.169-.241 14.14l22.162 22.931-22.162 22.932c-3.838 3.971-3.73 10.302.242 14.14 3.918 3.786 10.354 3.676 14.14-.241l28.878-29.881c3.746-3.876 3.746-10.022 0-13.898z"/><path d="m295.962 326.864c-3.971-3.837-10.302-3.73-14.14.241l-28.878 29.88c-3.746 3.876-3.746 10.022 0 13.898l28.878 29.881c3.786 3.917 10.222 4.028 14.14.241 3.972-3.838 4.08-10.169.242-14.14l-22.162-22.932 22.162-22.931c3.837-3.969 3.729-10.3-.242-14.138z"/><path d="m359.587 325.372c-4.796-2.74-10.904-1.073-13.644 3.722l-34.478 60.347c-2.74 4.796-1.073 10.904 3.722 13.644 4.735 2.706 10.942 1.008 13.644-3.722l34.478-60.347c2.739-4.796 1.073-10.905-3.722-13.644z"/><path d="m326.876 505.819c2.064 5.04 8.031 7.494 13.05 5.41 5.029-2.088 7.5-8.013 5.41-13.05-2.087-5.028-8.012-7.502-13.05-5.41-5.023 2.086-7.509 8.016-5.41 13.05z"/><path d="m255.326 203.85c-1.56-3.957-5.755-6.459-9.961-6.145-4.361.326-8.044 3.515-9.014 7.776-1.99 8.739 8.177 15.47 15.498 10.358 3.747-2.617 5.305-7.763 3.477-11.989z"/><path d="m220.186 203.85c-1.66-4.047-6.02-6.606-10.361-6.107-4.265.49-7.839 3.797-8.681 8.001-1.624 8.111 7.629 14.691 14.774 10.592 4.265-2.448 6.162-7.937 4.268-12.486z"/><path d="m74.506 47.72c3.356 8.192 15.361 7.991 18.549-.228 1.536-3.959.321-8.627-2.975-11.32-3.24-2.646-7.892-2.988-11.482-.843-4.193 2.506-5.971 7.884-4.092 12.391z"/><path d="m39.356 47.72c2.065 5.042 8.028 7.493 13.05 5.41 5.029-2.085 7.501-8.013 5.41-13.05-2.087-5.028-8.014-7.501-13.05-5.41-5.023 2.085-7.509 8.016-5.41 13.05z"/><path d="m223.587 138.032h38.971c5.523 0 10-4.478 10-10s-4.477-10-10-10h-38.971c-5.523 0-10 4.478-10 10s4.477 10 10 10z"/><path d="m59.994 138.032h119.055c5.523 0 10-4.478 10-10s-4.477-10-10-10h-119.055c-5.523 0-10 4.478-10 10s4.477 10 10 10z"/><path d="m128.579 278.533h-69.713c-5.523 0-10 4.478-10 10s4.477 10 10 10h69.713c5.523 0 10-4.478 10-10s-4.477-10-10-10z"/><path d="m128.579 225.033h-34.857c-5.523 0-10 4.478-10 10s4.477 10 10 10h34.857c5.523 0 10-4.478 10-10s-4.477-10-10-10z"/><path d="m128.579 171.533h-34.857c-5.523 0-10 4.478-10 10s4.477 10 10 10h34.857c5.523 0 10-4.478 10-10s-4.477-10-10-10z"/></g></svg>