<svg id="Capa_1" enable-background="new 0 0 512 512" viewBox="0 0 512 512" xmlns="http://www.w3.org/2000/svg"><g><g><path d="m281.588 14.379 75.033 75.033v15.588h-95.621v-90.621z" fill="#fff"/><path d="m21 10h250c8.284 0 15 6.716 15 15v60h60c8.284 0 15 6.716 15 15v402h-340z" fill="#fff"/><path d="m71 232h240v40h-240z" fill="#99ebfa"/><path d="m71 187v5h130v-5c0-35.898-29.101-65-65-65-35.899 0-65 29.101-65 65z" fill="#ffda8f"/><circle cx="136" cy="87" fill="#ffdcd5" r="35"/><path d="m476 312h-160c-8.284 0-15 6.716-15 15v25h190v-25c0-8.284-6.716-15-15-15z" fill="#b6bccf"/><path d="m476 352h-160l13.199 131.99c1.022 10.224 9.626 18.01 19.901 18.01h93.8c10.275 0 18.878-7.786 19.901-18.01z" fill="#9ea6bf"/></g><g><path d="m476 302h-35v-15c0-13.785-11.215-25-25-25h-40c-1.712 0-3.384.173-5 .502v-162.502c0-6.686-2.638-12.768-6.929-17.258-.122-.136-75.681-75.695-75.819-75.819-4.49-4.287-10.569-6.923-17.252-6.923h-250c-5.522 0-10 4.477-10 10v202c0 5.523 4.478 10 10 10s10-4.477 10-10v-192h240c1.366 0 2.606.551 3.51 1.443.002.002.004.005.007.007l.048.048c.887.902 1.435 2.139 1.435 3.502v60c0 5.523 4.478 10 10 10h60c1.363 0 2.6.548 3.502 1.436l.047.047c.002.002.005.005.007.007.893.903 1.444 2.143 1.444 3.51v202h-35c-13.785 0-25 11.215-25 25v25c0 5.523 4.478 10 10 10h5.95l12.299 122.985c.244 2.444.774 4.793 1.552 7.015h-289.801v-190c0-5.523-4.478-10-10-10s-10 4.477-10 10v200c0 5.523 4.478 10 10 10h421.9c15.478 0 28.311-11.614 29.851-27.015l12.299-122.985h5.95c5.522 0 10-4.477 10-10v-25c0-13.785-11.215-25-25-25zm-180-227v-32.067l32.067 32.067zm75 212c0-2.757 2.243-5 5-5h40c2.757 0 5 2.243 5 5v15h-50zm81.851 195.995c-.514 5.134-4.791 9.005-9.95 9.005h-93.801c-5.159 0-9.437-3.871-9.95-9.005l-12.1-120.995h137.9zm28.149-140.995h-170v-15c0-2.757 2.243-5 5-5h160c2.757 0 5 2.243 5 5z"/><path d="m418.667 471.994c5.52.184 10.144-4.141 10.327-9.661l2.333-70c.184-5.52-4.141-10.143-9.661-10.327s-10.144 4.141-10.327 9.661l-2.333 70c-.184 5.52 4.141 10.143 9.661 10.327z"/><path d="m363.006 462.333c.184 5.52 4.808 9.845 10.327 9.661 5.52-.184 9.845-4.808 9.661-10.327l-2.333-70c-.184-5.52-4.808-9.845-10.327-9.661-5.52.184-9.845 4.808-9.661 10.327z"/><path d="m251 162h60c5.522 0 10-4.477 10-10s-4.478-10-10-10h-60c-5.522 0-10 4.477-10 10s4.478 10 10 10z"/><path d="m251 202h60c5.522 0 10-4.477 10-10s-4.478-10-10-10h-60c-5.522 0-10 4.477-10 10s4.478 10 10 10z"/><path d="m61 272c0 5.523 4.478 10 10 10h240c5.522 0 10-4.477 10-10v-40c0-5.523-4.478-10-10-10h-240c-5.522 0-10 4.477-10 10zm20-30h220v20h-220z"/><path d="m71 322h170c5.522 0 10-4.477 10-10s-4.478-10-10-10h-170c-5.522 0-10 4.477-10 10s4.478 10 10 10z"/><path d="m71 362h170c5.522 0 10-4.477 10-10s-4.478-10-10-10h-170c-5.522 0-10 4.477-10 10s4.478 10 10 10z"/><path d="m71 402h90c5.522 0 10-4.477 10-10s-4.478-10-10-10h-90c-5.522 0-10 4.477-10 10s4.478 10 10 10z"/><path d="m61 187v5c0 5.523 4.478 10 10 10h130c5.522 0 10-4.477 10-10v-5c0-30.067-17.784-56.058-43.385-68.007 8.259-8.163 13.385-19.49 13.385-31.993 0-24.813-20.187-45-45-45s-45 20.187-45 45c0 12.503 5.126 23.83 13.385 31.993-25.601 11.949-43.385 37.94-43.385 68.007zm75-125c13.785 0 25 11.215 25 25s-11.215 25-25 25-25-11.215-25-25 11.215-25 25-25zm0 70c28.643 0 52.241 22.006 54.774 50h-109.548c2.533-27.994 26.131-50 54.774-50z"/><circle cx="21" cy="257" r="10"/></g></g><g/><g/><g/><g/><g/><g/><g/><g/><g/><g/><g/><g/><g/><g/><g/></svg>