<svg id="Capa_1" enable-background="new 0 0 512.036 512.036" height="512" viewBox="0 0 512.036 512.036" width="512" xmlns="http://www.w3.org/2000/svg"><path id="XMLID_789_" d="m430.895 75.462-8.513-37.947c-2.916-13-21.487-12.872-24.224.167l-9.282 44.225z" fill="#fff"/><path id="XMLID_849_" d="m394.363 36.061c-47.615 10.867-89.284 41.182-114.093 84.613l-44.15 77.289h51.372l102.384-106.783z" fill="#f6838d"/><path id="XMLID_922_" d="m116.268 208.504.014-.026-12.089-9.153c-14.359-10.871-34.311-10.435-48.181 1.054-10.243 8.485-15.427 21.624-13.737 34.817l1.859 14.512c4.247 33.152.372 66.839-11.289 98.161 29.645 0 53.677-24.032 53.677-53.677v-30.925c0-22.948 11.846-43.116 29.746-54.763z" fill="#f6838d"/><path id="XMLID_89_" d="m472.942 150.631-41.797-74.456c-46.428 0-89.296 24.881-112.325 65.196l-32.328 56.593h-134.667c-36.066 0-65.303 29.237-65.303 65.303 0 13.077 3.926 25.853 11.271 36.674l20.152 29.69-17.057 80.562 41.132 13.649 17.362-38.644c17.094-38.049 54.925-62.526 96.638-62.526 41.713 0 79.543 24.477 96.638 62.526l17.362 38.644 42.039-13.649-31.722-115.075 31.722-104.946 7.209 4.519c15.438 9.677 35.516 7.392 48.385-5.506 10.194-10.219 12.355-25.968 5.289-38.554z" fill="#ffd89e"/><path id="XMLID_1536_" d="m256.019 484.203c-79.444 0-158.888-16.336-232.503-49.007-11.812-5.242-16.865-19.286-11.129-30.867 5.409-10.922 18.463-15.617 29.603-10.673 135.532 60.151 292.526 60.151 428.055.001 11.14-4.944 24.194-.249 29.603 10.672 5.736 11.581.683 25.625-11.129 30.868-73.613 32.669-153.056 49.006-232.5 49.006z" fill="#cc9e83"/><path id="XMLID_615_" d="m508.61 399.89c-7.808-15.763-26.529-22.516-42.621-15.375-15.018 6.665-30.287 12.573-45.747 17.739l-29.499-107.009 27.16-89.854c18.84 9.563 41.636 6.08 56.827-9.144 13.295-13.326 16.146-34.097 6.932-50.513l-41.232-73.448-8.291-36.959c-2.351-10.482-11.114-17.493-21.835-17.493-.057 0-.113 0-.17.001-7.135.049-13.36 3.202-17.412 8.375-.195.032-.389.058-.584.103-50.776 11.588-94.715 44.174-120.551 89.402l-41.271 72.249h-78.491c-12.543 0-24.37 3.1-34.783 8.547l-6.812-5.158c-18.149-13.74-43.066-13.196-60.596 1.325-12.957 10.731-19.416 27.102-17.278 43.788l1.859 14.513c4.024 31.419.31 63.716-10.742 93.401-1.143 3.07-.71 6.505 1.159 9.195 1.869 2.689 4.937 4.294 8.212 4.294 28.901 0 53.351-19.361 61.102-45.789l13.332 19.643-14.968 70.7c-15.636-5.206-31.078-11.169-46.263-17.909-16.092-7.143-34.814-.387-42.621 15.376-3.999 8.073-4.515 17.188-1.454 25.663 3.057 8.464 9.268 15.135 17.487 18.783 73.507 32.623 155.308 49.866 236.56 49.866 81.251 0 163.051-17.243 236.558-49.866 8.22-3.648 14.43-10.319 17.487-18.783 3.062-8.475 2.545-17.59-1.454-25.663zm-98.338-362.056h.028c1.905 0 2.21 1.357 2.325 1.87l6.068 27.048c-5.733.517-11.396 1.389-16.963 2.597l6.216-29.613c.107-.517.395-1.889 2.326-1.902zm-121.319 87.8c21.186-37.087 56.01-64.641 96.669-76.908l-5.724 27.273c-28.984 11.494-53.846 32.552-69.761 60.411l-29.449 51.553h-27.339zm-212.431 168.558c0 18.958-12.14 35.134-29.055 41.16 8.023-28.138 10.306-57.868 6.585-86.914l-1.859-14.513c-1.262-9.849 2.551-19.511 10.198-25.845 10.346-8.572 25.053-8.893 35.765-.782l1.854 1.404c-14.451 13.729-23.488 33.105-23.488 54.564zm49.696 29.822-20.152-29.69c-6.244-9.199-9.544-19.938-9.544-31.058 0-30.494 24.809-55.303 55.303-55.303h84.255c.01 0 .021.002.031.002s.02-.002.03-.002h50.351c3.589 0 6.903-1.924 8.683-5.04l32.328-56.593c20.238-35.428 57.358-58.043 97.867-60.016l38.853 69.21c4.852 8.644 3.351 19.58-3.649 26.596-9.635 9.657-24.437 11.339-35.995 4.097l-30.992-19.427c-4.679-2.934-10.85-1.519-13.784 3.161-2.933 4.68-1.518 10.852 3.162 13.784l17.312 10.852-29.512 97.636c-.546 1.807-.57 3.731-.068 5.551l30.448 110.453c-8.051 2.347-16.147 4.496-24.281 6.443l-15.083-33.572c-11.518-25.638-31.939-46.204-57.502-57.91-5.023-2.301-10.956-.094-13.255 4.928-2.3 5.021-.093 10.957 4.928 13.256 21.155 9.688 38.055 26.707 47.586 47.923l13.363 29.742c-66.565 13.187-135.192 13.187-201.758 0l13.363-29.743c9.566-21.292 26.54-38.345 47.794-48.017 5.027-2.287 7.248-8.217 4.96-13.243s-8.22-7.249-13.244-4.96c-25.683 11.687-46.194 32.293-57.754 58.023l-15.083 33.572c-7.934-1.9-15.832-3.993-23.687-6.273l16.239-76.696c.56-2.659.015-5.435-1.513-7.686zm365.035 94.745c-1.188 3.289-3.6 5.88-6.79 7.296-70.972 31.498-149.966 48.147-228.444 48.147s-157.474-16.649-228.446-48.147c-3.19-1.416-5.602-4.007-6.79-7.296-1.192-3.301-.991-6.85.566-9.993 2.215-4.474 6.695-7.079 11.389-7.079 1.737 0 3.504.357 5.196 1.108 67.767 30.075 143.18 45.973 218.085 45.973h.001c74.901 0 150.321-15.898 218.082-45.972 6.266-2.778 13.551-.156 16.586 5.971 1.557 3.143 1.757 6.692.565 9.992z"/><path id="XMLID_620_" d="m412.058 141.868c2.63 0 5.21-1.069 7.07-2.93s2.93-4.44 2.93-7.07-1.07-5.21-2.93-7.069c-1.86-1.86-4.44-2.931-7.07-2.931s-5.21 1.07-7.07 2.931c-1.86 1.859-2.93 4.439-2.93 7.069s1.07 5.21 2.93 7.07 4.44 2.93 7.07 2.93z"/><path id="XMLID_621_" d="m256.018 332.668c2.63 0 5.21-1.069 7.07-2.93s2.93-4.439 2.93-7.07c0-2.63-1.07-5.21-2.93-7.069-1.86-1.86-4.43-2.931-7.07-2.931s-5.21 1.07-7.07 2.931c-1.86 1.859-2.93 4.439-2.93 7.069 0 2.631 1.07 5.21 2.93 7.07s4.44 2.93 7.07 2.93z"/></svg>