<svg id="Capa_1" enable-background="new 0 0 512 512" height="512" viewBox="0 0 512 512" width="512" xmlns="http://www.w3.org/2000/svg"><g><g><path d="m461.026 16.618-20.511-2.472h-200.983c-17.067 0-30.903 13.836-30.903 30.903s13.836 30.903 30.903 30.903h149.062l-236.844 236.844-88.713-88.713c-12.069-12.069-31.636-12.069-43.704 0s-12.068 31.636 0 43.704l88.713 88.713-88.713 88.713c-2.841 2.841-5.014 6.098-6.517 9.575.165 13.77 1.569 21.728 10.796 30.955 6.034 6.034 7.09 5.331 14.999 5.331s15.818-3.017 21.852-9.051l89.648-85.75 91.276 87.507c6.034 6.034 13.943 9.051 21.852 9.051s10.528-2.293 16.561-8.327c12.068-12.069 13.486-24.074 1.417-36.143l-17.998-24.095-67.765-67.765 117.839-133.504 103.457-87.792 15.708-15.708-.16 149.189c-.003 2.878.387 5.664 1.12 8.309 3.615 13.037 26.528 13.775 26.528 13.775s29.34-7.769 29.358-24.825l-1.511-218.457c.009-8.203-16.406-27.847-26.767-30.87z" fill="#ffe35c"/><g fill="#ffac62"><path d="m195.452 356.501 221.298-221.296c.016-15.092-17.442-22.295-28.139-11.649l-207.442 206.423c-3.38 3.38-3.38 8.859 0 12.238z"/><path d="m458.255 22.439c.021.021.043.04.063.061 5.348 5.354 8.349 12.614 8.341 20.182l-.221 206.371c-.015 13.936-10.029 25.519-23.246 27.989-3.132.777-6.633.401-9.765-.05 3.615 13.036 15.552 22.615 29.741 22.63h.034c17.051 0 30.884-13.814 30.902-30.87l.239-223.669c.009-8.202-3.243-16.071-9.04-21.873-.022-.023-.046-.043-.069-.066-.022-.022-.041-.044-.063-.066-6.712-6.712-15.743-9.686-24.515-8.932h-20.144c6.45.558 12.746 3.296 17.682 8.232.023.02.041.041.061.061z"/><path d="m284.167 445.214-20.948-20.948c1.896 4.35 3.167 8.476 3.834 12.385-.086 7.181-2.863 14.337-8.343 19.816-5.567 5.567-12.864 8.351-20.162 8.351-7.297 0-14.595-2.784-20.162-8.351l-75.733-75.733c-3.38-3.379-8.859-3.379-12.239 0l-75.733 75.733c-5.568 5.568-12.865 8.351-20.162 8.351s-14.595-2.784-20.162-8.351c-.541-.541-1.046-1.102-1.533-1.674-4.882 11.291-2.718 24.898 6.508 34.125 6.034 6.034 13.943 9.051 21.852 9.051s15.818-3.017 21.852-9.051l88.713-88.713 88.713 88.713c6.034 6.034 13.943 9.051 21.852 9.051s15.818-3.017 21.852-9.051c12.07-12.069 12.07-31.636.001-43.704z"/></g></g><g fill="#4e0325"><path d="m492.593 15.929h-.001c-.021-.022-.044-.044-.067-.067s-.045-.046-.067-.068c-8.502-8.503-20.217-12.842-32.21-11.949h-220.716c-22.72 0-41.204 18.484-41.204 41.204s18.484 41.204 41.204 41.204h124.193l-211.975 211.975-81.43-81.43c-16.065-16.065-42.206-16.066-58.272 0-16.065 16.065-16.065 42.206.001 58.272l81.429 81.429-81.43 81.429c-16.065 16.065-16.065 42.206.001 58.272 7.782 7.782 18.13 12.068 29.136 12.068s21.354-4.286 29.136-12.068l81.43-81.429 81.429 81.429c7.783 7.782 18.13 12.068 29.136 12.068s21.354-4.286 29.136-12.068c7.782-7.783 12.069-18.13 12.069-29.136s-4.286-21.354-12.069-29.136l-81.429-81.429 212.107-212.106-.133 124.282c-.024 22.721 18.44 41.225 41.206 41.249 22.696 0 41.179-18.465 41.203-41.16l.24-223.669c.011-11.016-4.269-21.373-12.053-29.166zm-8.789 252.812c-.012 11.348-9.254 20.58-20.624 20.58-11.36-.012-20.592-9.264-20.58-20.624l.16-149.189c.004-4.168-2.504-7.929-6.354-9.526-3.851-1.597-8.284-.717-11.232 2.231l-237.004 237.003c-4.023 4.023-4.023 10.546 0 14.568l88.713 88.713c8.033 8.033 8.033 21.103 0 29.136-3.891 3.892-9.065 6.034-14.567 6.034s-10.677-2.143-14.568-6.034l-88.712-88.713c-2.011-2.011-4.648-3.017-7.284-3.017s-5.273 1.006-7.284 3.017l-88.713 88.713c-3.891 3.892-9.065 6.034-14.568 6.034s-10.677-2.143-14.568-6.034c-8.033-8.033-8.033-21.104 0-29.136l88.713-88.713c1.932-1.932 3.017-4.552 3.017-7.284s-1.085-5.352-3.017-7.284l-88.713-88.713c-8.033-8.033-8.033-21.104 0-29.136 8.034-8.034 21.104-8.034 29.136 0l88.713 88.713c4.023 4.023 10.546 4.023 14.568 0l236.843-236.844c2.945-2.946 3.827-7.376 2.233-11.226-1.594-3.849-5.351-6.359-9.517-6.359h-149.063c-11.36 0-20.602-9.242-20.602-20.602s9.242-20.602 20.602-20.602h221.127c.295 0 .589-.013.882-.038 6.066-.518 11.98 1.625 16.28 5.883.044.046.089.092.132.135.016.015.032.032.049.048.012.012.024.024.035.035.017.016.034.033.051.049 3.848 3.888 5.961 9.037 5.955 14.511z"/><path d="m181.742 314.632-7.816 7.816c-2.414 2.414-2.414 6.327 0 8.741 1.207 1.207 2.788 1.81 4.37 1.81s3.164-.604 4.37-1.81l7.816-7.816c2.414-2.414 2.414-6.327 0-8.741-2.412-2.413-6.326-2.413-8.74 0z"/><path d="m162.942 358.319-7.816 7.816c-2.414 2.414-2.414 6.327 0 8.741 1.207 1.207 2.789 1.81 4.37 1.81 1.582 0 3.164-.604 4.37-1.81l7.816-7.816c2.414-2.414 2.414-6.327 0-8.741-2.413-2.413-6.327-2.413-8.74 0z"/></g><g fill="#fff"><path d="m358.705 54.169h-54.991c-5.689 0-10.301-4.612-10.301-10.301s4.612-10.301 10.301-10.301h54.991c5.689 0 10.301 4.612 10.301 10.301 0 5.69-4.612 10.301-10.301 10.301z"/><path d="m259.153 54.169h-6.839c-5.689 0-10.301-4.612-10.301-10.301s4.612-10.301 10.301-10.301h6.839c5.689 0 10.301 4.612 10.301 10.301 0 5.69-4.613 10.301-10.301 10.301z"/></g><g><ellipse cx="334.019" cy="364.606" fill="#ffe35c" rx="18.526" ry="18.526" transform="matrix(.241 -.971 .971 .241 -100.397 600.804)"/><ellipse cx="155.389" cy="125.741" fill="#ffe35c" rx="7.821" ry="7.821" transform="matrix(.645 -.764 .764 .645 -40.944 163.287)"/><g fill="#fff2a5"><path d="m481.999 372.157-6.277 17.649c-.269.756-.801 1.354-1.472 1.657l-15.681 7.065c-2.215.998-2.215 4.528 0 5.526l15.681 7.065c.671.302 1.203.901 1.472 1.657l6.277 17.649c.887 2.493 4.023 2.493 4.909 0l6.277-17.649c.269-.756.801-1.354 1.472-1.657l15.681-7.065c2.215-.998 2.215-4.528 0-5.526l-15.681-7.065c-.672-.303-1.203-.901-1.472-1.657l-6.277-17.649c-.886-2.494-4.022-2.494-4.909 0z"/><path d="m44.107 59.393-8.462 23.793c-.362 1.019-1.08 1.826-1.985 2.234l-21.139 9.524c-2.986 1.346-2.986 6.104 0 7.45l21.139 9.524c.905.408 1.622 1.215 1.985 2.234l8.462 23.793c1.195 3.361 5.423 3.361 6.619 0l8.462-23.793c.362-1.019 1.079-1.826 1.985-2.234l21.139-9.524c2.987-1.346 2.987-6.104 0-7.45l-21.14-9.524c-.905-.408-1.622-1.215-1.985-2.234l-8.462-23.793c-1.194-3.361-5.422-3.361-6.618 0z"/></g></g></g></svg>