<svg enable-background="new 0 0 64 64" height="512" viewBox="0 0 64 64" width="512" xmlns="http://www.w3.org/2000/svg"><g id="Agenda"><g><g><path clip-rule="evenodd" d="m14.9 57.2 5.4-19.5-5.4-35.7h-6.5c-1.4 0-2.5 1.1-2.5 2.6v50.1c0 1.4 1.1 2.6 2.6 2.6h6.4z" fill="#ffd670" fill-rule="evenodd"/></g><g><path clip-rule="evenodd" d="m14.9 2v55.2h22l14.8-23.9c0-9.6 0-19.2 0-28.7 0-1.4-1.1-2.6-2.6-2.6h-34.2z" fill="#f55c7a" fill-rule="evenodd"/></g><g><path clip-rule="evenodd" d="m21 23.4c0 1.8 1.5 3.2 3.2 3.2h18.1c1.7 0 3.2-1.4 3.2-3.2v-9.4c0-1.8-1.5-3.2-3.2-3.2h-18.1c-1.8 0-3.2 1.5-3.2 3.2z" fill="#f0f0f0" fill-rule="evenodd"/></g><g><path clip-rule="evenodd" d="m51.7 16.1v9.5h3.5c1.1 0 2-.9 2-2v-5.4c0-1.1-.9-2-2-2h-3.5z" fill="#ffd670" fill-rule="evenodd"/></g><g><path clip-rule="evenodd" d="m51.7 16.1h3.5c1.1 0 2-.8 2-2v-5.5c0-1.1-.9-2-2-2h-3.5z" fill="#76a8fa" fill-rule="evenodd"/></g><g><path clip-rule="evenodd" d="m62.4 47.4c0-6.7-4.6-12.4-10.8-14.1-1.2-.3-2.5-.5-3.9-.5-8.1 0-14.7 6.5-14.7 14.6s6.6 14.6 14.7 14.6c8.2 0 14.7-6.5 14.7-14.6z" fill="#76a8fa" fill-rule="evenodd"/></g><g><path clip-rule="evenodd" d="m57.2 47.4c0-5.2-4.2-9.4-9.4-9.4s-9.4 4.2-9.4 9.4 4.2 9.4 9.4 9.4 9.4-4.2 9.4-9.4z" fill="#f0f0f0" fill-rule="evenodd"/></g><g><path clip-rule="evenodd" d="m7.7 12.4c1.3 0 2.5-1.1 2.5-2.5 0-1.3-1.1-2.5-2.5-2.5h-2.4-1.3c-1.3 0-2.5 1.1-2.5 2.5 0 1.3 1.1 2.5 2.5 2.5h1.2z" fill="#827a7a" fill-rule="evenodd"/></g><g><path clip-rule="evenodd" d="m7.7 17.3h-2.4-1.3c-1.3 0-2.5 1.1-2.5 2.5 0 1.3 1.1 2.5 2.5 2.5h1.2 2.5c1.3 0 2.5-1.1 2.5-2.5 0-1.3-1.2-2.5-2.5-2.5z" fill="#827a7a" fill-rule="evenodd"/></g><g><path clip-rule="evenodd" d="m7.7 27.1h-2.4-1.3c-1.3 0-2.5 1.1-2.5 2.5.1 1.3 1.2 2.4 2.5 2.4h1.2 2.5c1.3 0 2.5-1.1 2.5-2.5 0-1.2-1.2-2.4-2.5-2.4z" fill="#827a7a" fill-rule="evenodd"/></g><g><path clip-rule="evenodd" d="m7.7 37h-2.4-1.3c-1.3 0-2.5 1.1-2.5 2.5 0 1.3 1.1 2.5 2.5 2.5h1.2 2.5c1.3 0 2.5-1.1 2.5-2.5s-1.2-2.5-2.5-2.5z" fill="#827a7a" fill-rule="evenodd"/></g><g><path clip-rule="evenodd" d="m7.7 46.8h-2.4-1.3c-1.3 0-2.5 1.1-2.5 2.5 0 1.3 1.1 2.5 2.5 2.5h1.2 2.5c1.3 0 2.5-1.1 2.5-2.5s-1.2-2.5-2.5-2.5z" fill="#827a7a" fill-rule="evenodd"/></g><g><path clip-rule="evenodd" d="m48.3 33.4c6.2 1.7 10.7 7.4 10.7 14.1 0 7.3-5.4 13.4-12.4 14.4h1.2c8.1 0 14.7-6.5 14.7-14.6 0-6.7-4.6-12.4-10.8-14.1-1.2-.3-2.5-.5-3.9-.5-.8 0-1.5.1-2.3.2 1 .1 1.9.3 2.8.5z" fill="#5694f7" fill-rule="evenodd"/></g><g><path clip-rule="evenodd" d="m47.6 4.6v28.1h.2c1.3 0 2.7.2 3.9.5v-7.7-9.5-9.4-2c0-1.4-1.1-2.6-2.6-2.6h-34.2v.1h30.1c1.5 0 2.6 1.1 2.6 2.5z" fill="#eb4163" fill-rule="evenodd"/></g><g><path clip-rule="evenodd" d="m41.5 14v9.4c0 1.8-1.5 3.2-3.2 3.2h4.1c1.7 0 3.2-1.4 3.2-3.2v-9.4c0-1.8-1.5-3.2-3.2-3.2h-4.1c1.7 0 3.2 1.4 3.2 3.2z" fill="#dbdbdb" fill-rule="evenodd"/></g><g><path clip-rule="evenodd" d="m48.4 38.6c3.3 1.5 5.6 4.8 5.6 8.6 0 4.9-3.7 8.9-8.5 9.4.7.2 1.5.3 2.3.3 5.2 0 9.4-4.2 9.4-9.4 0-4.9-3.7-8.9-8.5-9.4-.3 0-.6 0-1 0-.3 0-.6 0-.9 0 .6.1 1.1.2 1.6.5z" fill="#dbdbdb" fill-rule="evenodd"/></g><g><path clip-rule="evenodd" d="m1.6 10c0 1.3 1.1 2.5 2.5 2.5h1.2 2.5c1.3 0 2.5-1.1 2.5-2.5 0-.4-.1-.9-.3-1.2-.6.7-1.4 1.2-2.3 1.2h-2.4-1.3c-.9 0-1.7-.5-2.1-1.2-.2.3-.3.7-.3 1.2z" fill="#6e6565" fill-rule="evenodd"/></g><g><path clip-rule="evenodd" d="m5.3 19.8h-1.3c-.9 0-1.7-.5-2.1-1.2-.2.4-.3.8-.3 1.2 0 1.3 1.1 2.5 2.5 2.5h1.2 2.5c1.3 0 2.5-1.1 2.5-2.5 0-.4-.1-.9-.3-1.2-.4.7-1.2 1.2-2.1 1.2z" fill="#6e6565" fill-rule="evenodd"/></g><g><path clip-rule="evenodd" d="m5.3 29.6h-1.3c-.9 0-1.7-.5-2.1-1.2-.2.4-.3.8-.3 1.2 0 1.3 1.1 2.4 2.4 2.4h1.2 2.5c1.3 0 2.5-1.1 2.5-2.5 0-.4-.1-.9-.3-1.2-.4.7-1.2 1.2-2.1 1.2h-2.5z" fill="#6e6565" fill-rule="evenodd"/></g><g><path clip-rule="evenodd" d="m5.3 39.4h-1.3c-.9 0-1.7-.5-2.1-1.2-.2.4-.3.8-.3 1.2 0 1.3 1.1 2.5 2.5 2.5h1.2 2.5c1.3 0 2.5-1.1 2.5-2.5 0-.4-.1-.9-.3-1.2-.4.7-1.2 1.2-2.1 1.2z" fill="#6e6565" fill-rule="evenodd"/></g><g><path clip-rule="evenodd" d="m5.3 49.2h-1.3c-.9 0-1.7-.5-2.1-1.2-.2.4-.3.8-.3 1.2 0 1.3 1.1 2.5 2.5 2.5h1.2 2.5c1.3 0 2.5-1.1 2.5-2.5 0-.4-.1-.9-.3-1.2-.4.7-1.2 1.2-2.1 1.2z" fill="#6e6565" fill-rule="evenodd"/></g><g><path d="m47.8 41.2c-.6 0-1 .4-1 1v4.8l-2 2.1c-.4.4-.4 1 .1 1.4.2.2.4.3.7.3s.5-.1.7-.3l2.2-2.4c.2-.2.3-.4.3-.7v-5.1c0-.6-.5-1.1-1-1.1z"/><path d="m47.8 37c-5.8 0-10.4 4.7-10.4 10.4s4.7 10.4 10.4 10.4 10.4-4.7 10.4-10.4c0-5.8-4.7-10.4-10.4-10.4zm0 18.8c-4.6 0-8.4-3.8-8.4-8.4s3.8-8.4 8.4-8.4 8.4 3.8 8.4 8.4-3.8 8.4-8.4 8.4z"/><path d="m46.5 23.4v-9.4c0-2.3-1.9-4.2-4.2-4.2h-18c-2.3 0-4.2 1.9-4.2 4.2v9.3c0 2.3 1.9 4.2 4.2 4.2h18c2.3.1 4.2-1.8 4.2-4.1zm-24.5 0v-9.4c0-1.2 1-2.2 2.2-2.2h18c1.2 0 2.2 1 2.2 2.2v9.3c0 1.2-1 2.2-2.2 2.2h-18c-1.2.1-2.2-.9-2.2-2.1z"/><path d="m52.7 32.6v-5.9h2.4c1.7 0 3.1-1.4 3.1-3.1v-5.4c0-.8-.3-1.5-.8-2 0 0 0 0 0-.1.5-.5.8-1.2.8-2v-5.4c0-1.7-1.4-3.1-3.1-3.1h-2.4v-1c0-2-1.6-3.6-3.6-3.6h-40.6c-2 0-3.6 1.6-3.6 3.6v1.9h-.6c-1.7 0-3.3 1.1-3.7 2.7-.5 2.2 1.3 4.2 3.4 4.2h.2v2.9c-1.5 0-2.9.9-3.4 2.2-.9 2.3 1 4.7 3.2 4.7h.2v2.9c-1.5 0-2.9.9-3.4 2.2-.9 2.4 1 4.7 3.2 4.7h.2v2.9c-1.5 0-2.9.9-3.4 2.2-.9 2.3 1 4.7 3.2 4.7h.2v2.9c-1.5 0-2.9.9-3.4 2.2-.9 2.3 1 4.7 3.2 4.7h.8v1.9c0 2 1.6 3.6 3.6 3.6h28c2.8 2.9 6.8 4.8 11.3 4.8 8.6 0 15.7-7 15.7-15.6 0-6.8-4.5-12.7-10.7-14.7zm0-25h2.4c.6 0 1.1.5 1.1 1.1v5.4c0 .7-.5 1-1 1h-2.4v-7.5zm0 9.6c0-.1 0-.1 0 0h2.4c.6 0 1.1.5 1.1 1.1v5.3c0 .6-.5 1.1-1.1 1.1h-2.4zm-48.7-5.8c-.8 0-1.5-.7-1.5-1.5s.7-1.4 1.5-1.4h3.7c.8 0 1.5.7 1.5 1.5s-.7 1.5-1.5 1.5h-3.7zm0 9.8c-.8 0-1.5-.7-1.5-1.5s.7-1.5 1.5-1.5h3.7c.8 0 1.5.7 1.5 1.5s-.7 1.5-1.5 1.5zm0 9.8c-.8 0-1.5-.7-1.5-1.5s.7-1.5 1.5-1.5h3.7c.8 0 1.5.7 1.5 1.5s-.7 1.5-1.5 1.5zm0 9.9c-.8 0-1.5-.7-1.5-1.5s.7-1.4 1.5-1.4h3.7c.8 0 1.5.7 1.5 1.5s-.7 1.5-1.5 1.5h-3.7zm0 9.8c-.8 0-1.5-.7-1.5-1.5s.7-1.5 1.5-1.5h3.7c.8 0 1.5.7 1.5 1.5s-.7 1.5-1.5 1.5zm9.9 5.4c0 .1 0 .1 0 0h-5.4c-.9 0-1.6-.7-1.6-1.6v-1.9h.6c1.7 0 3.2-1.1 3.6-2.7.5-2.2-1.3-4.2-3.4-4.2h-1.4v-2.8h1.2c1.7 0 3.2-1.1 3.6-2.7.5-2.2-1.3-4.2-3.4-4.2h-1.4v-2.8h1.2c1.7 0 3.2-1.1 3.6-2.7.5-2.2-1.3-4.2-3.4-4.2h-1.4v-2.8h1.2c1.7 0 3.2-1.1 3.6-2.7.5-2.2-1.3-4.2-3.4-4.2h-1.4v-2.8h1.2c1.7 0 3.2-1.1 3.6-2.7.5-2.2-1.3-4.2-3.4-4.2h-.8v-2.3c0-.9.7-1.6 1.6-1.6h5.4zm20.9.1h-18.9v-53.2h33.1c.9 0 1.6.7 1.6 1.6v2 9.5 9.5 6.4s0 .1-.1 0c-.9-.2-1.9-.3-2.8-.3-8.6 0-15.7 7-15.7 15.6.1 3.3 1.1 6.3 2.8 8.9zm13 4.8c-7.5 0-13.7-6.1-13.7-13.6s6.1-13.6 13.7-13.6c7.5 0 13.7 6.1 13.7 13.6-.1 7.5-6.2 13.6-13.7 13.6z"/><path d="m38.9 15.1h-11.3c-.6 0-1 .4-1 1s.4 1 1 1h11.3c.6 0 1-.4 1-1s-.4-1-1-1z"/><path d="m38.9 20.3h-11.3c-.6 0-1 .4-1 1s.4 1 1 1h11.3c.6 0 1-.4 1-1s-.4-1-1-1z"/></g></g></g></svg>