<svg id="Capa_1" enable-background="new 0 0 512 512" height="512" viewBox="0 0 512 512" width="512" xmlns="http://www.w3.org/2000/svg"><g><g><path d="m488.824 409.239-39.399-44.652c-5.763-5.538-10.267-10.268-17.307-12.498-19.973-1.042-38.37 20.243-27.022 42.305h-4.192c-7.257-.077-13.199-3.095-17.254-7.841-7.206-3.626-11.346-11.837-11.019-18.879.116-1.048-3.155-157.368-3.269-161.528-.35-26.114-5.754-42.747-23.698-56.657-17.284-13.398-36.272-22.611-60.145-22.897-13.959 1.97-27.704 7.789-39.766 18.11-28.517-25.003-74.923-24.997-103.434 0-51.188-43.784-132.458-6.51-132.155 61.546 1.556 38.163 55.952 38.031 57.444-.001 0-12.679 10.315-22.994 22.994-22.994s22.995 10.315 22.995 22.995v216.87c0 15.863 12.86 28.722 28.722 28.722 15.863 0 28.722-12.86 28.722-28.722v-216.87c0-12.679 10.316-22.995 22.995-22.995s22.995 10.315 22.995 22.995v216.87c0 .597.018 1.19.054 1.779 5.25 10.603 12.84 20.345 28.106 20.345 15.863 0 21.732-12.239 21.732-28.102l1.874-223.286c0-10.09 11.24-10.143 21.27-9.378 2.324-.792 4.815-1.223 7.404-1.223 12.679 0 22.995 10.315 22.995 22.995 0 0 .065 160.914.18 161.962-2.488 47.22 38.03 86.208 84.94 83.629-4.006 7.335-4.727 14.622-3.171 21.065 9.761 16.088 25.67 22.717 44.145 5.343 0 0 40.831-36.533 40.831-36.533 11.154-10.759 12.579-21.704 1.433-32.475z" fill="#98e8f2"/><g fill="#a6aff4"><path d="m371.404 386.552h12.247c-4.08-4.776-6.249-11.301-5.923-18.343.116-1.048.257-159.283.143-163.443-.687-51.267-47.613-84.481-92.351-78.167 33.932 4.889 64.062 32.767 64.591 72.207.105 3.846-.025 162.569-.132 163.538-.602 12.982 7.966 24.065 21.425 24.208z"/><path d="m275.779 178.917c-11.722 0-21.258 9.537-21.258 21.259v200.497c0 14.665-11.889 26.554-26.554 26.554-3.877 0-7.556-.838-10.876-2.331.919 15.034 13.397 26.944 28.662 26.944 15.863 0 28.722-12.86 28.722-28.722v-216.87c0-10.09 6.536-18.677 15.593-21.766-3.779-3.445-8.784-5.565-14.289-5.565z"/><path d="m493.463 443.932c11.154-10.758 11.168-29.87.022-40.641l-42.744-42.744c-5.763-5.538-12.273-8.119-18.623-8.45 10.538 11.602 27.789 31.712 32.49 36.606 10.305 9.958 10.292 27.627-.02 37.573l-39.517 39.432c-4.95 4.655-10.418 7.048-15.795 7.668-1.604.066-4.376-.12-6.824-.33 4.756 19.243 29.838 30.87 48.268 13.539-.001-.001 42.743-42.653 42.743-42.653z"/></g></g><g fill="#4e0325"><path d="m500.619 396.051-42.691-42.691c-.048-.048-.096-.095-.145-.142-16.616-15.965-37.315-13.233-50.459-3.443-10.106 7.528-15.607 18.697-15.783 30.364-2.536-2.855-3.866-7.006-3.66-11.459l-.027-.001c.249-11.25.213-158.68.178-164.049h.002c-.47-35.076-20.923-65.985-53.377-80.666-29.772-13.468-63.091-10.348-88.87 7.847-30.108-21.243-73.393-21.244-103.5 0-26.042-18.394-59.656-21.382-89.641-7.491-32.63 15.116-52.803 46.527-52.645 81.974.001.123.004.246.008.369 1.026 25.166 20.322 38.324 38.865 38.322h.03c18.563-.014 37.871-13.188 38.858-38.339.005-.133.008-.266.008-.398 0-7.075 5.756-12.831 12.831-12.831 7.076 0 12.832 5.756 12.832 12.831v216.869c0 21.441 17.444 38.885 38.885 38.885s38.885-17.444 38.885-38.885v-216.87c0-7.075 5.756-12.831 12.832-12.831s12.831 5.756 12.831 12.831v216.869c0 21.441 17.444 38.885 38.885 38.885s38.885-17.444 38.885-38.885v-216.869c0-7.075 5.756-12.831 12.831-12.831s12.832 5.756 12.832 12.835c.052 130.19.124 155.965.193 161.459-1.305 24.965 8.285 49.599 26.315 67.587 14.979 14.945 34.496 24.17 55.063 26.332-1.678 13.337 3.578 26.626 14.858 35.344 6.528 5.045 14.995 8.315 23.968 8.314 8.97 0 18.445-3.269 26.984-11.299.073-.069.145-.138.216-.209l42.686-42.595c7.251-7.03 11.411-17.072 11.416-27.567.007-10.491-4.14-20.531-11.379-27.566zm-14.211 40.566c-.041.04-.082.08-.123.121l-42.629 42.538c-8.887 8.275-18.473 6.268-24.496 1.614-4.972-3.842-9.128-11.032-6.52-19.746 1.438-.331 2.96-.73 4.693-1.218 5.402-1.523 8.546-7.138 7.023-12.54s-7.138-8.544-12.54-7.023c-2.365.667-3.988 1.106-5.614 1.353-.205-.012-.407-.039-.613-.039-.185 0-.372.005-.559.015-19.903 1.091-39.529-6.482-53.862-20.783-14.164-14.132-21.399-32.657-20.371-52.163.016-.315.018-.63.005-.944-.09-4.949-.154-118.143-.172-161.553 0-18.283-14.875-33.158-33.158-33.158s-33.158 14.874-33.158 33.158v216.869c0 10.234-8.326 18.559-18.559 18.559-10.234 0-18.559-8.326-18.559-18.559v-216.871c0-18.283-14.874-33.158-33.158-33.158s-33.158 14.874-33.158 33.158v216.869c0 10.234-8.326 18.559-18.559 18.559-10.234 0-18.559-8.326-18.559-18.559v-216.869c0-18.283-14.874-33.158-33.158-33.158-18.206 0-33.032 14.75-33.157 32.927-.617 13.743-10.367 18.635-18.557 18.641-.005 0-.01 0-.016 0-8.174 0-17.904-4.886-18.546-18.646-.049-27.32 15.595-51.543 40.863-63.249 25.299-11.719 53.855-8.017 74.524 9.662 3.839 3.284 9.508 3.25 13.306-.081 24.823-21.762 65.211-21.763 90.034-.001 3.799 3.332 9.468 3.366 13.307.08 20.455-17.502 48.779-21.312 73.918-9.94 25.192 11.396 41.067 35.313 41.43 62.42.001.031.002.099.003.13.101 4.488-.029 156.89-.138 162.756-.454 10.061 2.987 19.749 9.445 26.585 2.103 2.226 4.487 4.105 7.079 5.629.077.047.148.1.227.145.062.035.126.064.188.099.607.344 1.223.672 1.851.977 7.545 3.88 15.723 5.859 24.409 5.859 1.512 0 3.04-.059 4.581-.178 5.596-.431 9.784-5.317 9.353-10.914-.431-5.596-5.32-9.778-10.914-9.353-.327.025-.643.026-.966.043-3.118-9.144 1.377-16.686 6.639-20.605 6.074-4.523 15.604-6.434 24.166 1.734l42.667 42.667c.041.041.083.081.124.122 3.339 3.227 5.253 7.968 5.251 13.007-.004 5.044-1.923 9.786-5.267 13.012zm-155.661-69.522c.009.082.039.304.051.666-.01-.223-.027-.445-.051-.666zm36.881-.005c-.023.207-.039.414-.049.622.013-.33.04-.544.049-.622z"/><path d="m442.489 390.822c-3.367 0-6.098 2.73-6.098 6.098v10.905c0 3.368 2.73 6.098 6.098 6.098s6.098-2.73 6.098-6.098v-10.905c-.001-3.367-2.731-6.098-6.098-6.098z"/><path d="m458.435 419.316c-3.368 0-6.098 2.73-6.098 6.098v10.905c0 3.367 2.73 6.098 6.098 6.098s6.098-2.73 6.098-6.098v-10.905c0-3.368-2.73-6.098-6.098-6.098z"/></g><g fill="#fff"><path d="m80.688 164.782c-4.592 0-8.756-3.133-9.874-7.795-1.309-5.458 2.054-10.944 7.512-12.253 1.646-.395 3.321-.728 4.98-.988 5.549-.876 10.747 2.916 11.619 8.461s-2.916 10.747-8.461 11.619c-1.129.178-2.272.404-3.397.674-.797.19-1.595.282-2.379.282z"/><path d="m42.807 198.677c-1.062 0-2.142-.168-3.206-.521-5.327-1.77-8.21-7.523-6.441-12.849 2.92-8.79 7.797-16.658 14.492-23.384 3.96-3.978 10.396-3.992 14.373-.032 3.978 3.96 3.992 10.395.032 14.373-4.455 4.476-7.688 9.674-9.607 15.452-1.416 4.263-5.384 6.961-9.643 6.961z"/></g><g><ellipse cx="490.365" cy="243.191" fill="#75b7f2" rx="18.277" ry="18.277" transform="matrix(.707 -.707 .707 .707 -28.337 417.969)"/><circle cx="285.52" cy="56.749" fill="#75b7f2" r="7.716"/><g fill="#98e8f2"><path d="m135.956 8.558-6.193 17.413c-.265.746-.79 1.336-1.452 1.635l-15.471 6.97c-2.186.985-2.186 4.467 0 5.452l15.471 6.97c.662.298 1.187.889 1.452 1.635l6.193 17.413c.875 2.46 3.969 2.46 4.844 0l6.193-17.413c.265-.746.79-1.336 1.452-1.635l15.471-6.97c2.186-.985 2.186-4.467 0-5.452l-15.471-6.97c-.662-.299-1.187-.889-1.452-1.635l-6.193-17.413c-.876-2.46-3.969-2.46-4.844 0z"/><path d="m425.963 39.789-8.348 23.474c-.358 1.005-1.065 1.802-1.958 2.204l-20.857 9.396c-2.946 1.328-2.946 6.022 0 7.35l20.856 9.396c.893.402 1.601 1.199 1.958 2.204l8.348 23.474c1.18 3.316 5.35 3.316 6.53 0l8.348-23.474c.358-1.005 1.065-1.801 1.958-2.204l20.856-9.396c2.947-1.328 2.947-6.022 0-7.35l-20.856-9.396c-.893-.402-1.6-1.199-1.958-2.204l-8.348-23.474c-1.179-3.316-5.35-3.316-6.529 0z"/></g></g></g></svg>