<?xml version="1.0" encoding="iso-8859-1"?>
<!-- Generator: Adobe Illustrator 19.0.0, SVG Export Plug-In . SVG Version: 6.00 Build 0)  -->
<svg version="1.1" id="Capa_1" xmlns="http://www.w3.org/2000/svg" xmlns:xlink="http://www.w3.org/1999/xlink" x="0px" y="0px"
	 viewBox="0 0 512 512" style="enable-background:new 0 0 512 512;" xml:space="preserve">
<path style="fill:#2E9DE3;" d="M186.542,278.528L19.542,445.528c-12.785,12.785-12.684,33.807,0.225,46.715l0,0
	c12.908,12.909,33.931,13.009,46.715,0.225l166.999-166.999L186.542,278.528z"/>
<rect x="155.514" y="293.179" transform="matrix(0.7071 0.7071 -0.7071 0.7071 283.877 -38.7449)" style="fill:#D8D8E4;" width="66.387" height="60.237"/>
<circle style="fill:#62CD4D;" cx="330.007" cy="182.003" r="171.993"/>
<circle style="fill:#FFFFFF;" cx="330.007" cy="182.003" r="119.995"/>
<path d="M91.545,383.525c2.63,0,5.21-1.07,7.07-2.931c1.86-1.859,2.93-4.439,2.93-7.069c0-2.631-1.07-5.211-2.93-7.07
	c-1.86-1.86-4.44-2.93-7.07-2.93c-2.63,0-5.21,1.069-7.07,2.93c-1.86,1.859-2.93,4.439-2.93,7.07c0,2.63,1.07,5.21,2.93,7.069
	C86.337,382.455,88.917,383.525,91.545,383.525z"/>
<path d="M330.007,52.008c-71.679,0-129.995,58.315-129.995,129.995s58.316,129.995,129.995,129.995s129.995-58.315,129.995-129.995
	S401.686,52.008,330.007,52.008z M330.007,291.999c-60.652,0-109.996-49.344-109.996-109.996S269.355,72.007,330.007,72.007
	s109.996,49.344,109.996,109.996S390.659,291.999,330.007,291.999z"/>
<path d="M275.032,210.696c-2.562-4.894-8.605-6.782-13.497-4.222c-4.893,2.562-6.783,8.604-4.221,13.496l0.13,0.248
	c1.786,3.414,5.266,5.366,8.869,5.366c1.562,0,3.148-0.367,4.628-1.142c4.894-2.561,6.785-8.604,4.224-13.495L275.032,210.696z"/>
<path d="M340.007,110.006c0-5.522-4.477-10-10-10c-45.213,0-81.997,36.784-81.997,81.997c0,5.522,4.477,10,10,10
	c5.523,0,10-4.478,10-10c0-34.186,27.812-61.998,61.998-61.998C335.53,120.005,340.007,115.529,340.007,110.006z"/>
<path d="M384.983,153.31c1.787,3.413,5.266,5.364,8.868,5.364c1.563,0,3.149-0.367,4.63-1.143c4.893-2.562,6.783-8.604,4.221-13.496
	l-0.13-0.248c-2.561-4.895-8.602-6.785-13.496-4.225c-4.894,2.561-6.785,8.604-4.224,13.495L384.983,153.31z"/>
<path d="M402.004,172.003c-5.523,0-10,4.478-10,10c0,34.186-27.812,61.998-61.998,61.998c-5.523,0-10,4.478-10,10
	c0,5.522,4.477,10,10,10c45.213,0,81.997-36.784,81.997-81.997C412.004,176.481,407.527,172.003,402.004,172.003z"/>
<path d="M330.007,0.01c-100.351,0-181.993,81.642-181.993,181.993c0,34.555,9.682,66.889,26.472,94.438l-63.194,63.194
	c-3.905,3.905-3.905,10.237,0,14.142c1.953,1.952,4.512,2.929,7.071,2.929s5.119-0.977,7.071-2.929l18.134-18.134l32.799,32.798
	L59.412,485.396c-4.255,4.256-9.96,6.595-16.077,6.595c-0.038,0-0.077,0-0.115,0c-6.196-0.03-12.014-2.451-16.38-6.819
	c-9.043-9.043-9.144-23.655-0.226-32.574l43.504-43.503c3.905-3.905,3.905-10.237,0-14.142c-3.905-3.903-10.236-3.903-14.142,0
	l-43.503,43.503c-16.716,16.717-16.615,44.018,0.225,60.858c8.119,8.119,18.924,12.621,30.427,12.677c0.072,0,0.142,0,0.214,0
	c11.458,0,22.181-4.418,30.216-12.452l162.016-162.015c27.549,16.79,59.884,26.472,94.438,26.472
	C430.358,363.996,512,282.354,512,182.003S430.358,0.01,330.007,0.01z M190.51,354.298L157.711,321.5l28.317-28.317
	c9.499,12.272,20.526,23.3,32.798,32.799L190.51,354.298z M330.007,343.997c-89.324,0-161.994-72.67-161.994-161.994
	s72.67-161.994,161.994-161.994s161.994,72.67,161.994,161.994S419.331,343.997,330.007,343.997z"/>
<g>
</g>
<g>
</g>
<g>
</g>
<g>
</g>
<g>
</g>
<g>
</g>
<g>
</g>
<g>
</g>
<g>
</g>
<g>
</g>
<g>
</g>
<g>
</g>
<g>
</g>
<g>
</g>
<g>
</g>
</svg>
