<svg id="Capa_1" enable-background="new 0 0 512 512" viewBox="0 0 512 512" xmlns="http://www.w3.org/2000/svg"><g><g><path d="m10 90h360v215c0 13.807-11.193 25-25 25h-310c-13.807 0-25-11.193-25-25z" fill="#fff"/><path d="m370 90h-360v-55c0-13.807 11.193-25 25-25h310c13.807 0 25 11.193 25 25z" fill="#b6bccf"/><path d="m407.754 379.47-28.284 28.284 88.388 88.388c7.81 7.81 20.474 7.81 28.284 0 7.81-7.81 7.81-20.474 0-28.284z" fill="#b6bccf"/><circle cx="332" cy="332" fill="#99ebfa" r="100"/><path d="m332 347c-34.587 0-62.863 27.014-64.883 61.093 17.464 14.906 40.122 23.907 64.883 23.907s47.419-9.001 64.883-23.907c-2.02-34.079-30.296-61.093-64.883-61.093z" fill="#ffda8f"/><circle cx="332" cy="312" fill="#ffdcd5" r="35"/><path d="m60 130h80v80h-80z" fill="#ffda8f"/></g><g><path d="m503.213 460.787-75.187-75.187c8.894-15.869 13.974-34.151 13.974-53.6 0-43.455-25.331-81.102-62-98.961v-198.039c0-19.299-15.701-35-35-35h-310c-19.299 0-35 15.701-35 35v130c0 5.522 4.478 10 10 10s10-4.478 10-10v-65h340v125.616c-8.944-2.356-18.327-3.616-28-3.616-56.599 0-103.345 42.97-109.343 98h-187.657c-8.271 0-15-6.729-15-15v-50c0-5.522-4.478-10-10-10s-10 4.478-10 10v50c0 19.299 15.701 35 35 35h187.293c4.112 56.934 51.743 102 109.707 102 19.449 0 37.731-5.08 53.6-13.974l75.187 75.187c11.716 11.716 30.711 11.716 42.426 0 11.716-11.716 11.716-30.711 0-42.426zm-483.213-380.787v-45c0-8.271 6.729-15 15-15h310c8.271 0 15 6.729 15 15v45zm222 252c0-49.626 40.374-90 90-90s90 40.374 90 90c0 20.889-7.155 40.138-19.141 55.427-6.69-19.281-21.004-34.927-39.253-43.433 8.263-8.163 13.394-19.489 13.394-31.994 0-24.813-20.187-45-45-45s-45 20.187-45 45c0 12.505 5.131 23.831 13.393 31.994-18.249 8.506-32.563 24.152-39.253 43.433-11.985-15.289-19.14-34.538-19.14-55.427zm115-20c0 13.785-11.215 25-25 25s-25-11.215-25-25 11.215-25 25-25 25 11.215 25 25zm-25 110c-20.41 0-39.252-6.834-54.367-18.327 4.027-26.545 26.998-46.673 54.367-46.673s50.34 20.128 54.367 46.673c-15.115 11.493-33.957 18.327-54.367 18.327zm157.071 67.071c-3.905 3.905-10.237 3.905-14.142 0l-72.578-72.578c5.129-4.278 9.864-9.013 14.142-14.142l72.578 72.578c3.905 3.905 3.905 10.237 0 14.142z"/><circle cx="50" cy="50" r="10"/><circle cx="90" cy="50" r="10"/><circle cx="130" cy="50" r="10"/><path d="m330 40h-60c-5.522 0-10 4.478-10 10s4.478 10 10 10h60c5.522 0 10-4.478 10-10s-4.478-10-10-10z"/><path d="m60 220h80c5.522 0 10-4.478 10-10v-80c0-5.522-4.478-10-10-10h-80c-5.522 0-10 4.478-10 10v80c0 5.522 4.478 10 10 10zm10-80h60v60h-60z"/><path d="m180 140h130c5.522 0 10-4.478 10-10s-4.478-10-10-10h-130c-5.522 0-10 4.478-10 10s4.478 10 10 10z"/><path d="m180 180h130c5.522 0 10-4.478 10-10s-4.478-10-10-10h-130c-5.522 0-10 4.478-10 10s4.478 10 10 10z"/><path d="m180 220h70c5.522 0 10-4.478 10-10s-4.478-10-10-10h-70c-5.522 0-10 4.478-10 10s4.478 10 10 10z"/><path d="m60 260h130c5.522 0 10-4.478 10-10s-4.478-10-10-10h-130c-5.522 0-10 4.478-10 10s4.478 10 10 10z"/><path d="m60 300h130c5.522 0 10-4.478 10-10s-4.478-10-10-10h-130c-5.522 0-10 4.478-10 10s4.478 10 10 10z"/><circle cx="10" cy="210" r="10"/></g></g><g/><g/><g/><g/><g/><g/><g/><g/><g/><g/><g/><g/><g/><g/><g/></svg>