<svg id="Capa_1" enable-background="new 0 0 511.962 511.962" height="512" viewBox="0 0 511.962 511.962" width="512" xmlns="http://www.w3.org/2000/svg"><path id="XMLID_2376_" d="m29.99 501.962v-491.962h296l64 63.962v428z" fill="#eff3f3"/><path id="XMLID_2318_" d="m325.99 9.962v64h64z" fill="#ffe6c0"/><path id="XMLID_1031_" d="m473.313 493.284c-11.57 11.57-30.33 11.57-41.9 0l-98.401-98.401 41.9-41.9 98.401 98.401c11.57 11.571 11.57 30.33 0 41.9z" fill="#ffcb7c"/><circle id="XMLID_1030_" cx="295.031" cy="315.003" fill="#91def5" r="123"/><circle id="XMLID_1786_" cx="295.031" cy="315.003" fill="#dff6fc" r="72"/><path id="XMLID_599_" d="m146.99 137.962h171c5.523 0 10-4.478 10-10s-4.477-10-10-10h-171c-5.523 0-10 4.478-10 10s4.477 10 10 10z"/><path id="XMLID_618_" d="m101.99 137.962c2.63 0 5.21-1.07 7.07-2.931 1.86-1.859 2.93-4.439 2.93-7.069s-1.07-5.21-2.93-7.07-4.44-2.93-7.07-2.93-5.21 1.069-7.07 2.93c-1.86 1.86-2.93 4.44-2.93 7.07s1.07 5.21 2.93 7.069c1.86 1.861 4.441 2.931 7.07 2.931z"/><path id="XMLID_621_" d="m480.383 444.313-67.578-67.577c9.715-18.46 15.225-39.464 15.225-61.733 0-30.725-10.477-59.047-28.041-81.59v-159.451c0-2.653-1.054-5.197-2.931-7.073l-64-63.962c-1.874-1.874-4.417-2.927-7.068-2.927h-296c-5.523 0-10 4.478-10 10v491.962c0 5.522 4.477 10 10 10h360c5.523 0 10-4.478 10-10v-25.958l24.351 24.351c7.726 7.726 17.874 11.588 28.021 11.588s20.295-3.862 28.021-11.588c15.451-15.45 15.451-40.59 0-56.042zm-185.352-16.31c-60.153 0-109.472-47.245-112.813-106.577.07-.479.119-.966.119-1.464 0-.786-.1-1.548-.272-2.281-.021-.89-.034-1.782-.034-2.677 0-62.309 50.691-113 113-113s113 50.691 113 113-50.691 112.999-113 112.999zm40.959-393.871 29.848 29.83h-29.848zm44 457.83h-340v-471.962h276v53.962c0 5.522 4.477 10 10 10h54v128.795c-22.811-18.986-52.048-30.495-83.92-30.74-.342-.035-.688-.054-1.039-.054h-193.041c-5.523 0-10 4.478-10 10s4.477 10 10 10h123.044c-17.762 11.039-32.749 26.138-43.642 44h-79.402c-5.523 0-10 4.478-10 10s4.477 10 10 10h69.412c-5.454 13.701-8.687 28.517-9.267 44h-60.145c-5.523 0-10 4.478-10 10s4.477 10 10 10h60.887c1.759 15.642 6.24 30.47 12.96 44h-73.847c-5.523 0-10 4.478-10 10s4.477 10 10 10h86.084c24.248 32.76 63.162 54.041 106.957 54.041 22.269 0 43.273-5.51 61.733-15.225l23.226 23.226zm86.251-5.749c-7.652 7.653-20.105 7.652-27.757 0l-64.355-64.355c10.559-7.837 19.921-17.198 27.757-27.757l64.355 64.354c7.653 7.653 7.653 20.106 0 27.758z"/><path id="XMLID_627_" d="m295.031 233.003c-45.215 0-82 36.785-82 82s36.785 82 82 82 82-36.785 82-82-36.785-82-82-82zm0 144c-34.187 0-62-27.813-62-62s27.813-62 62-62 62 27.813 62 62-27.813 62-62 62z"/></svg>