<svg id="Capa_1" enable-background="new 0 0 511.962 511.962" height="512" viewBox="0 0 511.962 511.962" width="512" xmlns="http://www.w3.org/2000/svg"><path id="XMLID_1377_" d="m29.981 501.962v-491.962h296l64 63.962v428z" fill="#eff3f3"/><path id="XMLID_1376_" d="m325.981 9.962v64h64z" fill="#ffe6c0"/><path id="XMLID_2671_" d="m481.981 401.886v-45.848h-22.376c-2.614-11.522-7.158-22.31-13.271-32.01l15.831-15.831-32.419-32.419-15.831 15.831c-9.7-6.113-20.488-10.657-32.01-13.271v-22.376h-45.848v22.376c-11.522 2.614-22.31 7.158-32.01 13.271l-15.831-15.831-32.419 32.419 15.831 15.831c-6.113 9.7-10.657 20.488-13.271 32.01h-22.376v45.848h22.376c2.614 11.522 7.158 22.31 13.271 32.01l-15.831 15.831 32.419 32.419 15.831-15.831c9.7 6.113 20.488 10.657 32.01 13.271v22.376h45.848v-22.376c11.522-2.614 22.31-7.158 32.01-13.271l15.831 15.831 32.419-32.419-15.831-15.831c6.113-9.7 10.657-20.488 13.271-32.01z" fill="#98a1b3"/><circle id="XMLID_2670_" cx="358.981" cy="378.962" fill="#fff" r="50.014"/><path id="XMLID_406_" d="m481.981 346.038h-14.686c-2.14-7.054-4.966-13.869-8.45-20.379l10.391-10.391c3.905-3.905 3.905-10.237 0-14.142l-32.419-32.419c-3.905-3.905-10.235-3.905-14.143 0l-10.391 10.391c-3.992-2.136-8.098-4.022-12.303-5.657v-199.479c0-2.653-1.055-5.198-2.931-7.073l-64-63.962c-1.875-1.874-4.417-2.927-7.068-2.927h-296c-5.522 0-10 4.477-10 10v491.962c0 5.523 4.478 10 10 10h306.076.004 45.844c5.522 0 10-4.477 10-10v-14.685c7.053-2.14 13.867-4.966 20.379-8.451l10.391 10.391c3.906 3.905 10.236 3.905 14.143 0l32.419-32.419c3.905-3.905 3.905-10.236 0-14.142l-10.391-10.391c3.485-6.512 6.311-13.325 8.45-20.379h14.686c5.522 0 10-4.477 10-10v-45.848c-.001-5.523-4.479-10-10.001-10zm-146-311.906 29.848 29.83h-29.848zm-296-14.132h276v53.962c0 5.523 4.478 10 10 10h54v162h-43.924-234.076c-5.522 0-10 4.477-10 10s4.478 10 10 10h184.322c-1.89.367-3.694 1.282-5.158 2.745l-32.419 32.419c-2.403 2.403-3.322 5.725-2.767 8.835h-143.978c-5.522 0-10 4.477-10 10s4.478 10 10 10h154.957c-2.5 5.193-4.598 10.56-6.271 16.076h-14.686c-5.522 0-10 4.477-10 10v17.924h-124c-5.522 0-10 4.477-10 10s4.478 10 10 10h124v7.924c0 5.523 4.478 10 10 10h14.686c2.14 7.054 4.965 13.868 8.45 20.379l-10.391 10.391c-3.905 3.905-3.905 10.237 0 14.142l32.419 32.419c1.463 1.463 3.267 2.378 5.156 2.745h-246.32zm286.076 245.962v4.685c-7.053 2.14-13.867 4.966-20.379 8.451l-10.391-10.391c-1.464-1.463-3.268-2.378-5.157-2.745zm0 226h-35.925c1.889-.367 3.692-1.282 5.156-2.745l10.391-10.391c6.512 3.485 13.326 6.311 20.379 8.451v4.685zm145.924-100.076h-12.376c-4.67 0-8.719 3.233-9.752 7.788-2.325 10.248-6.355 19.968-11.979 28.891-2.49 3.951-1.914 9.1 1.389 12.402l8.76 8.76-18.277 18.277-8.76-8.76c-3.304-3.303-8.452-3.878-12.402-1.389-8.926 5.625-18.646 9.655-28.891 11.979-4.555 1.033-7.788 5.082-7.788 9.752v12.376h-25.848v-12.376c0-4.67-3.233-8.719-7.788-9.752-10.245-2.324-19.965-6.354-28.891-11.979-3.948-2.489-9.098-1.914-12.402 1.389l-8.76 8.76-18.277-18.277 8.76-8.76c3.303-3.302 3.879-8.451 1.389-12.402-5.623-8.923-9.653-18.644-11.979-28.891-1.033-4.555-5.082-7.788-9.752-7.788h-12.376v-25.848h12.376c4.67 0 8.719-3.233 9.752-7.787 2.325-10.248 6.355-19.969 11.979-28.892 2.49-3.951 1.914-9.1-1.389-12.402l-8.76-8.76 18.277-18.277 8.76 8.76c3.304 3.303 8.452 3.879 12.402 1.389 8.926-5.625 18.646-9.655 28.891-11.979 4.555-1.033 7.788-5.082 7.788-9.752v-12.376h25.848v12.376c0 4.67 3.233 8.719 7.788 9.752 2.458.558 4.884 1.219 7.279 1.972.034.011.069.02.104.031 7.546 2.382 14.755 5.721 21.508 9.976 3.948 2.489 9.098 1.914 12.402-1.389l8.76-8.76 18.277 18.277-8.76 8.76c-3.303 3.302-3.879 8.451-1.389 12.402 5.623 8.923 9.653 18.644 11.979 28.892 1.033 4.554 5.082 7.787 9.752 7.787h12.376z"/><path id="XMLID_1223_" d="m358.981 318.948c-33.092 0-60.014 26.922-60.014 60.014s26.922 60.014 60.014 60.014 60.014-26.922 60.014-60.014-26.922-60.014-60.014-60.014zm0 100.028c-22.063 0-40.014-17.95-40.014-40.014s17.95-40.014 40.014-40.014 40.014 17.95 40.014 40.014-17.951 40.014-40.014 40.014z"/><path id="XMLID_1225_" d="m146.981 137.962h171c5.522 0 10-4.477 10-10s-4.478-10-10-10h-171c-5.522 0-10 4.477-10 10s4.477 10 10 10z"/><path id="XMLID_1226_" d="m101.981 137.962c2.63 0 5.21-1.07 7.069-2.93 1.86-1.86 2.931-4.44 2.931-7.07s-1.07-5.21-2.931-7.07c-1.859-1.86-4.439-2.93-7.069-2.93s-5.21 1.07-7.07 2.93-2.93 4.44-2.93 7.07 1.069 5.21 2.93 7.07 4.44 2.93 7.07 2.93z"/><path id="XMLID_1228_" d="m101.981 201.962h216c5.522 0 10-4.477 10-10s-4.478-10-10-10h-216c-5.522 0-10 4.477-10 10s4.477 10 10 10z"/></svg>