<svg height="512" viewBox="0 0 64 64" width="512" xmlns="http://www.w3.org/2000/svg"><g id="Sales_Color_Create_Outline" data-name="Sales_Color Create Outline"><g id="_05_Shopping_Bag" data-name="05_Shopping Bag"><path d="m34 61h25v-44h-43v44z" fill="#f4b400"/><path d="m8 34h27v27h-27z" fill="#f29500"/><path d="m59 62h-43a1 1 0 0 1 -1-1v-33h2v32h41v-42h-41v4h-2v-5a1 1 0 0 1 1-1h43a1 1 0 0 1 1 1v44a1 1 0 0 1 -1 1z" fill="#383838"/><path d="m15 24h2v2h-2z" fill="#383838"/><path d="m4 34h27v29h-27z" fill="#db4437"/><path d="m4 34h27v29h-27z" fill="#db4437"/><path d="m7 36v-2h-3v29h27v-3a24 24 0 0 1 -24-24z" fill="#c62e26"/><path d="m31 64h-27a1 1 0 0 1 -1-1v-29a1 1 0 0 1 1-1h27a1 1 0 0 1 1 1v29a1 1 0 0 1 -1 1zm-26-2h25v-27h-25z" fill="#383838"/><path d="m31 64h-27a1 1 0 0 1 -1-1v-29a1 1 0 0 1 1-1h27a1 1 0 0 1 1 1v29a1 1 0 0 1 -1 1zm-26-2h25v-27h-25z" fill="#383838"/><path d="m49 17h10v44h-10z" fill="#f29500"/><path d="m59 62h-10a1 1 0 0 1 -1-1v-44a1 1 0 0 1 1-1h10a1 1 0 0 1 1 1v44a1 1 0 0 1 -1 1zm-9-2h8v-42h-8z" fill="#383838"/><path d="m40 22h-2v-12a7 7 0 0 0 -14 0v12h-2v-12a9 9 0 0 1 18 0z" fill="#383838"/><path d="m48 18h-2v-9a7 7 0 0 0 -14 0v9h-2v-9a9 9 0 0 1 18 0z" fill="#383838"/><path d="m49 61 5-9 5 9z" fill="#d38009"/><g fill="#383838"><path d="m59 62h-10a1 1 0 0 1 -.874-1.486l5-9a1.04 1.04 0 0 1 1.748 0l5 9a1 1 0 0 1 -.874 1.486zm-8.3-2h6.6l-3.3-5.941z"/><path d="m53 17h2v36h-2z"/><path d="m21 21h4v2h-4z"/><path d="m37 21h4v2h-4z"/><path d="m17 50a7.008 7.008 0 0 1 -7-7v-5h2v5a5 5 0 0 0 10 0v-5h2v5a7.008 7.008 0 0 1 -7 7z"/><path d="m9 37h4v2h-4z"/><path d="m21 37h4v2h-4z"/></g></g></g></svg>