<svg height="512" viewBox="0 0 512 512" width="512" xmlns="http://www.w3.org/2000/svg"><g id="_x30_8_Sold_out"><g><path d="m372.518 500.547c58.158 0 113.349-84.533 113.349-113.644v-331.649h-459.726v445.293z" fill="#fe7a71"/><path d="m485.867 386.903c0 29.111-54.97 113.128-113.128 113.128 0 0 25.719-39.158 23.453-88.242 43.935 7.346 89.675-24.886 89.675-24.886z" fill="#fe4134"/><path d="m128.439 15.225 15.199 14.512c2.092 1.998 2.092 5.339 0 7.336l-15.199 14.512c-2.093 1.998-2.092 5.34.001 7.337l15.195 14.502c2.094 1.998 2.094 5.34 0 7.338l-15.195 14.502c-1.078 1.029-1.59 2.413-1.559 3.787h258.246c.032-1.374-.481-2.759-1.559-3.787l-15.195-14.502c-2.094-1.998-2.094-5.34 0-7.338l15.195-14.502c2.093-1.998 2.094-5.339.001-7.337l-15.199-14.512c-2.092-1.998-2.092-5.339 0-7.336l15.199-14.512c1.072-1.024 1.586-2.4 1.56-3.768h-258.25c-.027 1.368.487 2.744 1.56 3.768z" fill="#ebebff"/><path d="m485.864 48.255h-95.97c-.44-.62-.94-1.2-1.49-1.73l-13.74-13.12 13.74-13.12c2.43-2.32 3.79-5.59 3.72-8.97-.07-3.81-3.18-6.86-7-6.86h-258.24c-3.82 0-6.93 3.05-7 6.86-.07 3.38 1.29 6.65 3.72 8.97l13.74 13.12-13.74 13.12c-.55.53-1.05 1.11-1.49 1.73h-95.97c-3.87 0-7 3.13-7 7v445.29c0 3.87 3.13 7 7 7h346.37c37.14 0 68.46-30.3 83.82-48.37 21.51-25.29 36.53-55.01 36.53-72.27v-331.65c0-3.87-3.13-7-7-7zm-337.39-6.12c2.37-2.27 3.73-5.45 3.73-8.73s-1.36-6.46-3.73-8.73l-6.51-6.22h228.08l-6.51 6.22c-2.37 2.27-3.73 5.45-3.73 8.73s1.36 6.46 3.73 8.73l13.74 13.12-13.73 13.1c-2.38 2.27-3.74 5.45-3.74 8.74 0 3.28 1.36 6.46 3.74 8.73l6.52 6.23h-228.12l6.52-6.23c2.38-2.27 3.74-5.45 3.74-8.73 0-3.29-1.36-6.47-3.74-8.73l-13.73-13.11zm297.2 407.97c-11.92 14.02-34.32 36.22-60.51 42.02 7.2-14.46 17.8-40.97 18.16-72.46 28.51 1.96 56.16-9.79 72.28-18.43-4.97 13.51-15.4 31.79-29.93 48.87zm33.19-66.98c-10.52 6.61-47.11 27.51-81.52 21.76-2.08-.35-4.22.26-5.8 1.67-1.58 1.4-2.44 3.44-2.34 5.56 1.8 39.09-15.33 72.08-20.73 81.43h-335.33v-431.29h88.97c.44.62.94 1.2 1.49 1.73l13.74 13.11-13.74 13.1c-2.44 2.34-3.8 5.62-3.72 9.02.09 3.8 3.2 6.84 7 6.84h258.24c3.8 0 6.91-3.04 7-6.84.08-3.4-1.28-6.68-3.72-9.01l-13.74-13.11 13.74-13.11c.55-.53 1.05-1.11 1.49-1.73h88.97zm-322.39-138.912c-5.898 5.278-13.852 7.916-23.863 7.916-9.392 0-18.121-2.638-26.192-7.916-3.957-3.26-4.306-6.828-1.047-10.71 3.492-4.19 7.526-4.616 12.106-1.28 5.198 3.105 10.398 4.656 15.598 4.656 4.5 0 7.954-.892 10.361-2.678 2.404-1.784 3.608-4.267 3.608-7.45 0-1.551-.253-2.891-.757-4.016-.505-1.124-1.513-2.192-3.026-3.201-1.513-1.008-2.776-1.746-3.783-2.211-1.01-.466-2.872-1.281-5.588-2.445l-11.873-5.005c-11.874-4.965-17.811-12.881-17.811-23.747 0-7.293 2.852-13.367 8.556-18.218 5.704-4.849 13.018-7.276 21.943-7.276 8.381 0 15.908 2.328 22.583 6.985 3.414 2.951 3.685 6.131.815 9.546-3.259 3.957-6.869 4.539-10.826 1.746-4.036-2.095-8.227-3.143-12.572-3.143-3.958 0-7.083.835-9.371 2.503-2.29 1.669-3.434 3.94-3.434 6.81 0 2.718 1.048 4.83 3.143 6.344s5.314 3.126 9.662 4.831c.465.156.815.272 1.047.349l11.525 4.889c5.742 2.406 10.146 5.491 13.212 9.254 3.065 3.766 4.597 8.673 4.597 14.726 0 7.449-2.872 13.697-8.613 18.741zm98.597-38.183c0 13.582-3.492 24.661-10.477 33.235-6.984 8.575-16.646 12.863-28.986 12.863-11.796 0-21.323-4.133-28.578-12.398-7.257-8.265-10.884-19.498-10.884-33.7 0-14.124 3.608-25.22 10.826-33.292 7.217-8.071 16.763-12.107 28.636-12.107 11.874 0 21.42 4.036 28.637 12.107 7.217 8.072 10.826 19.169 10.826 33.292zm-60.882 0c0 8.847 1.805 16.201 5.413 22.06 3.608 5.86 8.943 8.789 16.005 8.789 6.595 0 11.834-2.794 15.715-8.382 3.88-5.588 5.821-13.076 5.821-22.467 0-9.389-1.941-16.78-5.821-22.175-3.882-5.393-9.12-8.091-15.715-8.091-6.596 0-11.815 2.677-15.656 8.032-3.841 5.356-5.762 12.767-5.762 22.234zm124.091 44.468h-38.181c-2.328 0-4.211-.717-5.646-2.153-1.436-1.435-2.153-3.318-2.153-5.646v-71.591c0-5.896 2.949-8.847 8.847-8.847 5.897 0 8.847 2.951 8.847 8.847v64.607h28.288c4.965 0 7.45 2.485 7.45 7.45-.002 4.889-2.487 7.333-7.452 7.333zm47.845 0h-19.324c-1.786 0-3.201-.524-4.249-1.571-1.047-1.048-1.571-2.463-1.571-4.249v-74.617c0-2.328.717-4.209 2.153-5.646 1.435-1.434 3.318-2.153 5.647-2.153h16.413c13.812 0 24.542 3.649 32.186 10.942 7.643 7.295 11.466 18.238 11.466 32.827 0 14.513-3.803 25.551-11.407 33.118-7.607 7.566-18.044 11.349-31.314 11.349zm-7.451-74.152v59.95h5.471c17.77 0 26.657-10.088 26.657-30.267 0-19.789-8.887-29.684-26.657-29.684h-5.471zm-145.626 172.726c0 13.582-3.492 24.661-10.477 33.235-6.984 8.575-16.646 12.863-28.986 12.863-11.796 0-21.323-4.133-28.578-12.398-7.257-8.265-10.884-19.498-10.884-33.7 0-14.124 3.608-25.22 10.826-33.292 7.217-8.071 16.763-12.107 28.636-12.107 11.874 0 21.42 4.036 28.637 12.107 7.217 8.072 10.826 19.168 10.826 33.292zm-60.882 0c0 8.847 1.805 16.201 5.413 22.06 3.608 5.86 8.943 8.789 16.005 8.789 6.595 0 11.834-2.794 15.715-8.382 3.88-5.588 5.821-13.076 5.821-22.467 0-9.389-1.941-16.78-5.821-22.175-3.882-5.393-9.12-8.091-15.715-8.091-6.596 0-11.815 2.677-15.656 8.032s-5.762 12.766-5.762 22.234zm129.097 6.286v-41.558c0-5.664 2.832-8.498 8.498-8.498 5.664 0 8.498 2.834 8.498 8.498v40.045c0 27.55-11.37 41.325-34.108 41.325-22.894 0-34.34-13.775-34.34-41.325v-39.696c0-5.896 2.949-8.847 8.848-8.847 5.896 0 8.847 2.951 8.847 8.847v41.209c0 8.847 1.415 15.153 4.248 18.916 2.833 3.766 6.965 5.646 12.397 5.646 5.589 0 9.837-1.901 12.747-5.704 2.91-3.801 4.365-10.088 4.365-18.858zm38.065-50.055h52.966c4.811 0 7.217 2.444 7.217 7.334s-2.406 7.334-7.217 7.334h-17.811v64.723c0 5.898-2.951 8.847-8.847 8.847-5.821 0-8.731-2.949-8.731-8.847v-64.724h-17.578c-4.813 0-7.218-2.444-7.218-7.334s2.407-7.333 7.219-7.333z"/></g></g></svg>