<svg id="Capa_1" enable-background="new 0 0 511.962 511.962" height="512" viewBox="0 0 511.962 511.962" width="512" xmlns="http://www.w3.org/2000/svg"><path id="XMLID_1684_" d="m117.981 501.962v-491.962h296l64 63.962v428z" fill="#eff3f3"/><g fill="#ffcb7c"><path id="XMLID_2221_" d="m373.245 223.951h-150.528c-11.452 0-20.736 9.284-20.736 20.736v22.539c0 11.452 9.284 20.736 20.736 20.736h150.528c11.452 0 20.736-9.284 20.736-20.736v-22.539c0-11.452-9.284-20.736-20.736-20.736z"/><path id="XMLID_2220_" d="m373.245 159.941h-150.528c-11.452 0-20.736 9.284-20.736 20.736v22.539c0 11.452 9.284 20.736 20.736 20.736h150.528c11.452 0 20.736-9.284 20.736-20.736v-22.539c0-11.453-9.284-20.736-20.736-20.736z"/><path id="XMLID_2219_" d="m373.245 95.962h-150.528c-11.452 0-20.736 9.284-20.736 20.736v22.539c0 11.452 9.284 20.736 20.736 20.736h150.528c11.452 0 20.736-9.284 20.736-20.736v-22.539c0-11.452-9.284-20.736-20.736-20.736z"/></g><path id="XMLID_1683_" d="m413.981 9.962v64h64z" fill="#ffe6c0"/><path id="XMLID_1287_" d="m337.981 341.962h-264c-22.091 0-40 17.909-40 40v80c0 22.091 17.909 40 40 40h264c22.091 0 40-17.909 40-40v-80c0-22.091-17.909-40-40-40z" fill="#ffcb7c"/><path id="XMLID_705_" d="m485.05 66.889-64-63.962c-1.875-1.874-4.418-2.927-7.069-2.927h-296c-5.523 0-10 4.478-10 10v321.962h-34c-27.57 0-50 22.43-50 50v80c0 27.57 22.43 50 50 50h264 140c5.523 0 10-4.478 10-10v-200.873c0-5.522-4.477-10-10-10s-10 4.478-10 10v190.873h-90.027c6.292-8.363 10.027-18.752 10.027-30v-80c0-27.57-22.43-50-50-50h-210v-311.962h276v53.962c0 5.523 4.477 10 10 10h54v127.127c0 5.522 4.477 10 10 10s10-4.478 10-10v-137.127c0-2.653-1.054-5.197-2.931-7.073zm-117.069 315.073v80c0 16.542-13.458 30-30 30h-264c-16.542 0-30-13.458-30-30v-80c0-16.542 13.458-30 30-30h264c16.542 0 30 13.458 30 30zm56-347.83 29.848 29.83h-29.848z"/><path id="XMLID_707_" d="m477.981 246.092c-2.63 0-5.21 1.06-7.07 2.93-1.86 1.86-2.93 4.44-2.93 7.07s1.07 5.21 2.93 7.07c1.86 1.859 4.44 2.93 7.07 2.93s5.21-1.07 7.07-2.93 2.93-4.44 2.93-7.07c0-2.64-1.07-5.21-2.93-7.07-1.86-1.871-4.44-2.93-7.07-2.93z"/><path id="XMLID_708_" d="m271.856 471.962h40c5.523 0 10-4.478 10-10s-4.477-10-10-10h-30v-70c0-5.522-4.477-10-10-10s-10 4.478-10 10v80c0 5.522 4.477 10 10 10z"/><path id="XMLID_709_" d="m90.106 401.962c0 16.542 13.458 30 30 30h4c5.514 0 10 4.486 10 10s-4.486 10-10 10h-14.5c-5.523 0-10 4.478-10 10s4.477 10 10 10h14.5c16.542 0 30-13.458 30-30s-13.458-30-30-30h-4c-5.514 0-10-4.486-10-10s4.486-10 10-10h11.5c5.523 0 10-4.478 10-10s-4.477-10-10-10h-11.5c-16.542 0-30 13.458-30 30z"/><path id="XMLID_712_" d="m206.356 471.962c6.101 0 11.807-1.718 16.664-4.693l1.764 1.764c1.953 1.952 4.512 2.929 7.071 2.929s5.119-.977 7.071-2.929c3.905-3.905 3.905-10.237 0-14.143l-2.919-2.919c1.509-3.711 2.347-7.763 2.347-12.01v-36c0-17.645-14.355-32-32-32s-32 14.355-32 32v36c.002 17.645 14.357 32.001 32.002 32.001zm-12-68c0-6.617 5.383-12 12-12s12 5.383 12 12v33.552c-2.882-.288-5.864.67-8.071 2.876-3.082 3.082-3.721 7.673-1.938 11.392-.649.109-1.311.179-1.991.179-6.617 0-12-5.383-12-12z"/><path id="XMLID_971_" d="m403.981 116.698c0-16.948-13.788-30.736-30.736-30.736h-150.528c-16.948 0-30.736 13.788-30.736 30.736v22.538c0 7.977 3.056 15.252 8.056 20.72-5 5.469-8.056 12.744-8.056 20.72v22.539c0 7.984 3.062 15.265 8.071 20.735-5.009 5.47-8.071 12.752-8.071 20.736v22.538c0 16.948 13.788 30.736 30.736 30.736h150.528c16.948 0 30.736-13.788 30.736-30.736v-22.538c0-7.984-3.062-15.266-8.071-20.736 5.009-5.47 8.071-12.751 8.071-20.735v-22.539c0-7.977-3.056-15.252-8.056-20.72 5-5.469 8.056-12.744 8.056-20.72zm-192 0c0-5.92 4.816-10.736 10.736-10.736h150.528c5.92 0 10.736 4.816 10.736 10.736v22.538c0 5.777-4.589 10.49-10.312 10.715-.142-.002-.282-.011-.424-.011h-150.528c-.142 0-.282.009-.424.011-5.723-.225-10.312-4.938-10.312-10.715zm172 63.979v22.539c0 5.92-4.816 10.735-10.736 10.735h-150.528c-5.92 0-10.736-4.815-10.736-10.735v-22.539c0-5.777 4.589-10.49 10.312-10.715.142.002.282.011.424.011h150.528c.142 0 .282-.009.424-.011 5.723.225 10.312 4.938 10.312 10.715zm0 86.549c0 5.92-4.816 10.736-10.736 10.736h-150.528c-5.92 0-10.736-4.816-10.736-10.736v-22.538c0-5.92 4.816-10.736 10.736-10.736h150.528c5.92 0 10.736 4.816 10.736 10.736z"/></svg>