<svg id="Capa_1" enable-background="new 0 0 512.007 512.007" height="512" viewBox="0 0 512.007 512.007" width="512" xmlns="http://www.w3.org/2000/svg"><g><g><path d="m450.036 80.719h-360.047l-10.498 5.288-12 15.5v170.5s10 12.5 11.5 13c.582.194 5.57 2.646 11.454 5.573h302.348l14.699-6.933h42l19.609.415c7.447-5.742 12.27-14.74 12.27-24.814v-147.196c-.001-17.233-14.101-31.333-31.335-31.333z" fill="#79cba8"/><path d="m73.591 259.246v-147.194c0-17.233 14.1-31.333 31.333-31.333h-66.101c-17.233 0-31.333 14.1-31.333 31.333v147.195c0 17.233 14.1 31.333 31.333 31.333h66.101c-17.233 0-31.333-14.1-31.333-31.334z" fill="#58bf93"/><path d="m424.339 262.575h-4.181l-14.333 79.098 6.542 5.083 18.875 4.125 20.125-9.375 4.625 2.294 37.125 73.456 7.248 2.761c4.059-3.467 5.369-9.378 2.816-14.328l-35.459-68.765c-2.978-5.776-.71-12.872 5.065-15.85l14.385-7.418c8.635-4.453 8.458-16.861-.301-21.065z" fill="#dbedff"/><path d="m494.558 413.584-35.459-68.765c-2.978-5.776-10.075-8.043-15.85-5.065l-14.385 7.418c-8.636 4.453-18.641-2.887-16.987-12.461l12.463-72.136-10.627-5.102c-7.039-3.379-15.357.91-16.686 8.604l-13.815 79.966c-1.654 9.574 8.351 16.914 16.987 12.461l14.385-7.418c5.776-2.978 12.872-.71 15.85 5.065l35.459 68.765c2.978 5.776 10.075 8.043 15.85 5.065l16.373-8.443c1.157-.597 2.167-1.365 3.028-2.249-2.747-.955-5.148-2.916-6.586-5.705z" fill="#b5dcff"/></g><g><path d="m319.924 141.31c-3.428-.071-6.425 2.125-7.382 5.384l-13.504 45.979-13.504-45.979c-.957-3.26-4.02-5.456-7.382-5.384-3.396.083-6.311 2.439-7.106 5.742l-17.743 73.684c-.97 4.027 1.509 8.078 5.536 9.047 4.022.97 8.077-1.509 9.048-5.536l11.169-46.382 12.786 43.536c.938 3.193 3.868 5.387 7.196 5.387s6.258-2.193 7.196-5.387l12.786-43.536 11.169 46.382c.828 3.437 3.899 5.746 7.286 5.746.581 0 1.172-.068 1.762-.21 4.027-.97 6.506-5.021 5.536-9.047l-17.743-73.684c-.796-3.303-3.711-5.659-7.106-5.742z"/><path d="m219.93 229.991c14.805 0 26.85-12.045 26.85-26.85 0-9.292-4.745-17.497-11.938-22.319 2.935-4.096 4.663-9.111 4.663-14.523 0-13.781-11.212-24.992-24.992-24.992h-20.588c-4.143 0-7.5 3.358-7.5 7.5v73.684c0 4.142 3.357 7.5 7.5 7.5zm-18.506-73.684h13.088c5.51 0 9.992 4.482 9.992 9.992s-4.482 9.992-9.992 9.992h-13.088zm0 34.985h13.088 5.418c6.534 0 11.85 5.316 11.85 11.85s-5.315 11.85-11.85 11.85h-18.506z"/><path d="m80.083 178.688c-12.555-3.308-19.329-8.737-19.329-12.166 0-4.612 5.202-9.751 12.668-9.751 8.149 0 14.785 6.556 14.961 6.732 2.877 2.955 7.604 3.033 10.576.17 2.984-2.874 3.073-7.622.2-10.605-.444-.461-11.05-11.298-25.737-11.298-15.256 0-27.668 11.103-27.668 24.751 0 11.841 11.119 21.562 30.507 26.67 11.273 2.97 11.273 7.771 11.273 11.277 0 4.042-4.039 10.057-15.168 10.057-6.03 0-10.316-2.215-13.023-4.313-2.567-1.99-6.118-2.119-8.884-.417-4.302 2.647-4.652 8.737-.717 11.904 4.807 3.869 12.257 7.826 22.625 7.826 19.595 0 30.168-12.91 30.168-25.057-.001-13.181-7.555-21.854-22.452-25.78z"/><path d="m118.767 141.307c-4.143 0-7.5 3.358-7.5 7.5v49.207c0 17.632 14.345 31.977 31.978 31.977 17.632 0 31.977-14.345 31.977-31.977v-49.207c0-4.142-3.357-7.5-7.5-7.5s-7.5 3.358-7.5 7.5v49.207c0 9.361-7.616 16.977-16.978 16.977s-16.977-7.616-16.977-16.977v-49.207c0-4.142-3.358-7.5-7.5-7.5z"/><path d="m416.196 229.991c4.143 0 7.5-3.358 7.5-7.5v-66.184h15.817c4.143 0 7.5-3.358 7.5-7.5s-3.357-7.5-7.5-7.5h-46.636c-4.143 0-7.5 3.358-7.5 7.5s3.357 7.5 7.5 7.5h15.818v66.184c.001 4.142 3.359 7.5 7.501 7.5z"/><path d="m356.431 148.807v73.684c0 4.142 3.357 7.5 7.5 7.5s7.5-3.358 7.5-7.5v-73.684c0-4.142-3.357-7.5-7.5-7.5s-7.5 3.358-7.5 7.5z"/><path d="m383.418 363.582c5.934 4.352 13.683 4.961 20.226 1.589l14.386-7.418c1.012-.522 2.166-.62 3.254-.272 1.085.347 1.97 1.096 2.492 2.109l35.459 68.765c3.417 6.626 10.169 10.434 17.156 10.434 2.969 0 5.982-.688 8.798-2.14l16.373-8.443c4.573-2.358 7.955-6.357 9.521-11.259 1.567-4.902 1.131-10.121-1.228-14.695l-35.459-68.765c-.522-1.013-.619-2.168-.272-3.254s1.096-1.971 2.109-2.493l14.385-7.418c6.541-3.373 10.539-10.04 10.435-17.398-.105-7.359-4.292-13.909-10.928-17.094l-8.469-4.065c4.663-6.496 7.224-14.299 7.224-22.518v-53.567c0-4.142-3.357-7.5-7.5-7.5s-7.5 3.358-7.5 7.5v53.566c0 5.929-2.18 11.517-6.093 15.86l-50.82-24.395c-5.493-2.637-11.75-2.548-17.167.245-5.416 2.792-9.118 7.838-10.156 13.844l-3.158 18.278h-166.58c-4.143 0-7.5 3.358-7.5 7.5s3.357 7.5 7.5 7.5h163.988l-8.066 46.688c-1.252 7.254 1.656 14.463 7.59 18.816zm7.191-16.261 9.581-55.453c0-.004.002-.008.002-.011l4.233-24.502c.314-1.82 1.544-2.702 2.248-3.065.706-.363 2.137-.853 3.802-.054l73.159 35.118c2.149 1.032 2.408 2.991 2.419 3.785.012.794-.19 2.76-2.311 3.853l-14.384 7.418c-4.575 2.358-7.957 6.357-9.523 11.259s-1.13 10.121 1.229 14.695l35.459 68.765c.522 1.013.619 2.168.272 3.254-.348 1.085-1.097 1.971-2.109 2.493l-16.373 8.443c-2.091 1.079-4.668.254-5.747-1.836l-35.459-68.764c-2.357-4.574-6.356-7.957-11.259-9.523-1.933-.618-3.914-.924-5.886-.924-3.03 0-6.038.723-8.809 2.152l-14.386 7.418c-2.117 1.092-3.838.118-4.479-.352-.639-.473-2.085-1.819-1.679-4.169z"/><path d="m0 259.246c0 21.413 17.421 38.833 38.833 38.833h146.073c4.143 0 7.5-3.358 7.5-7.5s-3.357-7.5-7.5-7.5h-146.073c-13.142 0-23.833-10.691-23.833-23.833v-147.194c0-13.142 10.691-23.833 23.833-23.833h411.213c13.143 0 23.834 10.691 23.834 23.833v58.628c0 4.142 3.357 7.5 7.5 7.5s7.5-3.358 7.5-7.5v-58.628c0-21.413-17.421-38.833-38.834-38.833h-411.213c-21.412 0-38.833 17.42-38.833 38.833z"/></g></g></svg>