<svg height="512pt" viewBox="0 0 512 512" width="512pt" xmlns="http://www.w3.org/2000/svg"><g fill-rule="evenodd"><path d="m256 406c82.617188 0 150-67.382812 150-150s-67.382812-150-150-150-150 67.382812-150 150 67.382812 150 150 150zm0 0" fill="#ffc059"/><path d="m256 72.417969c-66.800781 0-13.988281-62.40625 0-62.417969 13.988281.011719 66.800781 62.417969 0 62.417969zm0 0" fill="#ffc059"/><path d="m164.210938 97.011719c-57.851563 33.402343-43.320313-47.046875-31.210938-54.054688 12.121094-6.984375 89.058594 20.65625 31.210938 54.054688zm0 0" fill="#ffd89e"/><path d="m97.011719 164.210938c-33.398438 57.847656-61.039063-19.089844-54.054688-31.210938 7.007813-12.109375 87.457031-26.640625 54.054688 31.210938zm0 0" fill="#ffc059"/><path d="m72.417969 256c0 66.800781-62.40625 13.988281-62.417969 0 .011719-13.988281 62.417969-66.800781 62.417969 0zm0 0" fill="#ffd89e"/><path d="m97.011719 347.789062c33.402343 57.851563-47.046875 43.320313-54.054688 31.210938-6.980469-12.121094 20.65625-89.058594 54.054688-31.210938zm0 0" fill="#ffc059"/><path d="m164.210938 414.988281c57.847656 33.398438-19.089844 61.039063-31.210938 54.054688-12.109375-7.007813-26.640625-87.457031 31.210938-54.054688zm0 0" fill="#ffd89e"/><path d="m256 439.582031c66.800781 0 13.988281 62.40625 0 62.417969-13.988281-.011719-66.800781-62.417969 0-62.417969zm0 0" fill="#ffc059"/><path d="m347.789062 414.988281c57.851563-33.402343 43.320313 47.046875 31.210938 54.054688-12.121094 6.984375-89.058594-20.65625-31.210938-54.054688zm0 0" fill="#ffd89e"/><path d="m414.988281 347.789062c33.398438-57.847656 61.035157 19.089844 54.054688 31.210938-7.003907 12.109375-87.457031 26.640625-54.054688-31.210938zm0 0" fill="#ffc059"/><path d="m439.582031 256c0-66.800781 62.40625-13.988281 62.417969 0-.011719 13.988281-62.417969 66.800781-62.417969 0zm0 0" fill="#ffd89e"/><path d="m414.988281 164.210938c-33.402343-57.851563 47.046875-43.320313 54.054688-31.210938 6.984375 12.121094-20.65625 89.058594-54.054688 31.210938zm0 0" fill="#ffc059"/><path d="m347.789062 97.011719c-57.847656-33.398438 19.089844-61.039063 31.210938-54.054688 12.109375 7.007813 26.640625 87.457031-31.210938 54.054688zm0 0" fill="#ffd89e"/></g><path d="m381.585938 338.648438c1.5625.882812 3.257812 1.304687 4.929687 1.304687 3.480469 0 6.863281-1.820313 8.707031-5.0625 13.589844-23.945313 20.777344-51.222656 20.777344-78.890625 0-88.222656-71.773438-160-160-160-27.667969 0-54.953125 7.1875-78.894531 20.785156-4.804688 2.726563-6.484375 8.828125-3.757813 13.632813 2.726563 4.804687 8.832032 6.484375 13.632813 3.757812 20.9375-11.890625 44.804687-18.175781 69.019531-18.175781 77.195312 0 140 62.804688 140 140 0 24.210938-6.285156 48.078125-18.171875 69.015625-2.726563 4.800781-1.042969 10.902344 3.757813 13.632813zm0 0"/><path d="m130.414062 173.351562c-4.800781-2.726562-10.90625-1.042968-13.632812 3.757813-13.59375 23.9375-20.78125 51.21875-20.78125 78.890625 0 88.222656 71.773438 160 160 160 27.675781 0 54.957031-7.1875 78.894531-20.785156 4.804688-2.726563 6.484375-8.832032 3.757813-13.632813-2.726563-4.800781-8.832032-6.484375-13.632813-3.757812-20.9375 11.890625-44.800781 18.175781-69.019531 18.175781-77.195312 0-140-62.804688-140-140 0-24.21875 6.28125-48.082031 18.171875-69.015625 2.726563-4.800781 1.042969-10.902344-3.757813-13.632813zm0 0"/><path d="m256 82.417969c38.84375 0 43.042969-20.476563 43.050781-29.277344.003907-14.285156-9.753906-27.992187-15.570312-34.890625-4.628907-5.484375-16.558594-18.2382812-27.492188-18.25-10.910156.0117188-22.84375 12.765625-27.46875 18.25-5.816406 6.898438-15.574219 20.605469-15.570312 34.890625.007812 8.800781 4.207031 29.277344 43.050781 29.277344zm-14.269531-48.6875c5.710937-7.472657 11.597656-12.074219 14.269531-13.445313 2.671875 1.371094 8.558594 5.972656 14.269531 13.445313 6.042969 7.910156 9.378907 15.824219 8.695313 20.65625-1.019532 7.25-16.398438 8.03125-22.964844 8.03125s-21.945312-.785157-22.964844-8.03125c-.683594-4.832031 2.652344-12.746094 8.695313-20.65625zm0 0"/><path d="m140.457031 115.03125c7.410157 0 16.84375-2.480469 28.753907-9.355469 33.636718-19.421875 27.039062-39.253906 22.640624-46.882812-7.136718-12.375-22.441406-19.363281-30.929687-22.429688-6.746094-2.4375-23.460937-7.515625-32.929687-2.0625-9.445313 5.464844-13.402344 22.480469-14.664063 29.539063-1.589844 8.882812-3.1875 25.632812 3.960937 38 2.84375 4.925781 9.644532 13.191406 23.167969 13.191406zm-7.949219-44.386719c1.210938-9.328125 4.007813-16.257812 5.636719-18.78125 2.992188-.148437 10.394531.898438 19.078125 4.511719 9.1875 3.828125 16.03125 9.015625 17.859375 13.539062 2.742188 6.789063-10.1875 15.15625-15.871093 18.441407-5.6875 3.28125-19.398438 10.292969-23.90625 4.523437-3.007813-3.84375-4.078126-12.363281-2.796876-22.234375zm0 0"/><path d="m58.792969 191.851562c2.882812 1.660157 7.507812 3.636719 13.195312 3.636719 9.363281 0 21.605469-5.355469 33.683594-26.277343 19.421875-33.640626 3.792969-47.515626-3.828125-51.921876-12.367188-7.148437-29.121094-5.550781-38.003906-3.960937-7.058594 1.261719-24.074219 5.222656-29.546875 14.679687-5.445313 9.457032-.367188 26.167969 2.070312 32.914063 3.066407 8.488281 10.054688 23.792969 22.429688 30.929687zm-6.929688-53.710937c2.523438-1.625 9.453125-4.421875 18.777344-5.632813 9.875-1.28125 18.394531-.207031 22.238281 2.796876 5.769532 4.507812-1.246094 18.21875-4.527344 23.90625-3.28125 5.683593-11.652343 18.605468-18.4375 15.875-4.523437-1.828126-9.714843-8.671876-13.539062-17.863282-3.613281-8.683594-4.65625-16.082031-4.511719-19.082031zm0 0"/><path d="m53.140625 299.050781c8.804687-.007812 29.277344-4.207031 29.277344-43.050781s-20.476563-43.042969-29.277344-43.050781c-.003906 0-.007813 0-.015625 0-14.277344 0-27.980469 9.757812-34.875 15.570312-5.484375 4.625-18.2382812 16.5625-18.25 27.488281.0117188 10.910157 12.765625 22.847657 18.25 27.46875 6.894531 5.816407 20.59375 15.570313 34.875 15.570313.003906.003906.011719.003906.015625.003906zm-32.855469-43.050781c1.371094-2.671875 5.972656-8.558594 13.445313-14.269531 7.90625-6.042969 15.8125-9.378907 20.65625-8.695313 7.25 1.019532 8.03125 16.398438 8.03125 22.964844s-.78125 21.945312-8.03125 22.964844c-4.84375.683594-12.75-2.652344-20.65625-8.695313-7.472657-5.710937-12.074219-11.597656-13.445313-14.269531zm0 0"/><path d="m105.671875 342.789062c-19.417969-33.636718-39.25-27.039062-46.878906-22.640624-12.375 7.136718-19.363281 22.441406-22.429688 30.929687-2.4375 6.746094-7.515625 23.460937-2.0625 32.929687 5.464844 9.445313 22.480469 13.402344 29.539063 14.664063 3.792968.679687 9.023437 1.359375 14.730468 1.359375 7.660157 0 16.183594-1.226562 23.269532-5.320312 7.625-4.40625 23.253906-18.28125 3.832031-51.921876zm-12.792969 33.90625c-3.84375 3.007813-12.363281 4.078126-22.234375 2.796876-9.328125-1.210938-16.257812-4.007813-18.78125-5.632813-.144531-3 .898438-10.398437 4.511719-19.082031 3.828125-9.1875 9.015625-16.035156 13.539062-17.859375 6.792969-2.742188 15.15625 10.1875 18.441407 15.871093 3.28125 5.6875 10.292969 19.398438 4.523437 23.90625zm0 0"/><path d="m169.210938 406.328125c-33.640626-19.421875-47.515626-3.792969-51.921876 3.832031-7.148437 12.367188-5.550781 29.117188-3.960937 38 1.261719 7.058594 5.21875 24.074219 14.679687 29.546875 3.070313 1.769531 6.902344 2.425781 10.914063 2.425781 8.339844 0 17.445313-2.851562 22-4.496093 8.488281-3.066407 23.792969-10.054688 30.929687-22.429688 4.398438-7.625 10.996094-27.460937-22.640624-46.878906zm5.871093 35.757813c-1.828125 4.523437-8.671875 9.710937-17.859375 13.539062-8.683594 3.613281-16.085937 4.65625-19.082031 4.511719-1.625-2.523438-4.421875-9.453125-5.632813-18.78125-1.28125-9.871094-.210937-18.390625 2.796876-22.234375 4.511718-5.769532 18.222656 1.242187 23.90625 4.523437 5.683593 3.285157 18.613281 11.652344 15.871093 18.441407zm0 0"/><path d="m256 429.582031c-38.84375 0-43.042969 20.472657-43.050781 29.277344-.003907 14.285156 9.753906 27.992187 15.570312 34.890625 4.625 5.484375 16.558594 18.238281 27.488281 18.25 10.910157-.011719 22.84375-12.765625 27.46875-18.25 5.820313-6.898438 15.578126-20.605469 15.570313-34.890625-.003906-8.800781-4.203125-29.277344-43.046875-29.277344zm14.269531 48.6875c-5.710937 7.472657-11.597656 12.074219-14.269531 13.445313-2.671875-1.371094-8.558594-5.972656-14.269531-13.445313-6.042969-7.910156-9.378907-15.824219-8.695313-20.65625 1.019532-7.25 16.398438-8.03125 22.964844-8.03125s21.945312.78125 22.964844 8.03125c.679687 4.832031-2.652344 12.746094-8.695313 20.65625zm0 0"/><path d="m342.789062 406.328125c-33.636718 19.417969-27.039062 39.25-22.640624 46.878906 7.136718 12.375 22.441406 19.363281 30.929687 22.429688 4.554687 1.644531 13.648437 4.492187 21.992187 4.492187 4.019532 0 7.859376-.660156 10.9375-2.433594 9.445313-5.460937 13.402344-22.476562 14.664063-29.535156 1.589844-8.886718 3.1875-25.632812-3.960937-38.003906-4.40625-7.621094-18.28125-23.25-51.921876-3.828125zm36.703126 35.027344c-1.210938 9.328125-4.007813 16.257812-5.632813 18.78125-3.003906.144531-10.398437-.898438-19.082031-4.511719-9.1875-3.828125-16.03125-9.015625-17.859375-13.539062-2.742188-6.789063 10.1875-15.15625 15.871093-18.441407 5.6875-3.28125 19.398438-10.292969 23.90625-4.523437 3.007813 3.84375 4.078126 12.363281 2.796876 22.234375zm0 0"/><path d="m453.207031 320.148438c-7.625-4.398438-27.457031-10.996094-46.878906 22.644531-19.421875 33.636719-3.792969 47.511719 3.828125 51.917969 7.089844 4.097656 15.613281 5.320312 23.273438 5.320312 5.707031 0 10.9375-.679688 14.730468-1.359375 7.058594-1.261719 24.074219-5.21875 29.546875-14.679687 5.445313-9.453126.367188-26.167969-2.070312-32.914063-3.066407-8.488281-10.054688-23.792969-22.429688-30.929687zm6.929688 53.710937c-2.523438 1.625-9.453125 4.421875-18.777344 5.632813-9.875 1.28125-18.394531.207031-22.238281-2.796876-5.769532-4.507812 1.246094-18.21875 4.527344-23.90625 2.972656-5.152343 10.121093-16.25 16.488281-16.25.660156 0 1.3125.121094 1.949219.378907 4.523437 1.824219 9.714843 8.667969 13.539062 17.859375 3.613281 8.683594 4.65625 16.082031 4.511719 19.082031zm0 0"/><path d="m493.75 228.519531c-6.894531-5.8125-20.59375-15.570312-34.875-15.570312-.003906 0-.011719 0-.015625 0-8.800781.007812-29.277344 4.207031-29.277344 43.050781s20.476563 43.042969 29.277344 43.050781h.015625c14.28125 0 27.980469-9.757812 34.875-15.570312 5.484375-4.625 18.238281-16.558594 18.25-27.488281-.011719-10.910157-12.765625-22.847657-18.25-27.472657zm-15.480469 41.75c-7.910156 6.042969-15.828125 9.378907-20.65625 8.695313-7.25-1.019532-8.03125-16.398438-8.03125-22.964844s.78125-21.945312 8.03125-22.964844c.414063-.058594.855469-.089844 1.3125-.089844 4.882813 0 12.117188 3.261719 19.34375 8.785157 7.472657 5.710937 12.074219 11.597656 13.445313 14.269531-1.371094 2.671875-5.972656 8.558594-13.445313 14.269531zm0 0"/><path d="m406.328125 169.210938c12.082031 20.925781 24.320313 26.277343 33.683594 26.277343 5.6875 0 10.3125-1.976562 13.195312-3.636719 12.375-7.136718 19.363281-22.441406 22.429688-30.929687 2.4375-6.746094 7.515625-23.460937 2.0625-32.929687-5.464844-9.445313-22.480469-13.402344-29.539063-14.664063-8.886718-1.589844-25.632812-3.191406-38 3.960937-7.625 4.40625-23.253906 18.28125-3.832031 51.921876zm12.792969-33.90625c3.84375-3.003907 12.363281-4.078126 22.234375-2.796876 9.328125 1.210938 16.257812 4.007813 18.78125 5.632813.144531 3-.898438 10.398437-4.511719 19.082031-3.828125 9.1875-9.015625 16.03125-13.542969 17.859375-6.785156 2.742188-15.152343-10.1875-18.4375-15.875-3.28125-5.683593-10.292969-19.394531-4.523437-23.902343zm0 0"/><path d="m342.789062 105.671875c11.910157 6.878906 21.339844 9.359375 28.753907 9.359375 13.523437 0 20.324219-8.265625 23.167969-13.191406 7.148437-12.367188 5.550781-29.117188 3.960937-38-1.261719-7.058594-5.21875-24.074219-14.679687-29.546875-9.453126-5.445313-26.167969-.367188-32.914063 2.070312-8.488281 3.066407-23.792969 10.054688-30.929687 22.429688-4.398438 7.625-10.996094 27.460937 22.640624 46.878906zm-5.871093-35.757813c1.828125-4.523437 8.671875-9.710937 17.859375-13.539062 8.683594-3.617188 16.082031-4.660156 19.082031-4.511719 1.625 2.523438 4.421875 9.453125 5.632813 18.78125 1.28125 9.871094.210937 18.390625-2.796876 22.234375-4.507812 5.773438-18.21875-1.242187-23.90625-4.523437-5.683593-3.285157-18.613281-11.652344-15.871093-18.441407zm0 0"/><path d="m225.25 242.179688c-4.78125-2.761719-10.898438-1.121094-13.660156 3.660156-1.894532 3.28125-5.421875 5.320312-9.210938 5.320312-3.789062 0-7.320312-2.039062-9.214844-5.320312-2.765624-4.78125-8.878906-6.421875-13.664062-3.660156-4.78125 2.761718-6.417969 8.878906-3.65625 13.660156 5.457031 9.449218 15.621094 15.320312 26.535156 15.320312 10.910156 0 21.078125-5.871094 26.53125-15.320312 2.761719-4.78125 1.121094-10.898438-3.660156-13.660156zm0 0"/><path d="m309.625 271.160156c10.910156 0 21.078125-5.871094 26.53125-15.320312 2.761719-4.78125 1.125-10.898438-3.660156-13.660156-4.78125-2.761719-10.898438-1.121094-13.660156 3.660156-1.894532 3.28125-5.421876 5.320312-9.210938 5.320312s-7.320312-2.039062-9.214844-5.320312c-2.761718-4.78125-8.878906-6.421875-13.664062-3.660156-4.78125 2.761718-6.417969 8.878906-3.65625 13.660156 5.457031 9.449218 15.621094 15.320312 26.535156 15.320312zm0 0"/><path d="m278.875 317.519531c-4.78125-2.761719-10.898438-1.121093-13.660156 3.660157-1.894532 3.28125-5.425782 5.320312-9.214844 5.320312s-7.320312-2.039062-9.214844-5.320312c-2.757812-4.78125-8.875-6.421876-13.660156-3.660157-4.78125 2.761719-6.421875 8.878907-3.660156 13.660157 5.457031 9.449218 15.625 15.320312 26.535156 15.320312s21.078125-5.871094 26.535156-15.320312c2.761719-4.78125 1.121094-10.898438-3.660156-13.660157zm0 0"/><path d="m156.691406 157.304688c4.070313-3.730469 4.347656-10.054688.613282-14.128907-3.730469-4.066406-10.058594-4.34375-14.128907-.613281l-.003906.007812c-4.070313 3.730469-4.34375 10.054688-.613281 14.125 1.972656 2.148438 4.667968 3.238282 7.375 3.238282 2.414062 0 4.835937-.867188 6.757812-2.628906zm0 0"/><path d="m354.671875 355.332031-.003906.007813c-3.714844 4.085937-3.414063 10.40625.671875 14.121094 1.917968 1.742187 4.324218 2.601562 6.726562 2.601562 2.71875 0 5.429688-1.105469 7.402344-3.277344 3.714844-4.085937 3.414062-10.410156-.671875-14.125s-10.410156-3.414062-14.125.671875zm0 0"/></svg>