<?xml version="1.0" encoding="iso-8859-1"?>
<!-- Generator: Adobe Illustrator 19.0.0, SVG Export Plug-In . SVG Version: 6.00 Build 0)  -->
<svg version="1.1" id="Capa_1" xmlns="http://www.w3.org/2000/svg" xmlns:xlink="http://www.w3.org/1999/xlink" x="0px" y="0px"
	 viewBox="0 0 512.001 512.001" style="enable-background:new 0 0 512.001 512.001;" xml:space="preserve">
<path style="fill:#62CD4D;" d="M389.079,49.059C293.824-12.323,165.469-1.335,82.082,82.053
	C-5.434,169.569-13.22,306.623,58.724,402.954l34.101-34.803c-53.14-77.13-45.409-183.555,23.196-252.16
	c64.534-64.534,162.529-75.196,238.13-32.005l-18.013,18.013h73.995V28.004L389.079,49.059z"/>
<path style="fill:#A0E557;" d="M122.957,462.92c95.255,61.382,223.61,50.393,306.997-32.994
	c87.516-87.516,95.302-224.571,23.357-320.901l-34.101,34.803c53.14,77.13,45.409,183.555-23.196,252.16
	c-64.534,64.534-162.529,75.196-238.13,32.005l18.013-18.013h-73.995v73.995L122.957,462.92z"/>
<path d="M58.725,412.953c-0.223,0-0.445-0.008-0.669-0.022c-2.914-0.195-5.597-1.654-7.343-3.994
	c-64.667-86.585-67.763-205.133-7.706-294.995c3.07-4.593,9.28-5.824,13.87-2.758c4.592,3.069,5.826,9.278,2.758,13.87
	c-53.179,79.57-52.641,183.539,0.324,262.353l20.074-20.488C28.35,285.177,39.94,177.93,108.95,108.921
	C175.1,42.772,277.966,28.948,359.111,75.305c2.706,1.546,4.537,4.266,4.95,7.354c0.414,3.09-0.636,6.195-2.84,8.398l-0.942,0.942
	h39.854V52.146l-3.984,3.984c-3.331,3.329-8.53,3.883-12.487,1.335C306.825,7.95,207.266,7.532,130.02,56.395
	c-4.667,2.952-10.843,1.562-13.796-3.105c-2.952-4.667-1.563-10.844,3.105-13.796c81.512-51.565,185.932-52.539,268.291-3.117
	l15.442-15.443c2.86-2.86,7.161-3.714,10.897-2.168c3.736,1.548,6.173,5.194,6.173,9.238V102c0,5.522-4.478,9.999-9.999,9.999
	h-73.995c-4.045,0-7.69-2.437-9.238-6.173c-1.547-3.737-0.691-8.037,2.168-10.897l8.412-8.411
	c-71.297-34.3-157.739-20.105-214.386,36.545c-64.15,64.148-73.416,164.838-22.033,239.416c2.716,3.941,2.258,9.253-1.092,12.672
	l-34.101,34.802C63.979,411.878,61.403,412.953,58.725,412.953z"/>
<path d="M82.082,92.052c-2.56,0-5.118-0.977-7.071-2.929c-3.905-3.905-3.905-10.236,0-14.142l0.417-0.416
	c3.906-3.904,10.235-3.904,14.142,0c3.905,3.905,3.905,10.236,0,14.142l-0.417,0.416C87.2,91.075,84.641,92.052,82.082,92.052z"/>
<path d="M396.016,405.986c-2.57,0-5.139-0.984-7.094-2.951c-3.893-3.918-3.872-10.249,0.045-14.142l0.436-0.436
	c3.906-3.904,10.235-3.904,14.142,0c3.905,3.905,3.905,10.236,0,14.142l-0.48,0.48C401.113,405.017,398.564,405.986,396.016,405.986
	z"/>
<path d="M256.24,511.951c-46.343,0.001-92.148-12.563-131.822-36.352l-15.443,15.444c-2.86,2.859-7.161,3.713-10.897,2.168
	c-3.736-1.548-6.173-5.194-6.173-9.238v-73.995c0-5.522,4.478-9.999,9.999-9.999H175.9c4.045,0,7.69,2.437,9.238,6.173
	c1.548,3.737,0.691,8.037-2.168,10.897l-8.419,8.418c58.824,28.395,127.947,24.357,183.368-11.456c4.64-3,10.828-1.667,13.825,2.971
	c2.998,4.639,1.668,10.828-2.971,13.825c-31.953,20.651-69.051,32.093-107.286,33.091c-38.085,1-75.646-8.419-108.562-27.225
	c-2.706-1.546-4.537-4.266-4.95-7.354c-0.414-3.09,0.636-6.195,2.84-8.398l0.942-0.942h-39.855v39.854l3.984-3.984
	c3.33-3.329,8.531-3.883,12.487-1.335c92.621,59.685,216.48,46.37,294.509-31.659c79.571-79.57,91.256-205.816,29.192-298.282
	l-20.071,20.485c20.964,33.162,32.001,71.34,31.999,110.941c-0.002,42.379-12.647,83.128-36.569,117.843
	c-3.136,4.548-9.36,5.693-13.908,2.56c-4.547-3.134-5.693-9.36-2.56-13.908c43.895-63.696,43.9-149.292,0.012-212.993
	c-2.716-3.941-2.258-9.253,1.092-12.672l34.101-34.803c2.044-2.086,4.897-3.162,7.81-2.979c2.914,0.195,5.597,1.654,7.344,3.994
	c36.452,48.807,54.238,109.329,50.085,170.417c-4.196,61.687-30.612,119.766-74.383,163.538c-41.6,41.6-96.686,67.76-155.113,73.663
	C273.362,511.523,264.789,511.951,256.24,511.951z"/>
<g>
</g>
<g>
</g>
<g>
</g>
<g>
</g>
<g>
</g>
<g>
</g>
<g>
</g>
<g>
</g>
<g>
</g>
<g>
</g>
<g>
</g>
<g>
</g>
<g>
</g>
<g>
</g>
<g>
</g>
</svg>
