<svg id="Capa_1" enable-background="new 0 0 512 512" height="512" viewBox="0 0 512 512" width="512" xmlns="http://www.w3.org/2000/svg"><g><g><path d="m465.916 51.689c-13.306 0-20.714-1.698-33.265-3.629-43.788 10.941-69.184 41.009-90.418 66.148-24.827 29.394-42.766 50.632-85.531 50.632-42.766 0-60.705-21.238-85.535-50.632-26.491-31.361-59.461-70.392-126.533-70.392-17.792 0-32.216 14.424-32.216 32.216s14.424 32.216 32.216 32.216c35.43 0 51.665 17.178 77.311 47.538 10.956 12.971 22.987 27.191 38.025 39.643-43.412 30.524-71.839 80.986-71.839 137.969 0 7.006.43 13.913 1.264 20.697 16.575 71.799 81.356 134.62 167.294 134.62 92.943 0 159.988-62.374 159.988-155.317 0-56.977-29.602-107.546-73.007-138.071 15.043-12.455 31.827-33.207 42.786-46.182 25.643-30.36 44.373-49.917 79.799-49.917 17.792 0 21.393-3.601 21.393-21.393s-3.94-26.146-21.732-26.146zm-209.226 385.835c-57.415 0-104.126-46.711-104.126-104.126 0-57.416 46.711-104.126 104.126-104.126 57.416 0 104.126 46.711 104.126 104.126s-46.71 104.126-104.126 104.126z" fill="#00ebc4"/><path d="m468.759 43.816c-13.308 0-25.269 1.541-36.107 4.25 4.519 3.216 12.294 10.638 13.158 20.898.725 8.605-10 20.443-25.692 26.655-17.573 6.957-36.532 22.915-59.303 49.874-9.731 11.521-28.738 39.732-28.738 51.67 0 9.068 46.934 59.53 46.934 103.802 0 82.534-67.146 149.68-149.68 149.68-63.832 0-118.449-40.168-139.928-96.55 10.235 83.215 81.35 147.861 167.286 147.861 92.943 0 168.558-75.615 168.558-168.558 0-56.977-28.422-107.435-71.827-137.96 15.043-12.455 27.076-26.679 38.035-39.654 25.643-30.36 41.876-47.536 77.302-47.536 17.792 0 32.216-14.424 32.216-32.216.002-17.793-14.422-32.216-32.214-32.216z" fill="#45b1c6"/></g><g fill="#4e0325"><path d="m468.759 33.771c-71.733 0-107.837 42.745-134.199 73.955-24.792 29.352-39.756 47.069-77.858 47.069s-53.068-17.717-77.862-47.069c-26.364-31.21-62.471-73.955-134.205-73.955-23.302 0-42.26 18.958-42.26 42.26s18.957 42.26 42.26 42.26c31.111 0 44.551 14.276 69.638 43.976 8.727 10.332 18.379 21.757 29.862 32.559-41.571 33.835-66.048 84.75-66.048 138.571.001 98.482 80.121 178.603 178.603 178.603s178.602-80.12 178.602-178.602c0-53.815-24.471-104.726-66.036-138.562 11.489-10.805 21.143-22.235 29.874-32.571 25.084-29.698 38.522-43.973 69.629-43.973 23.302 0 42.26-18.957 42.26-42.26s-18.958-42.261-42.26-42.261zm0 64.432c-39.795 0-58.216 19.418-84.976 51.1-10.477 12.404-22.352 26.463-36.767 38.398-2.411 1.997-3.754 5.003-3.631 8.132.123 3.128 1.698 6.02 4.259 7.821 42.304 29.751 67.56 78.253 67.56 129.744 0 87.405-71.109 158.514-158.514 158.514s-158.514-71.109-158.514-158.514c0-51.496 25.261-100.002 67.572-129.752 2.561-1.8 4.136-4.693 4.259-7.821s-1.219-6.135-3.63-8.132c-14.41-11.932-26.283-25.988-36.758-38.389-26.763-31.683-45.186-51.101-84.984-51.101-12.225 0-22.171-9.946-22.171-22.171 0-12.226 9.946-22.172 22.171-22.172 62.408 0 92.399 35.505 118.86 66.83 25.576 30.278 45.778 54.194 93.207 54.194s67.629-23.916 93.205-54.195c26.458-31.325 56.446-66.829 118.852-66.829 12.225 0 22.171 9.946 22.171 22.172 0 12.225-9.946 22.171-22.171 22.171z"/><path d="m256.69 219.227c-62.954 0-114.17 51.217-114.17 114.171s51.217 114.17 114.17 114.17 114.17-51.217 114.17-114.17c.001-62.954-51.216-114.171-114.17-114.171zm0 208.253c-51.877 0-94.082-42.205-94.082-94.082s42.205-94.082 94.082-94.082 94.082 42.205 94.082 94.082-42.205 94.082-94.082 94.082z"/><path d="m328.41 195.904c3.328 0 6.026-2.698 6.026-6.027v-10.777c0-3.328-2.698-6.027-6.026-6.027s-6.027 2.699-6.027 6.027v10.777c.001 3.329 2.699 6.027 6.027 6.027z"/><path d="m292.504 211.817c3.328 0 6.027-2.698 6.027-6.027v-10.777c0-3.328-2.698-6.027-6.027-6.027-3.328 0-6.027 2.698-6.027 6.027v10.777c.001 3.328 2.699 6.027 6.027 6.027z"/></g><g fill="#fff"><path d="m150.445 150.632c-3.065 0-6.091-1.398-8.063-4.045-8.843-11.872-17.986-24.149-30.087-34.69-4.182-3.644-4.619-9.989-.975-14.171 3.643-4.182 9.987-4.619 14.171-.975 13.727 11.959 23.967 25.707 33.002 37.837 3.313 4.449 2.393 10.742-2.056 14.056-1.801 1.34-3.905 1.988-5.992 1.988z"/><path d="m77.162 91.554c-.902 0-1.819-.122-2.729-.379-1.772-.499-3.597-.959-5.425-1.368-5.413-1.21-8.822-6.579-7.612-11.993 1.21-5.413 6.578-8.82 11.993-7.612 2.183.488 4.367 1.039 6.49 1.637 5.339 1.504 8.449 7.052 6.945 12.392-1.248 4.429-5.277 7.323-9.662 7.323z"/></g><g><ellipse cx="474.641" cy="200.402" fill="#00ebc4" rx="18.064" ry="18.064" transform="matrix(.323 -.946 .946 .323 131.493 584.712)"/><path d="m312.747 63.445c0 4.212-3.414 7.626-7.626 7.626s-7.626-3.414-7.626-7.626 3.414-7.626 7.626-7.626 7.626 3.414 7.626 7.626z" fill="#00ebc4"/><g fill="#a2f4e3"><path d="m25.447 207.614-6.12 17.209c-.262.737-.781 1.321-1.435 1.616l-15.29 6.889c-2.16.973-2.16 4.415 0 5.388l15.29 6.889c.655.295 1.173.879 1.435 1.616l6.12 17.209c.865 2.431 3.922 2.431 4.787 0l6.12-17.209c.262-.737.781-1.321 1.435-1.616l15.29-6.889c2.16-.973 2.16-4.415 0-5.388l-15.29-6.889c-.655-.295-1.173-.879-1.435-1.616l-6.12-17.209c-.865-2.431-3.923-2.431-4.787 0z"/><path d="m213.5 2.458-8.251 23.2c-.353.993-1.053 1.78-1.935 2.178l-20.612 9.286c-2.912 1.312-2.912 5.952 0 7.264l20.612 9.287c.883.398 1.582 1.185 1.935 2.178l8.251 23.2c1.166 3.278 5.288 3.278 6.454 0l8.251-23.2c.353-.993 1.053-1.78 1.935-2.178l20.612-9.287c2.912-1.312 2.912-5.952 0-7.264l-20.612-9.286c-.883-.398-1.582-1.185-1.935-2.178l-8.251-23.2c-1.166-3.277-5.288-3.277-6.454 0z"/></g></g></g></svg>