<svg id="Capa_1" enable-background="new 0 0 512 512" viewBox="0 0 512 512" xmlns="http://www.w3.org/2000/svg"><g><g><g><g><path d="m335.248 364.994c-3.021-3.022-7.04-4.686-11.313-4.686h-214.575c-32.533 0-59-26.467-59-59v-194.334c0-3.741.365-7.397 1.034-10.947-25.24 7.084-43.894 30.349-43.894 57.773v194.334c0 33 27 60 60 60h45.395c2.761 0 5 2.239 5 5v46.886c0 4.454 5.386 6.685 8.536 3.536l51.029-51.029c2.813-2.813 6.628-4.393 10.607-4.393h190.322z" fill="#fe860a"/></g><path d="m444.5 46.974h-335.14c-33 0-60 27-60 60v194.334c0 33 27 60 60 60h214.574c3.978 0 7.794 1.58 10.607 4.393l51.029 51.029c3.15 3.15 8.536.919 8.536-3.536v-46.887c0-2.761 2.239-5 5-5h45.394c33 0 60-27 60-60v-194.333c0-33-27-60-60-60z" fill="#ffe177"/><path d="m444.5 46.974h-335.14c-33 0-60 27-60 60v194.334c0 33 27 60 60 60h214.574c3.978 0 7.794 1.58 10.607 4.393l51.029 51.029c3.15 3.15 8.536.919 8.536-3.536v-46.887c0-2.761 2.239-5 5-5h45.394c33 0 60-27 60-60v-194.333c0-33-27-60-60-60z" fill="#ffe177"/><path d="m455.14 47.944v206.392c0 33-27 60-60 60h-344.329c5.993 26.788 30.021 46.972 58.549 46.972h214.574c3.978 0 7.794 1.58 10.607 4.393l51.029 51.029c3.15 3.15 8.536.919 8.536-3.536v-46.886c0-2.761 2.239-5 5-5h45.394c33 0 60-27 60-60v-194.334c0-29.37-21.392-53.969-49.36-59.03z" fill="#ffd15b"/></g></g><g><path d="m245 400.634h-56.935c-6.01 0-11.66 2.34-15.91 6.59l-46.761 46.761v-40.851c0-6.893-5.607-12.5-12.5-12.5h-45.394c-28.949 0-52.5-23.551-52.5-52.5v-194.334c0-19.051 10.627-36.521 26.86-45.713v90.915c0 4.142 3.358 7.5 7.5 7.5s7.5-3.358 7.5-7.5v-92.028c0-28.949 23.551-52.5 52.5-52.5h266.64c4.142 0 7.5-3.358 7.5-7.5s-3.358-7.5-7.5-7.5h-266.64c-31.587 0-58.165 21.813-65.49 51.163-26.04 9.82-43.87 35.163-43.87 63.163v194.334c0 37.22 30.28 67.5 67.5 67.5h42.895v44.387c0 5.074 3.029 9.606 7.716 11.548 1.556.644 3.184.958 4.796.958 3.246 0 6.429-1.271 8.826-3.667l51.029-51.028c1.417-1.417 3.3-2.197 5.303-2.197h56.935c4.142 0 7.5-3.358 7.5-7.5s-3.358-7.501-7.5-7.501z"/><path d="m413.335 101.502c-4.142 0-7.5 3.358-7.5 7.5v76.897c0 4.142 3.358 7.5 7.5 7.5s7.5-3.358 7.5-7.5v-24.884l31.387 30.281c1.456 1.404 3.332 2.103 5.207 2.103 1.964 0 3.927-.767 5.398-2.292 2.876-2.981 2.791-7.729-.19-10.605l-35.902-34.637 33.041-30.37c3.049-2.803 3.249-7.548.446-10.598-2.802-3.049-7.546-3.25-10.597-.446l-28.789 26.463v-21.911c-.001-4.143-3.358-7.501-7.501-7.501z"/><path d="m376.374 109.075.52 53.754-40.015-57.945c-1.864-2.701-5.27-3.875-8.403-2.898-3.134.977-5.268 3.878-5.268 7.16v76.753c0 4.142 3.358 7.5 7.5 7.5s7.5-3.358 7.5-7.5v-52.694l38.226 55.354c2.288 3.305 6.07 4.723 9.637 3.607 3.658-1.143 6.022-4.62 6.021-8.93l-.719-74.306c-.04-4.117-3.39-7.427-7.498-7.427-.024 0-.049 0-.074 0-4.142.039-7.467 3.43-7.427 7.572z"/><path d="m312.18 183.251-28.612-75.817c-.026-.069-.053-.137-.081-.206-1.431-3.479-4.786-5.726-8.547-5.726h-.009c-3.765.003-7.12 2.257-8.546 5.742-.023.057-.045.114-.067.171l-28.875 75.814c-1.474 3.871.468 8.204 4.339 9.678.879.335 1.781.493 2.668.493 3.022 0 5.871-1.84 7.01-4.833l5.352-14.051h36.04l5.295 14.03c1.462 3.875 5.789 5.833 9.665 4.369 3.874-1.461 5.83-5.789 4.368-9.664zm-49.656-23.734 12.39-32.531 12.277 32.531z"/><path d="m164.583 101.502c-4.142 0-7.5 3.358-7.5 7.5v76.897c0 4.142 3.358 7.5 7.5 7.5s7.5-3.358 7.5-7.5v-32.267h38.214v32.267c0 4.142 3.358 7.5 7.5 7.5s7.5-3.358 7.5-7.5v-76.897c0-4.142-3.358-7.5-7.5-7.5s-7.5 3.358-7.5 7.5v29.63h-38.214v-29.63c0-4.142-3.357-7.5-7.5-7.5z"/><path d="m331.567 227.426c-4.142 0-7.5 3.358-7.5 7.5v52.914c0 10.988 5.079 19.575 15.525 26.25 5.421 3.464 11.546 5.225 18.202 5.233h.054c5.752 0 11.146-1.248 16.032-3.708 15.389-7.75 18.619-19.412 18.619-27.831v-52.858c0-4.142-3.358-7.5-7.5-7.5s-7.5 3.358-7.5 7.5v52.858c0 3.956-1.075 9.755-10.365 14.434-2.775 1.397-5.898 2.105-9.287 2.105h-.033c-3.809-.005-7.128-.945-10.146-2.874-6.109-3.903-8.602-7.846-8.602-13.609v-52.914c.001-4.142-3.357-7.5-7.499-7.5z"/><path d="m189.031 319.323h.019c4.133 0 7.489-3.346 7.5-7.481l.091-37.064 23.152-35.565c2.26-3.472 1.277-8.118-2.194-10.377s-8.117-1.277-10.377 2.194l-18.085 27.782-18.273-27.985c-2.264-3.469-6.912-4.444-10.38-2.179s-4.444 6.912-2.179 10.38l23.337 35.74-.091 37.038c-.011 4.14 3.338 7.506 7.48 7.517z"/><path d="m265.843 319.323c25.336 0 45.948-20.612 45.948-45.948s-20.612-45.949-45.948-45.949-45.949 20.612-45.949 45.949c.001 25.335 20.613 45.948 45.949 45.948zm0-76.897c17.065 0 30.948 13.884 30.948 30.949s-13.883 30.948-30.948 30.948-30.949-13.883-30.949-30.948 13.884-30.949 30.949-30.949z"/><path d="m117.578 193.399c4.142 0 7.5-3.358 7.5-7.5v-69.397h13.819c4.142 0 7.5-3.358 7.5-7.5s-3.358-7.5-7.5-7.5h-42.467c-4.142 0-7.5 3.358-7.5 7.5s3.358 7.5 7.5 7.5h13.647v69.397c.001 4.142 3.359 7.5 7.501 7.5z"/><path d="m444.5 39.474h-33.5c-4.142 0-7.5 3.358-7.5 7.5s3.358 7.5 7.5 7.5h33.5c28.949 0 52.5 23.551 52.5 52.5v194.334c0 28.949-23.551 52.5-52.5 52.5h-45.395c-6.893 0-12.5 5.607-12.5 12.5v40.852l-46.761-46.761c-4.25-4.25-9.9-6.59-15.91-6.59h-214.574c-28.949 0-52.5-23.551-52.5-52.5v-67.306c0-4.142-3.358-7.5-7.5-7.5s-7.5 3.358-7.5 7.5v67.306c0 37.22 30.28 67.5 67.5 67.5h214.574c2.003 0 3.886.78 5.303 2.197l29.629 29.629h-78.866c-4.142 0-7.5 3.358-7.5 7.5s3.358 7.5 7.5 7.5h93.867l6.4 6.4c2.397 2.397 5.579 3.667 8.826 3.667 1.612 0 3.241-.314 4.797-.958 4.687-1.942 7.716-6.475 7.716-11.548v-44.387h42.894c37.22 0 67.5-30.28 67.5-67.5v-194.335c0-37.22-30.28-67.5-67.5-67.5z"/></g></g><g/><g/><g/><g/><g/><g/><g/><g/><g/><g/><g/><g/><g/><g/><g/></svg>