<?xml version="1.0" encoding="iso-8859-1"?>
<!-- Generator: Adobe Illustrator 19.0.0, SVG Export Plug-In . SVG Version: 6.00 Build 0)  -->
<svg version="1.1" id="Capa_1" xmlns="http://www.w3.org/2000/svg" xmlns:xlink="http://www.w3.org/1999/xlink" x="0px" y="0px"
	 viewBox="0 0 512 512" style="enable-background:new 0 0 512 512;" xml:space="preserve">
<circle style="fill:#FF5D5D;" cx="256" cy="256" r="246"/>
<circle style="fill:#FFFFFF;" cx="256" cy="256" r="200.49"/>
<circle style="fill:#FF5D5D;" cx="256" cy="256" r="28"/>
<path d="M437.019,74.981C388.667,26.628,324.38,0,256,0S123.333,26.628,74.981,74.981C26.628,123.333,0,187.62,0,256
	s26.628,132.667,74.981,181.019C123.333,485.372,187.62,512,256,512s132.667-26.628,181.019-74.981
	C485.372,388.667,512,324.38,512,256S485.372,123.333,437.019,74.981z M256,492C125.869,492,20,386.131,20,256S125.869,20,256,20
	s236,105.869,236,236S386.131,492,256,492z"/>
<path d="M404.846,107.154C333.282,35.59,220.793,25.04,137.372,82.066c-4.559,3.117-5.729,9.339-2.612,13.899
	c3.118,4.561,9.34,5.729,13.899,2.612c75.484-51.601,177.278-42.046,242.044,22.719C426.684,157.277,446.5,205.116,446.5,256
	c0,50.885-19.815,98.723-55.796,134.704S306.884,446.5,256,446.5s-98.723-19.815-134.704-55.796
	c-64.097-64.096-74.107-165.216-23.803-240.441c3.07-4.591,1.837-10.801-2.754-13.871c-4.592-3.071-10.801-1.837-13.871,2.754
	c-55.593,83.133-44.538,194.877,26.286,265.701C146.912,444.604,199.773,466.5,256,466.5s109.088-21.896,148.846-61.654
	S466.5,312.227,466.5,256S444.604,146.912,404.846,107.154z"/>
<path d="M113.61,124.843c2.571,0,5.142-0.985,7.096-2.954l0.213-0.214l0.061-0.061c3.91-3.9,3.888-10.202-0.013-14.112
	c-3.9-3.91-10.261-3.888-14.172,0.012l-0.282,0.283c-3.891,3.919-3.869,10.251,0.05,14.142
	C108.515,123.875,111.063,124.843,113.61,124.843z"/>
<path d="M419,266.186c5.523,0,10-4.477,10-10s-4.477-10-10-10h-14.124c-5.523,0-10,4.477-10,10c0,5.523,4.477,10,10,10H419z"/>
<path d="M93,245.814c-5.523,0-10,4.477-10,10c0,5.523,4.477,10,10,10h14.124c5.523,0,10-4.477,10-10s-4.477-10-10-10H93z"/>
<path d="M266.186,107.124V93c0-5.523-4.477-10-10-10s-10,4.477-10,10v14.124c0,5.523,4.477,10,10,10
	C261.709,117.124,266.186,112.646,266.186,107.124z"/>
<path d="M245.814,404.876V419c0,5.523,4.477,10,10,10c5.523,0,10-4.477,10-10v-14.124c0-5.523-4.477-10-10-10
	S245.814,399.354,245.814,404.876z"/>
<path d="M197.571,183.429c-3.905-3.905-10.237-3.905-14.143,0s-3.905,10.237,0,14.143l39.591,39.591
	C219.833,242.719,218,249.148,218,256c0,20.953,17.047,38,38,38s38-17.047,38-38c0-6.852-1.833-13.281-5.019-18.838l79.091-79.091
	c3.905-3.905,3.905-10.237,0-14.143c-3.905-3.905-10.237-3.905-14.143,0l-79.091,79.091C269.281,219.832,262.852,218,256,218
	s-13.281,1.832-18.838,5.019L197.571,183.429z M274,256c0,9.925-8.075,18-18,18s-18-8.075-18-18s8.075-18,18-18
	C265.925,238,274,246.075,274,256z"/>
<path d="M392.663,311.984c-9.379,22.895-24.429,43.186-43.521,58.679c-1.231,0.999-2.494,1.99-3.755,2.946
	c-4.399,3.339-5.26,9.612-1.921,14.011c1.967,2.592,4.953,3.956,7.974,3.956c2.106,0,4.23-0.663,6.038-2.034
	c1.432-1.087,2.867-2.213,4.267-3.348c21.689-17.601,38.781-40.641,49.426-66.629c2.094-5.11-0.352-10.951-5.463-13.044
	C400.595,304.425,394.755,306.873,392.663,311.984z"/>
<path d="M313.974,391.831l-0.766,0.324c-5.091,2.14-7.484,8.002-5.344,13.093c1.608,3.826,5.318,6.128,9.223,6.128
	c1.292,0,2.605-0.252,3.87-0.784l0.847-0.358c5.082-2.162,7.449-8.035,5.287-13.117
	C324.929,392.036,319.057,389.668,313.974,391.831z"/>
<g>
</g>
<g>
</g>
<g>
</g>
<g>
</g>
<g>
</g>
<g>
</g>
<g>
</g>
<g>
</g>
<g>
</g>
<g>
</g>
<g>
</g>
<g>
</g>
<g>
</g>
<g>
</g>
<g>
</g>
</svg>
