<svg id="Capa_1" enable-background="new 0 0 512 512" height="512" viewBox="0 0 512 512" width="512" xmlns="http://www.w3.org/2000/svg"><path d="m301.167 342.775h160.596v-55.374h-411.525l-.001 55.374h160.596" fill="#ff7b79"/><g fill="#ffa96b"><path d="m85.54 342.775h57.966v111.723h-57.966z"/><path d="m85.54 119.306v168.095h57.966v-159.561"/><path d="m368.494 127.84v159.561h57.966v-168.095"/><path d="m368.494 342.775h57.966v111.723h-57.966z"/></g><path d="m41.759 56.968 10.995 55.678c100.164 13.816 121.781 20.764 203.251 20.764 81.467-.003 103.079-6.947 203.246-20.764l10.989-55.669" fill="#ff9346"/><path d="m63.012 454.498h103v47.502h-103z" fill="#ccf5fc"/><path d="m345.977 454.498h103v47.502h-103z" fill="#ccf5fc"/><path d="m256.045 81.187c-94.968-.024-130.001-9.398-223.122-27.992l-12.916-2.57 4.05-40.625 12.886 2.563c184.081 36.633 254.194 36.633 438.28 0l12.802-2.563 3.969 40.626-12.874 2.57c-93.105 18.589-128.126 27.963-223.075 27.991z" fill="#ccf5fc"/><ellipse cx="256" cy="183.555" fill="#f5eeec" rx="50.146" ry="50.146" transform="matrix(.899 -.438 .438 .899 -54.516 130.562)"/><path d="m255.82 352.77c-4.119 0-7.895-2.611-9.35-6.463-1.477-3.911-.313-8.456 2.882-11.159 3.286-2.78 8.086-3.117 11.744-.864 3.565 2.196 5.402 6.59 4.479 10.673-1.022 4.514-5.121 7.813-9.755 7.813z"/><path d="m501.947 49.653-3.969-40.626c-.275-2.813-1.727-5.377-3.997-7.061-2.27-1.683-5.147-2.327-7.918-1.773l-12.793 2.562c-182.684 36.354-251.697 36.354-434.377 0l-12.886-2.563c-2.766-.549-5.636.094-7.903 1.772-2.267 1.679-3.719 4.237-3.998 7.043l-4.051 40.626c-.511 5.122 2.951 9.795 8 10.8l12.91 2.569c.625.125 1.247.249 1.867.373l10.112 51.208c.827 4.186 4.218 7.386 8.444 7.969 8.615 1.188 16.629 2.323 24.153 3.407v151.443h-25.303c-5.523 0-10 4.477-10 10l-.001 55.374c0 2.652 1.054 5.196 2.929 7.071 1.876 1.875 4.419 2.929 7.071 2.929h25.303v91.723h-12.528c-5.523 0-10 4.477-10 10v47.501c0 5.523 4.477 10 10 10h103c5.523 0 10-4.477 10-10v-47.502c0-5.523-4.477-10-10-10h-12.506v-91.723h57.327c5.523 0 10-4.477 10-10s-4.477-10-10-10h-150.596l.001-35.374h391.525v35.374h-150.596c-5.523 0-10 4.477-10 10s4.477 10 10 10h57.327v91.723h-12.517c-5.523 0-10 4.477-10 10v47.502c0 5.523 4.477 10 10 10h103c5.523 0 10-4.477 10-10v-47.502c0-5.523-4.477-10-10-10h-12.517v-91.723h25.303c5.523 0 10-4.477 10-10v-55.374c0-5.523-4.477-10-10-10h-25.303v-151.442c7.525-1.084 15.54-2.219 24.157-3.408 4.227-.583 7.618-3.784 8.444-7.97l10.107-51.198c.634-.127 1.271-.254 1.91-.382l12.874-2.57c5.038-1.005 8.494-5.664 7.995-10.778zm-345.935 442.347h-83v-27.502h83zm-22.506-139.226v91.723h-37.966v-91.723zm305.471 139.226h-83v-27.502h83zm-22.517-47.502h-37.966v-91.723h37.966zm-320.92-167.097v-148.517c5.206.771 10.178 1.513 14.966 2.228 8.208 1.225 15.804 2.36 23 3.402v142.887zm160.46-133.992c22.136 0 40.145 18.009 40.145 40.146 0 22.136-18.009 40.145-40.145 40.145s-40.146-18.009-40.146-40.145c.001-22.137 18.01-40.146 40.146-40.146zm0 100.291c33.165 0 60.145-26.981 60.145-60.145 0-15.837-6.153-30.264-16.193-41.017 21.383-.959 39.117-2.709 58.542-5.249v140.112h-204.988v-140.111c19.426 2.54 37.159 4.291 58.541 5.249-10.04 10.752-16.193 25.179-16.193 41.016.001 33.164 26.981 60.145 60.146 60.145zm160.46 33.701h-37.966v-142.887c7.198-1.043 14.797-2.177 23.008-3.403 4.786-.715 9.755-1.456 14.958-2.227zm34.359-173.681c-20.311 2.839-37.194 5.359-52.271 7.61-53.863 8.041-80.898 12.077-142.545 12.079-61.647 0-88.682-4.036-142.544-12.078-15.078-2.251-31.963-4.772-52.275-7.611l-7.122-36.067c1.568.317 3.119.632 4.654.943 74.182 15.027 111.417 22.57 197.326 22.592h.005c85.874-.025 123.091-7.564 197.237-22.584 1.534-.311 3.085-.625 4.652-.942zm26.344-60.331c-9.891 1.975-19.126 3.846-27.848 5.613-72.84 14.755-109.401 22.161-193.267 22.185-83.906-.021-120.485-7.431-193.36-22.194-8.71-1.764-17.932-3.632-27.814-5.606l-4.017-.799 2.057-20.631 2.076.413c185.964 37.008 256.217 37.007 442.194-.002l1.963-.393 2.014 20.616z"/></svg>