<svg id="Capa_1" enable-background="new 0 0 512.003 512.003" height="512" viewBox="0 0 512.003 512.003" width="512" xmlns="http://www.w3.org/2000/svg"><path id="XMLID_2077_" d="m439.335 450.003h36.667c14.359 0 26-11.641 26-26 0-14.359-11.641-26-26-26h-440c-14.359 0-26 11.641-26 26 0 14.359 11.641 26 26 26h35.333z" fill="#ffcb7c"/><path id="XMLID_2075_" d="m274.128 154.002h80v104h-80z" fill="#d8ec84"/><path id="XMLID_2072_" d="m352.128 154.002h-76c-11.046 0-20-8.954-20-20 0-11.046 8.954-20 20-20h76c11.046 0 20 8.954 20 20 0 11.046-8.954 20-20 20z" fill="#91def5"/><path id="XMLID_2069_" d="m214.001 10h-184c-11.046 0-20 8.954-20 20 0 11.046 8.954 20 20 20h184c11.046 0 20-8.954 20-20 0-11.046-8.954-20-20-20z" fill="#91def5"/><path id="XMLID_2068_" d="m30.001 50h184v208.002h-184z" fill="#ffcb7c"/><path id="XMLID_1192_" d="m70.5 398.003h-60.499v-140h394.029c54.108 0 97.971 43.863 97.971 97.971v42.029h-63z" fill="#f5737f"/><circle id="XMLID_1263_" cx="126.108" cy="450.003" fill="#91def5" r="52"/><circle id="XMLID_1261_" cx="385.087" cy="450.003" fill="#91def5" r="52"/><g fill="#fff"><path id="XMLID_2070_" d="m70.001 92.973h104v120h-104z"/><circle id="XMLID_2067_" cx="90.001" cy="328.002" r="20"/><circle id="XMLID_2066_" cx="174.001" cy="328.002" r="20"/><circle id="XMLID_2065_" cx="258.001" cy="328.002" r="20"/></g><path id="XMLID_1310_" d="m126.111 440c-2.64 0-5.21 1.069-7.08 2.93-1.859 1.86-2.92 4.44-2.92 7.07 0 2.64 1.061 5.21 2.92 7.069 1.87 1.87 4.44 2.931 7.08 2.931 2.631 0 5.21-1.061 7.07-2.931 1.86-1.859 2.93-4.439 2.93-7.069s-1.069-5.21-2.93-7.07-4.439-2.93-7.07-2.93z"/><path id="XMLID_1315_" d="m385.091 440c-2.64 0-5.21 1.069-7.07 2.93-1.87 1.86-2.93 4.44-2.93 7.07 0 2.64 1.06 5.21 2.93 7.069 1.851 1.87 4.431 2.931 7.07 2.931 2.63 0 5.21-1.061 7.07-2.931 1.859-1.859 2.92-4.43 2.92-7.069 0-2.63-1.061-5.21-2.92-7.07-1.86-1.861-4.44-2.93-7.07-2.93z"/><path id="XMLID_1344_" d="m174.001 82.973h-104c-5.522 0-10 4.478-10 10v120c0 5.522 4.478 10 10 10h104c5.522 0 10-4.478 10-10v-120c0-5.523-4.477-10-10-10zm-10 120h-84v-100h84z"/><path id="XMLID_1349_" d="m90.001 358.003c16.542 0 30-13.458 30-30s-13.458-30-30-30-30 13.458-30 30 13.458 30 30 30zm0-40c5.514 0 10 4.486 10 10s-4.486 10-10 10-10-4.486-10-10 4.487-10 10-10z"/><path id="XMLID_1358_" d="m174.001 358.003c16.542 0 30-13.458 30-30s-13.458-30-30-30-30 13.458-30 30 13.458 30 30 30zm0-40c5.514 0 10 4.486 10 10s-4.486 10-10 10-10-4.486-10-10 4.487-10 10-10z"/><path id="XMLID_1373_" d="m258.001 358.003c16.542 0 30-13.458 30-30s-13.458-30-30-30-30 13.458-30 30 13.458 30 30 30zm0-40c5.514 0 10 4.486 10 10s-4.486 10-10 10-10-4.486-10-10 4.487-10 10-10z"/><path id="XMLID_1378_" d="m512.001 398.003v-42.03c0-59.535-48.436-107.97-107.971-107.97h-39.902v-86.513c10.584-4.639 18-15.211 18-27.488 0-16.542-13.458-30-30-30h-76c-16.542 0-30 13.458-30 30 0 12.277 7.416 22.849 18 27.488v86.512h-40.127v-189.722c11.639-4.128 20-15.243 20-28.28 0-16.542-13.458-30-30-30h-184c-16.542 0-30 13.458-30 30 0 13.036 8.361 24.152 20 28.28v189.723h-10c-5.522 0-10 4.478-10 10v140c0 3.534 1.838 6.633 4.606 8.412-2.928 5.205-4.606 11.203-4.606 17.588 0 19.851 16.149 36 36 36h28.924c4.797 29.447 30.4 52 61.182 52s56.385-22.553 61.182-52h136.615c4.797 29.447 30.4 52 61.182 52s56.385-22.553 61.182-52h29.732c19.851 0 36-16.149 36-36 0-6.385-1.678-12.383-4.606-17.588 2.769-1.779 4.607-4.878 4.607-8.412zm-235.873-274h76c5.514 0 10 4.486 10 10s-4.486 10-10 10h-76c-5.514 0-10-4.486-10-10s4.487-10 10-10zm8 40h60v84h-60zm-244.127-104.003h38.671c5.522 0 10-4.478 10-10s-4.478-10-10-10h-48.671c-5.514 0-10-4.486-10-10s4.486-10 10-10h184c5.514 0 10 4.486 10 10s-4.486 10-10 10h-45.328c-5.522 0-10 4.478-10 10s4.478 10 10 10h35.328v188.003h-164zm-20 208.003h384.029c48.507 0 87.971 39.463 87.971 87.97v32.03h-472v-120zm303.904 172h-136.615c-1.993-12.232-7.572-23.27-15.627-32h167.869c-8.054 8.73-13.634 19.768-15.627 32zm-303.904-16c0-8.822 7.178-16 16-16h44.551c-8.055 8.73-13.634 19.768-15.627 32h-28.924c-8.822 0-16-7.178-16-16zm106.107 68c-23.159 0-42-18.841-42-42s18.841-42 42-42 42 18.841 42 42-18.841 42-42 42zm258.979 0c-23.159 0-42-18.841-42-42s18.841-42 42-42 42 18.841 42 42-18.84 42-42 42zm90.914-52h-29.731c-1.993-12.232-7.572-23.27-15.627-32h45.359c8.822 0 16 7.178 16 16s-7.178 16-16.001 16z"/><path id="XMLID_1405_" d="m122.001 60c2.63 0 5.21-1.07 7.069-2.931 1.86-1.859 2.931-4.439 2.931-7.069s-1.07-5.21-2.931-7.07c-1.859-1.86-4.439-2.93-7.069-2.93s-5.21 1.069-7.07 2.93-2.93 4.44-2.93 7.07 1.069 5.21 2.93 7.069c1.861 1.861 4.441 2.931 7.07 2.931z"/></svg>