<svg id="Capa_1" enable-background="new 0 0 512.001 512.001" height="512" viewBox="0 0 512.001 512.001" width="512" xmlns="http://www.w3.org/2000/svg"><g id="XMLID_1473_"><g id="XMLID_765_"><path id="XMLID_805_" d="m73.093 36.091h160.769v210.522h-160.769z" fill="#eff3f3" transform="matrix(.866 -.5 .5 .866 -50.114 95.676)"/><path id="XMLID_1103_" d="m168.692 50.001h160.769v75.498h-160.769z" fill="#fff"/></g><path id="XMLID_920_" d="m10.001 126.001h364v64h-364z" fill="#d3d7df"/><g id="XMLID_799_" fill="#fff"><path id="XMLID_891_" d="m137.001 442.001c-12.15 0-22-9.85-22-22v-148c0-12.15 9.85-22 22-22 12.15 0 22 9.85 22 22v148c0 12.15-9.85 22-22 22z"/><path id="XMLID_864_" d="m247.001 442.001c-12.15 0-22-9.85-22-22v-148c0-12.15 9.85-22 22-22 12.15 0 22 9.85 22 22v148c0 12.15-9.85 22-22 22z"/></g><path id="XMLID_798_" d="m344.001 462.001v-272h-304v272c0 22.091 17.909 40 40 40h224c22.091 0 40-17.909 40-40z" fill="#b5bcc9"/><g id="XMLID_1248_"><g id="XMLID_1288_" fill="#d3d7df"><path id="XMLID_1290_" d="m137.001 442.001c-12.15 0-22-9.85-22-22v-148c0-12.15 9.85-22 22-22 12.15 0 22 9.85 22 22v148c0 12.15-9.85 22-22 22z"/><path id="XMLID_1289_" d="m247.001 442.001c-12.15 0-22-9.85-22-22v-148c0-12.15 9.85-22 22-22 12.15 0 22 9.85 22 22v148c0 12.15-9.85 22-22 22z"/></g></g><path id="XMLID_819_" d="m451.584 335.918-51.667 21.666-14.083-14.083h-58.333v56.5l13.916 13.917-37.291 37.291 50.791 50.792h106.25l40.833-40.833v-74.834z" fill="#fff"/><g id="XMLID_628_"><path id="XMLID_1217_" d="m137.001 240.001c-17.645 0-32 14.355-32 32v148c0 17.645 14.355 32 32 32s32-14.355 32-32v-148c0-17.644-14.355-32-32-32zm12 180c0 6.617-5.383 12-12 12s-12-5.383-12-12v-148c0-6.617 5.383-12 12-12s12 5.383 12 12z"/><path id="XMLID_1221_" d="m247.001 240.001c-17.645 0-32 14.355-32 32v148c0 17.645 14.355 32 32 32s32-14.355 32-32v-148c0-17.644-14.355-32-32-32zm12 180c0 6.617-5.383 12-12 12s-12-5.383-12-12v-148c0-6.617 5.383-12 12-12s12 5.383 12 12z"/><path id="XMLID_1224_" d="m509.071 379.263-50.416-50.416c-2.872-2.871-7.194-3.724-10.938-2.15l-45.475 19.07-9.336-9.336c-1.875-1.875-4.419-2.929-7.071-2.929h-31.833v-133.5h20c5.523 0 10-4.478 10-10v-64c0-5.522-4.477-10-10-10h-34.54v-66c0-5.522-4.477-10-10-10h-130.133l-20.207-35c-1.326-2.297-3.51-3.973-6.072-4.659-2.564-.688-5.292-.328-7.588.999l-139.23 80.384c-4.783 2.762-6.422 8.877-3.66 13.66l11.902 20.615h-24.473c-5.523 0-10 4.478-10 10v64c0 5.522 4.477 10 10 10h20v262c0 27.57 22.43 50 50 50h224c12.625 0 24.588-4.754 33.7-13.074l10.145 10.145c1.875 1.875 4.419 2.929 7.071 2.929h106.25c2.652 0 5.196-1.054 7.071-2.929l40.833-40.833c1.875-1.876 2.929-4.419 2.929-7.071v-74.834c.001-2.652-1.053-5.195-2.929-7.071zm-189.61-263.262h-140.769v-56h140.769zm-274.569-21.955 121.909-70.385 9.434 16.34h-7.543c-5.523 0-10 4.478-10 10v66h-101.124zm259.109 397.955h-224c-16.542 0-30-13.458-30-30v-262h93.584c5.523 0 10-4.478 10-10s-4.477-10-10-10h-123.584v-44h344v44h-130.416c-5.523 0-10 4.478-10 10s4.477 10 10 10h100.416v133.5h-6.5c-5.523 0-10 4.478-10 10v56.5c0 2.652 1.054 5.195 2.929 7.071l6.679 6.679-30.22 30.221c-3.905 3.905-3.905 10.237 0 14.143l26.643 26.644c-5.378 4.614-12.27 7.242-19.531 7.242zm14.1-40.958 23.15-23.15 17.227 17.227-.252 46.048zm138.924 40.958h-78.803l.279-50.945c.015-2.671-1.04-5.237-2.929-7.126l-38.071-38.071v-42.357h44.191l29.904 29.904c3.905 3.904 10.237 3.904 14.143 0 3.905-3.905 3.905-10.237 0-14.143l-8.217-8.217 31.739-13.309 42.74 42.74v48.357h-23.955l-18.247-18.164c-3.915-3.896-10.247-3.883-14.142.032-3.896 3.914-3.882 10.245.032 14.142l21.173 21.077c1.874 1.865 4.411 2.913 7.055 2.913h26.275z"/><path id="XMLID_1231_" d="m188.59 180.001c-2.64 0-5.22 1.069-7.08 2.93s-2.93 4.44-2.93 7.07 1.07 5.21 2.93 7.069c1.87 1.86 4.44 2.931 7.08 2.931 2.63 0 5.2-1.07 7.07-2.931 1.86-1.859 2.92-4.439 2.92-7.069s-1.06-5.21-2.92-7.07c-1.86-1.861-4.44-2.93-7.07-2.93z"/></g></g></svg>