<?xml version="1.0" encoding="iso-8859-1"?>
<!-- Generator: Adobe Illustrator 19.0.0, SVG Export Plug-In . SVG Version: 6.00 Build 0)  -->
<svg version="1.1" id="Capa_1" xmlns="http://www.w3.org/2000/svg" xmlns:xlink="http://www.w3.org/1999/xlink" x="0px" y="0px"
	 viewBox="0 0 512 512" style="enable-background:new 0 0 512 512;" xml:space="preserve">
<path style="fill:#2E9DE3;" d="M448,136v326c0,22.091-17.909,40-40,40H104c-22.091,0-40-17.909-40-40V136H448z"/>
<path style="fill:#4DBAF6;" d="M206,136H68c-19.882,0-36-16.118-36-36l0,0c0-19.882,16.118-36,36-36h376c19.882,0,36,16.118,36,36
	l0,0c0,19.882-16.118,36-36,36H301.5H206z"/>
<path d="M490,100c0-25.364-20.636-46-46-46H319.214C314.398,23.444,287.888,0,256,0s-58.398,23.444-63.214,54H68
	c-25.364,0-46,20.636-46,46c0,20.484,13.461,37.877,32,43.814V462c0,27.57,22.43,50,50,50h304c27.57,0,50-22.43,50-50V143.814
	C476.539,137.877,490,120.484,490,100z M256,20c20.821,0,38.298,14.542,42.84,34h-85.68C217.702,34.542,235.179,20,256,20z M444,126
	H301.5c-5.523,0-10,4.477-10,10s4.477,10,10,10H438v316c0,16.542-13.458,30-30,30H104c-16.542,0-30-13.458-30-30V146h132
	c5.523,0,10-4.477,10-10s-4.477-10-10-10H68c-14.336,0-26-11.664-26-26s11.664-26,26-26h376c14.336,0,26,11.664,26,26
	S458.336,126,444,126z"/>
<path d="M256,126c-2.63,0-5.21,1.07-7.07,2.93c-1.86,1.86-2.93,4.44-2.93,7.07s1.07,5.21,2.93,7.07c1.86,1.86,4.44,2.93,7.07,2.93
	s5.21-1.07,7.07-2.93S266,138.63,266,136s-1.07-5.21-2.93-7.07C261.21,127.07,258.63,126,256,126z"/>
<path d="M216,192c-5.523,0-10,4.477-10,10v246c0,5.523,4.477,10,10,10s10-4.477,10-10V202C226,196.477,221.523,192,216,192z"/>
<path d="M286,202v246c0,5.523,4.477,10,10,10s10-4.477,10-10V202c0-5.523-4.477-10-10-10S286,196.477,286,202z"/>
<path d="M136,438c-2.63,0-5.21,1.07-7.07,2.93S126,445.37,126,448s1.07,5.21,2.93,7.07c1.86,1.86,4.44,2.93,7.07,2.93
	s5.21-1.07,7.07-2.93S146,450.63,146,448s-1.07-5.21-2.93-7.07C141.21,439.07,138.63,438,136,438z"/>
<path d="M136,192c-5.523,0-10,4.477-10,10v200c0,5.523,4.477,10,10,10s10-4.477,10-10V202C146,196.477,141.523,192,136,192z"/>
<path d="M376,212c2.63,0,5.21-1.07,7.07-2.93S386,204.63,386,202s-1.07-5.21-2.93-7.07S378.63,192,376,192s-5.21,1.07-7.07,2.93
	c-1.86,1.86-2.93,4.44-2.93,7.07s1.07,5.21,2.93,7.07C370.79,210.93,373.37,212,376,212z"/>
<path d="M376,458c5.523,0,10-4.477,10-10V248c0-5.523-4.477-10-10-10s-10,4.477-10,10v200C366,453.523,370.477,458,376,458z"/>
<g>
</g>
<g>
</g>
<g>
</g>
<g>
</g>
<g>
</g>
<g>
</g>
<g>
</g>
<g>
</g>
<g>
</g>
<g>
</g>
<g>
</g>
<g>
</g>
<g>
</g>
<g>
</g>
<g>
</g>
</svg>
