<svg id="Capa_1" enable-background="new 0 0 512 512" viewBox="0 0 512 512" xmlns="http://www.w3.org/2000/svg"><g><g><path d="m336 502h-240c-13.807 0-25-11.193-25-25v-25h290v25c0 13.807-11.193 25-25 25z" fill="#fff"/><path d="m361 452h-290v-417c0-13.807 11.193-25 25-25h240c13.807 0 25 11.193 25 25z" fill="#bfdbff"/><path d="m216 266c-57.99 0-105-47.01-105-105 0-57.99 47.01-105 105-105 57.99 0 105 47.01 105 105 0 57.99-47.01 105-105 105z" fill="#fff"/><path d="m216 186c-33.415 0-61.343 23.42-68.311 54.737 18.363 15.746 42.224 25.263 68.311 25.263 26.087 0 49.948-9.517 68.311-25.263-6.968-31.317-34.896-54.737-68.311-54.737z" fill="#d5ea79"/><circle cx="216" cy="146" fill="#f5c6af" r="40"/><path d="m121 311h45v90h-45z" fill="#d5ea79"/><path d="m301 56v100l30-20h110v-80z" fill="#fff"/></g><g><circle cx="361" cy="351" r="10"/><path d="m441 46h-70v-11c0-19.299-15.701-35-35-35h-240c-19.299 0-35 15.701-35 35v442c0 19.299 15.701 35 35 35h240c19.299 0 35-15.701 35-35v-81c0-5.522-4.478-10-10-10s-10 4.478-10 10v46h-270v-407c0-8.271 6.729-15 15-15h240c8.271 0 15 6.729 15 15v11h-50c-5.523 0-10 4.477-10 10v17.873c-20.678-17.751-47.298-27.873-75-27.873-63.411 0-115 51.589-115 115s51.589 115 115 115 115-51.589 115-115c0-4.165-.251-8.35-.704-12.512l3.731-2.488h16.973v160c0 5.522 4.478 10 10 10s10-4.478 10-10v-160h70c5.523 0 10-4.477 10-10v-80c0-5.523-4.477-10-10-10zm-90 416v15c0 8.271-6.729 15-15 15h-240c-8.271 0-15-6.729-15-15v-15zm-191.902-224.974c8.061-24.095 31.079-41.026 56.902-41.026s48.841 16.931 56.902 41.026c-15.871 11.91-35.577 18.974-56.902 18.974s-41.031-7.064-56.902-18.974zm26.902-91.026c0-16.542 13.458-30 30-30s30 13.458 30 30-13.458 30-30 30-30-13.458-30-30zm102.523 76.288c-5.106-10.95-12.671-20.732-22.146-28.426-5.245-4.26-11-7.807-17.093-10.592 10.25-9.163 16.716-22.473 16.716-37.27 0-27.57-22.43-50-50-50s-50 22.43-50 50c0 14.797 6.466 28.107 16.716 37.27-6.093 2.785-11.847 6.333-17.093 10.592-9.475 7.694-17.04 17.476-22.146 28.426-14.013-16.556-22.477-37.95-22.477-61.288 0-52.383 42.617-95 95-95 29.255 0 57.053 13.665 75 36.703v53.297c0 7.987 8.902 12.751 15.547 8.321l4.448-2.966c-.085 23.199-8.53 44.462-22.472 60.933zm142.477-96.288h-100c-1.974 0-3.904.584-5.547 1.679l-14.453 9.635v-71.314h120z"/><path d="m121 301c-5.522 0-10 4.478-10 10v90c0 5.522 4.478 10 10 10h45c5.522 0 10-4.478 10-10v-90c0-5.522-4.478-10-10-10zm35 90h-25v-70h25z"/><path d="m311 301h-105c-5.522 0-10 4.478-10 10s4.478 10 10 10h105c5.522 0 10-4.478 10-10s-4.478-10-10-10z"/><path d="m311 346h-105c-5.522 0-10 4.478-10 10s4.478 10 10 10h105c5.522 0 10-4.478 10-10s-4.478-10-10-10z"/><path d="m311 391h-105c-5.522 0-10 4.478-10 10s4.478 10 10 10h105c5.522 0 10-4.478 10-10s-4.478-10-10-10z"/><path d="m341 106h60c5.522 0 10-4.478 10-10s-4.478-10-10-10h-60c-5.522 0-10 4.478-10 10s4.478 10 10 10z"/></g></g><g/><g/><g/><g/><g/><g/><g/><g/><g/><g/><g/><g/><g/><g/><g/></svg>