<svg id="Capa_1" enable-background="new 0 0 512 512" height="512" viewBox="0 0 512 512" width="512" xmlns="http://www.w3.org/2000/svg"><g><g><g><g><path d="m395.11 274.542c0-11.15-9.039-20.188-20.188-20.188h-230.383c-11.15 0-20.188 9.039-20.188 20.188v46.489h270.759z" fill="#ff7e96"/></g><g><path d="m124.351 321.031v160.78c0 11.15 9.039 20.188 20.188 20.188h230.383c11.15 0 20.188-9.039 20.188-20.188v-160.78z" fill="#e0e7ef"/></g></g><g><path d="m351.23 389.617c0 12.544-10.488 23.034-23.034 23.034h-133.758c-12.719 0-23.034-10.305-23.034-23.034 0-12.537 10.495-23.034 23.034-23.034h133.758c12.719 0 23.034 10.315 23.034 23.034z" fill="#ffd88e"/></g><g><path d="m351.23 389.617c0 12.544-10.488 23.034-23.034 23.034h-26.599v-46.068h26.599c12.719 0 23.034 10.315 23.034 23.034z" fill="#f9f5f3"/></g><g><path d="m429.877 138.17c0 40.53-34.191 74.751-74.751 74.751h-70.765v-40.14h35.623l-64.045-71.696-64.055 71.696h36.154v40.14h-89.673c-31.126 0-56.364-25.237-56.364-56.374 0-31.136 25.238-56.374 56.364-56.374 1.893 0 3.746.11 5.578.29 5.488-50.864 48.552-90.463 100.859-90.463 39.699 0 74.05 22.814 90.715 56.023 6.249-1.693 12.829-2.614 19.609-2.614 40.29 0 74.751 34.572 74.751 74.761z" fill="#f9f5f3"/></g><g><path d="m228.036 172.778v81.576h56.325v-81.576h35.627l-64.052-71.697-64.052 71.697z" fill="#a0e4a5"/></g></g><path d="m173.099 283.7c-2.099-5.043-8.021-7.47-13.061-5.4-5.037 2.068-7.496 8.024-5.41 13.05 2.089 5.035 8.02 7.498 13.061 5.41 5.039-2.088 7.475-8.026 5.41-13.06z"/><path d="m209.439 283.7c-1.638-3.935-5.71-6.464-9.968-6.145-4.171.312-7.773 3.284-8.897 7.307-2.511 8.987 8.128 16.189 15.59 10.697 3.661-2.696 4.992-7.674 3.275-11.859z"/><path d="m194.438 422.651h107.159 26.599c18.215 0 33.034-14.819 33.034-33.034s-14.819-33.034-33.034-33.034h-26.599-107.159c-18.215 0-33.034 14.819-33.034 33.034s14.819 33.034 33.034 33.034zm133.758-46.068c7.188 0 13.034 5.847 13.034 13.034 0 7.065-5.969 13.034-13.034 13.034h-16.599v-26.068zm-133.758 0h97.159v26.068h-97.159c-7.188 0-13.034-5.847-13.034-13.034 0-7.065 5.968-13.034 13.034-13.034z"/><path d="m355.126 222.921c45.939 0 84.751-38.812 84.751-84.751 0-45.945-38.812-84.761-84.751-84.761-4.834 0-9.663.415-14.431 1.238-20.038-33.898-56.103-54.647-95.893-54.647-53.94 0-99.461 38.188-109.435 90.24-16.154.719-31.349 7.24-43.065 18.547-3.975 3.835-4.088 10.166-.253 14.14 3.836 3.976 10.166 4.087 14.14.253 8.692-8.387 20.119-13.006 32.176-13.006 1.434 0 2.939.079 4.603.242 5.456.532 10.33-3.426 10.918-8.88 5.015-46.483 44.101-81.536 90.916-81.536 34.809 0 66.144 19.354 81.777 50.509 2.132 4.249 6.957 6.408 11.552 5.167 5.553-1.504 11.271-2.267 16.995-2.267 16.558 0 33.108 7.062 45.409 19.377 12.292 12.305 19.342 28.847 19.342 45.384 0 35.099-29.652 64.751-64.751 64.751h-60.766v-20.14h25.623c3.902 0 7.54-2.361 9.133-5.918 1.61-3.599.956-7.808-1.671-10.747l-64.049-71.693c-3.923-4.373-10.997-4.395-14.918-.004l-64.052 71.697c-2.598 2.908-3.263 7.192-1.671 10.75 1.611 3.599 5.186 5.915 9.128 5.915h26.152v20.14h-79.672c-12.106 0-23.567-4.651-32.271-13.096-3.966-3.846-10.295-3.749-14.141.213-3.846 3.964-3.751 10.295.213 14.141 12.457 12.086 28.863 18.742 46.198 18.742h79.672v21.433h-73.497c-16.646 0-30.188 13.543-30.188 30.188v207.27c0 16.646 13.543 30.188 30.188 30.188h230.383c16.646 0 30.188-13.543 30.188-30.188v-207.27c0-16.646-13.542-30.188-30.188-30.188h-80.562v-21.433zm29.984 258.891c0 5.618-4.57 10.188-10.188 10.188h-230.383c-5.618 0-10.188-4.57-10.188-10.188v-150.78h250.759zm0-207.27v36.489h-250.759v-36.489c0-5.618 4.57-10.188 10.188-10.188h230.383c5.617 0 10.188 4.57 10.188 10.188zm-147.073-30.188.001-71.572c0-5.45-4.555-10.003-10.001-10.003h-13.806l41.707-46.684 41.701 46.684h-13.279c-5.522 0-10 4.478-10 10v.003 71.572z"/><path d="m253.875 445.226h-69.212c-5.522 0-10 4.478-10 10s4.478 10 10 10h69.212c5.522 0 10-4.478 10-10s-4.477-10-10-10z"/><path d="m91.809 158.5c1.739-8.575-8.137-15.085-15.36-10.271-7.85 5.232-4.332 17.821 5.061 18.307 4.889.254 9.329-3.261 10.299-8.036z"/></g></svg>