<svg id="Capa_1" enable-background="new 0 0 512 512" height="512" viewBox="0 0 512 512" width="512" xmlns="http://www.w3.org/2000/svg"><g><g><g><path d="m502 238.651c0 57.33-48.36 105.72-105.72 105.72h-66.53c1.01-.92 2-1.87 2.97-2.83-11.28-8.66-14.68-24.56-7.37-37.22 7.32-12.66 22.79-17.67 35.94-12.22 2.35-8.89 3.59-18.2 3.59-27.82s-1.24-18.93-3.59-27.82c-13.15 5.45-28.62.45-35.94-12.22-7.31-12.66-3.91-28.56 7.37-37.22-13.18-13.09-29.7-22.84-48.16-27.84-1.85 14.12-13.93 25.02-28.56 25.02s-26.71-10.9-28.56-25.02c-18.46 5-34.98 14.75-48.16 27.84 11.28 8.66 14.67 24.56 7.37 37.22-7.32 12.67-22.79 17.67-35.94 12.22-2.35 8.89-3.59 18.2-3.59 27.82s1.24 18.94 3.59 27.83c13.15-5.46 28.62-.45 35.94 12.21 7.3 12.66 3.91 28.56-7.37 37.22.97.96 1.96 1.91 2.97 2.83h-92.53c-44.03 0-79.72-35.69-79.72-79.73 0-44.03 35.69-79.72 79.72-79.72 2.67 0 5.3.15 7.89.41 7.77-71.94 68.66-127.94 142.64-127.94 56.14 0 104.73 32.26 128.3 79.23 8.83-2.39 18.14-3.69 27.73-3.69 56.98 0 105.72 48.88 105.72 105.72z" fill="#f9f5f3"/></g><g><path d="m349.631 454.454h82.279c14.348 0 23.28-10.298 23.28-23.28 0-12.85-10.42-23.28-23.28-23.28h-82.287z" fill="#f9f5f3"/></g><g><path d="m353.19 454.454v-46.56h-285.64c-12.358 0-23.28 9.134-23.28 23.28 0 12.86 10.42 23.28 23.28 23.28z" fill="#ffd88e"/></g><g><path d="m361.29 236.462c-13.15 5.45-28.62.45-35.94-12.22-7.31-12.66-3.91-28.56 7.37-37.22-13.18-13.09-29.7-22.84-48.16-27.85-1.85 14.13-13.93 25.02-28.56 25.02s-26.71-10.89-28.56-25.02c-18.46 5.01-34.98 14.76-48.16 27.85 11.28 8.66 14.67 24.56 7.37 37.22-7.32 12.67-22.79 17.67-35.94 12.22-2.35 8.89-3.59 18.2-3.59 27.82s1.24 18.94 3.59 27.83c13.15-5.46 28.62-.46 35.94 12.21 7.3 12.66 3.91 28.56-7.37 37.22 13.18 13.09 29.7 22.84 48.16 27.85 1.85-14.13 13.93-25.02 28.56-25.02s26.71 10.89 28.56 25.02c18.46-5.01 34.98-14.76 48.16-27.85-11.28-8.66-14.68-24.56-7.37-37.22 7.32-12.67 22.79-17.67 35.94-12.22 2.35-8.89 3.59-18.2 3.59-27.82 0-9.62-1.24-18.93-3.59-27.82zm-105.29 63.52c-19.72 0-35.7-15.98-35.7-35.7s15.98-35.7 35.7-35.7 35.7 15.98 35.7 35.7-15.98 35.7-35.7 35.7z" fill="#b7bcce"/></g></g><path d="m396.28 122.931c-7.563 0-15.111.742-22.532 2.21-12.507-22.013-30.287-40.648-51.802-54.208-44.572-28.092-102.063-31.08-149.334-7.855-12.774 6.276-24.657 14.344-35.216 23.887-25.681 23.208-42.658 54.162-48.429 87.96-49.127.404-88.967 40.494-88.967 89.715 0 49.477 40.248 89.73 89.72 89.73h88.725c13.43 11.567 29.305 20.04 46.375 24.672 2.783.754 5.762.272 8.164-1.329s3.995-4.161 4.37-7.023c1.219-9.303 9.234-16.318 18.646-16.318s17.427 7.015 18.646 16.318c.375 2.862 1.968 5.422 4.37 7.023 2.379 1.585 5.405 2.077 8.164 1.329 17.07-4.633 32.945-13.106 46.375-24.672h62.725c62.727 0 115.72-52.993 115.72-115.72 0-29.738-12.545-59.35-34.418-81.243-21.892-21.91-51.524-34.476-81.302-34.476zm-105.123 233.81c-6.244-13.301-19.802-22.368-35.157-22.368s-28.913 9.067-35.157 22.368c-9.866-3.762-19.104-9.108-27.319-15.812 9.148-13.188 9.194-31.192.016-44.37-6.399-9.187-16.323-14.948-26.984-16.311-2.698-.346-5.44-.41-8.183-.177-1.672-10.433-1.672-21.14 0-31.574 14.635 1.242 29.264-5.969 36.941-19.26 4.788-8.304 6.165-17.771 4.479-26.646-1.011-5.325-3.126-10.436-6.267-14.956 8.171-6.668 17.459-12.052 27.316-15.807 6.244 13.304 19.803 22.373 35.159 22.373s28.915-9.068 35.159-22.373c9.863 3.757 19.138 9.135 27.315 15.806-2.581 3.711-4.462 7.822-5.615 12.12-2.594 9.669-1.479 20.292 3.831 29.49 7.677 13.288 22.312 20.497 36.938 19.253 1.672 10.432 1.672 21.137 0 31.569-14.649-1.241-29.259 5.97-36.938 19.254-7.436 12.877-6.707 29.408 1.785 41.609-8.216 6.703-17.454 12.05-27.319 15.812zm105.123-22.371h-56.59c-.013-.013-.028-.023-.041-.035-.189-.182-.394-.35-.598-.517-.083-.068-.157-.144-.242-.209-7.395-5.676-9.442-16.372-4.724-24.404 4.667-7.93 14.856-11.397 23.375-7.864 2.665 1.106 5.681 1.005 8.266-.276 2.587-1.28 4.493-3.616 5.231-6.406 2.603-9.843 3.922-20.063 3.922-30.376 0 0 0 0 0-.001s0 0 0-.001c0-10.314-1.319-20.534-3.922-30.376-1.524-5.759-7.98-8.968-13.497-6.682-8.663 3.591-18.748.159-23.451-7.982-1.762-3.052-2.573-6.427-2.507-9.755.111-5.547 2.66-10.963 7.307-14.531 4.727-3.629 5.187-10.827.957-15.029-14.533-14.434-32.814-25.038-52.587-30.404-5.762-1.561-11.76 2.441-12.534 8.352-1.219 9.303-9.234 16.319-18.646 16.319s-17.427-7.016-18.646-16.319c-.775-5.911-6.772-9.914-12.534-8.352-19.773 5.366-38.054 15.97-52.587 30.404-4.23 4.202-3.77 11.4.957 15.029 7.361 5.651 9.432 16.253 4.802 24.283-4.706 8.143-14.788 11.577-23.454 7.985-2.665-1.104-5.678-1.003-8.266.277-2.586 1.28-4.493 3.616-5.23 6.406-2.603 9.846-3.922 20.065-3.922 30.375v.001s0 0 0 .001c0 10.316 1.319 20.539 3.922 30.385 1.522 5.762 7.986 8.971 13.503 6.681 8.552-3.552 18.815-.038 23.442 7.969 1.761 3.054 2.572 6.431 2.505 9.76-.135 6.728-3.625 10.885-8.183 15.293h-82.588c-38.444-.001-69.72-31.281-69.72-69.731 0-38.444 31.276-69.72 69.72-69.72 2.224 0 4.479.118 6.893.36 5.481.545 10.351-3.415 10.94-8.876 3.513-32.523 18.873-62.569 43.253-84.602 43.774-39.56 110.513-45.442 160.477-13.95 20.674 13.03 37.387 31.445 48.33 53.253 2.133 4.249 6.959 6.411 11.55 5.168 8.196-2.218 16.647-3.343 25.118-3.343 24.509 0 48.985 10.429 67.153 28.613 18.154 18.171 28.566 42.631 28.566 67.108 0 51.885-43.834 95.719-95.72 95.719z"/><path d="m431.91 464.454c19.283 0 33.279-13.997 33.279-33.28 0-18.351-14.929-33.28-33.279-33.28h-364.36c-18.662 0-33.28 14.618-33.28 33.28 0 18.351 14.93 33.28 33.28 33.28h88.525c5.522 0 10-4.477 10-10s-4.478-10-10-10h-88.525c-7.322 0-13.28-5.958-13.28-13.28 0-8.718 6.681-13.28 13.28-13.28h275.64v26.56h-99.117c-5.522 0-10 4.477-10 10s4.478 10 10 10zm-68.721-46.56h68.721c7.322 0 13.279 5.957 13.279 13.28 0 6.42-3.488 13.28-13.279 13.28h-68.721z"/><path d="m255.999 218.581c-25.199 0-45.7 20.501-45.7 45.701s20.501 45.701 45.7 45.701c24.864 0 45.701-20.801 45.701-45.701 0-25.199-20.501-45.701-45.701-45.701zm24.891 52.116c-2.888 11.203-13.328 19.285-24.89 19.285-14.171 0-25.7-11.529-25.7-25.7s11.529-25.7 25.7-25.7 25.7 11.529 25.7 25.7c0 2.214-.281 4.364-.81 6.415z"/><path d="m208.04 448.902c-4.917-7.509-16.865-4.704-18.196 4.083-1.368 9.029 9.655 14.949 16.475 8.983 3.736-3.269 4.466-8.941 1.721-13.066z"/></g></svg>