<svg height="512pt" viewBox="-103 0 512 512" width="512pt" xmlns="http://www.w3.org/2000/svg"><path d="m57.667969 305.605469v62.855469h70.5v-62.855469" fill="#9bc6ff"/><path d="m25.007812 10h135.816407v111.449219h-135.816407zm0 0" fill="#f9f9f9"/><path d="m10 121.449219h165.835938v46.292969h-165.835938zm0 0" fill="#d3d7df"/><path d="m10 167.742188v60.789062c0 45.792969 37.121094 82.917969 82.917969 82.917969 45.792969 0 82.917969-37.125 82.917969-82.917969v-60.789062zm0 0" fill="#98a1b3"/><path d="m262.417969 65.726562c-23.984375 0-43.5 19.511719-43.5 43.5v324.773438c0 31.980469-26.019531 58-58 58s-58-26.019531-58-58v-55.539062h25.25c5.523437 0 10-4.476563 10-10v-58.792969c28.414062-15.910157 47.667969-46.316407 47.667969-81.136719v-107.082031c0-5.523438-4.480469-10-10-10h-5.011719v-101.449219c0-5.523438-4.476563-10-10-10h-135.816407c-5.523437 0-10 4.476562-10 10v101.449219h-5.007812c-5.523438 0-10 4.476562-10 10v107.082031c0 34.820312 19.25 65.226562 47.667969 81.136719v58.792969c0 5.523437 4.476562 10 10 10h25.25v55.539062c0 43.011719 34.988281 78 78 78s78-34.988281 78-78v-324.773438c0-12.960937 10.542969-23.5 23.5-23.5s23.5 10.539063 23.5 23.5v96.328126c0 5.519531 4.476562 10 10 10 5.523437 0 10-4.480469 10-10v-96.328126c0-23.988281-19.515625-43.5-43.5-43.5zm-242.417969 65.722657h145.835938v26.292969h-145.835938zm15.007812-111.449219h115.816407v91.449219h-115.816407zm-15.007812 208.53125v-50.789062h145.835938v50.789062c0 40.207031-32.710938 72.917969-72.917969 72.917969s-72.917969-32.710938-72.917969-72.917969zm47.667969 89.433594c8.03125 2.269531 16.5 3.484375 25.25 3.484375 8.746093 0 17.21875-1.214844 25.25-3.484375v40.496094h-50.5zm0 0"/><path d="m295.917969 260.589844c-4.128907 0-7.886719-2.628906-9.355469-6.476563-1.5-3.929687-.277344-8.535156 2.964844-11.214843 3.101562-2.558594 7.554687-3.011719 11.101562-1.121094 3.726563 1.988281 5.851563 6.277344 5.148438 10.445312-.800782 4.761719-5.019532 8.367188-9.859375 8.367188zm0 0"/><path d="m295.917969 452.152344c-5.523438 0-10-4.476563-10-10v-146.152344c0-5.523438 4.476562-10 10-10 5.523437 0 10 4.476562 10 10v146.152344c0 5.523437-4.476563 10-10 10zm0 0"/><path d="m69.917969 89.953125c-5.523438 0-10-4.476563-10-10v-28.992187c0-5.523438 4.476562-10 10-10 5.523437 0 10 4.476562 10 10v28.992187c0 5.523437-4.476563 10-10 10zm0 0"/><path d="m115.917969 89.953125c-5.523438 0-10-4.476563-10-10v-28.992187c0-5.523438 4.476562-10 10-10 5.523437 0 10 4.476562 10 10v28.992187c0 5.523437-4.476563 10-10 10zm0 0"/></svg>