<svg id="Capa_1" enable-background="new 0 0 512 512" height="512" viewBox="0 0 512 512" width="512" xmlns="http://www.w3.org/2000/svg"><g><g><path d="m472.436 363.6-7.774-2.809h-38.272c18.346-37.323 37.213-81.364 40.383-90.672 11.937-35.052 8.441-62.692-19.136-82.999-13.049-9.608-25.943-13.166-40.61-17.197-6.814.063-13.659 1.086-20.365 3.056v-4.878c0-.508-.013-1.014-.039-1.516-.814-44.726-37.426-80.865-82.342-80.865-20.155 0-38.633 7.287-52.965 19.349-14.332-12.063-32.81-19.349-52.965-19.349s-38.633 7.287-52.965 19.349c-14.332-12.063-32.81-19.349-52.965-19.349-45.425 0-82.381 36.956-82.381 82.381 0 16.245 13.17 29.415 29.416 29.415s29.415-13.17 29.415-29.415c0-12.985 10.564-23.55 23.55-23.55 12.985 0 23.55 10.564 23.55 23.55v222.104c0 16.246 13.17 29.415 29.415 29.415s29.415-13.17 29.415-29.415v-222.102c0-12.985 10.564-23.55 23.55-23.55 12.985 0 23.55 10.564 23.55 23.55v222.104c0 .987.049 1.964.144 2.926 5.762 13.136 13.499 20.737 28.757 20.737 16.246 0 23.669-8.686 23.669-24.932l-1.262-222.49c0-10.647 7.89-22.091 24.342-20.916 2.134-.638 4.394-.98 6.732-.98 12.986 0 23.55 10.564 23.55 23.55v169.139c0 14.407 3.728 27.955 10.254 39.75-30.582 32.612-70.436 72.335-70.92 72.817-5.345 5.323-8.216 12.19-8.611 19.173 1.245 7.931 2.83 9.003 8.971 15.168 5.748 5.772 13.293 8.659 20.843 8.659 7.507 0 15.018-2.857 20.757-8.573 2.05-2.042 37.452-41.348 68.817-74.937 8.502 2.975 21.925 5.583 31.429 5.583h60.877c16.246 0 23.073-8.567 23.073-24.813-.003-16.246-4.642-26.468-20.887-26.468zm-78.088-129.11c1.949-1.683 12.131-9.737 21.204-3.056 3.01 2.216 9.246 6.808 4.293 21.712-2.72 6.632-16.996 33.989-33.183 60.47v-60.944c0-3.471.748-12.192 7.686-18.182z" fill="#a2f4e3"/><g fill="#b0b8e5"><path d="m426.393 360.787c23.585-36.02 45.852-79.011 49.022-88.318 11.937-35.051 2.599-68.101-24.979-88.408-13.049-9.608-28.152-14.275-43.409-14.133-.001 0-.001 0-.001 0 4.246 1.928 8.361 4.302 12.269 7.18 25.627 18.871 35.564 50.21 24.472 82.784-2.16 6.343-7.862 23.289-22.349 51.523-8.264 16.102-10.122 39.392 4.975 49.372z"/><path d="m470.476 360.791h-5.814c.785 2.611 1.196 5.384 1.157 8.26-.205 15.048-12.876 26.96-27.925 26.96h-55.98c-6.545 0-12.897-.836-18.963-2.393-4.012-1.031-8.26.265-11.101 3.28-28.351 30.084-62.487 64.108-64.289 65.902-5.333 5.311-12.312 7.967-19.289 7.967-3.297 0-6.592-.6-9.715-1.786-.455 8.054 2.381 16.261 8.522 22.426 5.748 5.772 13.293 8.659 20.843 8.659 7.507 0 15.018-2.857 20.757-8.573 2.05-2.042 43.037-42.893 74.402-76.483 8.502 2.975 17.626 4.612 27.13 4.612h60.877c16.52 0 29.86-13.619 29.404-30.243-.439-16.021-13.988-28.588-30.016-28.588z"/><path d="m251.316 419.622c16.245 0 29.415-13.17 29.415-29.415v-222.104c0-10.647 7.104-19.661 16.819-22.564-3.808-3.207-8.719-5.145-14.076-5.145-12.067 0-21.885 9.818-21.885 21.884v206.399c0 15.097-12.238 27.335-27.335 27.335-4.389 0-8.533-1.04-12.208-2.879 1.469 14.871 14.011 26.489 29.27 26.489z"/></g></g><g fill="#4e0325"><path d="m429.372 256.312c7.254-21.83-4.129-30.209-7.868-32.962-11.799-8.688-25.538-3.522-33.717 3.541-10.077 8.7-11.165 20.928-11.165 25.781v60.943c0 4.497 2.991 8.446 7.32 9.664.902.254 1.816.376 2.72.376 3.432-.001 6.709-1.767 8.566-4.804 15.803-25.853 30.637-53.927 33.906-61.896.086-.211.166-.426.238-.643zm-18.944-6.67c-1.479 3.469-6.576 13.582-13.727 26.599v-23.569c0-2.09.41-7.304 4.208-10.583 0 0 .001-.001.001-.001.184-.159 3.728-3.183 6.694-3.183.718 0 1.402.177 1.996.614 1.097.807 1.533 1.167 1.764 1.744.232.581.838 2.879-.936 8.379z"/><path d="m471.088 350.752h-26.438c20.368-33.057 37.315-66.378 40.268-75.046 13.421-39.41 2.755-76.692-28.53-99.729-17.484-12.874-38.802-18.209-60.008-15.317-1.764-22.127-11.351-42.698-27.35-58.435-17.402-17.116-40.397-26.542-64.75-26.542-18.97 0-37.492 5.896-52.965 16.738-15.473-10.842-33.995-16.738-52.965-16.738s-37.492 5.896-52.965 16.738c-15.473-10.843-33.995-16.738-52.965-16.738-50.961 0-92.42 41.46-92.42 92.42 0 21.756 17.699 39.455 39.455 39.455 21.755 0 39.455-17.699 39.455-39.455 0-7.45 6.061-13.51 13.51-13.51s13.51 6.061 13.51 13.51v222.104c0 21.756 17.699 39.455 39.455 39.455s39.455-17.699 39.455-39.455v-222.104c0-7.45 6.061-13.51 13.51-13.51s13.51 6.061 13.51 13.51v222.104c0 21.756 17.699 39.455 39.455 39.455s39.455-17.699 39.455-39.455v-222.104c0-7.45 6.061-13.51 13.51-13.51 7.45 0 13.511 6.061 13.511 13.51v169.139c0 13.094 2.811 26.079 8.179 37.969-29.791 31.512-65.515 67.11-65.891 67.484-7.467 7.437-11.591 17.337-11.613 27.875-.022 10.539 4.062 20.455 11.498 27.922 7.459 7.49 17.387 11.614 27.957 11.614 10.508 0 20.396-4.084 27.84-11.498 1.662-1.655 39.366-39.222 70.351-72.151 7.852 2.13 15.931 3.206 24.098 3.206h60.877c21.756 0 39.455-17.699 39.455-39.455s-17.698-39.456-39.454-39.456zm0 58.831h-60.877c-8.123 0-16.136-1.362-23.815-4.048-3.756-1.314-7.936-.285-10.653 2.624-31.432 33.66-72.419 74.498-74.149 76.221-3.656 3.641-8.512 5.647-13.672 5.647-5.191 0-10.067-2.026-13.729-5.704-3.652-3.666-5.658-8.536-5.647-13.711.01-5.176 2.036-10.037 5.699-13.686.395-.393 40.33-40.187 71.162-73.066 2.98-3.178 3.571-7.915 1.461-11.728-5.887-10.639-8.999-22.704-8.999-34.889v-169.14c0-18.521-15.068-33.59-33.59-33.59-18.521 0-33.589 15.068-33.589 33.59v222.104c0 10.684-8.692 19.376-19.376 19.376s-19.376-8.692-19.376-19.376v-222.104c0-18.521-15.068-33.59-33.589-33.59s-33.59 15.068-33.59 33.59v222.104c0 10.684-8.692 19.376-19.376 19.376s-19.376-8.692-19.376-19.376v-222.104c0-18.521-15.068-33.59-33.589-33.59s-33.59 15.068-33.59 33.59c0 10.684-8.692 19.376-19.376 19.376s-19.376-8.692-19.376-19.376c0-39.889 32.452-72.341 72.341-72.341 16.968 0 33.482 6.034 46.5 16.991 3.735 3.144 9.192 3.144 12.93 0 13.018-10.957 29.533-16.991 46.5-16.991 16.968 0 33.482 6.034 46.5 16.991 3.737 3.145 9.195 3.144 12.93 0 13.018-10.957 29.532-16.991 46.5-16.991 39.156 0 71.592 31.854 72.304 71.008.002.112.006.223.012.335.017.331.026.663.026.998v4.878c0 3.164 1.491 6.142 4.024 8.038s5.812 2.488 8.846 1.594c19.095-5.613 39.141-2.139 54.989 9.532 23.871 17.577 31.881 46.395 21.428 77.088-2.712 7.964-24.188 49.816-47.92 86.059-2.02 3.085-2.186 7.03-.432 10.273 1.753 3.244 5.144 5.266 8.832 5.266h44.698c10.684 0 19.376 8.692 19.376 19.376s-8.688 19.376-19.372 19.376z"/><path d="m362.393 217.098c3.327 0 6.024-2.697 6.024-6.024v-10.773c0-3.327-2.697-6.024-6.024-6.024s-6.024 2.697-6.024 6.024v10.773c0 3.327 2.697 6.024 6.024 6.024z"/><path d="m363.455 333.651c-3.327 0-6.024 2.697-6.024 6.024v10.773c0 3.327 2.697 6.024 6.024 6.024s6.024-2.697 6.024-6.024v-10.773c0-3.327-2.698-6.024-6.024-6.024z"/><path d="m390.168 366.245c-3.327 0-6.024 2.697-6.024 6.024v10.772c0 3.327 2.697 6.024 6.024 6.024s6.024-2.697 6.024-6.024v-10.772c-.001-3.327-2.698-6.024-6.024-6.024z"/></g><g fill="#fff"><path d="m89.654 125.811c-5.275 0-9.699-4.116-10.013-9.451-.325-5.536 3.898-10.286 9.433-10.612 1.297-.076 2.615-.115 3.917-.115 5.545 0 10.04 4.495 10.04 10.04s-4.495 10.04-10.04 10.04c-.911 0-1.833.027-2.739.08-.2.012-.4.018-.598.018z"/><path d="m41.632 159.336c-1.345 0-2.712-.271-4.023-.846-5.079-2.225-7.392-8.146-5.167-13.225 5.375-12.268 14.235-22.514 25.624-29.63 4.701-2.938 10.896-1.509 13.834 3.194 2.938 4.702 1.508 10.896-3.194 13.834-7.946 4.965-14.126 12.109-17.872 20.659-1.652 3.768-5.337 6.014-9.202 6.014z"/></g><g><ellipse cx="379.507" cy="19.95" fill="#00ebc4" rx="18.055" ry="18.055" transform="matrix(.389 -.921 .921 .389 213.593 361.851)"/><path d="m181.198 35.446c0 4.21-3.413 7.622-7.622 7.622s-7.622-3.413-7.622-7.622c0-4.21 3.413-7.622 7.622-7.622s7.622 3.413 7.622 7.622z" fill="#00ebc4"/><g fill="#a2f4e3"><path d="m24.462 3.717-6.117 17.201c-.262.737-.781 1.32-1.435 1.615l-15.283 6.886c-2.159.973-2.159 4.413 0 5.386l15.283 6.885c.654.295 1.173.879 1.435 1.615l6.117 17.201c.864 2.43 3.92 2.43 4.785 0l6.118-17.201c.262-.736.78-1.32 1.435-1.615l15.283-6.885c2.159-.973 2.159-4.413 0-5.386l-15.283-6.885c-.654-.295-1.173-.878-1.435-1.615l-6.118-17.202c-.864-2.43-3.921-2.43-4.785 0z"/><path d="m472.583 61.379-8.247 23.189c-.353.993-1.052 1.78-1.934 2.177l-20.603 9.282c-2.911 1.311-2.911 5.949 0 7.26l20.603 9.282c.882.397 1.581 1.184 1.934 2.177l8.247 23.189c1.165 3.276 5.285 3.276 6.451 0l8.247-23.189c.353-.993 1.052-1.78 1.934-2.177l20.603-9.282c2.911-1.311 2.911-5.949 0-7.26l-20.603-9.282c-.882-.397-1.581-1.184-1.934-2.177l-8.247-23.189c-1.166-3.276-5.286-3.276-6.451 0z"/></g></g></g></svg>