<svg id="Capa_1" enable-background="new 0 0 512 512" viewBox="0 0 512 512" xmlns="http://www.w3.org/2000/svg"><g><g clip-rule="evenodd" fill-rule="evenodd"><path d="m411.58 288.919c-4.877 25.702-27.459 45.136-54.58 45.136s-49.703-19.434-54.58-45.136zm-154.581-10.419c0 55.228 44.772 100 100 100s100-44.772 100-100-44.772-100-100-100-100 44.771-100 100z" fill="#ffda8f"/><path d="m356.999 334.055c27.121 0 49.703-19.434 54.58-45.136h-109.16c4.877 25.702 27.459 45.136 54.58 45.136z" fill="#ff9c9b"/><path d="m199.999 101h302.001v-45h-492v90h155z" fill="#66e0f7"/><path d="m502 101h-302l-35 45h-155v310h492zm-245.001 177.5c0-55.229 44.772-100 100-100s100 44.772 100 100-44.772 100-100 100-100-44.772-100-100zm-201.999 67.499h150.999v45h-150.999z" fill="#fff"/><path d="m55 345.999h150.999v45h-150.999z" fill="#ff9c9b"/></g><g><path d="m356.999 168.5c-60.654 0-110 49.346-110 110s49.346 110 110 110 110.001-49.346 110.001-110-49.347-110-110.001-110zm0 200c-49.626 0-90-40.374-90-90s40.374-90 90-90c49.627 0 90.001 40.374 90.001 90s-40.374 90-90.001 90z"/><path d="m390.881 251.041c5.522 0 10-4.478 10-10s-4.478-10-10-10h-.008c-5.522 0-9.996 4.478-9.996 10s4.481 10 10.004 10z"/><path d="m323.126 251.539c5.522 0 10-4.478 10-10s-4.478-10-10-10h-.009c-5.522 0-9.996 4.478-9.996 10s4.483 10 10.005 10z"/><path d="m411.58 278.919h-109.161c-2.979 0-5.802 1.328-7.702 3.622-1.899 2.294-2.678 5.315-2.122 8.242 5.856 30.868 32.942 53.272 64.404 53.272s58.549-22.404 64.405-53.272c.556-2.927-.223-5.948-2.122-8.242-1.9-2.294-4.723-3.622-7.702-3.622zm-54.581 45.137c-17.575 0-33.187-10.057-40.747-25.137h81.495c-7.561 15.08-23.172 25.137-40.748 25.137z"/><path d="m502 46h-492c-5.522 0-10 4.478-10 10v400c0 5.522 4.478 10 10 10h492c5.522 0 10-4.478 10-10v-400c0-5.522-4.478-10-10-10zm-482 400v-290h145c3.086 0 5.999-1.425 7.894-3.86l31.996-41.14h98.613c5.522 0 10-4.478 10-10s-4.478-10-10-10h-103.504c-3.086 0-5.999 1.425-7.894 3.86l-31.996 41.14h-140.109v-70h472v25h-98.497c-5.522 0-10 4.478-10 10s4.478 10 10 10h98.497v335z"/><path d="m55.008 90.999h-.008c-5.522 0-9.996 4.478-9.996 10s4.481 10 10.004 10 10-4.478 10-10-4.478-10-10-10z"/><path d="m100.007 90.999h-.007c-5.522 0-9.996 4.478-9.996 10s4.48 10 10.003 10 10-4.478 10-10-4.478-10-10-10z"/><path d="m145.007 90.999h-.008c-5.522 0-9.996 4.478-9.996 10s4.481 10 10.004 10 10-4.478 10-10-4.478-10-10-10z"/><path d="m205.999 201h-100.5c-5.522 0-10 4.478-10 10s4.478 10 10 10h100.5c5.522 0 10-4.478 10-10s-4.478-10-10-10z"/><path d="m205.999 246h-150.999c-5.522 0-10 4.478-10 10s4.478 10 10 10h150.999c5.522 0 10-4.478 10-10s-4.478-10-10-10z"/><path d="m205.999 291h-55.5c-5.522 0-10 4.478-10 10s4.478 10 10 10h55.5c5.522 0 10-4.478 10-10s-4.478-10-10-10z"/><path d="m55 311h55.5c5.522 0 10-4.478 10-10s-4.478-10-10-10h-55.5c-5.522 0-10 4.478-10 10s4.478 10 10 10z"/><path d="m205.999 335.999h-150.999c-5.522 0-10 4.478-10 10v45c0 5.522 4.478 10 10 10h150.999c5.522 0 10-4.478 10-10v-45c0-5.522-4.478-10-10-10zm-10 45h-130.999v-25h130.999z"/><path d="m348.506 111c5.522 0 10-4.478 10-10s-4.478-10-10-10h-.007c-5.522 0-9.997 4.478-9.997 10s4.481 10 10.004 10z"/></g></g><g/><g/><g/><g/><g/><g/><g/><g/><g/><g/><g/><g/><g/><g/><g/></svg>