<svg id="Capa_1" enable-background="new 0 0 512 512" height="512" viewBox="0 0 512 512" width="512" xmlns="http://www.w3.org/2000/svg"><g><g clip-rule="evenodd" fill-rule="evenodd"><path d="m10.02 192.489h491.961v306.65h-491.961z" fill="#dfedff"/><circle cx="256" cy="32.917" fill="#ffee80" r="20.039"/></g><g><path d="m491.961 182.469h-118.36l-91.325-164.17c-.057-.103-.125-.196-.185-.297-5.187-9.047-14.935-15.161-26.091-15.161-11.143 0-20.882 6.1-26.073 15.131-.067.11-.141.214-.204.327l-91.324 164.17h-118.36c-11.049 0-20.039 8.99-20.039 20.039v286.611c0 11.049 8.99 20.039 20.039 20.039h471.922c11.049 0 20.039-8.99 20.039-20.039v-286.611c0-11.049-8.99-20.039-20.039-20.039zm-235.961-159.588c5.525 0 10.02 4.495 10.02 10.02s-4.495 10.019-10.02 10.019-10.02-4.495-10.02-10.02 4.495-10.019 10.02-10.019zm235.961 466.238h-471.922v-286.611h191.047c5.534 0 10.02-4.486 10.02-10.02s-4.486-10.02-10.02-10.02h-49.756l72.146-129.695c5.512 6.239 13.564 10.185 22.524 10.185s17.011-3.945 22.523-10.184l72.147 129.695h-49.757c-5.534 0-10.02 4.486-10.02 10.02s4.486 10.02 10.02 10.02h191.047v286.61z"/><path d="m360.175 384.424c5.449.985 10.657-2.635 11.64-8.08l2.788-15.444 4.749 16.094c.035.119.072.236.112.354 1.539 4.584 5.811 7.654 10.642 7.654h.059c4.855-.025 9.123-3.144 10.621-7.763.037-.114.072-.229.105-.344l4.58-16.066 2.984 15.617c1.039 5.435 6.289 8.998 11.722 7.96 5.435-1.039 9-6.287 7.961-11.722l-9.95-52.063c-.007-.04-.015-.079-.023-.118-1.017-4.993-5.279-8.681-10.367-8.969-5.089-.296-9.739 2.896-11.312 7.742-.038.115-.073.231-.106.347l-6.418 22.515-6.671-22.611c-.035-.119-.072-.237-.112-.355-1.622-4.832-6.291-7.967-11.395-7.628-5.086.341-9.31 4.076-10.272 9.082-.007.037-.014.074-.021.112l-9.394 52.047c-.985 5.445 2.632 10.656 8.078 11.639z"/><path d="m197.15 364.917c-.019 0-.039 0-.057 0-2.889.016-5.908.029-8.64.037v-43.419c0-5.534-4.486-10.02-10.02-10.02s-10.02 4.486-10.02 10.02v53.402c0 4.88 3.516 9.05 8.326 9.875.719.123 1.134.195 7.234.195 2.905 0 7.1-.016 13.23-.05 5.534-.031 9.995-4.542 9.964-10.075-.03-5.516-4.51-9.965-10.017-9.965z"/><path d="m150.555 331.798c5.534 0 10.02-4.486 10.02-10.02s-4.486-10.02-10.02-10.02h-22.315c-5.534 0-10.02 4.486-10.02 10.02v52.959c0 5.534 4.486 10.02 10.02 10.02h22.315c5.534 0 10.02-4.486 10.02-10.02s-4.486-10.02-10.02-10.02h-12.295v-6.44h10.65c5.534 0 10.02-4.486 10.02-10.02s-4.486-10.02-10.02-10.02h-10.65v-6.44h12.295z"/><path d="m445.766 384.757h22.315c5.534 0 10.02-4.486 10.02-10.02s-4.486-10.02-10.02-10.02h-12.295v-6.44h10.65c5.534 0 10.02-4.486 10.02-10.02s-4.486-10.02-10.02-10.02h-10.65v-6.44h12.295c5.534 0 10.02-4.486 10.02-10.02s-4.486-10.02-10.02-10.02h-22.315c-5.534 0-10.02 4.486-10.02 10.02v52.959c.001 5.536 4.486 10.021 10.02 10.021z"/><path d="m269.331 359.763c-4.24-3.559-10.56-3.005-14.116 1.233-.364.433-.754.836-1.159 1.197-2.091 1.863-4.708 2.768-8.002 2.768-9.211 0-16.704-7.493-16.704-16.704 0-9.21 7.493-16.704 16.704-16.704 3.348 0 6.575.984 9.332 2.847 4.585 3.098 10.814 1.892 13.911-2.693 3.098-4.585 1.892-10.814-2.693-13.911-6.082-4.109-13.188-6.281-20.55-6.281-20.26 0-36.743 16.483-36.743 36.743s16.483 36.743 36.743 36.743c8.194 0 15.569-2.712 21.331-7.843 1.126-1.003 2.196-2.106 3.18-3.278 3.557-4.24 3.004-10.56-1.234-14.117z"/><path d="m103.778 311.806c-5.425-1.08-10.703 2.445-11.782 7.871l-3.616 18.167-5.933-19.26c-1.629-5.289-7.235-8.253-12.525-6.625-3.498 1.078-5.969 3.899-6.777 7.214l-5.783 18.682-3.613-18.265c-1.074-5.429-6.345-8.957-11.773-7.885-5.429 1.074-8.958 6.345-7.885 11.773l10.413 52.644c.095.479.225.951.388 1.411 1.59 4.475 5.834 7.467 10.577 7.467h.079c4.774-.033 9.014-3.093 10.55-7.613.029-.087.058-.174.085-.261l6.681-21.584 6.65 21.587c.042.135.086.269.133.402 1.589 4.477 5.834 7.471 10.579 7.471h.074c4.774-.031 9.016-3.09 10.554-7.61.142-.416.256-.841.341-1.272l10.454-52.531c1.08-5.428-2.444-10.702-7.871-11.783z"/><path d="m276.137 348.258c0 20.26 16.483 36.743 36.743 36.743s36.743-16.483 36.743-36.743-16.483-36.743-36.743-36.743c-20.261 0-36.743 16.483-36.743 36.743zm36.743-16.704c9.21 0 16.704 7.494 16.704 16.704s-7.494 16.704-16.704 16.704-16.704-7.493-16.704-16.704c0-9.21 7.493-16.704 16.704-16.704z"/><circle cx="256" cy="192.99" r="10"/></g></g></svg>