<svg id="Capa_1" enable-background="new 0 0 512.001 512.001" height="512" viewBox="0 0 512.001 512.001" width="512" xmlns="http://www.w3.org/2000/svg"><g><g><path d="m483.143 172.685h-420.052c-2.607 1.221-4.599 2.186-4.599 2.186l-9.817 13.379v300.5l5.817 9.75 11.094 6h417.557c11.79 0 21.348-9.558 21.348-21.348v-289.118c.001-11.791-9.557-21.349-21.348-21.349zm-372.684 69.82c-10.071 0-18.236-8.164-18.236-18.236 0-10.071 8.165-18.236 18.236-18.236s18.236 8.164 18.236 18.236-8.164 18.236-18.236 18.236zm291.064 0c-10.071 0-18.236-8.164-18.236-18.236 0-10.071 8.165-18.236 18.236-18.236s18.236 8.164 18.236 18.236-8.165 18.236-18.236 18.236z" fill="#ffd500"/><g><path d="m53.832 483.153v-289.119c0-11.791 9.558-21.349 21.349-21.349h-46.342c-11.791 0-21.349 9.558-21.349 21.349v289.119c0 11.79 9.558 21.348 21.349 21.348h46.342c-11.791 0-21.349-9.558-21.349-21.348z" fill="#fbc700"/></g><path d="m265.366 9.45h-5.125l-10 13.301-.625 14.842 4.75 11.533 5.25 2.625 5.75.8c8.312-3.621 14.125-11.905 14.125-21.55s-5.813-17.93-14.125-21.551z" fill="#60b9fe"/><path d="m251.241 31c0-9.645 5.813-17.929 14.125-21.55-2.873-1.251-6.042-1.95-9.375-1.95-12.979 0-23.5 10.521-23.5 23.5s10.521 23.5 23.5 23.5c3.333 0 6.502-.698 9.375-1.95-8.312-3.621-14.125-11.905-14.125-21.55z" fill="#1ca8ff"/></g><g><path d="m108.424 356.184c3.396-.083 6.311-2.439 7.106-5.742l15.616-64.849c.97-4.027-1.509-8.078-5.536-9.047-4.026-.971-8.078 1.509-9.048 5.536l-9.041 37.548-10.305-35.085c-.938-3.193-3.868-5.387-7.196-5.387s-6.258 2.193-7.196 5.386l-10.304 35.086-9.042-37.549c-.971-4.027-5.025-6.507-9.048-5.536-4.027.97-6.506 5.021-5.536 9.047l15.616 64.849c.796 3.302 3.711 5.658 7.106 5.742.063.001.125.002.188.002 3.319 0 6.255-2.188 7.194-5.386l11.022-37.528 11.021 37.528c.958 3.26 3.985 5.451 7.383 5.385z"/><path d="m173.152 356.186c22.014 0 39.924-17.91 39.924-39.924 0-22.015-17.91-39.925-39.924-39.925-22.015 0-39.925 17.91-39.925 39.925.001 22.014 17.911 39.924 39.925 39.924zm0-64.849c13.743 0 24.924 11.181 24.924 24.925 0 13.743-11.181 24.924-24.924 24.924s-24.925-11.181-24.925-24.924c.001-13.744 11.182-24.925 24.925-24.925z"/><path d="m270.047 300.049c0-13.075-10.638-23.712-23.713-23.712h-19.336c-4.143 0-7.5 3.358-7.5 7.5v64.849c0 4.142 3.357 7.5 7.5 7.5s7.5-3.358 7.5-7.5v-23.258l21.477 27.839c1.478 1.916 3.698 2.919 5.944 2.919 1.599 0 3.211-.51 4.575-1.562 3.279-2.53 3.888-7.24 1.357-10.52l-16.169-20.959c10.507-2.432 18.365-11.86 18.365-23.096zm-23.713 8.713h-11.836v-17.425h11.836c4.805 0 8.713 3.908 8.713 8.712s-3.908 8.713-8.713 8.713z"/><path d="m463.315 283.837c0-4.142-3.357-7.5-7.5-7.5s-7.5 3.358-7.5 7.5v39.739l-28.762-43.852c-1.818-2.772-5.244-4.021-8.418-3.073-3.177.949-5.354 3.871-5.354 7.187v64.849c0 4.142 3.357 7.5 7.5 7.5s7.5-3.358 7.5-7.5v-39.739l28.762 43.852c1.412 2.153 3.791 3.387 6.271 3.387.714 0 1.437-.102 2.146-.314 3.177-.949 5.354-3.871 5.354-7.187v-64.849z"/><path d="m388.762 348.686v-64.849c0-4.142-3.357-7.5-7.5-7.5s-7.5 3.358-7.5 7.5v64.849c0 4.142 3.357 7.5 7.5 7.5s7.5-3.358 7.5-7.5z"/><path d="m350.721 402.909c4.143 0 7.5-3.358 7.5-7.5s-3.357-7.5-7.5-7.5h-21.352c-4.143 0-7.5 3.358-7.5 7.5v54.564c0 4.142 3.357 7.5 7.5 7.5h21.352c4.143 0 7.5-3.358 7.5-7.5s-3.357-7.5-7.5-7.5h-13.852v-12.282h12.665c4.143 0 7.5-3.358 7.5-7.5s-3.357-7.5-7.5-7.5h-12.665v-12.282z"/><path d="m179.305 457.474c19.179 0 34.782-15.603 34.782-34.782s-15.604-34.782-34.782-34.782-34.782 15.603-34.782 34.782 15.603 34.782 34.782 34.782zm0-54.565c10.908 0 19.782 8.875 19.782 19.782s-8.874 19.782-19.782 19.782-19.782-8.875-19.782-19.782 8.873-19.782 19.782-19.782z"/><path d="m142.554 409.05c0-11.657-9.484-21.141-21.142-21.141h-16.27c-4.143 0-7.5 3.358-7.5 7.5v54.564c0 4.142 3.357 7.5 7.5 7.5s7.5-3.358 7.5-7.5v-16.08l15.939 20.661c1.478 1.916 3.698 2.919 5.943 2.919 1.6 0 3.212-.51 4.576-1.562 3.279-2.53 3.888-7.24 1.357-10.519l-12.529-16.24c8.477-2.755 14.626-10.72 14.626-20.102zm-21.142 6.141h-8.77v-12.282h8.77c3.387 0 6.142 2.755 6.142 6.141s-2.755 6.141-6.142 6.141z"/><path d="m315.565 409.05c0-11.657-9.483-21.141-21.141-21.141h-16.27c-4.143 0-7.5 3.358-7.5 7.5v54.564c0 4.142 3.357 7.5 7.5 7.5s7.5-3.358 7.5-7.5v-16.08l15.939 20.661c1.478 1.916 3.698 2.919 5.943 2.919 1.6 0 3.212-.51 4.576-1.562 3.279-2.53 3.888-7.24 1.357-10.519l-12.529-16.24c8.478-2.755 14.625-10.72 14.625-20.102zm-21.14 6.141h-8.77v-12.282h8.77c3.386 0 6.141 2.755 6.141 6.141s-2.755 6.141-6.141 6.141z"/><path d="m72.456 387.909h-16.27c-4.143 0-7.5 3.358-7.5 7.5v54.564c0 4.142 3.357 7.5 7.5 7.5s7.5-3.358 7.5-7.5v-19.782h8.771c11.657 0 21.141-9.484 21.141-21.141s-9.485-21.141-21.142-21.141zm0 27.282h-8.771v-12.282h8.771c3.386 0 6.141 2.755 6.141 6.141s-2.755 6.141-6.141 6.141z"/><path d="m392.654 415.655c-9.647-2.542-12.864-6.335-12.864-7.127 0-2.203 2.829-5.275 7.436-5.275 5.165 0 9.532 4.248 9.694 4.408 2.877 2.944 7.595 3.019 10.565.16 2.983-2.873 3.073-7.621.2-10.604-.883-.917-8.962-8.963-20.46-8.963-12.371 0-22.436 9.095-22.436 20.275 0 9.722 8.763 17.606 24.042 21.632 6.897 1.817 6.897 4.077 6.897 6.469 0 1.53-1.668 5.501-9.286 5.501-3.25 0-5.717-.991-7.46-2.099-2.399-1.526-5.433-1.635-7.841-.123-4.703 2.952-4.828 9.868-.129 12.826 3.938 2.479 9.113 4.396 15.43 4.396 15.774 0 24.286-10.562 24.286-20.501.001-10.758-6.08-17.815-18.074-20.975z"/><path d="m445.24 415.655c-9.647-2.542-12.864-6.335-12.864-7.127 0-2.203 2.829-5.275 7.436-5.275 5.165 0 9.532 4.248 9.694 4.408 2.877 2.944 7.595 3.019 10.565.16 2.983-2.873 3.073-7.621.2-10.604-.883-.917-8.962-8.963-20.46-8.963-12.371 0-22.436 9.095-22.436 20.275 0 9.722 8.763 17.606 24.042 21.632 6.897 1.817 6.897 4.077 6.897 6.469 0 1.53-1.668 5.501-9.286 5.501-3.115 0-5.51-.91-7.238-1.962-2.653-1.614-5.991-1.561-8.621.089-4.442 2.788-4.499 9.221-.127 12.117 4.003 2.651 9.367 4.756 15.986 4.756 15.774 0 24.286-10.562 24.286-20.501.001-10.759-6.08-17.816-18.074-20.975z"/><path d="m240.132 402.909c3.619 0 6.807 2.435 7.751 5.921 1.083 3.999 5.205 6.359 9.199 5.279 3.999-1.083 6.362-5.202 5.279-9.2-2.711-10.009-11.852-17-22.229-17-12.698 0-23.028 10.331-23.028 23.028v23.507c0 12.698 10.33 23.029 23.028 23.029s23.028-10.331 23.028-23.029v-7.35c0-4.142-3.357-7.5-7.5-7.5h-9.494c-4.143 0-7.5 3.358-7.5 7.5s3.357 7.5 7.5 7.5h1.993c-.08 4.358-3.65 7.879-8.027 7.879-4.427 0-8.028-3.602-8.028-8.029v-23.507c0-4.426 3.601-8.028 8.028-8.028z"/><path d="m325.468 354.025c2.949-2.909 2.981-7.658.072-10.606l-26.789-27.157 26.79-27.158c2.908-2.949 2.876-7.698-.073-10.606-2.948-2.909-7.697-2.876-10.606.072l-22.878 23.192v-17.925c0-4.142-3.357-7.5-7.5-7.5s-7.5 3.358-7.5 7.5v64.849c0 4.142 3.357 7.5 7.5 7.5s7.5-3.358 7.5-7.5v-17.926l22.879 23.193c1.467 1.488 3.402 2.233 5.339 2.233 1.902 0 3.805-.719 5.266-2.161z"/><path d="m28.849 512.001h454.305c15.906 0 28.848-12.941 28.848-28.848v-122.203c0-4.142-3.357-7.5-7.5-7.5s-7.5 3.358-7.5 7.5v122.203c0 7.636-6.212 13.848-13.848 13.848h-454.305c-7.636 0-13.849-6.212-13.849-13.848v-289.119c0-7.636 6.213-13.849 13.849-13.849h105.894l-15.276 19.975c-2.802-1.049-5.833-1.626-8.998-1.626-14.19 0-25.735 11.545-25.735 25.735 0 14.191 11.545 25.736 25.735 25.736 14.191 0 25.736-11.545 25.736-25.736 0-5.588-1.796-10.762-4.833-14.986l22.253-29.098h84.875c4.143 0 7.5-3.358 7.5-7.5s-3.357-7.5-7.5-7.5h-73.404l80.334-105.043c3.3 1.201 6.859 1.858 10.57 1.858 3.71 0 7.269-.657 10.569-1.857l80.334 105.042h-73.403c-4.143 0-7.5 3.358-7.5 7.5s3.357 7.5 7.5 7.5h84.875l22.254 29.098c-3.037 4.224-4.833 9.398-4.833 14.986 0 14.191 11.545 25.736 25.735 25.736 14.191 0 25.736-11.545 25.736-25.736 0-14.19-11.545-25.735-25.736-25.735-3.164 0-6.195.577-8.997 1.626l-15.276-19.975h105.894c7.636 0 13.848 6.212 13.848 13.849v131.916c0 4.142 3.357 7.5 7.5 7.5s7.5-3.358 7.5-7.5v-131.916c0-15.907-12.941-28.849-28.848-28.849h-117.365l-86.764-113.45c4.956-5.497 7.978-12.769 7.978-20.735 0-17.093-13.906-31-31-31s-31 13.907-31 31c0 7.966 3.022 15.238 7.978 20.734l-86.764 113.451h-117.366c-15.908 0-28.849 12.941-28.849 28.849v289.119c0 15.907 12.941 28.848 28.849 28.848zm81.62-276.996c-5.92 0-10.735-4.816-10.735-10.736 0-5.919 4.815-10.735 10.735-10.735s10.736 4.816 10.736 10.735c0 5.92-4.816 10.736-10.736 10.736zm291.063-21.471c5.92 0 10.736 4.816 10.736 10.735 0 5.92-4.816 10.736-10.736 10.736s-10.735-4.816-10.735-10.736c0-5.919 4.815-10.735 10.735-10.735zm-145.531-198.534c8.822 0 16 7.178 16 16s-7.178 16-16 16-16-7.178-16-16 7.178-16 16-16z"/></g></g></svg>