<svg id="Capa_1" enable-background="new 0 0 512.002 512.002" viewBox="0 0 512.002 512.002" xmlns="http://www.w3.org/2000/svg"><g><g clip-rule="evenodd" fill-rule="evenodd"><path d="m236.001 365.775v136.227h80v-136.227c0 22-18 40-40 40s-40-18-40-40z" fill="#cfd3df"/><path d="m236.001 365.775c0 22 18 40 40 40s40-18 40-40v-20.577c-6.206 1.532-12.536 2.697-18.931 3.496-20.371 2.559-41.354 1.394-61.069-3.479z" fill="#ffdcd5"/><path d="m196.001 340.397v58.29c0 11 9 20 20 20h20v-52.912-20.56c-9.639-2.383-18.974-5.651-27.786-9.804-.132-.062-.264-.124-.396-.187-4.012 1.583-7.954 3.309-11.818 5.173z" fill="#fff"/><path d="m316.001 365.775v52.912h20c11 0 20-9 20-20v-58.29c-3.864-1.864-7.805-3.59-11.817-5.173-8.932 4.236-18.404 7.56-28.183 9.974z" fill="#fff"/><path d="m236.001 502.002v-83.315h-20c-11 0-20-9-20-20v-58.29c-59.024 28.47-100 88.975-100 158.587v3.017h140z" fill="#e0ef9b"/><path d="m316.001 418.687v83.315h140v-3.017c0-69.612-40.977-130.118-100-158.587v58.29c0 11-9 20-20 20h-20z" fill="#e0ef9b"/><g fill="#ffdcd5"><path d="m411.001 230v-60h25c13.75 0 25 11.25 25 25v10c0 13.75-11.25 25-25 25z"/><path d="m141.001 230v-60h-25c-13.75 0-25 11.25-25 25v10c0 13.75 11.25 25 25 25z"/><path d="m411.001 230c0 50.593-26.94 85.155-63.801 103.749-21.486 10.838-46.342 16.251-71.199 16.251-24.854 0-49.709-5.412-71.194-16.249-.002-.001-.003-.002-.005-.003-29.051-14.654-51.94-39.227-60.334-73.749-2.257-9.281-3.467-19.28-3.467-30v-19.999-40h269.809c.064 0 .128.001.191.001z"/></g><path d="m241.946 120.409h80v-25c0-13.75-11.25-25-25-25h-30c-13.75 0-25 11.25-25 25z" fill="#8690af"/><path d="m321.946 120.409h-80v-25c0-13.75 11.25-25 25-25h30c13.75 0 25 11.25 25 25zm-194.054 0v49.591h13.11 220.945 49.055 25v-66.912c0-51.198-41.89-93.088-93.087-93.088h-60.967-60.967c-51.198 0-93.087 41.889-93.087 93.088v17.321z" fill="#ff9c9b"/><path d="m127.892 170v-49.591h-51.891c-13.75 0-25 11.252-25 25v24.591z" fill="#ff9c9b"/></g><g><path d="m420.666 240h15.334c19.299 0 35-15.701 35-35v-10c0-9.364-3.673-18.178-10.341-24.818-4.177-4.159-9.201-7.132-14.659-8.755v-58.339c0-2.013-.063-4.042-.192-6.204-.331-5.513-5.094-9.706-10.581-9.383-5.514.331-9.714 5.068-9.384 10.581.105 1.758.157 3.396.157 5.005v56.913h-54.054v-39.59c0-5.523-4.478-10-10-10h-30.001v-15c0-19.299-15.701-35-35-35h-30c-19.299 0-35 15.701-35 35v25c0 5.523 4.477 10 10 10h110v29.59h-214.053v-56.912c0-45.815 37.273-83.088 83.087-83.088h121.935c14.827 0 29.411 4.009 42.175 11.594 4.747 2.822 10.884 1.259 13.705-3.488s1.26-10.884-3.488-13.705c-15.854-9.421-33.971-14.401-52.392-14.401h-121.935c-56.843 0-103.087 46.245-103.087 103.088v7.321h-41.891c-19.299 0-35 15.701-35 35v24.591c0 5.523 4.477 10 10 10h33.368c-2.205 4.633-3.367 9.729-3.367 15v10c0 19.299 15.701 35 35 35h15.335c2.434 35.882 18.092 66.113 45.654 87.879 2.856 2.255 5.818 4.401 8.878 6.433-26.949 14.147-50.049 34.677-67.452 60.091-21.207 30.971-32.416 67.135-32.416 104.581v3.018c0 5.523 4.477 10 10 10h360c5.522 0 10-4.477 10-10v-3.018c0-37.446-11.209-73.61-32.416-104.581-17.402-25.414-40.503-45.945-67.452-60.092 3.06-2.032 6.022-4.177 8.878-6.433 27.563-21.765 43.221-51.996 45.655-87.878zm-108.72-129.591h-60v-15c0-8.271 6.729-15 15-15h30c8.271 0 15 6.729 15 15zm139.055 84.591v10c0 8.271-6.729 15-15 15h-14.999v-40h15.105c3.913 0 7.619 1.545 10.44 4.354 2.873 2.859 4.454 6.64 4.454 10.646zm-390-35v-14.591c0-8.271 6.729-15 15-15h41.891v29.591h-1.868c-.12-.001-.24-.001-.36 0zm40.001 45v-10c0-4.017 1.587-7.807 4.469-10.671 2.784-2.767 6.422-4.3 10.266-4.329h15.265v40h-15c-8.272 0-15-6.729-15-15zm243.416 141.139c.529.224 1.056.451 1.582.681v51.868c0 5.514-4.486 10-10 10h-10v-55.806c6.344-1.889 12.498-4.141 18.418-6.743zm-98.417 59.611c8.362 6.291 18.753 10.025 30 10.025s21.638-3.733 30-10.024v86.251h-60zm60-39.974c-.001 16.542-13.459 29.999-30 29.999-16.54 0-29.998-13.457-30-29.997v-8.265c9.732 1.643 19.775 2.486 30 2.486 10.224 0 20.267-.843 29.999-2.486v8.263zm-80 42.911h-10c-5.514 0-10-4.486-10-10v-51.868c.526-.229 1.054-.456 1.583-.681 5.921 2.602 12.074 4.854 18.417 6.742zm-40-51.517v41.517c0 16.542 13.458 30 30 30h10v63.315h-50v-33.314c0-5.523-4.477-10-10-10s-10 4.477-10 10v33.314h-49.855c2.329-55.917 32.516-106.172 79.855-134.832zm259.855 134.832h-49.855v-33.314c0-5.523-4.478-10-10-10s-10 4.477-10 10v33.314h-50v-63.315h10c16.542 0 30-13.458 30-30v-41.517c47.34 28.66 77.527 78.914 79.855 134.832zm-169.854-152.002c-60.204 0-125-34.422-125-110v-50h250v50c0 75.578-64.796 110-125 110z"/><path d="m210.976 208.897h-.007c-5.523 0-9.996 4.477-9.996 10s4.48 10 10.003 10 10-4.477 10-10-4.477-10-10-10z"/><path d="m340.997 208.897h-.007c-5.522 0-9.997 4.477-9.997 10s4.481 10 10.004 10 10-4.477 10-10-4.478-10-10-10z"/><path d="m298.466 249.348c-3.985-3.825-10.313-3.696-14.14.289-1.821 1.897-4.161 3.207-6.589 3.689-3.676.729-7.158-.524-9.087-3.274-3.17-4.521-9.406-5.616-13.929-2.446-4.522 3.171-5.617 9.407-2.446 13.929 5.393 7.689 13.977 12.01 23.3 12.01 1.993 0 4.021-.198 6.058-.602 6.408-1.272 12.489-4.63 17.121-9.456 3.825-3.984 3.695-10.314-.288-14.139z"/><path d="m417.309 63.261c1.564.894 3.27 1.319 4.951 1.319 3.472 0 6.847-1.811 8.692-5.041l.004-.007c2.74-4.795 1.072-10.9-3.724-13.641-4.793-2.739-10.905-1.071-13.646 3.725-2.739 4.796-1.073 10.905 3.723 13.645z"/></g></g><g/><g/><g/><g/><g/><g/><g/><g/><g/><g/><g/><g/><g/><g/><g/></svg>