<svg id="Capa_1" enable-background="new 0 0 512.002 512.002" viewBox="0 0 512.002 512.002" xmlns="http://www.w3.org/2000/svg"><g><g clip-rule="evenodd" fill-rule="evenodd"><path d="m436 502.002v-3.018c0-20.787-3.654-40.761-10.352-59.312-12.454-34.494-35.43-64.068-65.003-84.801v2.659c0 26.535-21.71 48.244-48.244 48.244h-56.401-56.401c-26.535 0-48.244-21.71-48.244-48.244v-2.659c-29.571 20.732-52.547 50.305-65.001 84.797-6.699 18.553-10.354 38.528-10.354 59.316v3.018z" fill="#d1aee5"/><path d="m306 90c0 44 35.999 80 80 80h30v-10c0-82.5-67.5-150-150-150h-20c-82.5 0-150 67.5-150 150v10h130c44.001 0 80-36 80-80z" fill="#ddb9a3"/><g fill="#ffdcd5"><path d="m216 365.775c0 22 18 40 40 40s40-18 40-40v-20.577c-6.206 1.532-12.536 2.697-18.931 3.496-20.371 2.559-41.354 1.394-61.069-3.479z"/><path d="m391 230v-60h25c13.75 0 25 11.25 25 25v10c0 13.75-11.25 25-25 25z"/><path d="m121 230v-60h-25c-13.75 0-25 11.25-25 25v10c0 13.75 11.25 25 25 25z"/></g><path d="m151.354 357.531c0 26.535 21.71 48.244 48.244 48.244h56.402c-22 0-40-17.999-40-40l-.001-20.557c-9.797-2.415-19.274-5.744-28.186-9.989-4.01 1.582-7.95 3.308-11.812 5.171-8.625 4.16-16.864 9.004-24.647 14.461v.011z" fill="#ffda8f"/><path d="m324.183 335.224c-.001.001-.003.001 0 0zm-28.183 30.551c0 22-18 40-40 40h56.401c26.535 0 48.244-21.71 48.244-48.244v-2.659-.011c-7.783-5.456-16.022-10.301-24.647-14.461-3.865-1.864-7.806-3.591-11.815-5.176-.362.172-.724.341-1.088.51-8.612 3.993-17.712 7.148-27.095 9.464z" fill="#ffda8f"/><path d="m86.353 439.669c12.454-34.492 35.43-64.065 65.001-84.797v-.011c7.783-5.456 16.022-10.3 24.647-14.461 3.862-1.863 7.801-3.589 11.812-5.171-1.009-.481-2.012-.973-3.007-1.478-.012-.006-.023-.012-.035-.017-8.217-4.147-15.94-9.089-22.982-14.824-11.278-9.17-20.388-20.037-27.114-32.377-8.661-15.863-13.675-34.706-13.675-56.533h-3.2-21.52l-1.232 1.495c-5.63 8.396-30.938 51.275-28.936 103.545 2.233 58.303 15.134 62.816 20.186 103.269l.019 1.457c.013-.033.024-.065.036-.097z" fill="#ddb9a3"/><path d="m425.647 439.669c-12.454-34.492-35.43-64.065-65.001-84.797v-.011c-7.783-5.456-16.022-10.3-24.647-14.461-3.862-1.863-7.802-3.589-11.812-5.171 1.009-.481 2.012-.973 3.006-1.478.012-.006.023-.012.035-.017 8.217-4.147 15.94-9.089 22.982-14.824 11.278-9.17 20.388-20.037 27.114-32.377 8.662-15.863 13.676-34.706 13.676-56.533h3.2 21.52l1.232 1.495c5.63 8.396 30.939 51.275 28.936 103.545-2.233 58.303-15.134 62.816-20.186 103.269l-.019 1.457c-.013-.033-.025-.065-.036-.097z" fill="#ddb9a3"/><path d="m306 90c0 44-36.003 80-80 80h-105v60c0 80.078 67.5 120 135 120s135-39.918 135-120v-60h-5c-43.997 0-80-36-80-80z" fill="#ffdcd5"/></g><g><path d="m315.851 448.688h-29.999c-5.522 0-10 4.477-10 10s4.478 10 10 10h29.999c5.522 0 10-4.477 10-10s-4.478-10-10-10z"/><path d="m385.001 78.941c2.088 0 4.193-.651 5.992-2l.006-.004c4.418-3.314 5.311-9.58 1.997-13.998-3.312-4.418-9.584-5.312-14.003-1.998-4.418 3.313-5.313 9.582-2 14 1.965 2.62 4.967 4 8.008 4z"/><path d="m190.975 228.897c5.522 0 10-4.477 10-10s-4.478-10-10-10h-.008c-5.522 0-9.996 4.477-9.996 10s4.481 10 10.004 10z"/><path d="m320.995 228.897c5.522 0 10-4.477 10-10s-4.478-10-10-10h-.007c-5.522 0-9.997 4.477-9.997 10s4.482 10 10.004 10z"/><path d="m455.879 335.375c1.693-44.207-14.805-81.349-24.392-98.992 11.552-5.724 19.513-17.641 19.513-31.383v-10c0-15.826-10.558-29.232-25-33.545v-1.455c0-18.917-3.314-37.47-9.852-55.142-1.916-5.18-7.665-7.827-12.849-5.91-5.18 1.916-7.825 7.668-5.909 12.848 5.714 15.444 8.61 31.662 8.61 48.204h-20c-38.598 0-70-31.402-70-70 0-5.523-4.478-10-10-10s-10 4.477-10 10c0 38.598-31.402 70-70 70h-120c0-77.196 62.804-140 139.999-140h20.001c29.083 0 57.023 8.942 80.802 25.859 4.503 3.202 10.745 2.147 13.945-2.351 3.201-4.5 2.148-10.744-2.352-13.946-27.182-19.339-59.132-29.562-92.395-29.562h-20.001c-42.572 0-82.705 16.688-113.008 46.991s-46.991 70.437-46.991 113.009v1.455c-14.442 4.313-25 17.719-25 33.545v10c0 13.764 7.986 25.697 19.567 31.41-9.442 17.509-26.133 55.031-24.447 99.012 1.37 35.79 6.657 52.244 11.771 68.156 3.269 10.173 6.361 19.798 8.326 34.725-6.741 19.38-10.217 39.832-10.217 60.681v3.018c0 5.523 4.478 10 10 10h360c5.522 0 10-4.477 10-10v-3.018c0-20.855-3.477-41.312-10.221-60.696 1.964-14.947 5.056-24.57 8.33-34.758 5.112-15.912 10.399-32.365 11.77-68.155zm-24.879-140.375v10c0 8.271-6.729 15-15 15h-15v-40h15c8.272 0 15 6.729 15 15zm-125-63.792c14.253 27.558 42.334 46.857 75 48.654v50.138c0 75.577-64.796 110-125 110s-125-34.422-125-110v-50h95c34.784 0 65.025-19.838 80-48.792zm-100.001 221.673v12.875c0 11.255 3.739 21.654 10.039 30.019h-16.44c-20.247 0-36.869-15.815-38.163-35.74 8.187-5.323 16.922-9.985 26.148-13.896 5.92 2.602 12.073 4.854 18.416 6.742zm50 42.875c-16.542 0-30-13.458-30-30v-8.242c9.733 1.643 19.776 2.486 30.001 2.486s20.268-.843 29.999-2.486v8.242c0 16.542-13.458 30-30 30zm50-30v-12.875c6.343-1.888 12.497-4.14 18.417-6.742 9.225 3.911 17.961 8.573 26.147 13.896-1.294 19.926-17.916 35.741-38.163 35.741h-16.44c6.301-8.367 10.039-18.765 10.039-30.02zm-224.999-170.756c0-8.271 6.729-15 15-15h15v40h-15c-8.271 0-15-6.729-15-15zm5.932 202.46c-4.917-15.302-9.561-29.754-10.827-62.803-1.762-45.993 18.941-83.987 25.399-94.657h9.832c2.434 35.882 18.092 66.113 45.655 87.879 2.856 2.255 5.818 4.4 8.877 6.432-26.949 14.147-50.05 34.678-67.451 60.092-2.962 4.327-5.73 8.755-8.299 13.273-1.044-3.551-2.121-6.901-3.186-10.216zm289.067 94.542v-33.314c0-5.523-4.478-10-10-10s-10 4.477-10 10v33.314h-200v-33.314c0-5.523-4.478-10-10-10s-10 4.477-10 10v33.314h-49.853c1.936-46.486 23.125-89.058 57.416-118.563 6.939 24.408 29.433 42.336 56.036 42.336h112.803c26.604 0 49.098-17.928 56.037-42.337 34.292 29.505 55.481 72.078 57.417 118.564zm59.895-157.392c-1.266 33.048-5.91 47.5-10.826 62.802-1.068 3.324-2.148 6.684-3.194 10.247-2.566-4.513-5.33-8.935-8.289-13.256-17.402-25.414-40.503-45.945-67.453-60.092 3.06-2.032 6.022-4.177 8.878-6.433 27.562-21.766 43.221-51.997 45.655-87.878h9.84c6.669 11.087 27.135 49.041 25.389 94.61z"/><path d="m250.324 272.943c2.038.404 4.064.602 6.059.602 9.322 0 17.908-4.322 23.3-12.01 3.171-4.522 2.076-10.758-2.445-13.929-4.522-3.172-10.759-2.076-13.93 2.446-1.93 2.75-5.416 4.004-9.088 3.274-2.427-.482-4.767-1.792-6.588-3.689-3.826-3.985-10.155-4.113-14.14-.289-3.983 3.825-4.113 10.155-.288 14.139 4.631 4.825 10.712 8.183 17.12 9.456z"/></g></g><g/><g/><g/><g/><g/><g/><g/><g/><g/><g/><g/><g/><g/><g/><g/></svg>